<?xml version="1.0" encoding="utf-8"?>
<!-- Generator: Adobe Illustrator 21.0.0, SVG Export Plug-In . SVG Version: 6.00 Build 0)  -->
<!DOCTYPE svg PUBLIC "-//W3C//DTD SVG 1.1//EN" "http://www.w3.org/Graphics/SVG/1.1/DTD/svg11.dtd" [
	<!ENTITY st0 "fill:#3F4241;">
	<!ENTITY st1 "fill:#3E3F3E;">
	<!ENTITY st2 "fill:#474948;">
	<!ENTITY st3 "fill:#272827;">
	<!ENTITY st4 "fill:#2C2D2C;">
	<!ENTITY st5 "fill:#3C3D3C;">
	<!ENTITY st6 "fill:#252625;">
	<!ENTITY st7 "fill:#2D2D2D;">
	<!ENTITY st8 "fill:#F4F3ED;">
	<!ENTITY st9 "fill:#EAE9E4;">
	<!ENTITY st10 "fill:#D1CFC9;">
	<!ENTITY st11 "fill:#DDDDDD;">
	<!ENTITY st12 "fill:#C9C9C9;">
	<!ENTITY st13 "fill:#888889;">
	<!ENTITY st14 "fill:#ADADAD;">
	<!ENTITY st15 "fill:#D8B355;">
	<!ENTITY st16 "fill:#E5C776;">
	<!ENTITY st17 "fill:#F2D98B;">
	<!ENTITY st18 "fill:#F2E7C7;">
	<!ENTITY st19 "fill:#BABABA;">
	<!ENTITY st20 "fill:#A1C1D6;">
	<!ENTITY st21 "fill:#1E5476;">
	<!ENTITY st22 "fill:#174D68;">
	<!ENTITY st23 "fill:#658DB0;">
	<!ENTITY st24 "fill:#5A91AF;">
	<!ENTITY st25 "fill:#E86767;">
	<!ENTITY st26 "fill:#E05C5C;">
	<!ENTITY st27 "fill:#C13333;">
	<!ENTITY st28 "fill:#CC3E3E;">
	<!ENTITY st29 "fill:#D85555;">
	<!ENTITY st30 "fill:#C8BDA1;">
	<!ENTITY st31 "fill:#BCAF93;">
	<!ENTITY st32 "fill:#D8CEB6;">
	<!ENTITY st33 "fill:#A3967B;">
	<!ENTITY st34 "fill:#8E8169;">
	<!ENTITY st35 "fill:none;">
]>
<svg version="1.1" xmlns="http://www.w3.org/2000/svg" xmlns:xlink="http://www.w3.org/1999/xlink" x="0px" y="0px"
	 viewBox="0 0 178.49 201.13" style="enable-background:new 0 0 178.49 201.13;" xml:space="preserve">
<g id="Background">
</g>
<g id="Objects">
	<polygon style="&st0;" points="-821.14,380.63 -839.86,412.07 -839.54,407.97 	"/>
	<g>
		<path style="&st1;" d="M406.26,744.14c-0.41-4.11-9.46-113.48-10.69-130.75c-1.23-17.27-4.93-60.44-5.76-71.54
			c-0.82-11.1-4.83-35.67-4.83-35.67h-91.4c0,0-4.01,24.57-4.83,35.67c-0.82,11.1-4.52,54.27-5.76,71.54
			c-1.23,17.27-10.28,126.64-10.69,130.75l32.07,4.94l34.91-185.63l34.91,185.63L406.26,744.14z"/>
		<polygon style="&st2;" points="292.46,513.28 386.1,513.28 384.98,506.19 293.58,506.19 		"/>
		<path style="&st1;" d="M333.18,506.19c0,0-5.4,2.77,0,7.09h52.92l-1.12-7.09H333.18z"/>
		<g>
			<g>
				<circle style="&st3;" cx="334.84" cy="509.73" r="1.97"/>
				<g>
					<rect x="315.5" y="504.65" style="&st4;" width="3.7" height="10.28"/>
					<rect x="350.86" y="504.65" style="&st4;" width="3.7" height="10.28"/>
				</g>
			</g>
			<g>
				<g>
					<path style="&st4;" d="M292.46,513.28L292.46,513.28c-1.18,7.68-2.96,19.84-3.61,27.32l0.03,0.02l18.4-27.34H292.46z"/>
					<path style="&st4;" d="M386.14,513.28L386.14,513.28c1.18,7.68,2.96,19.84,3.61,27.32l-0.03,0.02l-18.4-27.34H386.14z"/>
				</g>
				<g>
					<path style="&st4;" d="M338.58,513.28v43.33c0,0,7.86-3.55,9.1-5.7v-37.62H338.58z"/>
					<g>
						<g>
							<polygon style="&st4;" points="316.96,525 316.96,555.68 314.03,555.68 							"/>
							<polygon style="&st4;" points="311.43,570.29 300,642.37 288.56,739.5 302.8,643.77 							"/>
						</g>
						<g>
							<polygon style="&st4;" points="360.47,525 360.47,555.68 363.4,555.68 							"/>
							<polygon style="&st4;" points="366.89,570.29 378.32,642.37 389.75,739.5 375.51,643.77 							"/>
						</g>
					</g>
				</g>
			</g>
		</g>
	</g>
	<g>
		<path style="&st2;" d="M77.97,7.08h26.46c0,0-3.06,21.35-3.93,23.85c-0.88,2.5-10.13,25.79-10.13,25.79l-9.82-26.31L77.97,7.08z"
			/>
		<g>
			<path style="&st5;" d="M40.43,181.55c0.31-5.67,2.05-14.16,3.61-23.17c0-0.09-1.88-58.3,1.9-74.63
				c-0.11-0.32-0.14-2.66-0.14-2.66c-2.55-35.86-6.96-48.28-9.04-53.41l-1.17-2.43c0,0-5.83-1.34-7.18,6.28
				c-1.35,7.63-13.23,80.96-13.46,102.71c-0.22,21.75,1.57,47.32,1.57,47.32L40.43,181.55L40.43,181.55z"/>
			<path style="&st1;" d="M91.2,186.72l7.92,9.57c0,0,42.46-6.73,43.95-9.57c0,0-4.7-28.26-6.39-37.23
				c-1.69-8.97-3.78-50.17-3.78-50.17l3.78-15.57c0,0,3.54-46.99,10.35-58.51c0,0-29.06-9.01-36.1-11.89l6.73,18.17l-4.6,2.36
				l5.38,6.5c0,0-42.42,48.48-45.26,52.36C73.19,92.75,69.52,128.86,91.2,186.72z"/>
			<path style="&st2;" d="M70.91,13.7L35.59,25.25c0,0,6.73,9.72,10.17,58.01c0,0,3.44,9.42,4.34,13.9c0,0,0.45,20.33-1.79,34.54
				c-2.24,14.2-7.62,40.07-7.92,51.13c0,0,10.91,9.27,40.82,13.46c0,0,8.22-4.34,10.02-9.57c0,0-9.12-28.7-11.81-41.86
				c-2.69-13.16-7.18-42.16-5.83-52.48l12.86-27.66L65.04,38.4l4.63-7.18l-5.23-2.39L70.91,13.7z"/>
			<path style="&st5;" d="M142.2,181.55c-1.16-6.98-2.64-13.26-4.2-22.27c0-0.09,2.48-59.2-1.3-75.53c0.11-0.32,0-1.77,0-1.77
				c2.55-35.86,7.1-49.17,9.18-54.31l1.17-2.43c0,0,5.83-1.34,7.18,6.28c1.35,7.63,13.23,80.96,13.46,102.71
				c0.22,21.75-1.57,47.32-1.57,47.32L142.2,181.55L142.2,181.55z"/>
			<g>
				<path style="&st6;" d="M86.42,64.72c0,0,12.41-30.61,13.87-34.87c1.46-4.26,4.15-22.76,4.15-22.76l6.5,6.28l6.73,18.17
					l-4.6,2.36l5.38,6.5L73.56,92.38L86.42,64.72z"/>
				<polygon style="&st6;" points="70.91,13.7 77.97,7.08 80.55,28.61 90.9,56.72 86.94,66.51 65.04,38.4 69.67,31.23 64.44,28.84 
									"/>
			</g>
			<g>
				<polygon style="&st7;" points="114.97,68.45 103.01,68.45 103.01,93.3 104.67,95.52 114.97,95.52 125.26,95.52 126.92,93.3 
					126.92,68.45 				"/>
				<rect x="103.01" y="68.45" style="&st6;" width="23.91" height="6.14"/>
			</g>
			<g>
				<circle style="&st6;" cx="80.7" cy="97.01" r="3.29"/>
				<circle style="&st6;" cx="80.7" cy="122.13" r="3.29"/>
			</g>
		</g>
	</g>
	<g>
		<g>
			<g>
				<path style="&st8;" d="M807.48,112.72c-0.12-0.8-0.18-1.25-0.18-1.25c0.39-18.58-10.54-42.08-10.54-42.08s-6.05,2.99-7.8,9.61
					c-1.76,6.62-6.44,40.16-8.39,61.3c-1.95,21.15-3.71,52.97-2.54,57.03l-0.38,15.17h17.94v-13.46L807.48,112.72L807.48,112.72z"/>
				<polygon style="&st9;" points="795.59,197.34 778.03,197.34 777.65,212.51 795.59,212.51 795.59,199.05 795.78,197.7 				"/>
			</g>
			<g>
				<path style="&st8;" d="M890.44,112.72c0.12-0.8,0.18-1.25,0.18-1.25c-0.39-18.58,10.54-42.08,10.54-42.08s6.05,2.99,7.8,9.61
					c1.76,6.62,6.44,40.16,8.39,61.3c1.95,21.15,3.71,52.97,2.54,57.03l0.38,15.17h-17.94v-13.46L890.44,112.72L890.44,112.72z"/>
				<polygon style="&st9;" points="902.32,197.34 919.88,197.34 920.26,212.51 902.32,212.51 902.32,199.05 902.14,197.7 				"/>
			</g>
		</g>
		<g>
			<path style="&st9;" d="M890.62,111.47c-0.39-18.58,10.54-42.08,10.54-42.08l-32.97-15.81h-18.94h-0.57h-18.94l-32.97,15.81
				c0,0,10.93,23.5,10.54,42.08c0,0,6.44,44,5.95,50.2c-0.49,6.19-6.93,52.76-6.93,52.76s2.93,5.55,17.17,5.55
				c12.39,0,22.7,0,25.18,0c0.37,0,0.57,0,0.57,0c2.48,0,12.8,0,25.18,0c14.24,0,17.17-5.55,17.17-5.55s-6.44-46.57-6.93-52.76
				C884.18,155.48,890.62,111.47,890.62,111.47z"/>
			<g>
				<g>
					<polygon style="&st8;" points="833.5,44.5 828.07,57.21 835.59,72.49 848.54,59.67 					"/>
					<polygon style="&st8;" points="864.52,44.5 869.95,57.21 862.44,72.49 849.48,59.67 					"/>
				</g>
				<polygon style="&st9;" points="833.5,44.5 864.52,44.5 849.48,59.67 848.54,59.67 				"/>
				<g>
					<polygon style="&st8;" points="844.46,63.71 848.54,59.67 849.48,59.67 853.57,63.71 853.57,219.98 845.19,219.98 					"/>
					<g>
						<ellipse style="&st10;" cx="848.76" cy="63.23" rx="1.2" ry="1.32"/>
						<ellipse style="&st10;" cx="848.76" cy="80.32" rx="1.2" ry="1.32"/>
						<ellipse style="&st10;" cx="848.76" cy="97.41" rx="1.2" ry="1.32"/>
						<ellipse style="&st10;" cx="848.76" cy="114.5" rx="1.2" ry="1.32"/>
						<ellipse style="&st10;" cx="848.76" cy="131.59" rx="1.2" ry="1.32"/>
						<ellipse style="&st10;" cx="848.76" cy="148.67" rx="1.2" ry="1.32"/>
						<ellipse style="&st10;" cx="848.76" cy="165.76" rx="1.2" ry="1.32"/>
						<ellipse style="&st10;" cx="848.76" cy="182.85" rx="1.2" ry="1.32"/>
					</g>
				</g>
			</g>
		</g>
	</g>
	<g>
		<g>
			<path style="&st11;" d="M156.71,687.41c-0.79-5.1-2.35-44.83-2.48-57.51c-0.13-12.68-3-86.4-4.84-101.69
				c-1.83-15.29-5.1-17.91-5.1-17.91c1.7-5.36-1.57-8.63-1.57-8.63h-42.35H58.02c0,0-3.27,3.27-1.57,8.63c0,0-3.27,2.61-5.1,17.91
				c-1.83,15.29-4.71,89.01-4.84,101.69c-0.13,12.68-1.7,52.42-2.48,57.51c-0.78,5.1-2.87,23.53-1.83,29.28
				c1.05,5.75,0.26,15.55,4.97,17.65l0.13,5.23c0,0,12.68,3.01,22.48,0v-5.23c0,0,5.1-1.18,5.49-6.67
				c0.39-5.49,3.4-20.13,5.36-26.01c1.96-5.88,5.23-34.9,7.19-43.79c1.96-8.89,7.45-47.58,7.97-53.59
				c0.52-6.02,1.96-27.19,4.57-27.06c2.62-0.13,4.05,21.04,4.58,27.06c0.52,6.01,6.01,44.7,7.97,53.59
				c1.96,8.89,5.23,37.91,7.19,43.79c1.96,5.88,4.97,20.52,5.36,26.01c0.39,5.49,5.49,6.67,5.49,6.67v5.23c9.8,3.01,22.48,0,22.48,0
				l0.13-5.23c4.71-2.09,3.92-11.89,4.96-17.65C159.58,710.94,157.49,692.51,156.71,687.41z"/>
			<g>
				<path style="&st12;" d="M142.72,501.67h-42.35H58.02c0,0-3.27,3.27-1.57,8.63h87.84C145.99,504.94,142.72,501.67,142.72,501.67z
					"/>
				<g>
					<rect x="99.98" y="510.3" style="&st12;" width="0.78" height="66.92"/>
				</g>
				<g>
					<g>
						<circle style="&st13;" cx="94.28" cy="505.97" r="1.32"/>
						<g>
							<rect x="93.88" y="522" style="&st13;" width="0.79" height="3.53"/>
							<path style="&st14;" d="M95.22,521.72c0,0.73-0.42,1.32-0.94,1.32l0,0c-0.52,0-0.94-0.59-0.94-1.32v-14.43
								c0-0.73,0.42-1.32,0.94-1.32l0,0c0.52,0,0.94,0.59,0.94,1.32V521.72z"/>
						</g>
					</g>
					<g>
						<circle style="&st13;" cx="105.8" cy="505.97" r="1.32"/>
						<g>
							<rect x="105.4" y="522" style="&st13;" width="0.79" height="3.53"/>
							<path style="&st14;" d="M106.74,521.72c0,0.73-0.42,1.32-0.94,1.32l0,0c-0.52,0-0.94-0.59-0.94-1.32v-14.43
								c0-0.73,0.42-1.32,0.94-1.32l0,0c0.52,0,0.94,0.59,0.94,1.32V521.72z"/>
						</g>
					</g>
				</g>
			</g>
		</g>
		<g>
			<path style="&st12;" d="M47.17,734.33l0.13,5.23c0,0,12.68,3.01,22.48,0v-5.23C57.11,736.23,47.17,734.33,47.17,734.33z"/>
			<path style="&st12;" d="M153.62,734.33l-0.13,5.23c0,0-12.68,3.01-22.48,0v-5.23C143.68,736.23,153.62,734.33,153.62,734.33z"/>
		</g>
	</g>
	<g>
		<path style="&st15;" d="M352.92,257.82h-37.24c8.05,4.03,14.6,4.77,18.62,4.77C338.98,262.59,344.86,261.85,352.92,257.82z"/>
		<g>
			<path style="&st16;" d="M378.8,333.29c11.95,6.17,32.26-10.35,32.26-10.35l-22.9-51.97c0,0-12.39,25.49-12.97,38.83L378.8,333.29
				z"/>
			<path style="&st17;" d="M378.8,333.29l-3.61-23.5c0.57-13.34,12.97-38.83,12.97-38.83l-35.24-13.14
				c-8.06,4.03-13.94,4.77-18.62,4.77c-4.02,0-10.56-0.73-18.62-4.77l-35.24,13.14c0,0,12.4,25.49,12.97,38.83l-3.61,23.5
				l-7.57,93.99c0,0,5.14,3.35,51.77,3.38l0,0c0.1,0,0.2,0,0.3,0c0.1,0,0.2,0,0.3,0l0,0c46.63-0.03,51.77-3.38,51.77-3.38
				L378.8,333.29z"/>
			<path style="&st16;" d="M289.8,333.29c-11.95,6.17-32.26-10.35-32.26-10.35l22.9-51.97c0,0,12.4,25.49,12.97,38.83L289.8,333.29z
				"/>
			<path style="&st18;" d="M312.89,258.87c0,0,6.31,6.32,21.41,6.32c15.1,0,21.41-6.32,21.41-6.32l-2.79-1.04
				c0,0-8.83,4.69-18.85,4.77c-10.02,0.08-18.39-4.77-18.39-4.77L312.89,258.87z"/>
		</g>
	</g>
	<g>
		<g>
			<path style="&st19;" d="M798.46,333.2c0,0-4.08,1.96-5.79,18.4c0,0-0.86,25.25-1.72,37.39c-0.86,12.14-1.93,23.1-3,25.84
				c-1.07,2.74,0.21,7.05,0,12.92c-0.21,5.87,0.64,26.23-0.43,34.45c-1.07,8.22-5.15,13.51-3.43,14.68
				c1.72,1.17,2.15,1.56,2.36,3.72c0.21,2.15-2.15,9.2-1.72,11.74c0.43,2.54,14.59,4.7,19.31,3.33c4.72-1.37,0.86-4.39,2.36-7.57
				c1.5-3.19,2.36-7.1,4.08-8.47c1.72-1.37-0.86-4.31-1.29-8.81c-0.43-4.5-0.98-12.92,1.87-24.08c2.85-11.16,4.99-20.36,4.14-22.9
				c-0.86-2.55,0.21-11.35,1.29-14.29c1.07-2.94-0.43-6.79,0-8.58c0.43-1.79,2.79-7.47,2.36-9.81c-0.43-2.35-0.21-8.03,1.72-8.61
				L798.46,333.2z"/>
			<g>
				<path style="&st11;" d="M810.33,479.93c0.27-0.22,0.73-0.91,0.73-1.63c-16.4,1.53-27.34-2.02-27.34-2.02
					c0.48,2.15,2.09,2.21,2.32,4.44c0.22,2.23-2.24,9.54-1.79,12.19c0.45,2.64,15.22,4.87,20.14,3.45c4.92-1.42,0.9-4.55,2.46-7.86
					C808.41,485.19,808.54,481.35,810.33,479.93z"/>
				<path style="&st12;" d="M786.04,481.24c-0.04,0.91-0.3,2.27-0.62,3.76l21.64,3.02c0.52-1.22,0.88-2.5,1.21-3.68L786.04,481.24z"
					/>
				<path style="&st12;" d="M784.2,491.7l22.51,3.14c0.53-1.06-0.05-2.4-0.21-3.88l-21.71-3.03
					C784.49,489.31,784.25,490.64,784.2,491.7z"/>
			</g>
		</g>
		<g>
			<path style="&st19;" d="M922.45,333.2c0,0,4.08,1.96,5.79,18.4c0,0,0.86,25.25,1.72,37.39c0.86,12.14,1.93,23.1,3,25.84
				c1.07,2.74-0.21,7.05,0,12.92c0.21,5.87-0.64,26.23,0.43,34.45c1.07,8.22,5.14,13.51,3.43,14.68c-1.72,1.17-2.14,1.56-2.36,3.72
				c-0.22,2.15,2.14,9.2,1.71,11.74c-0.43,2.54-14.59,4.7-19.3,3.33c-4.72-1.37-0.86-4.39-2.36-7.57c-1.5-3.19-2.36-7.1-4.08-8.47
				c-1.72-1.37,0.86-4.31,1.29-8.81c0.43-4.5,0.98-12.92-1.87-24.08c-2.85-11.16-4.99-20.36-4.14-22.9
				c0.86-2.55-0.21-11.35-1.29-14.29c-1.07-2.94,0.43-6.79,0-8.58c-0.43-1.79-2.79-7.47-2.36-9.81c0.43-2.35,0.21-8.03-1.72-8.61
				L922.45,333.2z"/>
			<g>
				<path style="&st11;" d="M910.59,479.93c-0.27-0.22-0.73-0.91-0.73-1.63c16.4,1.53,27.34-2.02,27.34-2.02
					c-0.48,2.15-2.09,2.21-2.31,4.44c-0.22,2.23,2.24,9.54,1.79,12.19c-0.45,2.64-15.22,4.87-20.14,3.45
					c-4.92-1.42-0.9-4.55-2.46-7.86C912.51,485.19,912.38,481.35,910.59,479.93z"/>
				<g>
					<path style="&st12;" d="M934.89,481.24c0.04,0.91,0.3,2.27,0.63,3.76l-21.64,3.02c-0.52-1.22-0.88-2.5-1.21-3.68L934.89,481.24
						z"/>
					<path style="&st12;" d="M936.73,491.7l-22.51,3.14c-0.53-1.06,0.05-2.4,0.21-3.88l21.72-3.03
						C936.44,489.31,936.68,490.64,936.73,491.7z"/>
				</g>
			</g>
		</g>
		<g>
			<path style="&st11;" d="M922.45,333.2c-1.07-1.96-7.08-4.31-16.73-6.66c-9.65-2.35-24.24-12.72-24.24-12.72l-21.03,19.19
				l-21.03-19.19c0,0-14.59,10.37-24.24,12.72c-9.65,2.35-15.66,4.7-16.73,6.66c0,0,3.65,13.5,8.58,20.36
				c0,0,4.93,21.53,13.51,28.97c0,0-2.57,27.21-3,45.22c-0.43,18.01-4.29,32.1,2.57,38.36c0,0,0.86,9.2-1.18,12.53
				c-2.04,3.33-0.97,5.87-0.97,5.87s12.44,4.11,23.81,3.52c11.21-0.58,13.66-2.49,18.67-2.54c5,0.05,7.46,1.96,18.67,2.54
				c11.37,0.59,23.81-3.52,23.81-3.52s1.07-2.55-0.96-5.87c-2.04-3.33-1.18-12.53-1.18-12.53c6.86-6.26,3-20.36,2.57-38.36
				c-0.43-18.01-3-45.22-3-45.22c8.58-7.44,13.51-28.97,13.51-28.97C918.81,346.7,922.45,333.2,922.45,333.2z"/>
			<g>
				<g>
					<polygon style="&st13;" points="845.86,309.12 875.05,309.12 860.61,332.78 					"/>
					<g>
						<path style="&st19;" d="M881.49,313.82c-3.43-0.2-6.44-4.7-6.44-4.7l-14.59,23.4l-14.59-23.4c0,0-3,4.5-6.44,4.7
							c0,0,0.64,17.52,20.65,19.3l-0.05,0.07c0.15-0.01,0.28-0.03,0.42-0.04c0.14,0.01,0.28,0.03,0.42,0.04l-0.05-0.07
							C880.84,331.34,881.49,313.82,881.49,313.82z"/>
						<g>
							<g>
								<polygon style="&st19;" points="857.88,485.68 857.02,485.81 857.02,334.73 860.61,332.78 862.01,332.51 857.88,335.18 
																	"/>
							</g>
							<g>
								<ellipse style="&st19;" cx="862.17" cy="339.85" rx="2.14" ry="1.96"/>
								<ellipse style="&st19;" cx="862.17" cy="363.34" rx="2.14" ry="1.96"/>
								<ellipse style="&st19;" cx="862.17" cy="386.83" rx="2.14" ry="1.96"/>
								<ellipse style="&st19;" cx="862.17" cy="410.31" rx="2.14" ry="1.96"/>
								<ellipse style="&st19;" cx="862.17" cy="433.8" rx="2.14" ry="1.96"/>
								<ellipse style="&st19;" cx="862.17" cy="457.29" rx="2.14" ry="1.96"/>
								<ellipse style="&st19;" cx="862.17" cy="480.78" rx="2.14" ry="1.96"/>
							</g>
						</g>
					</g>
				</g>
				<g>
					<g>
						<path style="&st12;" d="M849.68,471.96c-0.08-1.52-0.14-2.61-0.23-3.16c-0.34-2.18-4.02-2.06-10.69-1.83
							c-1.27,0.04-2.65,0.09-4.13,0.12c-7.26,0.18-13.16-0.96-14.85-1.33c0.11,0.11,0.22,0.23,0.34,0.33c0,0,0.02,0.22,0.05,0.6
							c2.28,0.46,7.82,1.39,14.49,1.23c1.48-0.04,2.86-0.08,4.14-0.13c5.74-0.2,9.52-0.32,9.75,1.12c0.08,0.51,0.14,1.64,0.22,3.08
							c0.23,4.22,0.6,10.97,2.02,15.07c0.31-0.05,0.61-0.11,0.9-0.16C850.29,482.9,849.9,475.91,849.68,471.96z"/>
						<g>
							<path style="&st12;" d="M820,475.17h24v-4.04H820.3C820.28,472.45,820.2,473.87,820,475.17z"/>
							<path style="&st12;" d="M818.95,478.63c-0.9,1.46-1.19,2.77-1.24,3.78h26.3v-4.04h-24.92
								C819.04,478.46,818.99,478.54,818.95,478.63z"/>
						</g>
					</g>
					<g>
						<path style="&st12;" d="M871.25,471.96c0.08-1.52,0.14-2.61,0.23-3.16c0.34-2.18,4.02-2.06,10.69-1.83
							c1.27,0.04,2.65,0.09,4.13,0.12c7.26,0.18,13.16-0.96,14.85-1.33c-0.11,0.11-0.22,0.23-0.34,0.33c0,0-0.02,0.22-0.05,0.6
							c-2.28,0.46-7.82,1.39-14.5,1.23c-1.48-0.04-2.86-0.08-4.14-0.13c-5.73-0.2-9.52-0.32-9.75,1.12
							c-0.08,0.51-0.14,1.64-0.22,3.08c-0.23,4.22-0.6,10.97-2.02,15.07c-0.31-0.05-0.61-0.11-0.9-0.16
							C870.65,482.9,871.03,475.91,871.25,471.96z"/>
						<g>
							<path style="&st12;" d="M900.93,475.17h-24v-4.04h23.71C900.65,472.45,900.73,473.87,900.93,475.17z"/>
							<path style="&st12;" d="M901.99,478.63c0.9,1.46,1.19,2.77,1.24,3.78h-26.3v-4.04h24.92
								C901.89,478.46,901.94,478.54,901.99,478.63z"/>
						</g>
					</g>
				</g>
			</g>
		</g>
	</g>
	<g>
		<path style="&st20;" d="M651.57,513.65c-0.28-2.79,0.28-14.88,0-18.2c-0.28-3.32-3.61-42.25-4.16-46.9
			c-0.56-4.65-2.22-21.26-2.78-25.42c-0.55-4.16-0.97-16.83-1.8-23.87c-0.83-7.05-2.36-35.88-2.69-37.74
			c-0.33-1.86-0.92-9.96-0.22-12.89c0.69-2.92-0.42-4.65-0.83-7.44c-0.42-2.79-1.39-20.33-1.67-21.39
			c-0.28-1.06-0.42-4.52-1.11-7.17c-0.69-2.66-1.11-6.51-1.11-6.51c0.14-1.33-0.97-9.43-0.97-9.43h-45.67h-45.67
			c0,0-1.11,8.1-0.97,9.43c0,0-0.42,3.85-1.11,6.51c-0.69,2.66-0.83,6.11-1.11,7.17c-0.28,1.06-1.25,18.6-1.67,21.39
			c-0.42,2.79-1.53,4.52-0.83,7.44c0.69,2.92,0.11,11.03-0.22,12.89c-0.33,1.86-1.86,30.69-2.69,37.74
			c-0.83,7.04-1.25,19.71-1.8,23.87c-0.56,4.16-2.22,20.77-2.78,25.42c-0.55,4.65-3.89,43.58-4.16,46.9
			c-0.28,3.32,0.28,15.41,0,18.2c-0.28,2.79-2.64,24.98-1.94,26.71c0,0,18.88-3.05,29.71,0.8c0,0,1.53-3.46,1.8-5.32
			c0.28-1.86-1.39-5.18-0.69-5.98c0.69-0.8,3.89-6.24,3.75-8.63c-0.14-2.39-0.96-7.18,0-9.04c0.97-1.86,1.39-6.78,1.39-9.43
			s1.67-11.83,2.64-15.81c0.97-3.99,3.75-22.46,3.89-26.57c0.14-4.12,1.67-13.69,2.5-15.81c0.83-2.13,2.22-13.42,2.92-17.81
			c0.69-4.38,1.53-14.62,4.16-21.79c2.64-7.17,8.33-22.99,9.02-25.11c0.69-2.13,1.94-6.91,2.08-7.97l1.8-0.4l1.81,0.4
			c0.14,1.06,1.39,5.85,2.08,7.97c0.69,2.13,6.39,17.94,9.02,25.11c2.64,7.17,3.47,17.41,4.16,21.79
			c0.69,4.39,2.08,15.68,2.92,17.81c0.83,2.13,2.36,11.69,2.5,15.81c0.14,4.12,2.92,22.59,3.89,26.57
			c0.97,3.99,2.64,13.15,2.64,15.81s0.42,7.57,1.38,9.43c0.97,1.86,0.14,6.64,0,9.04c-0.14,2.39,3.05,7.84,3.75,8.63
			c0.69,0.8-0.97,4.12-0.69,5.98c0.28,1.86,1.81,5.32,1.81,5.32c10.83-3.85,29.71-0.8,29.71-0.8
			C654.21,538.63,651.85,516.44,651.57,513.65z"/>
		<g>
			<path style="&st21;" d="M541.91,306.11l0.97-9.43h91.34c0,0,0.78,7.88,0.97,9.43H541.91z"/>
			<g>
				<rect x="558.12" y="295.07" style="&st22;" width="3.19" height="11.96"/>
				<rect x="616.48" y="295.07" style="&st22;" width="3.19" height="11.96"/>
			</g>
			<g>
				<path style="&st23;" d="M585.49,296.67v9.43h2.39v65.49l1.68,0.11l0.04-18.56c0,0,6.64,1.2,6.64-11.03c0-12.22,0-36.01,0-36.01
					v-9.43H585.49z"/>
				<circle style="&st20;" cx="590.61" cy="300.92" r="1.53"/>
				<path style="&st23;" d="M570.74,306.11c0,0,3.99,18.59-31.29,15.94l-0.21,2.79c0,0,34.69,5.71,34.69-18.73H570.74z"/>
				<path style="&st23;" d="M606.32,306.11c0,0-3.98,18.59,31.29,15.94l0.21,2.79c0,0-34.69,5.71-34.69-18.73H606.32z"/>
				<g>
					<path style="&st24;" d="M553.29,541.15c0,0,0.59-1.34,1.11-2.81c-14.37-4.56-30.17-1.28-30.91-1.12
						c-0.06,1.64-0.04,2.79,0.09,3.13C523.58,540.36,542.46,537.3,553.29,541.15z"/>
					<path style="&st24;" d="M623.81,541.15c0,0-0.59-1.34-1.11-2.81c14.37-4.56,30.17-1.28,30.91-1.12
						c0.06,1.64,0.04,2.79-0.09,3.13C653.52,540.36,634.64,537.3,623.81,541.15z"/>
				</g>
			</g>
		</g>
	</g>
	<g>
		<path style="&st25;" d="M155.57,274.11l-34.18-12.71h-20.6h-0.85h-20.6l-34.18,12.71c0,0,8.22,37.23,5.53,51.13l-0.42,97.48
			c0,0,11.67,14.57,49.67,14.79v0.01c0.14,0,0.28,0,0.42,0c0.15,0,0.28,0,0.43,0v-0.01c38-0.22,49.67-14.79,49.67-14.79l-0.42-97.48
			C147.35,311.33,155.57,274.11,155.57,274.11z"/>
		<g>
			<g>
				<path style="&st26;" d="M50.7,325.24c2.7-13.9-5.53-51.13-5.53-51.13l-33.94,27.21l28.11,32.29l11.36-7.47L50.7,325.24z"/>
				<polygon style="&st27;" points="17.52,296.28 45.78,329.37 39.34,333.61 11.23,301.32 				"/>
			</g>
			<g>
				<path style="&st26;" d="M150.16,325.24c-2.69-13.9,5.53-51.13,5.53-51.13l33.94,27.21l-28.11,32.29l-11.36-7.47L150.16,325.24z"
					/>
				<polygon style="&st27;" points="183.34,296.28 155.08,329.37 161.52,333.61 189.63,301.32 				"/>
			</g>
		</g>
		<g>
			<g>
				<polygon style="&st26;" points="89.31,261.4 92.12,281.13 101.76,289.65 98.96,298.74 87.97,278.78 87.97,261.4 				"/>
				<polygon style="&st26;" points="112.99,261.4 111.63,261.4 109.16,280.91 101.76,289.65 98.96,298.74 98.96,437.51 
					107.26,437.32 107.26,298.74 108.37,289.21 112.99,278.78 				"/>
				<g>
					<circle style="&st27;" cx="102.82" cy="299.47" r="1.85"/>
					<circle style="&st27;" cx="102.82" cy="320.1" r="1.85"/>
					<circle style="&st27;" cx="102.82" cy="340.73" r="1.85"/>
					<circle style="&st27;" cx="102.82" cy="361.36" r="1.85"/>
					<circle style="&st27;" cx="102.82" cy="381.99" r="1.85"/>
					<circle style="&st27;" cx="102.82" cy="402.63" r="1.85"/>
				</g>
				<polygon style="&st28;" points="89.2,260.43 92.12,281.13 101.76,289.65 109.16,280.91 111.85,260.87 				"/>
			</g>
			<g>
				<polygon style="&st29;" points="87.97,250.97 79.35,261.4 71.6,286.74 87.97,278.78 				"/>
				<polygon style="&st29;" points="112.99,250.97 121.6,261.4 129.36,286.74 112.99,278.78 				"/>
				<rect x="87.97" y="250.97" style="&st29;" width="25.02" height="10.43"/>
			</g>
		</g>
	</g>
	<g>
		<g>
			<path style="&st30;" d="M644.97,102.51c-5.38-21.98,4.49-68.17,4.49-68.17c-0.08-0.12-0.2-0.24-0.3-0.36l0.3-0.91
				c0,0,8.52,4.78,13.01,16.74c4.48,11.96,19.44,113.25,18.54,137.06l-27.51,5.34l-8.36-85.44
				C645.04,104.08,644.97,102.51,644.97,102.51z"/>
			<path style="&st30;" d="M521.85,102.51c5.38-21.98-4.49-68.17-4.49-68.17c0.08-0.12,0.2-0.24,0.3-0.36l-0.3-0.91
				c0,0-8.52,4.78-13.01,16.74c-4.49,11.96-19.44,113.25-18.54,137.06l27.51,5.34l8.36-85.44
				C521.77,104.08,521.85,102.51,521.85,102.51z"/>
		</g>
		<g>
			<path style="&st31;" d="M650.35,33.44c-4.26-6.05-37.68-14.35-37.68-14.35l-29.26-2.02l0,0l0,0h0l0,0l-29.27,2.02
				c0,0-33.41,8.3-37.68,14.35c0,0,9.87,46.2,4.49,68.18c0,0-2.69,57.19,4.93,80.06v14.11h57.52h0h57.52v-14.11
				c7.63-22.87,4.93-80.06,4.93-80.06C640.48,79.64,650.35,33.44,650.35,33.44z"/>
			<rect x="525.88" y="181.68" style="&st30;" width="115.05" height="14.11"/>
			<g>
				<g>
					<polygon style="&st32;" points="564.76,69.85 548.76,69.85 548.76,69.85 532.76,69.85 532.76,98.4 548.76,104.68 
						548.76,104.68 548.76,104.68 548.76,104.68 548.76,104.68 564.76,98.4 					"/>
					<polygon style="&st30;" points="548.76,61.79 548.76,61.79 531.57,61.79 531.57,69.85 535,73.43 548.76,73.43 548.76,73.43 
						562.51,73.43 565.95,69.85 565.95,61.79 					"/>
					<polygon style="&st32;" points="597.51,69.85 613.5,69.85 613.51,69.85 629.5,69.85 629.5,98.4 613.51,104.68 613.51,104.68 
						613.5,104.68 613.5,104.68 613.5,104.68 597.51,98.4 					"/>
					<polygon style="&st30;" points="613.5,61.79 613.51,61.79 630.7,61.79 630.7,69.85 627.26,73.43 613.51,73.43 613.5,73.43 
						599.75,73.43 596.31,69.85 596.31,61.79 					"/>
				</g>
				<g>
					<g>
						<g>
							<polygon style="&st33;" points="558.18,43.08 578.51,33.82 565.35,4.81 554.14,19.09 							"/>
							<polygon style="&st33;" points="606.78,43.08 586.44,33.82 599.6,4.81 610.81,19.09 							"/>
						</g>
						<polygon style="&st34;" points="565.35,4.81 599.6,4.81 586.44,33.82 578.51,33.82 						"/>
					</g>
					<g>
						<rect x="520.98" y="60.89" style="&st33;" width="60.6" height="0.9"/>
					</g>
					<g>
						<rect x="582.48" y="60.89" style="&st33;" width="63.3" height="0.9"/>
					</g>
					<g>
						<rect x="581.58" y="33.82" style="&st33;" width="1.79" height="161.98"/>
					</g>
				</g>
			</g>
		</g>
	</g>
	<rect id="_x3C_Slice_x3E_" x="2.57" y="2.08" style="&st35;" width="174" height="196"/>
	<rect id="_x3C_Slice_x3E__1_" x="769.73" y="300.68" style="&st35;" width="180" height="209"/>
	<rect id="_x3C_Slice_x3E__2_" x="461.57" y="8.08" style="&st35;" width="234" height="193"/>
	<rect id="_x3C_Slice_x3E__3_" x="767.57" y="39.08" style="&st35;" width="166" height="183"/>
	<rect id="_x3C_Slice_x3E__4_" x="504.57" y="290.08" style="&st35;" width="168" height="265"/>
</g>
</svg>
