<?xml version="1.0" encoding="utf-8"?>
<!-- Generator: Adobe Illustrator 21.0.0, SVG Export Plug-In . SVG Version: 6.00 Build 0)  -->
<!DOCTYPE svg PUBLIC "-//W3C//DTD SVG 1.1//EN" "http://www.w3.org/Graphics/SVG/1.1/DTD/svg11.dtd" [
	<!ENTITY st0 "fill:#3F4241;">
	<!ENTITY st1 "fill:#3E3F3E;">
	<!ENTITY st2 "fill:#474948;">
	<!ENTITY st3 "fill:#272827;">
	<!ENTITY st4 "fill:#2C2D2C;">
	<!ENTITY st5 "fill:#3C3D3C;">
	<!ENTITY st6 "fill:#252625;">
	<!ENTITY st7 "fill:#2D2D2D;">
	<!ENTITY st8 "fill:#F4F3ED;">
	<!ENTITY st9 "fill:#EAE9E4;">
	<!ENTITY st10 "fill:#D1CFC9;">
	<!ENTITY st11 "fill:#DDDDDD;">
	<!ENTITY st12 "fill:#C9C9C9;">
	<!ENTITY st13 "fill:#888889;">
	<!ENTITY st14 "fill:#ADADAD;">
	<!ENTITY st15 "fill:#D8B355;">
	<!ENTITY st16 "fill:#E5C776;">
	<!ENTITY st17 "fill:#F2D98B;">
	<!ENTITY st18 "fill:#F2E7C7;">
	<!ENTITY st19 "fill:#BABABA;">
	<!ENTITY st20 "fill:#A1C1D6;">
	<!ENTITY st21 "fill:#1E5476;">
	<!ENTITY st22 "fill:#174D68;">
	<!ENTITY st23 "fill:#658DB0;">
	<!ENTITY st24 "fill:#5A91AF;">
	<!ENTITY st25 "fill:#E86767;">
	<!ENTITY st26 "fill:#E05C5C;">
	<!ENTITY st27 "fill:#C13333;">
	<!ENTITY st28 "fill:#CC3E3E;">
	<!ENTITY st29 "fill:#D85555;">
	<!ENTITY st30 "fill:#C8BDA1;">
	<!ENTITY st31 "fill:#BCAF93;">
	<!ENTITY st32 "fill:#D8CEB6;">
	<!ENTITY st33 "fill:#A3967B;">
	<!ENTITY st34 "fill:#8E8169;">
	<!ENTITY st35 "fill:none;">
]>
<svg version="1.1" xmlns="http://www.w3.org/2000/svg" xmlns:xlink="http://www.w3.org/1999/xlink" x="0px" y="0px"
	 viewBox="0 0 175.49 194.65" style="enable-background:new 0 0 175.49 194.65;" xml:space="preserve">
<g id="Background">
</g>
<g id="Objects">
	<polygon style="&st0;" points="-340.19,380.63 -358.91,412.07 -358.59,407.97 	"/>
	<g>
		<path style="&st1;" d="M887.21,744.14c-0.41-4.11-9.46-113.48-10.69-130.75c-1.23-17.27-4.93-60.44-5.76-71.54
			c-0.82-11.1-4.83-35.67-4.83-35.67h-91.4c0,0-4.01,24.57-4.83,35.67c-0.82,11.1-4.52,54.27-5.76,71.54
			c-1.23,17.27-10.28,126.64-10.69,130.75l32.07,4.94l34.91-185.63l34.91,185.63L887.21,744.14z"/>
		<polygon style="&st2;" points="773.41,513.28 867.05,513.28 865.93,506.19 774.53,506.19 		"/>
		<path style="&st1;" d="M814.12,506.19c0,0-5.4,2.77,0,7.09h52.92l-1.12-7.09H814.12z"/>
		<g>
			<g>
				<circle style="&st3;" cx="815.78" cy="509.73" r="1.97"/>
				<g>
					<rect x="796.45" y="504.65" style="&st4;" width="3.7" height="10.28"/>
					<rect x="831.8" y="504.65" style="&st4;" width="3.7" height="10.28"/>
				</g>
			</g>
			<g>
				<g>
					<path style="&st4;" d="M773.41,513.28L773.41,513.28c-1.18,7.68-2.96,19.84-3.61,27.32l0.03,0.02l18.4-27.34H773.41z"/>
					<path style="&st4;" d="M867.08,513.28L867.08,513.28c1.18,7.68,2.96,19.84,3.61,27.32l-0.03,0.02l-18.4-27.34H867.08z"/>
				</g>
				<g>
					<path style="&st4;" d="M819.52,513.28v43.33c0,0,7.86-3.55,9.1-5.7v-37.62H819.52z"/>
					<g>
						<g>
							<polygon style="&st4;" points="797.91,525 797.91,555.68 794.98,555.68 							"/>
							<polygon style="&st4;" points="792.38,570.29 780.94,642.37 769.51,739.5 783.75,643.77 							"/>
						</g>
						<g>
							<polygon style="&st4;" points="841.42,525 841.42,555.68 844.35,555.68 							"/>
							<polygon style="&st4;" points="847.83,570.29 859.26,642.37 870.7,739.5 856.46,643.77 							"/>
						</g>
					</g>
				</g>
			</g>
		</g>
	</g>
	<g>
		<path style="&st2;" d="M558.92,7.08h26.46c0,0-3.06,21.35-3.93,23.85c-0.88,2.5-10.13,25.79-10.13,25.79l-9.82-26.31L558.92,7.08z
			"/>
		<g>
			<path style="&st5;" d="M521.37,181.55c0.31-5.67,2.05-14.16,3.61-23.17c0-0.09-1.88-58.3,1.9-74.63
				c-0.11-0.32-0.14-2.66-0.14-2.66c-2.55-35.86-6.96-48.28-9.04-53.41l-1.17-2.43c0,0-5.83-1.34-7.18,6.28
				c-1.35,7.63-13.23,80.96-13.46,102.71c-0.22,21.75,1.57,47.32,1.57,47.32L521.37,181.55L521.37,181.55z"/>
			<path style="&st1;" d="M572.15,186.72l7.92,9.57c0,0,42.46-6.73,43.96-9.57c0,0-4.7-28.26-6.39-37.23
				c-1.69-8.97-3.78-50.17-3.78-50.17l3.78-15.57c0,0,3.54-46.99,10.35-58.51c0,0-29.06-9.01-36.1-11.89l6.73,18.17l-4.6,2.36
				l5.38,6.5c0,0-42.42,48.48-45.26,52.36C554.13,92.75,550.47,128.86,572.15,186.72z"/>
			<path style="&st2;" d="M551.85,13.7l-35.32,11.55c0,0,6.73,9.72,10.17,58.01c0,0,3.44,9.42,4.34,13.9c0,0,0.45,20.33-1.79,34.54
				c-2.24,14.2-7.62,40.07-7.92,51.13c0,0,10.91,9.27,40.82,13.46c0,0,8.22-4.34,10.02-9.57c0,0-9.12-28.7-11.81-41.86
				c-2.69-13.16-7.18-42.16-5.83-52.48l12.86-27.66L545.99,38.4l4.63-7.18l-5.23-2.39L551.85,13.7z"/>
			<path style="&st5;" d="M623.15,181.55c-1.16-6.98-2.64-13.26-4.2-22.27c0-0.09,2.48-59.2-1.3-75.53c0.11-0.32,0-1.77,0-1.77
				c2.55-35.86,7.1-49.17,9.18-54.31l1.17-2.43c0,0,5.83-1.34,7.18,6.28c1.35,7.63,13.23,80.96,13.46,102.71
				c0.22,21.75-1.57,47.32-1.57,47.32L623.15,181.55L623.15,181.55z"/>
			<g>
				<path style="&st6;" d="M567.37,64.72c0,0,12.41-30.61,13.87-34.87c1.46-4.26,4.15-22.76,4.15-22.76l6.5,6.28l6.73,18.17
					l-4.6,2.36l5.38,6.5l-44.89,51.99L567.37,64.72z"/>
				<polygon style="&st6;" points="551.85,13.7 558.92,7.08 561.5,28.61 571.85,56.72 567.89,66.51 545.99,38.4 550.62,31.23 
					545.39,28.84 				"/>
			</g>
			<g>
				<polygon style="&st7;" points="595.92,68.45 583.96,68.45 583.96,93.3 585.62,95.52 595.92,95.52 606.21,95.52 607.87,93.3 
					607.87,68.45 				"/>
				<rect x="583.96" y="68.45" style="&st6;" width="23.91" height="6.14"/>
			</g>
			<g>
				<circle style="&st6;" cx="561.64" cy="97.01" r="3.29"/>
				<circle style="&st6;" cx="561.64" cy="122.13" r="3.29"/>
			</g>
		</g>
	</g>
	<g>
		<g>
			<g>
				<path style="&st8;" d="M45.52,79.81c-0.12-0.8-0.18-1.25-0.18-1.25C45.73,59.98,34.8,36.48,34.8,36.48s-6.05,2.99-7.8,9.61
					c-1.76,6.62-6.44,40.16-8.39,61.3c-1.95,21.15-3.71,52.97-2.54,57.03l-0.38,15.17h17.94v-13.46L45.52,79.81L45.52,79.81z"/>
				<polygon style="&st9;" points="33.63,164.43 16.07,164.43 15.69,179.6 33.63,179.6 33.63,166.14 33.81,164.79 				"/>
			</g>
			<g>
				<path style="&st8;" d="M128.47,79.81c0.12-0.8,0.18-1.25,0.18-1.25c-0.39-18.58,10.54-42.08,10.54-42.08s6.05,2.99,7.8,9.61
					c1.76,6.62,6.44,40.16,8.39,61.3c1.95,21.15,3.71,52.97,2.54,57.03l0.38,15.17h-17.94v-13.46L128.47,79.81L128.47,79.81z"/>
				<polygon style="&st9;" points="140.36,164.43 157.92,164.43 158.3,179.6 140.36,179.6 140.36,166.14 140.18,164.79 				"/>
			</g>
		</g>
		<g>
			<path style="&st9;" d="M128.66,78.56c-0.39-18.58,10.54-42.08,10.54-42.08l-32.97-15.81H87.28h-0.57H67.77L34.8,36.48
				c0,0,10.93,23.5,10.54,42.08c0,0,6.44,44,5.95,50.2c-0.49,6.19-6.93,52.76-6.93,52.76s2.93,5.55,17.17,5.55
				c12.39,0,22.7,0,25.18,0c0.37,0,0.57,0,0.57,0c2.48,0,12.8,0,25.18,0c14.24,0,17.17-5.55,17.17-5.55s-6.44-46.57-6.93-52.76
				C122.22,122.57,128.66,78.56,128.66,78.56z"/>
			<g>
				<g>
					<polygon style="&st8;" points="71.54,11.6 66.11,24.31 73.63,39.58 86.58,26.76 					"/>
					<polygon style="&st8;" points="102.56,11.6 107.99,24.31 100.47,39.58 87.52,26.76 					"/>
				</g>
				<polygon style="&st9;" points="71.54,11.6 102.56,11.6 87.52,26.76 86.58,26.76 				"/>
				<g>
					<polygon style="&st8;" points="82.5,30.8 86.58,26.76 87.52,26.76 91.6,30.8 91.6,187.07 83.23,187.07 					"/>
					<g>
						<ellipse style="&st10;" cx="86.79" cy="30.32" rx="1.2" ry="1.32"/>
						<ellipse style="&st10;" cx="86.79" cy="47.41" rx="1.2" ry="1.32"/>
						<ellipse style="&st10;" cx="86.79" cy="64.5" rx="1.2" ry="1.32"/>
						<ellipse style="&st10;" cx="86.79" cy="81.59" rx="1.2" ry="1.32"/>
						<ellipse style="&st10;" cx="86.79" cy="98.68" rx="1.2" ry="1.32"/>
						<ellipse style="&st10;" cx="86.79" cy="115.77" rx="1.2" ry="1.32"/>
						<ellipse style="&st10;" cx="86.79" cy="132.86" rx="1.2" ry="1.32"/>
						<ellipse style="&st10;" cx="86.79" cy="149.94" rx="1.2" ry="1.32"/>
					</g>
				</g>
			</g>
		</g>
	</g>
	<g>
		<g>
			<path style="&st11;" d="M637.65,687.41c-0.79-5.1-2.35-44.83-2.48-57.51c-0.13-12.68-3-86.4-4.84-101.69
				c-1.83-15.29-5.1-17.91-5.1-17.91c1.7-5.36-1.57-8.63-1.57-8.63h-42.35h-42.35c0,0-3.27,3.27-1.57,8.63c0,0-3.27,2.61-5.1,17.91
				c-1.83,15.29-4.71,89.01-4.84,101.69c-0.13,12.68-1.7,52.42-2.48,57.51c-0.78,5.1-2.87,23.53-1.83,29.28
				c1.05,5.75,0.26,15.55,4.97,17.65l0.13,5.23c0,0,12.68,3.01,22.48,0v-5.23c0,0,5.1-1.18,5.49-6.67
				c0.39-5.49,3.4-20.13,5.36-26.01c1.96-5.88,5.23-34.9,7.19-43.79c1.96-8.89,7.45-47.58,7.97-53.59
				c0.52-6.02,1.96-27.19,4.57-27.06c2.62-0.13,4.05,21.04,4.58,27.06c0.52,6.01,6.01,44.7,7.97,53.59
				c1.96,8.89,5.23,37.91,7.19,43.79c1.96,5.88,4.97,20.52,5.36,26.01c0.39,5.49,5.49,6.67,5.49,6.67v5.23c9.8,3.01,22.48,0,22.48,0
				l0.13-5.23c4.71-2.09,3.92-11.89,4.96-17.65C640.53,710.94,638.44,692.51,637.65,687.41z"/>
			<g>
				<path style="&st12;" d="M623.67,501.67h-42.35h-42.35c0,0-3.27,3.27-1.57,8.63h87.84C626.94,504.94,623.67,501.67,623.67,501.67
					z"/>
				<g>
					<rect x="580.93" y="510.3" style="&st12;" width="0.78" height="66.92"/>
				</g>
				<g>
					<g>
						<circle style="&st13;" cx="575.22" cy="505.97" r="1.32"/>
						<g>
							<rect x="574.83" y="522" style="&st13;" width="0.79" height="3.53"/>
							<path style="&st14;" d="M576.16,521.72c0,0.73-0.42,1.32-0.94,1.32l0,0c-0.52,0-0.94-0.59-0.94-1.32v-14.43
								c0-0.73,0.42-1.32,0.94-1.32l0,0c0.52,0,0.94,0.59,0.94,1.32V521.72z"/>
						</g>
					</g>
					<g>
						<circle style="&st13;" cx="586.74" cy="505.97" r="1.32"/>
						<g>
							<rect x="586.35" y="522" style="&st13;" width="0.79" height="3.53"/>
							<path style="&st14;" d="M587.68,521.72c0,0.73-0.42,1.32-0.94,1.32l0,0c-0.52,0-0.94-0.59-0.94-1.32v-14.43
								c0-0.73,0.42-1.32,0.94-1.32l0,0c0.52,0,0.94,0.59,0.94,1.32V521.72z"/>
						</g>
					</g>
				</g>
			</g>
		</g>
		<g>
			<path style="&st12;" d="M528.12,734.33l0.13,5.23c0,0,12.68,3.01,22.48,0v-5.23C538.05,736.23,528.12,734.33,528.12,734.33z"/>
			<path style="&st12;" d="M634.56,734.33l-0.13,5.23c0,0-12.68,3.01-22.48,0v-5.23C624.63,736.23,634.56,734.33,634.56,734.33z"/>
		</g>
	</g>
	<g>
		<path style="&st15;" d="M833.87,257.82h-37.24c8.05,4.03,14.6,4.77,18.62,4.77C819.93,262.59,825.81,261.85,833.87,257.82z"/>
		<g>
			<path style="&st16;" d="M859.75,333.29c11.95,6.17,32.26-10.35,32.26-10.35l-22.9-51.97c0,0-12.39,25.49-12.97,38.83
				L859.75,333.29z"/>
			<path style="&st17;" d="M859.75,333.29l-3.61-23.5c0.57-13.34,12.97-38.83,12.97-38.83l-35.24-13.14
				c-8.06,4.03-13.94,4.77-18.62,4.77c-4.02,0-10.56-0.73-18.62-4.77l-35.24,13.14c0,0,12.4,25.49,12.97,38.83l-3.61,23.5
				l-7.57,93.99c0,0,5.14,3.35,51.77,3.38l0,0c0.1,0,0.2,0,0.3,0c0.1,0,0.2,0,0.3,0l0,0c46.63-0.03,51.77-3.38,51.77-3.38
				L859.75,333.29z"/>
			<path style="&st16;" d="M770.74,333.29c-11.95,6.17-32.26-10.35-32.26-10.35l22.9-51.97c0,0,12.4,25.49,12.97,38.83
				L770.74,333.29z"/>
			<path style="&st18;" d="M793.83,258.87c0,0,6.31,6.32,21.41,6.32c15.1,0,21.41-6.32,21.41-6.32l-2.79-1.04
				c0,0-8.83,4.69-18.85,4.77c-10.02,0.08-18.39-4.77-18.39-4.77L793.83,258.87z"/>
		</g>
	</g>
	<g>
		<g>
			<path style="&st19;" d="M1279.41,333.2c0,0-4.08,1.96-5.79,18.4c0,0-0.86,25.25-1.72,37.39c-0.86,12.14-1.93,23.1-3,25.84
				c-1.07,2.74,0.21,7.05,0,12.92c-0.21,5.87,0.64,26.23-0.43,34.45c-1.07,8.22-5.15,13.51-3.43,14.68
				c1.72,1.17,2.15,1.56,2.36,3.72c0.21,2.15-2.15,9.2-1.72,11.74c0.43,2.54,14.59,4.7,19.31,3.33c4.72-1.37,0.86-4.39,2.36-7.57
				c1.5-3.19,2.36-7.1,4.08-8.47c1.72-1.37-0.86-4.31-1.29-8.81c-0.43-4.5-0.98-12.92,1.87-24.08c2.85-11.16,4.99-20.36,4.14-22.9
				c-0.86-2.55,0.21-11.35,1.29-14.29c1.07-2.94-0.43-6.79,0-8.58c0.43-1.79,2.79-7.47,2.36-9.81c-0.43-2.35-0.21-8.03,1.72-8.61
				L1279.41,333.2z"/>
			<g>
				<path style="&st11;" d="M1291.28,479.93c0.27-0.22,0.73-0.91,0.73-1.63c-16.4,1.53-27.34-2.02-27.34-2.02
					c0.48,2.15,2.09,2.21,2.32,4.44c0.22,2.23-2.24,9.54-1.79,12.19c0.45,2.64,15.22,4.87,20.14,3.45c4.92-1.42,0.9-4.55,2.46-7.86
					C1289.35,485.19,1289.49,481.35,1291.28,479.93z"/>
				<path style="&st12;" d="M1266.98,481.24c-0.04,0.91-0.3,2.27-0.62,3.76l21.64,3.02c0.52-1.22,0.88-2.5,1.21-3.68L1266.98,481.24
					z"/>
				<path style="&st12;" d="M1265.14,491.7l22.51,3.14c0.53-1.06-0.05-2.4-0.21-3.88l-21.71-3.03
					C1265.44,489.31,1265.2,490.64,1265.14,491.7z"/>
			</g>
		</g>
		<g>
			<path style="&st19;" d="M1403.4,333.2c0,0,4.08,1.96,5.79,18.4c0,0,0.86,25.25,1.72,37.39c0.86,12.14,1.93,23.1,3,25.84
				c1.07,2.74-0.21,7.05,0,12.92c0.21,5.87-0.64,26.23,0.43,34.45c1.07,8.22,5.14,13.51,3.43,14.68c-1.72,1.17-2.14,1.56-2.36,3.72
				c-0.22,2.15,2.14,9.2,1.71,11.74c-0.43,2.54-14.59,4.7-19.3,3.33c-4.72-1.37-0.86-4.39-2.36-7.57c-1.5-3.19-2.36-7.1-4.08-8.47
				c-1.72-1.37,0.86-4.31,1.29-8.81c0.43-4.5,0.98-12.92-1.87-24.08c-2.85-11.16-4.99-20.36-4.14-22.9
				c0.86-2.55-0.21-11.35-1.29-14.29c-1.07-2.94,0.43-6.79,0-8.58c-0.43-1.79-2.79-7.47-2.36-9.81c0.43-2.35,0.21-8.03-1.72-8.61
				L1403.4,333.2z"/>
			<g>
				<path style="&st11;" d="M1391.53,479.93c-0.27-0.22-0.73-0.91-0.73-1.63c16.4,1.53,27.34-2.02,27.34-2.02
					c-0.48,2.15-2.09,2.21-2.31,4.44c-0.22,2.23,2.24,9.54,1.79,12.19c-0.45,2.64-15.22,4.87-20.14,3.45
					c-4.92-1.42-0.9-4.55-2.46-7.86C1393.45,485.19,1393.32,481.35,1391.53,479.93z"/>
				<g>
					<path style="&st12;" d="M1415.84,481.24c0.04,0.91,0.3,2.27,0.63,3.76l-21.64,3.02c-0.52-1.22-0.88-2.5-1.21-3.68
						L1415.84,481.24z"/>
					<path style="&st12;" d="M1417.68,491.7l-22.51,3.14c-0.53-1.06,0.05-2.4,0.21-3.88l21.72-3.03
						C1417.39,489.31,1417.62,490.64,1417.68,491.7z"/>
				</g>
			</g>
		</g>
		<g>
			<path style="&st11;" d="M1403.4,333.2c-1.07-1.96-7.08-4.31-16.73-6.66c-9.65-2.35-24.24-12.72-24.24-12.72l-21.03,19.19
				l-21.03-19.19c0,0-14.59,10.37-24.24,12.72c-9.65,2.35-15.66,4.7-16.73,6.66c0,0,3.65,13.5,8.58,20.36
				c0,0,4.93,21.53,13.51,28.97c0,0-2.57,27.21-3,45.22c-0.43,18.01-4.29,32.1,2.57,38.36c0,0,0.86,9.2-1.18,12.53
				c-2.04,3.33-0.97,5.87-0.97,5.87s12.44,4.11,23.81,3.52c11.21-0.58,13.66-2.49,18.67-2.54c5,0.05,7.46,1.96,18.67,2.54
				c11.37,0.59,23.81-3.52,23.81-3.52s1.07-2.55-0.96-5.87c-2.04-3.33-1.18-12.53-1.18-12.53c6.86-6.26,3-20.36,2.57-38.36
				c-0.43-18.01-3-45.22-3-45.22c8.58-7.44,13.51-28.97,13.51-28.97C1399.76,346.7,1403.4,333.2,1403.4,333.2z"/>
			<g>
				<g>
					<polygon style="&st13;" points="1326.81,309.12 1356,309.12 1341.56,332.78 					"/>
					<g>
						<path style="&st19;" d="M1362.43,313.82c-3.43-0.2-6.44-4.7-6.44-4.7l-14.59,23.4l-14.59-23.4c0,0-3,4.5-6.44,4.7
							c0,0,0.64,17.52,20.65,19.3l-0.05,0.07c0.15-0.01,0.28-0.03,0.42-0.04c0.14,0.01,0.28,0.03,0.42,0.04l-0.05-0.07
							C1361.79,331.34,1362.43,313.82,1362.43,313.82z"/>
						<g>
							<g>
								<polygon style="&st19;" points="1338.82,485.68 1337.97,485.81 1337.97,334.73 1341.56,332.78 1342.95,332.51 
									1338.82,335.18 								"/>
							</g>
							<g>
								<ellipse style="&st19;" cx="1343.12" cy="339.85" rx="2.14" ry="1.96"/>
								<ellipse style="&st19;" cx="1343.12" cy="363.34" rx="2.14" ry="1.96"/>
								<ellipse style="&st19;" cx="1343.12" cy="386.83" rx="2.14" ry="1.96"/>
								<ellipse style="&st19;" cx="1343.12" cy="410.31" rx="2.14" ry="1.96"/>
								<ellipse style="&st19;" cx="1343.12" cy="433.8" rx="2.14" ry="1.96"/>
								<ellipse style="&st19;" cx="1343.12" cy="457.29" rx="2.14" ry="1.96"/>
								<ellipse style="&st19;" cx="1343.12" cy="480.78" rx="2.14" ry="1.96"/>
							</g>
						</g>
					</g>
				</g>
				<g>
					<g>
						<path style="&st12;" d="M1330.63,471.96c-0.08-1.52-0.14-2.61-0.23-3.16c-0.34-2.18-4.02-2.06-10.69-1.83
							c-1.27,0.04-2.65,0.09-4.13,0.12c-7.26,0.18-13.16-0.96-14.85-1.33c0.11,0.11,0.22,0.23,0.34,0.33c0,0,0.02,0.22,0.05,0.6
							c2.28,0.46,7.82,1.39,14.49,1.23c1.48-0.04,2.86-0.08,4.14-0.13c5.74-0.2,9.52-0.32,9.75,1.12c0.08,0.51,0.14,1.64,0.22,3.08
							c0.23,4.22,0.6,10.97,2.02,15.07c0.31-0.05,0.61-0.11,0.9-0.16C1331.23,482.9,1330.85,475.91,1330.63,471.96z"/>
						<g>
							<path style="&st12;" d="M1300.95,475.17h24v-4.04h-23.71C1301.23,472.45,1301.14,473.87,1300.95,475.17z"/>
							<path style="&st12;" d="M1299.89,478.63c-0.9,1.46-1.19,2.77-1.24,3.78h26.3v-4.04h-24.92
								C1299.99,478.46,1299.94,478.54,1299.89,478.63z"/>
						</g>
					</g>
					<g>
						<path style="&st12;" d="M1352.19,471.96c0.08-1.52,0.14-2.61,0.23-3.16c0.34-2.18,4.02-2.06,10.69-1.83
							c1.27,0.04,2.65,0.09,4.13,0.12c7.26,0.18,13.16-0.96,14.85-1.33c-0.11,0.11-0.22,0.23-0.34,0.33c0,0-0.02,0.22-0.05,0.6
							c-2.28,0.46-7.82,1.39-14.49,1.23c-1.48-0.04-2.86-0.08-4.14-0.13c-5.73-0.2-9.52-0.32-9.75,1.12
							c-0.08,0.51-0.14,1.64-0.22,3.08c-0.23,4.22-0.6,10.97-2.02,15.07c-0.31-0.05-0.61-0.11-0.9-0.16
							C1351.59,482.9,1351.98,475.91,1352.19,471.96z"/>
						<g>
							<path style="&st12;" d="M1381.87,475.17h-24v-4.04h23.71C1381.6,472.45,1381.68,473.87,1381.87,475.17z"/>
							<path style="&st12;" d="M1382.93,478.63c0.9,1.46,1.19,2.77,1.24,3.78h-26.3v-4.04h24.92
								C1382.84,478.46,1382.88,478.54,1382.93,478.63z"/>
						</g>
					</g>
				</g>
			</g>
		</g>
	</g>
	<g>
		<path style="&st20;" d="M1132.52,513.65c-0.28-2.79,0.28-14.88,0-18.2c-0.28-3.32-3.61-42.25-4.16-46.9
			c-0.56-4.65-2.22-21.26-2.78-25.42c-0.55-4.16-0.97-16.83-1.8-23.87c-0.83-7.05-2.36-35.88-2.69-37.74
			c-0.33-1.86-0.92-9.96-0.22-12.89c0.69-2.92-0.42-4.65-0.83-7.44c-0.42-2.79-1.39-20.33-1.67-21.39
			c-0.28-1.06-0.42-4.52-1.11-7.17c-0.69-2.66-1.11-6.51-1.11-6.51c0.14-1.33-0.97-9.43-0.97-9.43h-45.67h-45.67
			c0,0-1.11,8.1-0.97,9.43c0,0-0.42,3.85-1.11,6.51c-0.69,2.66-0.83,6.11-1.11,7.17c-0.28,1.06-1.25,18.6-1.67,21.39
			c-0.42,2.79-1.53,4.52-0.83,7.44c0.69,2.92,0.11,11.03-0.22,12.89c-0.33,1.86-1.86,30.69-2.69,37.74
			c-0.83,7.04-1.25,19.71-1.8,23.87c-0.56,4.16-2.22,20.77-2.78,25.42c-0.55,4.65-3.89,43.58-4.16,46.9
			c-0.28,3.32,0.28,15.41,0,18.2c-0.28,2.79-2.64,24.98-1.94,26.71c0,0,18.88-3.05,29.71,0.8c0,0,1.53-3.46,1.8-5.32
			c0.28-1.86-1.39-5.18-0.69-5.98c0.69-0.8,3.89-6.24,3.75-8.63c-0.14-2.39-0.96-7.18,0-9.04c0.97-1.86,1.39-6.78,1.39-9.43
			s1.67-11.83,2.64-15.81c0.97-3.99,3.75-22.46,3.89-26.57c0.14-4.12,1.67-13.69,2.5-15.81c0.83-2.13,2.22-13.42,2.92-17.81
			c0.69-4.38,1.53-14.62,4.16-21.79c2.64-7.17,8.33-22.99,9.02-25.11c0.69-2.13,1.94-6.91,2.08-7.97l1.8-0.4l1.81,0.4
			c0.14,1.06,1.39,5.85,2.08,7.97c0.69,2.13,6.39,17.94,9.02,25.11c2.64,7.17,3.47,17.41,4.16,21.79
			c0.69,4.39,2.08,15.68,2.92,17.81c0.83,2.13,2.36,11.69,2.5,15.81c0.14,4.12,2.92,22.59,3.89,26.57
			c0.97,3.99,2.64,13.15,2.64,15.81s0.42,7.57,1.38,9.43c0.97,1.86,0.14,6.64,0,9.04c-0.14,2.39,3.05,7.84,3.75,8.63
			c0.69,0.8-0.97,4.12-0.69,5.98c0.28,1.86,1.81,5.32,1.81,5.32c10.83-3.85,29.71-0.8,29.71-0.8
			C1135.16,538.63,1132.8,516.44,1132.52,513.65z"/>
		<g>
			<path style="&st21;" d="M1022.85,306.11l0.97-9.43h91.34c0,0,0.78,7.88,0.97,9.43H1022.85z"/>
			<g>
				<rect x="1039.07" y="295.07" style="&st22;" width="3.19" height="11.96"/>
				<rect x="1097.43" y="295.07" style="&st22;" width="3.19" height="11.96"/>
			</g>
			<g>
				<path style="&st23;" d="M1066.44,296.67v9.43h2.39v65.49l1.68,0.11l0.04-18.56c0,0,6.64,1.2,6.64-11.03c0-12.22,0-36.01,0-36.01
					v-9.43H1066.44z"/>
				<circle style="&st20;" cx="1071.56" cy="300.92" r="1.53"/>
				<path style="&st23;" d="M1051.69,306.11c0,0,3.99,18.59-31.29,15.94l-0.21,2.79c0,0,34.69,5.71,34.69-18.73H1051.69z"/>
				<path style="&st23;" d="M1087.26,306.11c0,0-3.98,18.59,31.29,15.94l0.21,2.79c0,0-34.69,5.71-34.69-18.73H1087.26z"/>
				<g>
					<path style="&st24;" d="M1034.24,541.15c0,0,0.59-1.34,1.11-2.81c-14.37-4.56-30.17-1.28-30.91-1.12
						c-0.06,1.64-0.04,2.79,0.09,3.13C1004.53,540.36,1023.41,537.3,1034.24,541.15z"/>
					<path style="&st24;" d="M1104.76,541.15c0,0-0.59-1.34-1.11-2.81c14.37-4.56,30.17-1.28,30.91-1.12
						c0.06,1.64,0.04,2.79-0.09,3.13C1134.47,540.36,1115.59,537.3,1104.76,541.15z"/>
				</g>
			</g>
		</g>
	</g>
	<g>
		<path style="&st25;" d="M636.52,274.11l-34.18-12.71h-20.6h-0.85h-20.6l-34.18,12.71c0,0,8.22,37.23,5.53,51.13l-0.42,97.48
			c0,0,11.67,14.57,49.67,14.79v0.01c0.14,0,0.28,0,0.42,0c0.15,0,0.28,0,0.43,0v-0.01c38-0.22,49.67-14.79,49.67-14.79l-0.42-97.48
			C628.29,311.33,636.52,274.11,636.52,274.11z"/>
		<g>
			<g>
				<path style="&st26;" d="M531.65,325.24c2.7-13.9-5.53-51.13-5.53-51.13l-33.94,27.21l28.11,32.29l11.36-7.47L531.65,325.24z"/>
				<polygon style="&st27;" points="498.46,296.28 526.73,329.37 520.29,333.61 492.18,301.32 				"/>
			</g>
			<g>
				<path style="&st26;" d="M631.11,325.24c-2.69-13.9,5.53-51.13,5.53-51.13l33.94,27.21l-28.11,32.29l-11.36-7.47L631.11,325.24z"
					/>
				<polygon style="&st27;" points="664.29,296.28 636.03,329.37 642.47,333.61 670.58,301.32 				"/>
			</g>
		</g>
		<g>
			<g>
				<polygon style="&st26;" points="570.26,261.4 573.06,281.13 582.71,289.65 579.9,298.74 568.91,278.78 568.91,261.4 				"/>
				<polygon style="&st26;" points="593.93,261.4 592.57,261.4 590.11,280.91 582.71,289.65 579.9,298.74 579.9,437.51 
					588.21,437.32 588.21,298.74 589.32,289.21 593.93,278.78 				"/>
				<g>
					<circle style="&st27;" cx="583.77" cy="299.47" r="1.85"/>
					<circle style="&st27;" cx="583.77" cy="320.1" r="1.85"/>
					<circle style="&st27;" cx="583.77" cy="340.73" r="1.85"/>
					<circle style="&st27;" cx="583.77" cy="361.36" r="1.85"/>
					<circle style="&st27;" cx="583.77" cy="381.99" r="1.85"/>
					<circle style="&st27;" cx="583.77" cy="402.63" r="1.85"/>
				</g>
				<polygon style="&st28;" points="570.15,260.43 573.06,281.13 582.71,289.65 590.11,280.91 592.8,260.87 				"/>
			</g>
			<g>
				<polygon style="&st29;" points="568.91,250.97 560.3,261.4 552.54,286.74 568.91,278.78 				"/>
				<polygon style="&st29;" points="593.93,250.97 602.55,261.4 610.31,286.74 593.93,278.78 				"/>
				<rect x="568.91" y="250.97" style="&st29;" width="25.02" height="10.43"/>
			</g>
		</g>
	</g>
	<g>
		<g>
			<path style="&st30;" d="M1125.91,102.51c-5.38-21.98,4.49-68.17,4.49-68.17c-0.08-0.12-0.2-0.24-0.3-0.36l0.3-0.91
				c0,0,8.52,4.78,13.01,16.74c4.48,11.96,19.44,113.25,18.54,137.06l-27.51,5.34l-8.36-85.44
				C1125.99,104.08,1125.91,102.51,1125.91,102.51z"/>
			<path style="&st30;" d="M1002.79,102.51c5.38-21.98-4.49-68.17-4.49-68.17c0.08-0.12,0.2-0.24,0.3-0.36l-0.3-0.91
				c0,0-8.52,4.78-13.01,16.74c-4.49,11.96-19.44,113.25-18.54,137.06l27.51,5.34l8.36-85.44
				C1002.72,104.08,1002.79,102.51,1002.79,102.51z"/>
		</g>
		<g>
			<path style="&st31;" d="M1131.3,33.44c-4.26-6.05-37.68-14.35-37.68-14.35l-29.26-2.02l0,0l0,0h0l0,0l-29.27,2.02
				c0,0-33.41,8.3-37.68,14.35c0,0,9.87,46.2,4.49,68.18c0,0-2.69,57.19,4.93,80.06v14.11h57.52h0h57.52v-14.11
				c7.63-22.87,4.93-80.06,4.93-80.06C1121.43,79.64,1131.3,33.44,1131.3,33.44z"/>
			<rect x="1006.83" y="181.68" style="&st30;" width="115.05" height="14.11"/>
			<g>
				<g>
					<polygon style="&st32;" points="1045.7,69.85 1029.71,69.85 1029.71,69.85 1013.71,69.85 1013.71,98.4 1029.71,104.68 
						1029.71,104.68 1029.71,104.68 1029.71,104.68 1029.71,104.68 1045.7,98.4 					"/>
					<polygon style="&st30;" points="1029.71,61.79 1029.71,61.79 1012.51,61.79 1012.51,69.85 1015.95,73.43 1029.71,73.43 
						1029.71,73.43 1043.46,73.43 1046.9,69.85 1046.9,61.79 					"/>
					<polygon style="&st32;" points="1078.46,69.85 1094.45,69.85 1094.45,69.85 1110.45,69.85 1110.45,98.4 1094.45,104.68 
						1094.45,104.68 1094.45,104.68 1094.45,104.68 1094.45,104.68 1078.46,98.4 					"/>
					<polygon style="&st30;" points="1094.45,61.79 1094.45,61.79 1111.64,61.79 1111.64,69.85 1108.21,73.43 1094.45,73.43 
						1094.45,73.43 1080.7,73.43 1077.26,69.85 1077.26,61.79 					"/>
				</g>
				<g>
					<g>
						<g>
							<polygon style="&st33;" points="1039.13,43.08 1059.46,33.82 1046.3,4.81 1035.09,19.09 							"/>
							<polygon style="&st33;" points="1087.72,43.08 1067.39,33.82 1080.55,4.81 1091.76,19.09 							"/>
						</g>
						<polygon style="&st34;" points="1046.3,4.81 1080.55,4.81 1067.39,33.82 1059.46,33.82 						"/>
					</g>
					<g>
						<rect x="1001.92" y="60.89" style="&st33;" width="60.6" height="0.9"/>
					</g>
					<g>
						<rect x="1063.42" y="60.89" style="&st33;" width="63.3" height="0.9"/>
					</g>
					<g>
						<rect x="1062.53" y="33.82" style="&st33;" width="1.79" height="161.98"/>
					</g>
				</g>
			</g>
		</g>
	</g>
	<rect id="_x3C_Slice_x3E_" x="483.52" y="2.08" style="&st35;" width="174" height="196"/>
	<rect id="_x3C_Slice_x3E__1_" x="1250.68" y="300.68" style="&st35;" width="180" height="209"/>
	<rect id="_x3C_Slice_x3E__2_" x="942.52" y="8.08" style="&st35;" width="234" height="193"/>
	<rect id="_x3C_Slice_x3E__3_" x="5.61" y="6.17" style="&st35;" width="166" height="183"/>
	<rect id="_x3C_Slice_x3E__4_" x="985.52" y="290.08" style="&st35;" width="168" height="265"/>
</g>
</svg>
