<?xml version="1.0" encoding="utf-8"?>
<!-- Generator: Adobe Illustrator 21.0.0, SVG Export Plug-In . SVG Version: 6.00 Build 0)  -->
<!DOCTYPE svg PUBLIC "-//W3C//DTD SVG 1.1//EN" "http://www.w3.org/Graphics/SVG/1.1/DTD/svg11.dtd" [
	<!ENTITY st0 "fill:#3F4241;">
	<!ENTITY st1 "fill:#3E3F3E;">
	<!ENTITY st2 "fill:#474948;">
	<!ENTITY st3 "fill:#272827;">
	<!ENTITY st4 "fill:#2C2D2C;">
	<!ENTITY st5 "fill:#3C3D3C;">
	<!ENTITY st6 "fill:#252625;">
	<!ENTITY st7 "fill:#2D2D2D;">
	<!ENTITY st8 "fill:#F4F3ED;">
	<!ENTITY st9 "fill:#EAE9E4;">
	<!ENTITY st10 "fill:#D1CFC9;">
	<!ENTITY st11 "fill:#DDDDDD;">
	<!ENTITY st12 "fill:#C9C9C9;">
	<!ENTITY st13 "fill:#888889;">
	<!ENTITY st14 "fill:#ADADAD;">
	<!ENTITY st15 "fill:#D8B355;">
	<!ENTITY st16 "fill:#E5C776;">
	<!ENTITY st17 "fill:#F2D98B;">
	<!ENTITY st18 "fill:#F2E7C7;">
	<!ENTITY st19 "fill:#BABABA;">
	<!ENTITY st20 "fill:#A1C1D6;">
	<!ENTITY st21 "fill:#1E5476;">
	<!ENTITY st22 "fill:#174D68;">
	<!ENTITY st23 "fill:#658DB0;">
	<!ENTITY st24 "fill:#5A91AF;">
	<!ENTITY st25 "fill:#E86767;">
	<!ENTITY st26 "fill:#E05C5C;">
	<!ENTITY st27 "fill:#C13333;">
	<!ENTITY st28 "fill:#CC3E3E;">
	<!ENTITY st29 "fill:#D85555;">
	<!ENTITY st30 "fill:#C8BDA1;">
	<!ENTITY st31 "fill:#BCAF93;">
	<!ENTITY st32 "fill:#D8CEB6;">
	<!ENTITY st33 "fill:#A3967B;">
	<!ENTITY st34 "fill:#8E8169;">
	<!ENTITY st35 "fill:none;">
]>
<svg version="1.1" xmlns="http://www.w3.org/2000/svg" xmlns:xlink="http://www.w3.org/1999/xlink" x="0px" y="0px"
	 viewBox="0 0 199.49 197.49" style="enable-background:new 0 0 199.49 197.49;" xml:space="preserve">
<g id="Background">
</g>
<g id="Objects">
	<polygon style="&st0;" points="-379.19,100.48 -397.91,131.92 -397.59,127.82 	"/>
	<g>
		<path style="&st1;" d="M848.21,464c-0.41-4.11-9.46-113.48-10.69-130.75c-1.23-17.27-4.93-60.44-5.76-71.54
			c-0.82-11.1-4.83-35.67-4.83-35.67h-91.4c0,0-4.01,24.57-4.83,35.67c-0.82,11.1-4.52,54.27-5.76,71.54
			c-1.23,17.27-10.28,126.64-10.69,130.75l32.07,4.94l34.91-185.63l34.91,185.63L848.21,464z"/>
		<polygon style="&st2;" points="734.41,233.13 828.05,233.13 826.93,226.04 735.53,226.04 		"/>
		<path style="&st1;" d="M775.13,226.04c0,0-5.4,2.77,0,7.09h52.92l-1.12-7.09H775.13z"/>
		<g>
			<g>
				<circle style="&st3;" cx="776.78" cy="229.59" r="1.97"/>
				<g>
					<rect x="757.45" y="224.5" style="&st4;" width="3.7" height="10.28"/>
					<rect x="792.81" y="224.5" style="&st4;" width="3.7" height="10.28"/>
				</g>
			</g>
			<g>
				<g>
					<path style="&st4;" d="M734.41,233.13L734.41,233.13c-1.18,7.68-2.96,19.84-3.61,27.32l0.03,0.02l18.4-27.34H734.41z"/>
					<path style="&st4;" d="M828.08,233.13L828.08,233.13c1.18,7.68,2.96,19.84,3.61,27.32l-0.03,0.02l-18.4-27.34H828.08z"/>
				</g>
				<g>
					<path style="&st4;" d="M780.52,233.13v43.33c0,0,7.86-3.55,9.1-5.7v-37.62H780.52z"/>
					<g>
						<g>
							<polygon style="&st4;" points="758.91,244.85 758.91,275.53 755.98,275.53 							"/>
							<polygon style="&st4;" points="753.38,290.15 741.95,362.23 730.51,459.35 744.75,363.62 							"/>
						</g>
						<g>
							<polygon style="&st4;" points="802.42,244.85 802.42,275.53 805.35,275.53 							"/>
							<polygon style="&st4;" points="808.83,290.15 820.27,362.23 831.7,459.35 817.46,363.62 							"/>
						</g>
					</g>
				</g>
			</g>
		</g>
	</g>
	<g>
		<path style="&st2;" d="M519.92-273.06h26.46c0,0-3.06,21.35-3.93,23.85c-0.88,2.5-10.13,25.79-10.13,25.79l-9.82-26.31
			L519.92-273.06z"/>
		<g>
			<path style="&st5;" d="M482.37-98.59c0.31-5.67,2.05-14.16,3.61-23.17c0-0.09-1.88-58.3,1.9-74.63
				c-0.11-0.32-0.14-2.66-0.14-2.66c-2.55-35.86-6.96-48.28-9.04-53.41l-1.17-2.43c0,0-5.83-1.34-7.18,6.28
				c-1.35,7.63-13.23,80.96-13.46,102.71c-0.22,21.75,1.57,47.32,1.57,47.32L482.37-98.59L482.37-98.59z"/>
			<path style="&st1;" d="M533.15-93.43l7.92,9.57c0,0,42.46-6.73,43.96-9.57c0,0-4.7-28.26-6.39-37.23
				c-1.69-8.97-3.78-50.17-3.78-50.17l3.78-15.57c0,0,3.54-46.99,10.35-58.51c0,0-29.06-9.01-36.1-11.89l6.73,18.16l-4.6,2.35
				l5.38,6.5c0,0-42.42,48.48-45.26,52.36C515.14-187.39,511.47-151.29,533.15-93.43z"/>
			<path style="&st2;" d="M512.86-266.45l-35.32,11.55c0,0,6.73,9.72,10.17,58.01c0,0,3.44,9.42,4.34,13.9
				c0,0,0.45,20.33-1.79,34.54c-2.24,14.2-7.62,40.07-7.92,51.13c0,0,10.91,9.27,40.82,13.46c0,0,8.22-4.34,10.02-9.57
				c0,0-9.12-28.7-11.81-41.86c-2.69-13.16-7.18-42.16-5.83-52.48l12.86-27.66l-21.38-26.31l4.63-7.18l-5.23-2.39L512.86-266.45z"/>
			<path style="&st5;" d="M584.15-98.59c-1.16-6.98-2.64-13.26-4.2-22.27c0-0.09,2.48-59.2-1.3-75.53c0.11-0.32,0-1.77,0-1.77
				c2.55-35.86,7.1-49.17,9.18-54.31l1.17-2.43c0,0,5.83-1.34,7.18,6.28c1.35,7.63,13.23,80.96,13.46,102.71
				c0.22,21.75-1.57,47.32-1.57,47.32L584.15-98.59L584.15-98.59z"/>
			<g>
				<path style="&st6;" d="M528.37-215.43c0,0,12.41-30.61,13.87-34.87c1.46-4.26,4.15-22.76,4.15-22.76l6.5,6.28l6.73,18.16
					l-4.6,2.35l5.38,6.5l-44.89,51.99L528.37-215.43z"/>
				<polygon style="&st6;" points="512.86,-266.45 519.92,-273.06 522.5,-251.53 532.85,-223.43 528.89,-213.63 506.99,-241.74 
					511.62,-248.92 506.39,-251.31 				"/>
			</g>
			<g>
				<polygon style="&st7;" points="556.92,-211.69 544.96,-211.69 544.96,-186.84 546.62,-184.63 556.92,-184.63 567.21,-184.63 
					568.87,-186.84 568.87,-211.69 				"/>
				<rect x="544.96" y="-211.69" style="&st6;" width="23.91" height="6.14"/>
			</g>
			<g>
				<circle style="&st6;" cx="522.65" cy="-183.13" r="3.29"/>
				<circle style="&st6;" cx="522.65" cy="-158.02" r="3.29"/>
			</g>
		</g>
	</g>
	<g>
		<g>
			<g>
				<path style="&st8;" d="M6.52-200.33c-0.12-0.8-0.18-1.25-0.18-1.25C6.73-220.17-4.2-243.66-4.2-243.66s-6.05,2.99-7.8,9.61
					c-1.76,6.62-6.44,40.16-8.39,61.3c-1.95,21.15-3.71,52.97-2.54,57.03l-0.38,15.17h17.94V-114L6.52-200.33L6.52-200.33z"/>
				<polygon style="&st9;" points="-5.37,-115.71 -22.93,-115.71 -23.31,-100.55 -5.37,-100.55 -5.37,-114 -5.18,-115.36 				"/>
			</g>
			<g>
				<path style="&st8;" d="M89.48-200.33c0.12-0.8,0.18-1.25,0.18-1.25c-0.39-18.58,10.54-42.08,10.54-42.08s6.05,2.99,7.8,9.61
					c1.76,6.62,6.44,40.16,8.39,61.3c1.95,21.15,3.71,52.97,2.54,57.03l0.38,15.17h-17.94V-114L89.48-200.33L89.48-200.33z"/>
				<polygon style="&st9;" points="101.36,-115.71 118.92,-115.71 119.3,-100.55 101.36,-100.55 101.36,-114 101.18,-115.36 				"/>
			</g>
		</g>
		<g>
			<path style="&st9;" d="M89.66-201.58c-0.39-18.58,10.54-42.08,10.54-42.08l-32.97-15.81H48.28h-0.57H28.77L-4.2-243.66
				c0,0,10.93,23.5,10.54,42.08c0,0,6.44,44,5.95,50.2c-0.49,6.19-6.93,52.76-6.93,52.76s2.93,5.55,17.17,5.55
				c12.39,0,22.7,0,25.18,0c0.37,0,0.57,0,0.57,0c2.48,0,12.8,0,25.18,0c14.24,0,17.17-5.55,17.17-5.55s-6.44-46.57-6.93-52.76
				C83.22-157.58,89.66-201.58,89.66-201.58z"/>
			<g>
				<g>
					<polygon style="&st8;" points="32.54,-268.55 27.11,-255.84 34.63,-240.57 47.58,-253.38 					"/>
					<polygon style="&st8;" points="63.56,-268.55 68.99,-255.84 61.47,-240.57 48.52,-253.38 					"/>
				</g>
				<polygon style="&st9;" points="32.54,-268.55 63.56,-268.55 48.52,-253.38 47.58,-253.38 				"/>
				<g>
					<polygon style="&st8;" points="43.5,-249.34 47.58,-253.38 48.52,-253.38 52.61,-249.34 52.61,-93.07 44.23,-93.07 					"/>
					<g>
						<ellipse style="&st10;" cx="47.8" cy="-249.82" rx="1.2" ry="1.32"/>
						<ellipse style="&st10;" cx="47.8" cy="-232.73" rx="1.2" ry="1.32"/>
						<ellipse style="&st10;" cx="47.8" cy="-215.65" rx="1.2" ry="1.32"/>
						<ellipse style="&st10;" cx="47.8" cy="-198.56" rx="1.2" ry="1.32"/>
						<ellipse style="&st10;" cx="47.8" cy="-181.47" rx="1.2" ry="1.32"/>
						<ellipse style="&st10;" cx="47.8" cy="-164.38" rx="1.2" ry="1.32"/>
						<ellipse style="&st10;" cx="47.8" cy="-147.29" rx="1.2" ry="1.32"/>
						<ellipse style="&st10;" cx="47.8" cy="-130.2" rx="1.2" ry="1.32"/>
					</g>
				</g>
			</g>
		</g>
	</g>
	<g>
		<g>
			<path style="&st11;" d="M598.66,407.26c-0.79-5.1-2.35-44.83-2.48-57.51c-0.13-12.68-3-86.4-4.84-101.69
				c-1.83-15.29-5.1-17.91-5.1-17.91c1.7-5.36-1.57-8.63-1.57-8.63h-42.35h-42.35c0,0-3.27,3.27-1.57,8.63c0,0-3.27,2.61-5.1,17.91
				c-1.83,15.29-4.71,89.01-4.84,101.69c-0.13,12.68-1.7,52.42-2.48,57.51c-0.78,5.1-2.87,23.53-1.83,29.28
				c1.05,5.75,0.26,15.55,4.97,17.65l0.13,5.23c0,0,12.68,3.01,22.48,0v-5.23c0,0,5.1-1.18,5.49-6.67
				c0.39-5.49,3.4-20.13,5.36-26.01c1.96-5.88,5.23-34.9,7.19-43.79c1.96-8.89,7.45-47.58,7.97-53.59
				c0.52-6.02,1.96-27.19,4.57-27.06c2.62-0.13,4.05,21.04,4.58,27.06c0.52,6.01,6.01,44.7,7.97,53.59
				c1.96,8.89,5.23,37.91,7.19,43.79c1.96,5.88,4.97,20.52,5.36,26.01c0.39,5.49,5.49,6.67,5.49,6.67v5.23c9.8,3.01,22.48,0,22.48,0
				l0.13-5.23c4.71-2.09,3.92-11.89,4.96-17.65C601.53,430.79,599.44,412.36,598.66,407.26z"/>
			<g>
				<path style="&st12;" d="M584.67,221.53h-42.35h-42.35c0,0-3.27,3.27-1.57,8.63h87.84C587.94,224.79,584.67,221.53,584.67,221.53
					z"/>
				<g>
					<rect x="541.93" y="230.15" style="&st12;" width="0.78" height="66.92"/>
				</g>
				<g>
					<g>
						<circle style="&st13;" cx="536.23" cy="225.82" r="1.32"/>
						<g>
							<rect x="535.83" y="241.85" style="&st13;" width="0.79" height="3.53"/>
							<path style="&st14;" d="M537.16,241.57c0,0.73-0.42,1.32-0.94,1.32l0,0c-0.52,0-0.94-0.59-0.94-1.32v-14.43
								c0-0.73,0.42-1.32,0.94-1.32l0,0c0.52,0,0.94,0.59,0.94,1.32V241.57z"/>
						</g>
					</g>
					<g>
						<circle style="&st13;" cx="547.74" cy="225.82" r="1.32"/>
						<g>
							<rect x="547.35" y="241.85" style="&st13;" width="0.79" height="3.53"/>
							<path style="&st14;" d="M548.68,241.57c0,0.73-0.42,1.32-0.94,1.32l0,0c-0.52,0-0.94-0.59-0.94-1.32v-14.43
								c0-0.73,0.42-1.32,0.94-1.32l0,0c0.52,0,0.94,0.59,0.94,1.32V241.57z"/>
						</g>
					</g>
				</g>
			</g>
		</g>
		<g>
			<path style="&st12;" d="M489.12,454.19l0.13,5.23c0,0,12.68,3.01,22.48,0v-5.23C499.06,456.08,489.12,454.19,489.12,454.19z"/>
			<path style="&st12;" d="M595.57,454.19l-0.13,5.23c0,0-12.68,3.01-22.48,0v-5.23C585.63,456.08,595.57,454.19,595.57,454.19z"/>
		</g>
	</g>
	<g>
		<path style="&st15;" d="M794.87-22.32h-37.24c8.05,4.03,14.6,4.77,18.62,4.77C780.93-17.56,786.81-18.29,794.87-22.32z"/>
		<g>
			<path style="&st16;" d="M820.75,53.15c11.95,6.17,32.26-10.35,32.26-10.35l-22.9-51.97c0,0-12.39,25.49-12.97,38.83L820.75,53.15
				z"/>
			<path style="&st17;" d="M820.75,53.15l-3.61-23.5c0.57-13.34,12.97-38.83,12.97-38.83l-35.24-13.14
				c-8.06,4.03-13.94,4.77-18.62,4.77c-4.02,0-10.56-0.73-18.62-4.77L722.39-9.18c0,0,12.39,25.49,12.97,38.83l-3.61,23.5
				l-7.57,93.99c0,0,5.14,3.35,51.77,3.38l0,0c0.1,0,0.2,0,0.3,0c0.1,0,0.2,0,0.3,0l0,0c46.63-0.03,51.77-3.38,51.77-3.38
				L820.75,53.15z"/>
			<path style="&st16;" d="M731.74,53.15c-11.95,6.17-32.26-10.35-32.26-10.35l22.9-51.97c0,0,12.39,25.49,12.97,38.83L731.74,53.15
				z"/>
			<path style="&st18;" d="M754.84-21.28c0,0,6.31,6.32,21.41,6.32c15.1,0,21.41-6.32,21.41-6.32l-2.79-1.04
				c0,0-8.83,4.69-18.85,4.77c-10.02,0.08-18.39-4.77-18.39-4.77L754.84-21.28z"/>
		</g>
	</g>
	<g>
		<g>
			<path style="&st19;" d="M1240.41,53.05c0,0-4.08,1.96-5.79,18.4c0,0-0.86,25.25-1.72,37.39c-0.86,12.14-1.93,23.1-3,25.84
				c-1.07,2.74,0.21,7.05,0,12.92c-0.21,5.87,0.64,26.23-0.43,34.45c-1.07,8.22-5.15,13.51-3.43,14.68
				c1.72,1.17,2.15,1.56,2.36,3.72c0.21,2.15-2.15,9.2-1.72,11.74c0.43,2.54,14.59,4.7,19.31,3.33c4.72-1.37,0.86-4.39,2.36-7.57
				c1.5-3.19,2.36-7.1,4.08-8.47c1.72-1.37-0.86-4.31-1.29-8.81c-0.43-4.5-0.98-12.92,1.87-24.08c2.85-11.16,4.99-20.36,4.14-22.9
				c-0.86-2.55,0.21-11.35,1.29-14.29c1.07-2.94-0.43-6.79,0-8.58c0.43-1.79,2.79-7.47,2.36-9.81c-0.43-2.35-0.21-8.03,1.72-8.61
				L1240.41,53.05z"/>
			<g>
				<path style="&st11;" d="M1252.28,199.79c0.27-0.22,0.73-0.91,0.73-1.63c-16.4,1.53-27.34-2.02-27.34-2.02
					c0.48,2.15,2.09,2.21,2.32,4.44c0.22,2.23-2.24,9.54-1.79,12.19c0.45,2.64,15.22,4.87,20.14,3.45c4.92-1.42,0.89-4.55,2.46-7.86
					C1250.36,205.04,1250.49,201.21,1252.28,199.79z"/>
				<path style="&st12;" d="M1227.98,201.09c-0.04,0.91-0.3,2.27-0.62,3.76l21.64,3.02c0.52-1.22,0.88-2.5,1.21-3.68L1227.98,201.09
					z"/>
				<path style="&st12;" d="M1226.14,211.55l22.51,3.15c0.53-1.06-0.05-2.4-0.21-3.88l-21.71-3.03
					C1226.44,209.17,1226.2,210.5,1226.14,211.55z"/>
			</g>
		</g>
		<g>
			<path style="&st19;" d="M1364.4,53.05c0,0,4.08,1.96,5.79,18.4c0,0,0.86,25.25,1.72,37.39c0.86,12.14,1.93,23.1,3,25.84
				c1.07,2.74-0.21,7.05,0,12.92c0.21,5.87-0.64,26.23,0.43,34.45c1.07,8.22,5.14,13.51,3.43,14.68c-1.72,1.17-2.14,1.56-2.36,3.72
				c-0.22,2.15,2.14,9.2,1.71,11.74c-0.43,2.54-14.59,4.7-19.3,3.33c-4.72-1.37-0.86-4.39-2.36-7.57c-1.5-3.19-2.36-7.1-4.08-8.47
				c-1.72-1.37,0.86-4.31,1.29-8.81c0.43-4.5,0.98-12.92-1.87-24.08c-2.85-11.16-4.99-20.36-4.14-22.9
				c0.86-2.55-0.21-11.35-1.29-14.29c-1.07-2.94,0.43-6.79,0-8.58c-0.43-1.79-2.79-7.47-2.36-9.81c0.43-2.35,0.21-8.03-1.72-8.61
				L1364.4,53.05z"/>
			<g>
				<path style="&st11;" d="M1352.53,199.79c-0.27-0.22-0.73-0.91-0.73-1.63c16.4,1.53,27.34-2.02,27.34-2.02
					c-0.48,2.15-2.09,2.21-2.31,4.44c-0.22,2.23,2.24,9.54,1.79,12.19c-0.45,2.64-15.22,4.87-20.14,3.45
					c-4.92-1.42-0.9-4.55-2.46-7.86C1354.45,205.04,1354.32,201.21,1352.53,199.79z"/>
				<g>
					<path style="&st12;" d="M1376.84,201.09c0.04,0.91,0.3,2.27,0.63,3.76l-21.64,3.02c-0.52-1.22-0.88-2.5-1.21-3.68
						L1376.84,201.09z"/>
					<path style="&st12;" d="M1378.68,211.55l-22.51,3.15c-0.53-1.06,0.05-2.4,0.21-3.88l21.72-3.03
						C1378.39,209.17,1378.62,210.5,1378.68,211.55z"/>
				</g>
			</g>
		</g>
		<g>
			<path style="&st11;" d="M1364.4,53.05c-1.07-1.96-7.08-4.31-16.73-6.66c-9.65-2.35-24.24-12.72-24.24-12.72l-21.03,19.19
				l-21.03-19.19c0,0-14.59,10.37-24.24,12.72c-9.65,2.35-15.66,4.7-16.73,6.66c0,0,3.65,13.5,8.58,20.36
				c0,0,4.93,21.53,13.51,28.97c0,0-2.57,27.21-3,45.22c-0.43,18.01-4.29,32.1,2.57,38.36c0,0,0.86,9.2-1.18,12.53
				c-2.04,3.33-0.97,5.87-0.97,5.87s12.44,4.11,23.81,3.52c11.21-0.58,13.66-2.49,18.67-2.54c5,0.05,7.46,1.96,18.67,2.54
				c11.37,0.59,23.81-3.52,23.81-3.52s1.07-2.55-0.96-5.87c-2.04-3.33-1.18-12.53-1.18-12.53c6.86-6.26,3-20.36,2.57-38.36
				c-0.43-18.01-3-45.22-3-45.22c8.58-7.44,13.51-28.97,13.51-28.97C1360.76,66.56,1364.4,53.05,1364.4,53.05z"/>
			<g>
				<g>
					<polygon style="&st13;" points="1287.81,28.97 1317,28.97 1302.56,52.64 					"/>
					<g>
						<path style="&st19;" d="M1323.43,33.67c-3.43-0.2-6.44-4.7-6.44-4.7l-14.59,23.4l-14.59-23.4c0,0-3,4.5-6.44,4.7
							c0,0,0.64,17.52,20.65,19.3l-0.05,0.07c0.15-0.01,0.28-0.03,0.42-0.04c0.14,0.01,0.28,0.03,0.42,0.04l-0.05-0.07
							C1322.79,51.2,1323.43,33.67,1323.43,33.67z"/>
						<g>
							<g>
								<polygon style="&st19;" points="1299.83,205.53 1298.97,205.67 1298.97,54.59 1302.56,52.64 1303.95,52.36 1299.83,55.03 
																	"/>
							</g>
							<g>
								<ellipse style="&st19;" cx="1304.12" cy="59.71" rx="2.14" ry="1.96"/>
								<ellipse style="&st19;" cx="1304.12" cy="83.19" rx="2.14" ry="1.96"/>
								<ellipse style="&st19;" cx="1304.12" cy="106.68" rx="2.14" ry="1.96"/>
								<ellipse style="&st19;" cx="1304.12" cy="130.17" rx="2.14" ry="1.96"/>
								<ellipse style="&st19;" cx="1304.12" cy="153.66" rx="2.14" ry="1.96"/>
								<ellipse style="&st19;" cx="1304.12" cy="177.15" rx="2.14" ry="1.96"/>
								<ellipse style="&st19;" cx="1304.12" cy="200.63" rx="2.14" ry="1.96"/>
							</g>
						</g>
					</g>
				</g>
				<g>
					<g>
						<path style="&st12;" d="M1291.63,191.81c-0.08-1.52-0.14-2.61-0.23-3.16c-0.34-2.18-4.02-2.06-10.69-1.83
							c-1.27,0.04-2.65,0.09-4.13,0.12c-7.26,0.18-13.16-0.96-14.85-1.33c0.11,0.11,0.22,0.23,0.34,0.33c0,0,0.02,0.22,0.05,0.6
							c2.28,0.46,7.82,1.39,14.49,1.23c1.48-0.04,2.86-0.08,4.14-0.13c5.74-0.2,9.52-0.32,9.75,1.12c0.08,0.51,0.14,1.64,0.22,3.08
							c0.23,4.22,0.6,10.97,2.02,15.07c0.31-0.05,0.61-0.11,0.9-0.16C1292.23,202.76,1291.85,195.76,1291.63,191.81z"/>
						<g>
							<path style="&st12;" d="M1261.95,195.02h24v-4.04h-23.71C1262.23,192.3,1262.15,193.72,1261.95,195.02z"/>
							<path style="&st12;" d="M1260.89,198.48c-0.9,1.46-1.19,2.77-1.24,3.78h26.3v-4.04h-24.92
								C1260.99,198.31,1260.94,198.4,1260.89,198.48z"/>
						</g>
					</g>
					<g>
						<path style="&st12;" d="M1313.2,191.81c0.08-1.52,0.14-2.61,0.23-3.16c0.34-2.18,4.02-2.06,10.69-1.83
							c1.27,0.04,2.65,0.09,4.13,0.12c7.26,0.18,13.16-0.96,14.85-1.33c-0.11,0.11-0.22,0.23-0.34,0.33c0,0-0.02,0.22-0.05,0.6
							c-2.28,0.46-7.82,1.39-14.5,1.23c-1.48-0.04-2.86-0.08-4.14-0.13c-5.73-0.2-9.52-0.32-9.75,1.12
							c-0.08,0.51-0.14,1.64-0.22,3.08c-0.23,4.22-0.6,10.97-2.02,15.07c-0.31-0.05-0.61-0.11-0.9-0.16
							C1312.6,202.76,1312.98,195.76,1313.2,191.81z"/>
						<g>
							<path style="&st12;" d="M1342.88,195.02h-24v-4.04h23.71C1342.6,192.3,1342.68,193.72,1342.88,195.02z"/>
							<path style="&st12;" d="M1343.93,198.48c0.9,1.46,1.19,2.77,1.24,3.78h-26.3v-4.04h24.92
								C1343.84,198.31,1343.88,198.4,1343.93,198.48z"/>
						</g>
					</g>
				</g>
			</g>
		</g>
	</g>
	<g>
		<path style="&st20;" d="M1093.52,233.5c-0.28-2.79,0.28-14.88,0-18.2c-0.28-3.32-3.61-42.25-4.16-46.9
			c-0.56-4.65-2.22-21.26-2.78-25.42c-0.55-4.16-0.97-16.83-1.8-23.87c-0.83-7.04-2.36-35.88-2.69-37.74
			c-0.33-1.86-0.92-9.96-0.22-12.89c0.69-2.92-0.42-4.65-0.83-7.44c-0.42-2.79-1.39-20.33-1.67-21.39
			c-0.28-1.06-0.42-4.52-1.11-7.17c-0.69-2.66-1.11-6.51-1.11-6.51c0.14-1.33-0.97-9.43-0.97-9.43h-45.67h-45.67
			c0,0-1.11,8.1-0.97,9.43c0,0-0.42,3.85-1.11,6.51c-0.69,2.66-0.83,6.11-1.11,7.17c-0.28,1.06-1.25,18.6-1.67,21.39
			c-0.42,2.79-1.53,4.52-0.83,7.44c0.69,2.92,0.11,11.03-0.22,12.89c-0.33,1.86-1.86,30.69-2.69,37.74
			c-0.83,7.04-1.25,19.71-1.8,23.87c-0.56,4.16-2.22,20.77-2.78,25.42c-0.55,4.65-3.89,43.58-4.16,46.9
			c-0.28,3.32,0.28,15.41,0,18.2c-0.28,2.79-2.64,24.98-1.94,26.71c0,0,18.88-3.05,29.71,0.8c0,0,1.53-3.46,1.8-5.32
			c0.28-1.86-1.39-5.18-0.69-5.98c0.69-0.8,3.89-6.24,3.75-8.63c-0.14-2.39-0.96-7.18,0-9.04c0.97-1.86,1.39-6.78,1.39-9.43
			c0-2.66,1.67-11.83,2.64-15.81c0.97-3.99,3.75-22.46,3.89-26.57c0.14-4.12,1.67-13.69,2.5-15.81c0.83-2.13,2.22-13.42,2.92-17.81
			c0.69-4.38,1.53-14.62,4.16-21.79c2.64-7.17,8.33-22.99,9.02-25.11c0.69-2.13,1.94-6.91,2.08-7.97l1.8-0.4l1.81,0.4
			c0.14,1.06,1.39,5.85,2.08,7.97c0.69,2.13,6.39,17.94,9.02,25.11c2.64,7.17,3.47,17.41,4.16,21.79
			c0.69,4.39,2.08,15.68,2.92,17.81c0.83,2.13,2.36,11.69,2.5,15.81c0.14,4.12,2.92,22.59,3.89,26.57
			c0.97,3.99,2.64,13.15,2.64,15.81c0,2.66,0.42,7.57,1.38,9.43c0.97,1.86,0.14,6.64,0,9.04c-0.14,2.39,3.05,7.84,3.75,8.63
			c0.69,0.8-0.97,4.12-0.69,5.98c0.28,1.86,1.81,5.32,1.81,5.32c10.83-3.85,29.71-0.8,29.71-0.8
			C1096.16,258.48,1093.8,236.29,1093.52,233.5z"/>
		<g>
			<path style="&st21;" d="M983.85,25.96l0.97-9.43h91.34c0,0,0.78,7.88,0.97,9.43H983.85z"/>
			<g>
				<rect x="1000.07" y="14.93" style="&st22;" width="3.19" height="11.96"/>
				<rect x="1058.43" y="14.93" style="&st22;" width="3.19" height="11.96"/>
			</g>
			<g>
				<path style="&st23;" d="M1027.44,16.53v9.43h2.39v65.49l1.68,0.11l0.04-18.56c0,0,6.64,1.2,6.64-11.03c0-12.22,0-36.01,0-36.01
					v-9.43H1027.44z"/>
				<circle style="&st20;" cx="1032.56" cy="20.78" r="1.53"/>
				<path style="&st23;" d="M1012.69,25.96c0,0,3.99,18.59-31.29,15.94l-0.21,2.79c0,0,34.69,5.71,34.69-18.73H1012.69z"/>
				<path style="&st23;" d="M1048.26,25.96c0,0-3.98,18.59,31.29,15.94l0.21,2.79c0,0-34.69,5.71-34.69-18.73H1048.26z"/>
				<g>
					<path style="&st24;" d="M995.24,261.01c0,0,0.59-1.34,1.11-2.81c-14.37-4.56-30.17-1.28-30.91-1.12
						c-0.06,1.64-0.04,2.79,0.09,3.13C965.53,260.21,984.41,257.15,995.24,261.01z"/>
					<path style="&st24;" d="M1065.76,261.01c0,0-0.59-1.34-1.11-2.81c14.37-4.56,30.17-1.28,30.91-1.12
						c0.06,1.64,0.04,2.79-0.09,3.13C1095.47,260.21,1076.59,257.15,1065.76,261.01z"/>
				</g>
			</g>
		</g>
	</g>
	<g>
		<path style="&st25;" d="M160.07,26.55l-34.18-12.71h-20.6h-0.85h-20.6L49.67,26.55c0,0,8.22,37.23,5.53,51.13l-0.42,97.48
			c0,0,11.67,14.57,49.67,14.79v0.01c0.14,0,0.28,0,0.42,0c0.15,0,0.28,0,0.43,0v-0.01c38-0.22,49.67-14.79,49.67-14.79l-0.42-97.48
			C151.85,63.78,160.07,26.55,160.07,26.55z"/>
		<g>
			<g>
				<path style="&st26;" d="M55.2,77.69c2.7-13.9-5.53-51.13-5.53-51.13L15.73,53.76l28.11,32.29l11.36-7.47L55.2,77.69z"/>
				<polygon style="&st27;" points="22.02,48.72 50.28,81.82 43.84,86.06 15.73,53.76 				"/>
			</g>
			<g>
				<path style="&st26;" d="M154.66,77.69c-2.69-13.9,5.53-51.13,5.53-51.13l33.94,27.21l-28.11,32.29l-11.36-7.47L154.66,77.69z"/>
				<polygon style="&st27;" points="187.84,48.72 159.58,81.82 166.02,86.06 194.13,53.76 				"/>
			</g>
		</g>
		<g>
			<g>
				<polygon style="&st26;" points="93.81,13.85 96.62,33.58 106.26,42.1 103.46,51.19 92.47,31.23 92.47,13.85 				"/>
				<polygon style="&st26;" points="117.49,13.85 116.13,13.85 113.66,33.36 106.26,42.1 103.46,51.19 103.46,189.96 111.76,189.77 
					111.76,51.19 112.87,41.65 117.49,31.23 				"/>
				<g>
					<circle style="&st27;" cx="107.32" cy="51.91" r="1.85"/>
					<circle style="&st27;" cx="107.32" cy="72.55" r="1.85"/>
					<circle style="&st27;" cx="107.32" cy="93.18" r="1.85"/>
					<circle style="&st27;" cx="107.32" cy="113.81" r="1.85"/>
					<circle style="&st27;" cx="107.32" cy="134.44" r="1.85"/>
					<circle style="&st27;" cx="107.32" cy="155.07" r="1.85"/>
				</g>
				<polygon style="&st28;" points="93.7,12.87 96.62,33.58 106.26,42.1 113.66,33.36 116.35,13.32 				"/>
			</g>
			<g>
				<polygon style="&st29;" points="92.47,3.42 83.85,13.85 76.1,39.19 92.47,31.23 				"/>
				<polygon style="&st29;" points="117.49,3.42 126.1,13.85 133.86,39.19 117.49,31.23 				"/>
				<rect x="92.47" y="3.42" style="&st29;" width="25.02" height="10.43"/>
			</g>
		</g>
	</g>
	<g>
		<g>
			<path style="&st30;" d="M1086.91-177.63c-5.38-21.98,4.49-68.17,4.49-68.17c-0.08-0.12-0.2-0.24-0.3-0.36l0.3-0.91
				c0,0,8.52,4.78,13.01,16.74c4.48,11.96,19.44,113.25,18.54,137.06l-27.51,5.34l-8.36-85.44
				C1086.99-176.07,1086.91-177.63,1086.91-177.63z"/>
			<path style="&st30;" d="M963.8-177.63c5.38-21.98-4.49-68.17-4.49-68.17c0.08-0.12,0.2-0.24,0.3-0.36l-0.3-0.91
				c0,0-8.52,4.78-13.01,16.74c-4.49,11.96-19.44,113.25-18.54,137.06l27.51,5.34l8.36-85.44
				C963.72-176.07,963.8-177.63,963.8-177.63z"/>
		</g>
		<g>
			<path style="&st31;" d="M1092.3-246.7c-4.26-6.05-37.68-14.35-37.68-14.35l-29.26-2.02l0,0l0,0h0l0,0l-29.27,2.02
				c0,0-33.41,8.3-37.68,14.35c0,0,9.87,46.2,4.49,68.18c0,0-2.69,57.19,4.93,80.06v14.11h57.52h0h57.52v-14.11
				c7.63-22.87,4.93-80.06,4.93-80.06C1082.43-200.51,1092.3-246.7,1092.3-246.7z"/>
			<rect x="967.83" y="-98.47" style="&st30;" width="115.05" height="14.11"/>
			<g>
				<g>
					<polygon style="&st32;" points="1006.7,-210.3 990.71,-210.3 990.71,-210.3 974.71,-210.3 974.71,-181.74 990.71,-175.46 
						990.71,-175.46 990.71,-175.46 990.71,-175.46 990.71,-175.46 1006.7,-181.74 					"/>
					<polygon style="&st30;" points="990.71,-218.36 990.71,-218.36 973.51,-218.36 973.51,-210.3 976.95,-206.71 990.71,-206.71 
						990.71,-206.71 1004.46,-206.71 1007.9,-210.3 1007.9,-218.36 					"/>
					<polygon style="&st32;" points="1039.46,-210.3 1055.45,-210.3 1055.45,-210.3 1071.45,-210.3 1071.45,-181.74 
						1055.45,-175.46 1055.45,-175.46 1055.45,-175.46 1055.45,-175.46 1055.45,-175.46 1039.46,-181.74 					"/>
					<polygon style="&st30;" points="1055.45,-218.36 1055.45,-218.36 1072.65,-218.36 1072.65,-210.3 1069.21,-206.71 
						1055.45,-206.71 1055.45,-206.71 1041.7,-206.71 1038.26,-210.3 1038.26,-218.36 					"/>
				</g>
				<g>
					<g>
						<g>
							<polygon style="&st33;" points="1000.13,-237.06 1020.46,-246.33 1007.3,-275.34 996.09,-261.06 							"/>
							<polygon style="&st33;" points="1048.72,-237.06 1028.39,-246.33 1041.55,-275.34 1052.76,-261.06 							"/>
						</g>
						<polygon style="&st34;" points="1007.3,-275.34 1041.55,-275.34 1028.39,-246.33 1020.46,-246.33 						"/>
					</g>
					<g>
						<rect x="962.92" y="-219.26" style="&st33;" width="60.6" height="0.9"/>
					</g>
					<g>
						<rect x="1024.43" y="-219.26" style="&st33;" width="63.3" height="0.9"/>
					</g>
					<g>
						<rect x="1023.53" y="-246.33" style="&st33;" width="1.79" height="161.98"/>
					</g>
				</g>
			</g>
		</g>
	</g>
	<rect id="_x3C_Slice_x3E_" x="444.52" y="-278.07" style="&st35;" width="174" height="196"/>
	<rect id="_x3C_Slice_x3E__1_" x="1211.68" y="20.53" style="&st35;" width="180" height="209"/>
	<rect id="_x3C_Slice_x3E__2_" x="903.52" y="-272.07" style="&st35;" width="234" height="193"/>
	<rect id="_x3C_Slice_x3E__3_" x="-33.39" y="-273.98" style="&st35;" width="166" height="183"/>
	<rect id="_x3C_Slice_x3E__4_" x="946.52" y="9.93" style="&st35;" width="168" height="265"/>
</g>
</svg>
