<?xml version="1.0" encoding="utf-8"?>
<!-- Generator: Adobe Illustrator 21.0.0, SVG Export Plug-In . SVG Version: 6.00 Build 0)  -->
<!DOCTYPE svg PUBLIC "-//W3C//DTD SVG 1.1//EN" "http://www.w3.org/Graphics/SVG/1.1/DTD/svg11.dtd" [
	<!ENTITY st0 "fill:#3F4241;">
	<!ENTITY st1 "fill:#3E3F3E;">
	<!ENTITY st2 "fill:#474948;">
	<!ENTITY st3 "fill:#272827;">
	<!ENTITY st4 "fill:#2C2D2C;">
	<!ENTITY st5 "fill:#3C3D3C;">
	<!ENTITY st6 "fill:#252625;">
	<!ENTITY st7 "fill:#2D2D2D;">
	<!ENTITY st8 "fill:#F4F3ED;">
	<!ENTITY st9 "fill:#EAE9E4;">
	<!ENTITY st10 "fill:#D1CFC9;">
	<!ENTITY st11 "fill:#DDDDDD;">
	<!ENTITY st12 "fill:#C9C9C9;">
	<!ENTITY st13 "fill:#888889;">
	<!ENTITY st14 "fill:#ADADAD;">
	<!ENTITY st15 "fill:#D8B355;">
	<!ENTITY st16 "fill:#E5C776;">
	<!ENTITY st17 "fill:#F2D98B;">
	<!ENTITY st18 "fill:#F2E7C7;">
	<!ENTITY st19 "fill:#BABABA;">
	<!ENTITY st20 "fill:#A1C1D6;">
	<!ENTITY st21 "fill:#1E5476;">
	<!ENTITY st22 "fill:#174D68;">
	<!ENTITY st23 "fill:#658DB0;">
	<!ENTITY st24 "fill:#5A91AF;">
	<!ENTITY st25 "fill:#E86767;">
	<!ENTITY st26 "fill:#E05C5C;">
	<!ENTITY st27 "fill:#C13333;">
	<!ENTITY st28 "fill:#CC3E3E;">
	<!ENTITY st29 "fill:#D85555;">
	<!ENTITY st30 "fill:#C8BDA1;">
	<!ENTITY st31 "fill:#BCAF93;">
	<!ENTITY st32 "fill:#D8CEB6;">
	<!ENTITY st33 "fill:#A3967B;">
	<!ENTITY st34 "fill:#8E8169;">
	<!ENTITY st35 "fill:none;">
]>
<svg version="1.1" xmlns="http://www.w3.org/2000/svg" xmlns:xlink="http://www.w3.org/1999/xlink" x="0px" y="0px"
	 viewBox="0 0 178.49 191.07" style="enable-background:new 0 0 178.49 191.07;" xml:space="preserve">
<g id="Background">
</g>
<g id="Objects">
	<polygon style="&st0;" points="-804.76,471.35 -823.48,502.8 -823.17,498.7 	"/>
	<g>
		<path style="&st1;" d="M422.64,834.87c-0.41-4.11-9.46-113.48-10.69-130.75c-1.23-17.27-4.93-60.44-5.76-71.54
			c-0.82-11.1-4.83-35.67-4.83-35.67h-91.4c0,0-4.01,24.57-4.83,35.67c-0.82,11.1-4.52,54.27-5.76,71.54
			c-1.23,17.27-10.28,126.64-10.69,130.75l32.07,4.94l34.91-185.63l34.91,185.63L422.64,834.87z"/>
		<polygon style="&st2;" points="308.84,604.01 402.48,604.01 401.36,596.91 309.96,596.91 		"/>
		<path style="&st1;" d="M349.55,596.91c0,0-5.4,2.77,0,7.09h52.92l-1.12-7.09H349.55z"/>
		<g>
			<g>
				<circle style="&st3;" cx="351.21" cy="600.46" r="1.97"/>
				<g>
					<rect x="331.87" y="595.37" style="&st4;" width="3.7" height="10.28"/>
					<rect x="367.23" y="595.37" style="&st4;" width="3.7" height="10.28"/>
				</g>
			</g>
			<g>
				<g>
					<path style="&st4;" d="M308.84,604.01L308.84,604.01c-1.18,7.68-2.96,19.84-3.61,27.32l0.03,0.02l18.4-27.34H308.84z"/>
					<path style="&st4;" d="M402.51,604.01L402.51,604.01c1.18,7.68,2.96,19.84,3.61,27.32l-0.03,0.02l-18.4-27.34H402.51z"/>
				</g>
				<g>
					<path style="&st4;" d="M354.95,604.01v43.33c0,0,7.86-3.55,9.1-5.7v-37.62H354.95z"/>
					<g>
						<g>
							<polygon style="&st4;" points="333.34,615.72 333.34,646.41 330.41,646.41 							"/>
							<polygon style="&st4;" points="327.8,661.02 316.37,733.1 304.94,830.23 319.18,734.49 							"/>
						</g>
						<g>
							<polygon style="&st4;" points="376.84,615.72 376.84,646.41 379.77,646.41 							"/>
							<polygon style="&st4;" points="383.26,661.02 394.69,733.1 406.12,830.23 391.89,734.49 							"/>
						</g>
					</g>
				</g>
			</g>
		</g>
	</g>
	<g>
		<path style="&st2;" d="M-656.57,201.47h26.46c0,0-3.06,21.35-3.93,23.85c-0.88,2.5-10.13,25.79-10.13,25.79l-9.82-26.31
			L-656.57,201.47z"/>
		<g>
			<path style="&st5;" d="M-694.12,375.94c0.31-5.67,2.05-14.16,3.61-23.17c0-0.09-1.88-58.3,1.9-74.63
				c-0.11-0.32-0.14-2.66-0.14-2.66c-2.55-35.86-6.96-48.28-9.04-53.41l-1.17-2.43c0,0-5.83-1.34-7.18,6.28
				c-1.35,7.63-13.23,80.96-13.46,102.71c-0.22,21.75,1.57,47.32,1.57,47.32L-694.12,375.94L-694.12,375.94z"/>
			<path style="&st1;" d="M-643.34,381.1l7.92,9.57c0,0,42.46-6.73,43.96-9.57c0,0-4.7-28.26-6.39-37.23
				c-1.69-8.97-3.78-50.17-3.78-50.17l3.78-15.57c0,0,3.54-46.99,10.35-58.51c0,0-29.06-9.01-36.1-11.89l6.73,18.16l-4.6,2.36
				l5.38,6.5c0,0-42.42,48.48-45.26,52.36C-661.36,287.14-665.02,323.24-643.34,381.1z"/>
			<path style="&st2;" d="M-663.64,208.09l-35.32,11.55c0,0,6.73,9.72,10.17,58.01c0,0,3.44,9.42,4.34,13.9
				c0,0,0.45,20.33-1.79,34.54c-2.24,14.2-7.62,40.07-7.92,51.13c0,0,10.91,9.27,40.82,13.46c0,0,8.22-4.34,10.02-9.57
				c0,0-9.12-28.7-11.81-41.86c-2.69-13.16-7.18-42.16-5.83-52.48l12.86-27.66l-21.38-26.31l4.63-7.18l-5.23-2.39L-663.64,208.09z"
				/>
			<path style="&st5;" d="M-592.34,375.94c-1.16-6.98-2.64-13.26-4.2-22.27c0-0.09,2.48-59.2-1.3-75.53c0.11-0.32,0-1.77,0-1.77
				c2.55-35.86,7.1-49.17,9.18-54.31l1.17-2.43c0,0,5.83-1.34,7.18,6.28c1.35,7.63,13.23,80.96,13.46,102.71
				c0.22,21.75-1.57,47.32-1.57,47.32L-592.34,375.94L-592.34,375.94z"/>
			<g>
				<path style="&st6;" d="M-648.13,259.11c0,0,12.41-30.61,13.87-34.87c1.46-4.26,4.15-22.76,4.15-22.76l6.5,6.28l6.73,18.16
					l-4.6,2.36l5.38,6.5l-44.89,51.99L-648.13,259.11z"/>
				<polygon style="&st6;" points="-663.64,208.09 -656.57,201.47 -653.99,223 -643.65,251.11 -647.6,260.9 -669.51,232.79 
					-664.87,225.62 -670.1,223.22 				"/>
			</g>
			<g>
				<polygon style="&st7;" points="-619.58,262.84 -631.53,262.84 -631.53,287.69 -629.87,289.9 -619.58,289.9 -609.28,289.9 
					-607.62,287.69 -607.62,262.84 				"/>
				<rect x="-631.53" y="262.84" style="&st6;" width="23.91" height="6.14"/>
			</g>
			<g>
				<circle style="&st6;" cx="-653.85" cy="291.4" r="3.29"/>
				<circle style="&st6;" cx="-653.85" cy="316.52" r="3.29"/>
			</g>
		</g>
	</g>
	<g>
		<g>
			<g>
				<path style="&st8;" d="M-419.06,170.54c-0.12-0.8-0.18-1.25-0.18-1.25c0.39-18.58-10.54-42.08-10.54-42.08s-6.05,2.99-7.8,9.61
					c-1.76,6.62-6.44,40.16-8.39,61.3c-1.95,21.15-3.71,52.97-2.54,57.03l-0.38,15.17h17.94v-13.46L-419.06,170.54L-419.06,170.54z"
					/>
				<polygon style="&st9;" points="-430.94,255.16 -448.5,255.16 -448.88,270.33 -430.94,270.33 -430.94,256.87 -430.76,255.51 				
					"/>
			</g>
			<g>
				<path style="&st8;" d="M-336.1,170.54c0.12-0.8,0.18-1.25,0.18-1.25c-0.39-18.58,10.54-42.08,10.54-42.08s6.05,2.99,7.8,9.61
					c1.76,6.62,6.44,40.16,8.39,61.3c1.95,21.15,3.71,52.97,2.54,57.03l0.38,15.17h-17.94v-13.46L-336.1,170.54L-336.1,170.54z"/>
				<polygon style="&st9;" points="-324.21,255.16 -306.65,255.16 -306.27,270.33 -324.21,270.33 -324.21,256.87 -324.4,255.51 				
					"/>
			</g>
		</g>
		<g>
			<path style="&st9;" d="M-335.92,169.29c-0.39-18.58,10.54-42.08,10.54-42.08l-32.97-15.81h-18.94h-0.57h-18.94l-32.97,15.81
				c0,0,10.93,23.5,10.54,42.08c0,0,6.44,44,5.95,50.2c-0.49,6.19-6.93,52.76-6.93,52.76s2.93,5.55,17.17,5.55
				c12.39,0,22.7,0,25.18,0c0.37,0,0.57,0,0.57,0c2.48,0,12.8,0,25.18,0c14.24,0,17.17-5.55,17.17-5.55s-6.44-46.57-6.93-52.76
				C-342.35,213.29-335.92,169.29-335.92,169.29z"/>
			<g>
				<g>
					<polygon style="&st8;" points="-393.03,102.32 -398.46,115.03 -390.95,130.31 -377.99,117.49 					"/>
					<polygon style="&st8;" points="-362.01,102.32 -356.59,115.03 -364.1,130.31 -377.05,117.49 					"/>
				</g>
				<polygon style="&st9;" points="-393.03,102.32 -362.01,102.32 -377.05,117.49 -377.99,117.49 				"/>
				<g>
					<polygon style="&st8;" points="-382.08,121.53 -377.99,117.49 -377.05,117.49 -372.97,121.53 -372.97,277.8 -381.34,277.8 
											"/>
					<g>
						<ellipse style="&st10;" cx="-377.78" cy="121.05" rx="1.2" ry="1.32"/>
						<ellipse style="&st10;" cx="-377.78" cy="138.14" rx="1.2" ry="1.32"/>
						<ellipse style="&st10;" cx="-377.78" cy="155.23" rx="1.2" ry="1.32"/>
						<ellipse style="&st10;" cx="-377.78" cy="172.32" rx="1.2" ry="1.32"/>
						<ellipse style="&st10;" cx="-377.78" cy="189.41" rx="1.2" ry="1.32"/>
						<ellipse style="&st10;" cx="-377.78" cy="206.49" rx="1.2" ry="1.32"/>
						<ellipse style="&st10;" cx="-377.78" cy="223.58" rx="1.2" ry="1.32"/>
						<ellipse style="&st10;" cx="-377.78" cy="240.67" rx="1.2" ry="1.32"/>
					</g>
				</g>
			</g>
		</g>
	</g>
	<g>
		<g>
			<path style="&st11;" d="M173.08,778.14c-0.79-5.1-2.35-44.83-2.48-57.51c-0.13-12.68-3-86.4-4.84-101.69
				c-1.83-15.29-5.1-17.91-5.1-17.91c1.7-5.36-1.57-8.63-1.57-8.63h-42.35H74.4c0,0-3.27,3.27-1.57,8.63c0,0-3.27,2.61-5.1,17.91
				c-1.83,15.29-4.7,89.01-4.84,101.69c-0.13,12.68-1.7,52.42-2.48,57.51c-0.78,5.1-2.87,23.53-1.83,29.28
				c1.05,5.75,0.26,15.55,4.97,17.65l0.13,5.23c0,0,12.68,3.01,22.48,0v-5.23c0,0,5.1-1.18,5.49-6.67
				c0.39-5.49,3.4-20.13,5.36-26.01c1.96-5.88,5.23-34.9,7.19-43.79c1.96-8.89,7.45-47.58,7.97-53.59
				c0.52-6.02,1.96-27.19,4.57-27.06c2.62-0.13,4.05,21.04,4.58,27.06c0.52,6.01,6.01,44.7,7.97,53.59
				c1.96,8.89,5.23,37.91,7.19,43.79c1.96,5.88,4.97,20.52,5.36,26.01c0.39,5.49,5.49,6.67,5.49,6.67v5.23c9.8,3.01,22.48,0,22.48,0
				l0.13-5.23c4.71-2.09,3.92-11.89,4.96-17.65C175.96,801.66,173.87,783.24,173.08,778.14z"/>
			<g>
				<path style="&st12;" d="M159.1,592.4h-42.35H74.4c0,0-3.27,3.27-1.57,8.63h87.84C162.36,595.67,159.1,592.4,159.1,592.4z"/>
				<g>
					<rect x="116.35" y="601.03" style="&st12;" width="0.78" height="66.92"/>
				</g>
				<g>
					<g>
						<circle style="&st13;" cx="110.65" cy="596.7" r="1.32"/>
						<g>
							<rect x="110.26" y="612.72" style="&st13;" width="0.79" height="3.53"/>
							<path style="&st14;" d="M111.59,612.45c0,0.73-0.42,1.32-0.94,1.32l0,0c-0.52,0-0.94-0.59-0.94-1.32v-14.43
								c0-0.73,0.42-1.32,0.94-1.32l0,0c0.52,0,0.94,0.59,0.94,1.32V612.45z"/>
						</g>
					</g>
					<g>
						<circle style="&st13;" cx="122.17" cy="596.7" r="1.32"/>
						<g>
							<rect x="121.78" y="612.72" style="&st13;" width="0.79" height="3.53"/>
							<path style="&st14;" d="M123.11,612.45c0,0.73-0.42,1.32-0.94,1.32l0,0c-0.52,0-0.94-0.59-0.94-1.32v-14.43
								c0-0.73,0.42-1.32,0.94-1.32l0,0c0.52,0,0.94,0.59,0.94,1.32V612.45z"/>
						</g>
					</g>
				</g>
			</g>
		</g>
		<g>
			<path style="&st12;" d="M63.55,825.06l0.13,5.23c0,0,12.68,3.01,22.48,0v-5.23C73.48,826.96,63.55,825.06,63.55,825.06z"/>
			<path style="&st12;" d="M169.99,825.06l-0.13,5.23c0,0-12.68,3.01-22.48,0v-5.23C160.06,826.96,169.99,825.06,169.99,825.06z"/>
		</g>
	</g>
	<g>
		<path style="&st15;" d="M108.43,6.85H71.2c8.05,4.03,14.6,4.77,18.62,4.77C94.49,11.62,100.38,10.88,108.43,6.85z"/>
		<g>
			<path style="&st16;" d="M134.32,82.32c11.95,6.17,32.26-10.35,32.26-10.35L143.68,20c0,0-12.39,25.49-12.97,38.83L134.32,82.32z"
				/>
			<path style="&st17;" d="M134.32,82.32l-3.61-23.5C131.28,45.48,143.68,20,143.68,20L108.43,6.85
				c-8.06,4.03-13.94,4.77-18.62,4.77c-4.02,0-10.56-0.73-18.62-4.77L35.95,20c0,0,12.4,25.49,12.97,38.83l-3.61,23.5l-7.57,93.99
				c0,0,5.14,3.35,51.77,3.38l0,0c0.1,0,0.2,0,0.3,0c0.1,0,0.2,0,0.3,0l0,0c46.63-0.03,51.77-3.38,51.77-3.38L134.32,82.32z"/>
			<path style="&st16;" d="M45.31,82.32C33.36,88.5,13.05,71.97,13.05,71.97L35.95,20c0,0,12.4,25.49,12.97,38.83L45.31,82.32z"/>
			<path style="&st18;" d="M68.4,7.9c0,0,6.31,6.32,21.41,6.32c15.1,0,21.41-6.32,21.41-6.32l-2.79-1.04c0,0-8.83,4.69-18.85,4.77
				C79.56,11.7,71.2,6.85,71.2,6.85L68.4,7.9z"/>
		</g>
	</g>
	<g>
		<g>
			<path style="&st19;" d="M814.83,423.92c0,0-4.08,1.96-5.79,18.4c0,0-0.86,25.25-1.72,37.39c-0.86,12.14-1.93,23.1-3,25.84
				c-1.07,2.74,0.21,7.05,0,12.92c-0.21,5.87,0.64,26.23-0.43,34.45c-1.07,8.22-5.15,13.51-3.43,14.68
				c1.72,1.17,2.15,1.56,2.36,3.72c0.21,2.15-2.15,9.2-1.72,11.74c0.43,2.54,14.59,4.7,19.31,3.33c4.72-1.37,0.86-4.39,2.36-7.57
				c1.5-3.19,2.36-7.1,4.08-8.47c1.72-1.37-0.86-4.31-1.29-8.81c-0.43-4.5-0.98-12.92,1.87-24.08c2.85-11.16,4.99-20.36,4.14-22.9
				c-0.86-2.55,0.21-11.35,1.29-14.29c1.07-2.94-0.43-6.79,0-8.58c0.43-1.79,2.79-7.47,2.36-9.81c-0.43-2.35-0.21-8.03,1.72-8.61
				L814.83,423.92z"/>
			<g>
				<path style="&st11;" d="M826.7,570.66c0.27-0.22,0.73-0.91,0.73-1.63c-16.4,1.53-27.34-2.02-27.34-2.02
					c0.48,2.15,2.09,2.21,2.32,4.44c0.22,2.23-2.24,9.54-1.79,12.19c0.45,2.64,15.22,4.87,20.14,3.45c4.92-1.42,0.89-4.55,2.46-7.86
					C824.78,575.92,824.91,572.08,826.7,570.66z"/>
				<path style="&st12;" d="M802.41,571.97c-0.04,0.91-0.3,2.27-0.62,3.76l21.64,3.02c0.52-1.22,0.88-2.5,1.21-3.68L802.41,571.97z"
					/>
				<path style="&st12;" d="M800.57,582.42l22.51,3.14c0.53-1.06-0.05-2.4-0.21-3.88l-21.71-3.03
					C800.87,580.04,800.63,581.37,800.57,582.42z"/>
			</g>
		</g>
		<g>
			<path style="&st19;" d="M938.83,423.92c0,0,4.08,1.96,5.79,18.4c0,0,0.86,25.25,1.72,37.39c0.86,12.14,1.93,23.1,3,25.84
				c1.07,2.74-0.21,7.05,0,12.92c0.21,5.87-0.64,26.23,0.43,34.45c1.07,8.22,5.14,13.51,3.43,14.68c-1.72,1.17-2.14,1.56-2.36,3.72
				c-0.22,2.15,2.14,9.2,1.71,11.74c-0.43,2.54-14.59,4.7-19.3,3.33c-4.72-1.37-0.86-4.39-2.36-7.57c-1.5-3.19-2.36-7.1-4.08-8.47
				c-1.72-1.37,0.86-4.31,1.29-8.81c0.43-4.5,0.98-12.92-1.87-24.08c-2.85-11.16-4.99-20.36-4.14-22.9
				c0.86-2.55-0.21-11.35-1.29-14.29c-1.07-2.94,0.43-6.79,0-8.58c-0.43-1.79-2.79-7.47-2.36-9.81c0.43-2.35,0.21-8.03-1.72-8.61
				L938.83,423.92z"/>
			<g>
				<path style="&st11;" d="M926.96,570.66c-0.27-0.22-0.73-0.91-0.73-1.63c16.4,1.53,27.34-2.02,27.34-2.02
					c-0.48,2.15-2.09,2.21-2.31,4.44c-0.22,2.23,2.24,9.54,1.79,12.19c-0.45,2.64-15.22,4.87-20.14,3.45
					c-4.92-1.42-0.9-4.55-2.46-7.86C928.88,575.92,928.75,572.08,926.96,570.66z"/>
				<g>
					<path style="&st12;" d="M951.27,571.97c0.04,0.91,0.3,2.27,0.63,3.76l-21.64,3.02c-0.52-1.22-0.88-2.5-1.21-3.68L951.27,571.97
						z"/>
					<path style="&st12;" d="M953.11,582.42l-22.51,3.14c-0.53-1.06,0.05-2.4,0.21-3.88l21.72-3.03
						C952.81,580.04,953.05,581.37,953.11,582.42z"/>
				</g>
			</g>
		</g>
		<g>
			<path style="&st11;" d="M938.83,423.92c-1.07-1.96-7.08-4.31-16.73-6.66c-9.65-2.35-24.24-12.72-24.24-12.72l-21.03,19.19
				l-21.03-19.19c0,0-14.59,10.37-24.24,12.72c-9.65,2.35-15.66,4.7-16.73,6.66c0,0,3.65,13.5,8.58,20.36
				c0,0,4.93,21.53,13.51,28.97c0,0-2.57,27.21-3,45.22c-0.43,18.01-4.29,32.1,2.57,38.36c0,0,0.86,9.2-1.18,12.53
				c-2.04,3.33-0.97,5.87-0.97,5.87s12.44,4.11,23.81,3.52c11.21-0.58,13.66-2.49,18.67-2.54c5,0.05,7.46,1.96,18.67,2.54
				c11.37,0.59,23.81-3.52,23.81-3.52s1.07-2.55-0.96-5.87c-2.04-3.33-1.18-12.53-1.18-12.53c6.86-6.26,3-20.36,2.57-38.36
				c-0.43-18.01-3-45.22-3-45.22c8.58-7.44,13.51-28.97,13.51-28.97C935.18,437.43,938.83,423.92,938.83,423.92z"/>
			<g>
				<g>
					<polygon style="&st13;" points="862.24,399.85 891.42,399.85 876.99,423.51 					"/>
					<g>
						<path style="&st19;" d="M897.86,404.55c-3.43-0.2-6.44-4.7-6.44-4.7l-14.59,23.4l-14.59-23.4c0,0-3,4.5-6.44,4.7
							c0,0,0.64,17.52,20.65,19.3l-0.05,0.07c0.15-0.01,0.28-0.03,0.42-0.04c0.14,0.01,0.28,0.03,0.42,0.04l-0.05-0.07
							C897.22,422.07,897.86,404.55,897.86,404.55z"/>
						<g>
							<g>
								<polygon style="&st19;" points="874.25,576.4 873.39,576.54 873.39,425.46 876.99,423.51 878.38,423.24 874.25,425.91 
																	"/>
							</g>
							<g>
								<ellipse style="&st19;" cx="878.55" cy="430.58" rx="2.14" ry="1.96"/>
								<ellipse style="&st19;" cx="878.55" cy="454.07" rx="2.14" ry="1.96"/>
								<ellipse style="&st19;" cx="878.55" cy="477.55" rx="2.14" ry="1.96"/>
								<ellipse style="&st19;" cx="878.55" cy="501.04" rx="2.14" ry="1.96"/>
								<ellipse style="&st19;" cx="878.55" cy="524.53" rx="2.14" ry="1.96"/>
								<ellipse style="&st19;" cx="878.55" cy="548.02" rx="2.14" ry="1.96"/>
								<ellipse style="&st19;" cx="878.55" cy="571.51" rx="2.14" ry="1.96"/>
							</g>
						</g>
					</g>
				</g>
				<g>
					<g>
						<path style="&st12;" d="M866.06,562.68c-0.08-1.52-0.14-2.61-0.23-3.16c-0.34-2.18-4.02-2.06-10.69-1.83
							c-1.27,0.04-2.65,0.09-4.13,0.12c-7.26,0.18-13.16-0.96-14.85-1.33c0.11,0.11,0.22,0.23,0.34,0.33c0,0,0.02,0.22,0.05,0.6
							c2.28,0.46,7.82,1.39,14.49,1.23c1.48-0.04,2.86-0.08,4.14-0.13c5.74-0.2,9.52-0.32,9.75,1.12c0.08,0.51,0.14,1.64,0.22,3.08
							c0.23,4.22,0.6,10.97,2.02,15.07c0.31-0.05,0.61-0.11,0.9-0.16C866.66,573.63,866.27,566.63,866.06,562.68z"/>
						<g>
							<path style="&st12;" d="M836.38,565.9h24v-4.04h-23.71C836.65,563.18,836.57,564.59,836.38,565.9z"/>
							<path style="&st12;" d="M835.32,569.35c-0.9,1.46-1.19,2.77-1.24,3.78h26.3v-4.04h-24.92
								C835.42,569.18,835.37,569.27,835.32,569.35z"/>
						</g>
					</g>
					<g>
						<path style="&st12;" d="M887.62,562.68c0.08-1.52,0.14-2.61,0.23-3.16c0.34-2.18,4.02-2.06,10.69-1.83
							c1.27,0.04,2.65,0.09,4.13,0.12c7.26,0.18,13.16-0.96,14.85-1.33c-0.11,0.11-0.22,0.23-0.34,0.33c0,0-0.02,0.22-0.05,0.6
							c-2.28,0.46-7.82,1.39-14.5,1.23c-1.48-0.04-2.86-0.08-4.14-0.13c-5.73-0.2-9.52-0.32-9.75,1.12
							c-0.08,0.51-0.14,1.64-0.22,3.08c-0.23,4.22-0.6,10.97-2.02,15.07c-0.31-0.05-0.61-0.11-0.9-0.16
							C887.02,573.63,887.41,566.63,887.62,562.68z"/>
						<g>
							<path style="&st12;" d="M917.3,565.9h-24v-4.04h23.71C917.03,563.18,917.11,564.59,917.3,565.9z"/>
							<path style="&st12;" d="M918.36,569.35c0.9,1.46,1.19,2.77,1.24,3.78h-26.3v-4.04h24.92
								C918.26,569.18,918.31,569.27,918.36,569.35z"/>
						</g>
					</g>
				</g>
			</g>
		</g>
	</g>
	<g>
		<path style="&st20;" d="M667.95,604.38c-0.28-2.79,0.28-14.88,0-18.2c-0.28-3.32-3.61-42.25-4.16-46.9
			c-0.56-4.65-2.22-21.26-2.78-25.42c-0.55-4.16-0.97-16.83-1.8-23.87c-0.83-7.04-2.36-35.88-2.69-37.74
			c-0.33-1.86-0.92-9.96-0.22-12.89c0.69-2.92-0.42-4.65-0.83-7.44c-0.42-2.79-1.39-20.33-1.67-21.39
			c-0.28-1.06-0.42-4.52-1.11-7.17c-0.69-2.66-1.11-6.51-1.11-6.51c0.14-1.33-0.97-9.43-0.97-9.43h-45.67h-45.67
			c0,0-1.11,8.1-0.97,9.43c0,0-0.42,3.85-1.11,6.51c-0.69,2.66-0.83,6.11-1.11,7.17c-0.28,1.06-1.25,18.6-1.67,21.39
			c-0.42,2.79-1.53,4.52-0.83,7.44c0.69,2.92,0.11,11.03-0.22,12.89c-0.33,1.86-1.86,30.69-2.69,37.74
			c-0.83,7.04-1.25,19.71-1.8,23.87c-0.56,4.16-2.22,20.77-2.78,25.42c-0.55,4.65-3.89,43.58-4.16,46.9
			c-0.28,3.32,0.28,15.41,0,18.2c-0.28,2.79-2.64,24.98-1.94,26.71c0,0,18.88-3.05,29.71,0.8c0,0,1.53-3.46,1.8-5.32
			c0.28-1.86-1.39-5.18-0.69-5.98c0.69-0.8,3.89-6.24,3.75-8.63c-0.14-2.39-0.96-7.18,0-9.04c0.97-1.86,1.39-6.78,1.39-9.43
			s1.66-11.83,2.64-15.81c0.97-3.99,3.75-22.46,3.89-26.57c0.14-4.12,1.67-13.69,2.5-15.81c0.83-2.13,2.22-13.42,2.92-17.81
			c0.69-4.38,1.53-14.62,4.16-21.79c2.64-7.17,8.33-22.99,9.02-25.11c0.69-2.13,1.94-6.91,2.08-7.97l1.8-0.4l1.81,0.4
			c0.14,1.06,1.39,5.85,2.08,7.97c0.69,2.13,6.39,17.94,9.02,25.11c2.64,7.17,3.47,17.41,4.16,21.79
			c0.69,4.39,2.08,15.68,2.92,17.81c0.83,2.13,2.36,11.69,2.5,15.81c0.14,4.12,2.92,22.59,3.89,26.57
			c0.97,3.99,2.64,13.15,2.64,15.81s0.42,7.57,1.38,9.43c0.97,1.86,0.14,6.64,0,9.04c-0.14,2.39,3.05,7.84,3.75,8.63
			c0.69,0.8-0.97,4.12-0.69,5.98c0.28,1.86,1.81,5.32,1.81,5.32c10.83-3.85,29.71-0.8,29.71-0.8
			C670.59,629.36,668.23,607.17,667.95,604.38z"/>
		<g>
			<path style="&st21;" d="M558.28,396.83l0.97-9.43h91.34c0,0,0.78,7.88,0.97,9.43H558.28z"/>
			<g>
				<rect x="574.5" y="385.8" style="&st22;" width="3.19" height="11.96"/>
				<rect x="632.86" y="385.8" style="&st22;" width="3.19" height="11.96"/>
			</g>
			<g>
				<path style="&st23;" d="M601.87,387.4v9.43h2.39v65.49l1.68,0.11l0.04-18.56c0,0,6.64,1.2,6.64-11.03c0-12.22,0-36.01,0-36.01
					v-9.43H601.87z"/>
				<circle style="&st20;" cx="606.98" cy="391.65" r="1.53"/>
				<path style="&st23;" d="M587.12,396.83c0,0,3.99,18.59-31.29,15.94l-0.21,2.79c0,0,34.69,5.71,34.69-18.73H587.12z"/>
				<path style="&st23;" d="M622.69,396.83c0,0-3.98,18.59,31.29,15.94l0.21,2.79c0,0-34.69,5.71-34.69-18.73H622.69z"/>
				<g>
					<path style="&st24;" d="M569.66,631.88c0,0,0.59-1.34,1.11-2.81c-14.37-4.56-30.17-1.28-30.91-1.12
						c-0.06,1.64-0.04,2.79,0.09,3.13C539.96,631.08,558.83,628.03,569.66,631.88z"/>
					<path style="&st24;" d="M640.18,631.88c0,0-0.59-1.34-1.11-2.81c14.37-4.56,30.17-1.28,30.91-1.12
						c0.06,1.64,0.04,2.79-0.09,3.13C669.89,631.08,651.01,628.03,640.18,631.88z"/>
				</g>
			</g>
		</g>
	</g>
	<g>
		<path style="&st25;" d="M-265.5,397.43l-34.18-12.71h-20.6h-0.85h-20.6l-34.18,12.71c0,0,8.22,37.23,5.53,51.13l-0.42,97.48
			c0,0,11.67,14.57,49.67,14.79v0.01c0.14,0,0.28,0,0.42,0c0.15,0,0.28,0,0.43,0v-0.01c38-0.22,49.67-14.79,49.67-14.79l-0.42-97.48
			C-273.73,434.65-265.5,397.43-265.5,397.43z"/>
		<g>
			<g>
				<path style="&st26;" d="M-370.37,448.56c2.7-13.9-5.53-51.13-5.53-51.13l-33.94,27.21l28.11,32.29l11.36-7.47L-370.37,448.56z"
					/>
				<polygon style="&st27;" points="-403.56,419.6 -375.29,452.69 -381.73,456.93 -409.84,424.64 				"/>
			</g>
			<g>
				<path style="&st26;" d="M-270.91,448.56c-2.69-13.9,5.53-51.13,5.53-51.13l33.94,27.21l-28.11,32.29l-11.36-7.47L-270.91,448.56
					z"/>
				<polygon style="&st27;" points="-237.73,419.6 -265.99,452.69 -259.55,456.93 -231.44,424.64 				"/>
			</g>
		</g>
		<g>
			<g>
				<polygon style="&st26;" points="-331.76,384.72 -328.96,404.45 -319.31,412.98 -322.12,422.06 -333.11,402.1 -333.11,384.72 
									"/>
				<polygon style="&st26;" points="-308.09,384.72 -309.45,384.72 -311.91,404.23 -319.31,412.98 -322.12,422.06 -322.12,560.83 
					-313.81,560.64 -313.81,422.06 -312.7,412.53 -308.09,402.1 				"/>
				<g>
					<circle style="&st27;" cx="-318.25" cy="422.79" r="1.85"/>
					<circle style="&st27;" cx="-318.25" cy="443.42" r="1.85"/>
					<circle style="&st27;" cx="-318.25" cy="464.05" r="1.85"/>
					<circle style="&st27;" cx="-318.25" cy="484.68" r="1.85"/>
					<circle style="&st27;" cx="-318.25" cy="505.32" r="1.85"/>
					<circle style="&st27;" cx="-318.25" cy="525.95" r="1.85"/>
				</g>
				<polygon style="&st28;" points="-331.87,383.75 -328.96,404.45 -319.31,412.98 -311.91,404.23 -309.22,384.2 				"/>
			</g>
			<g>
				<polygon style="&st29;" points="-333.11,374.29 -341.72,384.72 -349.48,410.06 -333.11,402.1 				"/>
				<polygon style="&st29;" points="-308.09,374.29 -299.47,384.72 -291.71,410.06 -308.09,402.1 				"/>
				<rect x="-333.11" y="374.29" style="&st29;" width="25.02" height="10.43"/>
			</g>
		</g>
	</g>
	<g>
		<g>
			<path style="&st30;" d="M661.34,193.24c-5.38-21.98,4.49-68.17,4.49-68.17c-0.08-0.12-0.2-0.24-0.3-0.36l0.3-0.91
				c0,0,8.52,4.78,13.01,16.74c4.48,11.96,19.44,113.25,18.54,137.06l-27.51,5.34l-8.36-85.44
				C661.41,194.8,661.34,193.24,661.34,193.24z"/>
			<path style="&st30;" d="M538.22,193.24c5.38-21.98-4.49-68.17-4.49-68.17c0.08-0.12,0.2-0.24,0.3-0.36l-0.3-0.91
				c0,0-8.52,4.78-13.01,16.74c-4.49,11.96-19.44,113.25-18.54,137.06l27.51,5.34l8.36-85.44
				C538.15,194.8,538.22,193.24,538.22,193.24z"/>
		</g>
		<g>
			<path style="&st31;" d="M666.72,124.17c-4.26-6.05-37.68-14.35-37.68-14.35l-29.26-2.02l0,0l0,0h0l0,0l-29.27,2.02
				c0,0-33.41,8.3-37.68,14.35c0,0,9.87,46.2,4.49,68.18c0,0-2.69,57.19,4.93,80.06v14.11h57.52h0h57.52V272.4
				c7.63-22.87,4.93-80.06,4.93-80.06C656.86,170.37,666.72,124.17,666.72,124.17z"/>
			<rect x="542.26" y="272.4" style="&st30;" width="115.05" height="14.11"/>
			<g>
				<g>
					<polygon style="&st32;" points="581.13,160.57 565.13,160.57 565.13,160.57 549.14,160.57 549.14,189.13 565.13,195.41 
						565.13,195.41 565.13,195.41 565.13,195.41 565.13,195.41 581.13,189.13 					"/>
					<polygon style="&st30;" points="565.13,152.51 565.13,152.51 547.94,152.51 547.94,160.57 551.38,164.16 565.13,164.16 
						565.13,164.16 578.89,164.16 582.33,160.57 582.33,152.51 					"/>
					<polygon style="&st32;" points="613.88,160.57 629.88,160.57 629.88,160.57 645.88,160.57 645.88,189.13 629.88,195.41 
						629.88,195.41 629.88,195.41 629.88,195.41 629.88,195.41 613.88,189.13 					"/>
					<polygon style="&st30;" points="629.88,152.51 629.88,152.51 647.07,152.51 647.07,160.57 643.63,164.16 629.88,164.16 
						629.88,164.16 616.12,164.16 612.69,160.57 612.69,152.51 					"/>
				</g>
				<g>
					<g>
						<g>
							<polygon style="&st33;" points="574.55,133.81 594.89,124.54 581.73,95.54 570.52,109.82 							"/>
							<polygon style="&st33;" points="623.15,133.81 602.82,124.54 615.97,95.54 627.19,109.82 							"/>
						</g>
						<polygon style="&st34;" points="581.73,95.54 615.97,95.54 602.82,124.54 594.89,124.54 						"/>
					</g>
					<g>
						<rect x="537.35" y="151.62" style="&st33;" width="60.6" height="0.9"/>
					</g>
					<g>
						<rect x="598.85" y="151.62" style="&st33;" width="63.3" height="0.9"/>
					</g>
					<g>
						<rect x="597.96" y="124.54" style="&st33;" width="1.79" height="161.98"/>
					</g>
				</g>
			</g>
		</g>
	</g>
	<rect id="_x3C_Slice_x3E_" x="-731.97" y="196.46" style="&st35;" width="174" height="196"/>
	<rect id="_x3C_Slice_x3E__1_" x="786.11" y="391.4" style="&st35;" width="180" height="209"/>
	<rect id="_x3C_Slice_x3E__2_" x="477.95" y="98.8" style="&st35;" width="234" height="193"/>
	<rect id="_x3C_Slice_x3E__3_" x="-458.96" y="96.89" style="&st35;" width="166" height="183"/>
	<rect id="_x3C_Slice_x3E__4_" x="520.95" y="380.8" style="&st35;" width="168" height="265"/>
</g>
</svg>
