<?xml version="1.0" encoding="utf-8"?>
<!-- Generator: Adobe Illustrator 21.0.0, SVG Export Plug-In . SVG Version: 6.00 Build 0)  -->
<!DOCTYPE svg PUBLIC "-//W3C//DTD SVG 1.1//EN" "http://www.w3.org/Graphics/SVG/1.1/DTD/svg11.dtd" [
	<!ENTITY st0 "fill:#3F4241;">
	<!ENTITY st1 "fill:#3E3F3E;">
	<!ENTITY st2 "fill:#474948;">
	<!ENTITY st3 "fill:#272827;">
	<!ENTITY st4 "fill:#2C2D2C;">
	<!ENTITY st5 "fill:#3C3D3C;">
	<!ENTITY st6 "fill:#252625;">
	<!ENTITY st7 "fill:#2D2D2D;">
	<!ENTITY st8 "fill:#F4F3ED;">
	<!ENTITY st9 "fill:#EAE9E4;">
	<!ENTITY st10 "fill:#D1CFC9;">
	<!ENTITY st11 "fill:#DDDDDD;">
	<!ENTITY st12 "fill:#C9C9C9;">
	<!ENTITY st13 "fill:#888889;">
	<!ENTITY st14 "fill:#ADADAD;">
	<!ENTITY st15 "fill:#D8B355;">
	<!ENTITY st16 "fill:#E5C776;">
	<!ENTITY st17 "fill:#F2D98B;">
	<!ENTITY st18 "fill:#F2E7C7;">
	<!ENTITY st19 "fill:#BABABA;">
	<!ENTITY st20 "fill:#A1C1D6;">
	<!ENTITY st21 "fill:#1E5476;">
	<!ENTITY st22 "fill:#174D68;">
	<!ENTITY st23 "fill:#658DB0;">
	<!ENTITY st24 "fill:#5A91AF;">
	<!ENTITY st25 "fill:#E86767;">
	<!ENTITY st26 "fill:#E05C5C;">
	<!ENTITY st27 "fill:#C13333;">
	<!ENTITY st28 "fill:#CC3E3E;">
	<!ENTITY st29 "fill:#D85555;">
	<!ENTITY st30 "fill:#C8BDA1;">
	<!ENTITY st31 "fill:#BCAF93;">
	<!ENTITY st32 "fill:#D8CEB6;">
	<!ENTITY st33 "fill:#A3967B;">
	<!ENTITY st34 "fill:#8E8169;">
	<!ENTITY st35 "fill:none;">
]>
<svg version="1.1" xmlns="http://www.w3.org/2000/svg" xmlns:xlink="http://www.w3.org/1999/xlink" x="0px" y="0px"
	 viewBox="0 0 241.49 199.41" style="enable-background:new 0 0 241.49 199.41;" xml:space="preserve">
<g id="Background">
</g>
<g id="Objects">
	<polygon style="&st0;" points="48.82,-252.65 30.1,-221.21 30.42,-225.31 	"/>
	<g>
		<path style="&st1;" d="M1276.22,110.86c-0.41-4.11-9.46-113.48-10.69-130.75c-1.23-17.27-4.93-60.44-5.76-71.54
			c-0.82-11.1-4.83-35.67-4.83-35.67h-91.4c0,0-4.01,24.57-4.83,35.67c-0.82,11.1-4.52,54.27-5.76,71.54
			c-1.23,17.27-10.28,126.64-10.69,130.75l32.07,4.94l34.91-185.63l34.91,185.63L1276.22,110.86z"/>
		<polygon style="&st2;" points="1162.42,-120 1256.06,-120 1254.94,-127.09 1163.54,-127.09 		"/>
		<path style="&st1;" d="M1203.13-127.09c0,0-5.4,2.77,0,7.09h52.92l-1.12-7.09H1203.13z"/>
		<g>
			<g>
				<circle style="&st3;" cx="1204.79" cy="-123.55" r="1.97"/>
				<g>
					<rect x="1185.46" y="-128.63" style="&st4;" width="3.7" height="10.28"/>
					<rect x="1220.81" y="-128.63" style="&st4;" width="3.7" height="10.28"/>
				</g>
			</g>
			<g>
				<g>
					<path style="&st4;" d="M1162.42-120L1162.42-120c-1.18,7.68-2.96,19.84-3.61,27.32l0.03,0.02l18.4-27.34H1162.42z"/>
					<path style="&st4;" d="M1256.09-120L1256.09-120c1.18,7.68,2.96,19.84,3.61,27.32l-0.03,0.02l-18.4-27.34H1256.09z"/>
				</g>
				<g>
					<path style="&st4;" d="M1208.53-120v43.33c0,0,7.86-3.55,9.1-5.7V-120H1208.53z"/>
					<g>
						<g>
							<polygon style="&st4;" points="1186.92,-108.28 1186.92,-77.6 1183.99,-77.6 							"/>
							<polygon style="&st4;" points="1181.38,-62.99 1169.95,9.1 1158.52,106.22 1172.76,10.49 							"/>
						</g>
						<g>
							<polygon style="&st4;" points="1230.43,-108.28 1230.43,-77.6 1233.36,-77.6 							"/>
							<polygon style="&st4;" points="1236.84,-62.99 1248.27,9.1 1259.71,106.22 1245.47,10.49 							"/>
						</g>
					</g>
				</g>
			</g>
		</g>
	</g>
	<g>
		<path style="&st2;" d="M197.01-522.54h26.46c0,0-3.06,21.35-3.93,23.85c-0.88,2.5-10.13,25.79-10.13,25.79l-9.82-26.31
			L197.01-522.54z"/>
		<g>
			<path style="&st5;" d="M159.46-348.07c0.31-5.67,2.05-14.16,3.61-23.17c0-0.09-1.88-58.3,1.9-74.63
				c-0.11-0.32-0.14-2.66-0.14-2.66c-2.55-35.86-6.96-48.28-9.04-53.41l-1.17-2.43c0,0-5.83-1.34-7.18,6.28
				c-1.35,7.63-13.23,80.96-13.46,102.71c-0.22,21.75,1.57,47.32,1.57,47.32L159.46-348.07L159.46-348.07z"/>
			<path style="&st1;" d="M210.24-342.9l7.92,9.57c0,0,42.46-6.73,43.96-9.57c0,0-4.7-28.26-6.39-37.23
				c-1.69-8.97-3.78-50.17-3.78-50.17l3.78-15.57c0,0,3.54-46.99,10.35-58.51c0,0-29.06-9.01-36.1-11.89l6.73,18.17l-4.6,2.36
				l5.38,6.5c0,0-42.42,48.48-45.26,52.36C192.22-436.87,188.56-400.76,210.24-342.9z"/>
			<path style="&st2;" d="M189.94-515.92l-35.32,11.55c0,0,6.73,9.72,10.17,58.01c0,0,3.44,9.42,4.34,13.9
				c0,0,0.45,20.33-1.79,34.54c-2.24,14.2-7.62,40.07-7.92,51.13c0,0,10.91,9.27,40.82,13.46c0,0,8.22-4.34,10.02-9.57
				c0,0-9.12-28.7-11.81-41.86c-2.69-13.16-7.18-42.16-5.83-52.48l12.86-27.66l-21.38-26.31l4.63-7.18l-5.23-2.39L189.94-515.92z"/>
			<path style="&st5;" d="M261.24-348.07c-1.16-6.98-2.64-13.26-4.2-22.27c0-0.09,2.48-59.2-1.3-75.53c0.11-0.32,0-1.77,0-1.77
				c2.55-35.86,7.1-49.17,9.18-54.31l1.17-2.43c0,0,5.83-1.34,7.18,6.28c1.35,7.63,13.23,80.96,13.46,102.71
				c0.22,21.75-1.57,47.32-1.57,47.32L261.24-348.07L261.24-348.07z"/>
			<g>
				<path style="&st6;" d="M205.46-464.9c0,0,12.41-30.61,13.87-34.87c1.46-4.26,4.15-22.76,4.15-22.76l6.5,6.28l6.73,18.17
					l-4.6,2.36l5.38,6.5l-44.89,51.99L205.46-464.9z"/>
				<polygon style="&st6;" points="189.94,-515.92 197.01,-522.54 199.59,-501.01 209.94,-472.9 205.98,-463.11 184.08,-491.21 
					188.71,-498.39 183.48,-500.78 				"/>
			</g>
			<g>
				<polygon style="&st7;" points="234,-461.17 222.05,-461.17 222.05,-436.31 223.71,-434.1 234,-434.1 244.3,-434.1 
					245.96,-436.31 245.96,-461.17 				"/>
				<rect x="222.05" y="-461.17" style="&st6;" width="23.91" height="6.14"/>
			</g>
			<g>
				<circle style="&st6;" cx="199.73" cy="-432.61" r="3.29"/>
				<circle style="&st6;" cx="199.73" cy="-407.49" r="3.29"/>
			</g>
		</g>
	</g>
	<g>
		<g>
			<g>
				<path style="&st8;" d="M434.53-553.47c-0.12-0.8-0.18-1.25-0.18-1.25c0.39-18.58-10.54-42.08-10.54-42.08s-6.05,2.99-7.8,9.61
					c-1.76,6.62-6.44,40.16-8.39,61.3c-1.95,21.15-3.71,52.97-2.54,57.03l-0.38,15.17h17.94v-13.46L434.53-553.47L434.53-553.47z"/>
				<polygon style="&st9;" points="422.64,-468.85 405.08,-468.85 404.7,-453.68 422.64,-453.68 422.64,-467.14 422.82,-468.49 				
					"/>
			</g>
			<g>
				<path style="&st8;" d="M517.48-553.47c0.12-0.8,0.18-1.25,0.18-1.25c-0.39-18.58,10.54-42.08,10.54-42.08s6.05,2.99,7.8,9.61
					c1.76,6.62,6.44,40.16,8.39,61.3c1.95,21.15,3.71,52.97,2.54,57.03l0.38,15.17h-17.94v-13.46L517.48-553.47L517.48-553.47z"/>
				<polygon style="&st9;" points="529.37,-468.85 546.93,-468.85 547.31,-453.68 529.37,-453.68 529.37,-467.14 529.19,-468.49 
									"/>
			</g>
		</g>
		<g>
			<path style="&st9;" d="M517.67-554.72c-0.39-18.58,10.54-42.08,10.54-42.08l-32.97-15.81h-18.94h-0.57h-18.94l-32.97,15.81
				c0,0,10.93,23.5,10.54,42.08c0,0,6.44,44,5.95,50.2c-0.49,6.19-6.93,52.76-6.93,52.76s2.93,5.55,17.17,5.55
				c12.39,0,22.7,0,25.18,0c0.37,0,0.57,0,0.57,0c2.48,0,12.8,0,25.18,0c14.24,0,17.17-5.55,17.17-5.55s-6.44-46.57-6.93-52.76
				C511.23-510.71,517.67-554.72,517.67-554.72z"/>
			<g>
				<g>
					<polygon style="&st8;" points="460.55,-621.68 455.12,-608.97 462.64,-593.7 475.59,-606.52 					"/>
					<polygon style="&st8;" points="491.57,-621.68 497,-608.97 489.48,-593.7 476.53,-606.52 					"/>
				</g>
				<polygon style="&st9;" points="460.55,-621.68 491.57,-621.68 476.53,-606.52 475.59,-606.52 				"/>
				<g>
					<polygon style="&st8;" points="471.5,-602.47 475.59,-606.52 476.53,-606.52 480.61,-602.47 480.61,-446.2 472.24,-446.2 					
						"/>
					<g>
						<ellipse style="&st10;" cx="475.8" cy="-602.96" rx="1.2" ry="1.32"/>
						<ellipse style="&st10;" cx="475.8" cy="-585.87" rx="1.2" ry="1.32"/>
						<ellipse style="&st10;" cx="475.8" cy="-568.78" rx="1.2" ry="1.32"/>
						<ellipse style="&st10;" cx="475.8" cy="-551.69" rx="1.2" ry="1.32"/>
						<ellipse style="&st10;" cx="475.8" cy="-534.6" rx="1.2" ry="1.32"/>
						<ellipse style="&st10;" cx="475.8" cy="-517.51" rx="1.2" ry="1.32"/>
						<ellipse style="&st10;" cx="475.8" cy="-500.42" rx="1.2" ry="1.32"/>
						<ellipse style="&st10;" cx="475.8" cy="-483.33" rx="1.2" ry="1.32"/>
					</g>
				</g>
			</g>
		</g>
	</g>
	<g>
		<g>
			<path style="&st11;" d="M1026.66,54.13c-0.79-5.1-2.35-44.83-2.48-57.51c-0.13-12.68-3-86.4-4.84-101.69
				c-1.83-15.29-5.1-17.91-5.1-17.91c1.7-5.36-1.57-8.63-1.57-8.63h-42.35h-42.35c0,0-3.27,3.27-1.57,8.63c0,0-3.27,2.61-5.1,17.91
				c-1.83,15.29-4.71,89.01-4.84,101.69c-0.13,12.68-1.7,52.42-2.48,57.51c-0.78,5.1-2.87,23.53-1.83,29.28
				c1.05,5.75,0.26,15.55,4.97,17.65l0.13,5.23c0,0,12.68,3.01,22.48,0v-5.23c0,0,5.1-1.18,5.49-6.67
				c0.39-5.49,3.4-20.13,5.36-26.01c1.96-5.88,5.23-34.9,7.19-43.79c1.96-8.89,7.45-47.58,7.97-53.59
				c0.52-6.02,1.96-27.19,4.57-27.06c2.62-0.13,4.05,21.04,4.58,27.06c0.52,6.01,6.01,44.7,7.97,53.59
				c1.96,8.89,5.23,37.91,7.19,43.79c1.96,5.88,4.97,20.52,5.36,26.01c0.39,5.49,5.49,6.67,5.49,6.67v5.23c9.8,3.01,22.48,0,22.48,0
				l0.13-5.23c4.71-2.09,3.92-11.89,4.96-17.65C1029.54,77.66,1027.45,59.23,1026.66,54.13z"/>
			<g>
				<path style="&st12;" d="M1012.68-131.61h-42.35h-42.35c0,0-3.27,3.27-1.57,8.63h87.84
					C1015.94-128.34,1012.68-131.61,1012.68-131.61z"/>
				<g>
					<rect x="969.94" y="-122.98" style="&st12;" width="0.78" height="66.92"/>
				</g>
				<g>
					<g>
						<circle style="&st13;" cx="964.23" cy="-127.31" r="1.32"/>
						<g>
							<rect x="963.84" y="-111.28" style="&st13;" width="0.79" height="3.53"/>
							<path style="&st14;" d="M965.17-111.56c0,0.73-0.42,1.32-0.94,1.32l0,0c-0.52,0-0.94-0.59-0.94-1.32v-14.43
								c0-0.73,0.42-1.32,0.94-1.32l0,0c0.52,0,0.94,0.59,0.94,1.32V-111.56z"/>
						</g>
					</g>
					<g>
						<circle style="&st13;" cx="975.75" cy="-127.31" r="1.32"/>
						<g>
							<rect x="975.36" y="-111.28" style="&st13;" width="0.79" height="3.53"/>
							<path style="&st14;" d="M976.69-111.56c0,0.73-0.42,1.32-0.94,1.32l0,0c-0.52,0-0.94-0.59-0.94-1.32v-14.43
								c0-0.73,0.42-1.32,0.94-1.32l0,0c0.52,0,0.94,0.59,0.94,1.32V-111.56z"/>
						</g>
					</g>
				</g>
			</g>
		</g>
		<g>
			<path style="&st12;" d="M917.13,101.05l0.13,5.23c0,0,12.68,3.01,22.48,0v-5.23C927.06,102.95,917.13,101.05,917.13,101.05z"/>
			<path style="&st12;" d="M1023.57,101.05l-0.13,5.23c0,0-12.68,3.01-22.48,0v-5.23C1013.64,102.95,1023.57,101.05,1023.57,101.05z
				"/>
		</g>
	</g>
	<g>
		<path style="&st15;" d="M962.01-717.15h-37.24c8.05,4.03,14.6,4.77,18.62,4.77C948.07-712.39,953.96-713.12,962.01-717.15z"/>
		<g>
			<path style="&st16;" d="M987.9-641.68c11.95,6.17,32.26-10.35,32.26-10.35l-22.9-51.97c0,0-12.39,25.49-12.97,38.83L987.9-641.68
				z"/>
			<path style="&st17;" d="M987.9-641.68l-3.61-23.5c0.57-13.34,12.97-38.83,12.97-38.83l-35.24-13.14
				c-8.06,4.03-13.94,4.77-18.62,4.77c-4.02,0-10.56-0.73-18.62-4.77l-35.24,13.14c0,0,12.4,25.49,12.97,38.83l-3.61,23.5
				l-7.57,93.99c0,0,5.14,3.35,51.77,3.38l0,0c0.1,0,0.2,0,0.3,0c0.1,0,0.2,0,0.3,0l0,0c46.63-0.03,51.77-3.38,51.77-3.38
				L987.9-641.68z"/>
			<path style="&st16;" d="M898.89-641.68c-11.95,6.17-32.26-10.35-32.26-10.35l22.9-51.97c0,0,12.4,25.49,12.97,38.83
				L898.89-641.68z"/>
			<path style="&st18;" d="M921.98-716.11c0,0,6.31,6.32,21.41,6.32c15.1,0,21.41-6.32,21.41-6.32l-2.79-1.04
				c0,0-8.83,4.69-18.85,4.77c-10.02,0.08-18.39-4.77-18.39-4.77L921.98-716.11z"/>
		</g>
	</g>
	<g>
		<g>
			<path style="&st19;" d="M1668.42-300.08c0,0-4.08,1.96-5.79,18.4c0,0-0.86,25.25-1.72,37.39c-0.86,12.14-1.93,23.1-3,25.84
				c-1.07,2.74,0.21,7.05,0,12.92c-0.21,5.87,0.64,26.23-0.43,34.45c-1.07,8.22-5.15,13.51-3.43,14.68
				c1.72,1.17,2.15,1.56,2.36,3.72c0.21,2.15-2.15,9.2-1.72,11.74c0.43,2.54,14.59,4.7,19.31,3.33c4.72-1.37,0.86-4.39,2.36-7.57
				c1.5-3.19,2.36-7.1,4.08-8.47c1.72-1.37-0.86-4.31-1.29-8.81c-0.43-4.5-0.98-12.92,1.87-24.08c2.85-11.16,4.99-20.36,4.14-22.9
				c-0.86-2.55,0.21-11.35,1.29-14.29c1.07-2.94-0.43-6.79,0-8.58c0.43-1.79,2.79-7.47,2.36-9.81c-0.43-2.35-0.21-8.03,1.72-8.61
				L1668.42-300.08z"/>
			<g>
				<path style="&st11;" d="M1680.29-153.35c0.27-0.22,0.73-0.91,0.73-1.63c-16.4,1.53-27.34-2.02-27.34-2.02
					c0.48,2.15,2.09,2.21,2.32,4.44c0.22,2.23-2.24,9.54-1.79,12.19c0.45,2.64,15.22,4.87,20.14,3.45c4.92-1.42,0.9-4.55,2.46-7.86
					C1678.36-148.09,1678.49-151.93,1680.29-153.35z"/>
				<path style="&st12;" d="M1655.99-152.04c-0.04,0.91-0.3,2.27-0.62,3.76l21.64,3.02c0.52-1.22,0.88-2.5,1.21-3.68L1655.99-152.04
					z"/>
				<path style="&st12;" d="M1654.15-141.58l22.51,3.15c0.53-1.06-0.05-2.4-0.21-3.88l-21.71-3.03
					C1654.45-143.97,1654.21-142.63,1654.15-141.58z"/>
			</g>
		</g>
		<g>
			<path style="&st19;" d="M1792.41-300.08c0,0,4.08,1.96,5.79,18.4c0,0,0.86,25.25,1.72,37.39c0.86,12.14,1.93,23.1,3,25.84
				c1.07,2.74-0.21,7.05,0,12.92c0.21,5.87-0.64,26.23,0.43,34.45c1.07,8.22,5.14,13.51,3.43,14.68c-1.72,1.17-2.14,1.56-2.36,3.72
				c-0.22,2.15,2.14,9.2,1.71,11.74c-0.43,2.54-14.59,4.7-19.3,3.33c-4.72-1.37-0.86-4.39-2.36-7.57c-1.5-3.19-2.36-7.1-4.08-8.47
				c-1.72-1.37,0.86-4.31,1.29-8.81c0.43-4.5,0.98-12.92-1.87-24.08c-2.85-11.16-4.99-20.36-4.14-22.9
				c0.86-2.55-0.21-11.35-1.29-14.29c-1.07-2.94,0.43-6.79,0-8.58c-0.43-1.79-2.79-7.47-2.36-9.81c0.43-2.35,0.21-8.03-1.72-8.61
				L1792.41-300.08z"/>
			<g>
				<path style="&st11;" d="M1780.54-153.35c-0.27-0.22-0.73-0.91-0.73-1.63c16.4,1.53,27.34-2.02,27.34-2.02
					c-0.48,2.15-2.09,2.21-2.31,4.44c-0.22,2.23,2.24,9.54,1.79,12.19c-0.45,2.64-15.22,4.87-20.14,3.45
					c-4.92-1.42-0.9-4.55-2.46-7.86C1782.46-148.09,1782.33-151.93,1780.54-153.35z"/>
				<g>
					<path style="&st12;" d="M1804.85-152.04c0.04,0.91,0.3,2.27,0.63,3.76l-21.64,3.02c-0.52-1.22-0.88-2.5-1.21-3.68
						L1804.85-152.04z"/>
					<path style="&st12;" d="M1806.69-141.58l-22.51,3.15c-0.53-1.06,0.05-2.4,0.21-3.88l21.72-3.03
						C1806.4-143.97,1806.63-142.63,1806.69-141.58z"/>
				</g>
			</g>
		</g>
		<g>
			<path style="&st11;" d="M1792.41-300.08c-1.07-1.96-7.08-4.31-16.73-6.66c-9.65-2.35-24.24-12.72-24.24-12.72l-21.03,19.19
				l-21.03-19.19c0,0-14.59,10.37-24.24,12.72c-9.65,2.35-15.66,4.7-16.73,6.66c0,0,3.65,13.5,8.58,20.36
				c0,0,4.93,21.53,13.51,28.97c0,0-2.57,27.21-3,45.22c-0.43,18.01-4.29,32.1,2.57,38.36c0,0,0.86,9.2-1.18,12.53
				c-2.04,3.33-0.97,5.87-0.97,5.87s12.44,4.11,23.81,3.52c11.21-0.58,13.66-2.49,18.67-2.54c5,0.05,7.46,1.96,18.67,2.54
				c11.37,0.59,23.81-3.52,23.81-3.52s1.07-2.55-0.96-5.87c-2.04-3.33-1.18-12.53-1.18-12.53c6.86-6.26,3-20.36,2.57-38.36
				c-0.43-18.01-3-45.22-3-45.22c8.58-7.44,13.51-28.97,13.51-28.97C1788.76-286.58,1792.41-300.08,1792.41-300.08z"/>
			<g>
				<g>
					<polygon style="&st13;" points="1715.82,-324.16 1745.01,-324.16 1730.57,-300.49 					"/>
					<g>
						<path style="&st19;" d="M1751.44-319.46c-3.43-0.2-6.44-4.7-6.44-4.7l-14.59,23.4l-14.59-23.4c0,0-3,4.5-6.44,4.7
							c0,0,0.64,17.52,20.65,19.3l-0.05,0.07c0.15-0.01,0.28-0.03,0.42-0.04c0.14,0.01,0.28,0.03,0.42,0.04l-0.05-0.07
							C1750.8-301.94,1751.44-319.46,1751.44-319.46z"/>
						<g>
							<g>
								<polygon style="&st19;" points="1727.83,-147.6 1726.98,-147.46 1726.98,-298.54 1730.57,-300.49 1731.96,-300.77 
									1727.83,-298.1 								"/>
							</g>
							<g>
								<ellipse style="&st19;" cx="1732.13" cy="-293.43" rx="2.14" ry="1.96"/>
								<ellipse style="&st19;" cx="1732.13" cy="-269.94" rx="2.14" ry="1.96"/>
								<ellipse style="&st19;" cx="1732.13" cy="-246.45" rx="2.14" ry="1.96"/>
								<ellipse style="&st19;" cx="1732.13" cy="-222.96" rx="2.14" ry="1.96"/>
								<ellipse style="&st19;" cx="1732.13" cy="-199.48" rx="2.14" ry="1.96"/>
								<ellipse style="&st19;" cx="1732.13" cy="-175.99" rx="2.14" ry="1.96"/>
								<ellipse style="&st19;" cx="1732.13" cy="-152.5" rx="2.14" ry="1.96"/>
							</g>
						</g>
					</g>
				</g>
				<g>
					<g>
						<path style="&st12;" d="M1719.64-161.32c-0.08-1.52-0.14-2.61-0.23-3.16c-0.34-2.18-4.02-2.06-10.69-1.83
							c-1.27,0.04-2.65,0.09-4.13,0.12c-7.26,0.18-13.16-0.96-14.85-1.33c0.11,0.11,0.22,0.23,0.34,0.33c0,0,0.02,0.22,0.05,0.6
							c2.28,0.46,7.82,1.39,14.49,1.23c1.48-0.04,2.86-0.08,4.14-0.13c5.74-0.2,9.52-0.32,9.75,1.12c0.08,0.51,0.14,1.64,0.22,3.08
							c0.23,4.22,0.6,10.97,2.02,15.07c0.31-0.05,0.61-0.11,0.9-0.16C1720.24-150.38,1719.86-157.37,1719.64-161.32z"/>
						<g>
							<path style="&st12;" d="M1689.96-158.11h24v-4.04h-23.71C1690.24-160.83,1690.15-159.41,1689.96-158.11z"/>
							<path style="&st12;" d="M1688.9-154.65c-0.9,1.46-1.19,2.77-1.24,3.78h26.3v-4.04h-24.92
								C1689-154.82,1688.95-154.74,1688.9-154.65z"/>
						</g>
					</g>
					<g>
						<path style="&st12;" d="M1741.2-161.32c0.08-1.52,0.14-2.61,0.23-3.16c0.34-2.18,4.02-2.06,10.69-1.83
							c1.27,0.04,2.65,0.09,4.13,0.12c7.26,0.18,13.16-0.96,14.85-1.33c-0.11,0.11-0.22,0.23-0.34,0.33c0,0-0.02,0.22-0.05,0.6
							c-2.28,0.46-7.82,1.39-14.5,1.23c-1.48-0.04-2.86-0.08-4.14-0.13c-5.73-0.2-9.52-0.32-9.75,1.12
							c-0.08,0.51-0.14,1.64-0.22,3.08c-0.23,4.22-0.6,10.97-2.02,15.07c-0.31-0.05-0.61-0.11-0.9-0.16
							C1740.6-150.38,1740.99-157.37,1741.2-161.32z"/>
						<g>
							<path style="&st12;" d="M1770.88-158.11h-24v-4.04h23.71C1770.61-160.83,1770.69-159.41,1770.88-158.11z"/>
							<path style="&st12;" d="M1771.94-154.65c0.9,1.46,1.19,2.77,1.24,3.78h-26.3v-4.04h24.92
								C1771.84-154.82,1771.89-154.74,1771.94-154.65z"/>
						</g>
					</g>
				</g>
			</g>
		</g>
	</g>
	<g>
		<path style="&st20;" d="M1521.53-119.63c-0.28-2.79,0.28-14.88,0-18.2c-0.28-3.32-3.61-42.25-4.16-46.9
			c-0.56-4.65-2.22-21.26-2.78-25.42c-0.55-4.16-0.97-16.83-1.8-23.87c-0.83-7.04-2.36-35.88-2.69-37.74
			c-0.33-1.86-0.92-9.96-0.22-12.89c0.69-2.92-0.42-4.65-0.83-7.44c-0.42-2.79-1.39-20.33-1.67-21.39
			c-0.28-1.06-0.41-4.52-1.11-7.17c-0.69-2.66-1.11-6.51-1.11-6.51c0.14-1.33-0.97-9.43-0.97-9.43h-45.67h-45.67
			c0,0-1.11,8.1-0.97,9.43c0,0-0.42,3.85-1.11,6.51c-0.69,2.66-0.83,6.11-1.11,7.17c-0.28,1.06-1.25,18.6-1.67,21.39
			c-0.42,2.79-1.53,4.52-0.83,7.44c0.69,2.92,0.11,11.03-0.22,12.89c-0.33,1.86-1.86,30.69-2.69,37.74
			c-0.83,7.04-1.25,19.71-1.8,23.87c-0.56,4.16-2.22,20.77-2.78,25.42c-0.55,4.65-3.89,43.58-4.16,46.9
			c-0.28,3.32,0.28,15.41,0,18.2c-0.28,2.79-2.64,24.98-1.94,26.71c0,0,18.88-3.05,29.71,0.8c0,0,1.53-3.46,1.8-5.32
			c0.28-1.86-1.39-5.18-0.69-5.98c0.69-0.8,3.89-6.24,3.75-8.63c-0.14-2.39-0.96-7.18,0-9.04c0.97-1.86,1.39-6.78,1.39-9.43
			s1.67-11.83,2.64-15.81c0.97-3.99,3.75-22.46,3.89-26.57c0.14-4.12,1.67-13.69,2.5-15.81c0.83-2.13,2.22-13.42,2.92-17.81
			c0.69-4.38,1.53-14.62,4.16-21.79c2.64-7.17,8.33-22.99,9.02-25.11c0.69-2.13,1.94-6.91,2.08-7.97l1.8-0.4l1.81,0.4
			c0.14,1.06,1.39,5.85,2.08,7.97c0.69,2.13,6.39,17.94,9.02,25.11c2.64,7.17,3.47,17.41,4.16,21.79
			c0.69,4.39,2.08,15.68,2.92,17.81c0.83,2.13,2.36,11.69,2.5,15.81c0.14,4.12,2.92,22.59,3.89,26.57
			c0.97,3.99,2.64,13.15,2.64,15.81s0.42,7.57,1.38,9.43c0.97,1.86,0.14,6.64,0,9.04c-0.14,2.39,3.05,7.84,3.75,8.63
			c0.69,0.8-0.97,4.12-0.69,5.98c0.28,1.86,1.81,5.32,1.81,5.32c10.83-3.85,29.71-0.8,29.71-0.8
			C1524.17-94.65,1521.81-116.84,1521.53-119.63z"/>
		<g>
			<path style="&st21;" d="M1411.86-327.17l0.97-9.43h91.34c0,0,0.78,7.88,0.97,9.43H1411.86z"/>
			<g>
				<rect x="1428.08" y="-338.2" style="&st22;" width="3.19" height="11.96"/>
				<rect x="1486.44" y="-338.2" style="&st22;" width="3.19" height="11.96"/>
			</g>
			<g>
				<path style="&st23;" d="M1455.45-336.61v9.43h2.39v65.49l1.68,0.11l0.04-18.56c0,0,6.64,1.2,6.64-11.03c0-12.22,0-36.01,0-36.01
					v-9.43H1455.45z"/>
				<circle style="&st20;" cx="1460.57" cy="-332.35" r="1.53"/>
				<path style="&st23;" d="M1440.7-327.17c0,0,3.99,18.59-31.29,15.94l-0.21,2.79c0,0,34.69,5.71,34.69-18.73H1440.7z"/>
				<path style="&st23;" d="M1476.27-327.17c0,0-3.98,18.59,31.29,15.94l0.21,2.79c0,0-34.69,5.71-34.69-18.73H1476.27z"/>
				<g>
					<path style="&st24;" d="M1423.25-92.12c0,0,0.59-1.34,1.11-2.81c-14.37-4.56-30.17-1.28-30.91-1.12
						c-0.06,1.64-0.04,2.79,0.09,3.13C1393.54-92.92,1412.42-95.98,1423.25-92.12z"/>
					<path style="&st24;" d="M1493.77-92.12c0,0-0.59-1.34-1.11-2.81c14.37-4.56,30.17-1.28,30.91-1.12
						c0.06,1.64,0.04,2.79-0.09,3.13C1523.47-92.92,1504.59-95.98,1493.77-92.12z"/>
				</g>
			</g>
		</g>
	</g>
	<g>
		<path style="&st25;" d="M588.08-326.58l-34.18-12.71h-20.6h-0.85h-20.6l-34.18,12.71c0,0,8.22,37.23,5.53,51.13l-0.42,97.48
			c0,0,11.67,14.57,49.67,14.79v0.01c0.14,0,0.28,0,0.42,0c0.15,0,0.28,0,0.43,0v-0.01c38-0.22,49.67-14.79,49.67-14.79l-0.42-97.48
			C579.86-289.35,588.08-326.58,588.08-326.58z"/>
		<g>
			<g>
				<path style="&st26;" d="M483.21-275.45c2.7-13.9-5.53-51.13-5.53-51.13l-33.94,27.21l28.11,32.29l11.36-7.47L483.21-275.45z"/>
				<polygon style="&st27;" points="450.02,-304.41 478.29,-271.31 471.85,-267.07 443.74,-299.37 				"/>
			</g>
			<g>
				<path style="&st26;" d="M582.67-275.45c-2.69-13.9,5.53-51.13,5.53-51.13l33.94,27.21l-28.11,32.29l-11.36-7.47L582.67-275.45z"
					/>
				<polygon style="&st27;" points="615.85,-304.41 587.59,-271.31 594.03,-267.07 622.14,-299.37 				"/>
			</g>
		</g>
		<g>
			<g>
				<polygon style="&st26;" points="521.82,-339.29 524.62,-319.55 534.27,-311.03 531.46,-301.95 520.47,-321.91 520.47,-339.29 
									"/>
				<polygon style="&st26;" points="545.5,-339.29 544.14,-339.29 541.67,-319.78 534.27,-311.03 531.46,-301.95 531.46,-163.18 
					539.77,-163.36 539.77,-301.95 540.88,-311.48 545.5,-321.91 				"/>
				<g>
					<circle style="&st27;" cx="535.33" cy="-301.22" r="1.85"/>
					<circle style="&st27;" cx="535.33" cy="-280.59" r="1.85"/>
					<circle style="&st27;" cx="535.33" cy="-259.95" r="1.85"/>
					<circle style="&st27;" cx="535.33" cy="-239.32" r="1.85"/>
					<circle style="&st27;" cx="535.33" cy="-218.69" r="1.85"/>
					<circle style="&st27;" cx="535.33" cy="-198.06" r="1.85"/>
				</g>
				<polygon style="&st28;" points="521.71,-340.26 524.62,-319.55 534.27,-311.03 541.67,-319.78 544.36,-339.81 				"/>
			</g>
			<g>
				<polygon style="&st29;" points="520.47,-349.71 511.86,-339.29 504.1,-313.95 520.47,-321.91 				"/>
				<polygon style="&st29;" points="545.5,-349.71 554.11,-339.29 561.87,-313.95 545.5,-321.91 				"/>
				<rect x="520.47" y="-349.71" style="&st29;" width="25.02" height="10.43"/>
			</g>
		</g>
	</g>
	<g>
		<g>
			<path style="&st30;" d="M187.49,97.7c-5.38-21.98,4.49-68.17,4.49-68.17c-0.08-0.12-0.2-0.24-0.3-0.36l0.3-0.91
				c0,0,8.52,4.78,13.01,16.74c4.48,11.96,19.44,113.25,18.54,137.06l-27.51,5.34l-8.36-85.44C187.56,99.27,187.49,97.7,187.49,97.7
				z"/>
			<path style="&st30;" d="M64.37,97.7c5.38-21.98-4.49-68.17-4.49-68.17c0.08-0.12,0.2-0.24,0.3-0.36l-0.3-0.91
				c0,0-8.52,4.78-13.01,16.74c-4.49,11.96-19.44,113.25-18.54,137.06l27.51,5.34l8.36-85.44C64.3,99.27,64.37,97.7,64.37,97.7z"/>
		</g>
		<g>
			<path style="&st31;" d="M192.87,28.63c-4.26-6.05-37.68-14.35-37.68-14.35l-29.26-2.02l0,0l0,0h0l0,0l-29.27,2.02
				c0,0-33.41,8.3-37.68,14.35c0,0,9.87,46.2,4.49,68.18c0,0-2.69,57.19,4.93,80.06v14.11h57.52h0h57.52v-14.11
				c7.63-22.87,4.93-80.06,4.93-80.06C183,74.83,192.87,28.63,192.87,28.63z"/>
			<rect x="68.41" y="176.87" style="&st30;" width="115.05" height="14.11"/>
			<g>
				<g>
					<polygon style="&st32;" points="107.28,65.04 91.28,65.04 91.28,65.04 75.29,65.04 75.29,93.59 91.28,99.87 91.28,99.87 
						91.28,99.87 91.28,99.87 91.28,99.87 107.28,93.59 					"/>
					<polygon style="&st30;" points="91.28,56.98 91.28,56.98 74.09,56.98 74.09,65.04 77.53,68.62 91.28,68.62 91.28,68.62 
						105.04,68.62 108.47,65.04 108.47,56.98 					"/>
					<polygon style="&st32;" points="140.03,65.04 156.03,65.04 156.03,65.04 172.02,65.04 172.02,93.59 156.03,99.87 156.03,99.87 
						156.03,99.87 156.03,99.87 156.03,99.87 140.03,93.59 					"/>
					<polygon style="&st30;" points="156.03,56.98 156.03,56.98 173.22,56.98 173.22,65.04 169.78,68.62 156.03,68.62 156.03,68.62 
						142.27,68.62 138.83,65.04 138.83,56.98 					"/>
				</g>
				<g>
					<g>
						<g>
							<polygon style="&st33;" points="100.7,38.27 121.04,29.01 107.88,0 96.66,14.28 							"/>
							<polygon style="&st33;" points="149.3,38.27 128.97,29.01 142.12,0 153.34,14.28 							"/>
						</g>
						<polygon style="&st34;" points="107.88,0 142.12,0 128.97,29.01 121.04,29.01 						"/>
					</g>
					<g>
						<rect x="63.5" y="56.08" style="&st33;" width="60.6" height="0.9"/>
					</g>
					<g>
						<rect x="125" y="56.08" style="&st33;" width="63.3" height="0.9"/>
					</g>
					<g>
						<rect x="124.1" y="29.01" style="&st33;" width="1.79" height="161.98"/>
					</g>
				</g>
			</g>
		</g>
	</g>
	<rect id="_x3C_Slice_x3E_" x="121.61" y="-527.54" style="&st35;" width="174" height="196"/>
	<rect id="_x3C_Slice_x3E__1_" x="1639.69" y="-332.6" style="&st35;" width="180" height="209"/>
	<rect id="_x3C_Slice_x3E__2_" x="4.1" y="3.27" style="&st35;" width="234" height="193"/>
	<rect id="_x3C_Slice_x3E__3_" x="394.62" y="-627.11" style="&st35;" width="166" height="183"/>
	<rect id="_x3C_Slice_x3E__4_" x="1374.53" y="-343.2" style="&st35;" width="168" height="265"/>
</g>
</svg>
