<?xml version="1.0" encoding="utf-8"?>
<!-- Generator: Adobe Illustrator 21.0.0, SVG Export Plug-In . SVG Version: 6.00 Build 0)  -->
<!DOCTYPE svg PUBLIC "-//W3C//DTD SVG 1.1//EN" "http://www.w3.org/Graphics/SVG/1.1/DTD/svg11.dtd" [
	<!ENTITY st0 "fill:#3F4241;">
	<!ENTITY st1 "fill:#3E3F3E;">
	<!ENTITY st2 "fill:#474948;">
	<!ENTITY st3 "fill:#272827;">
	<!ENTITY st4 "fill:#2C2D2C;">
	<!ENTITY st5 "fill:#3C3D3C;">
	<!ENTITY st6 "fill:#252625;">
	<!ENTITY st7 "fill:#2D2D2D;">
	<!ENTITY st8 "fill:#F4F3ED;">
	<!ENTITY st9 "fill:#EAE9E4;">
	<!ENTITY st10 "fill:#D1CFC9;">
	<!ENTITY st11 "fill:#DDDDDD;">
	<!ENTITY st12 "fill:#C9C9C9;">
	<!ENTITY st13 "fill:#888889;">
	<!ENTITY st14 "fill:#ADADAD;">
	<!ENTITY st15 "fill:#D8B355;">
	<!ENTITY st16 "fill:#E5C776;">
	<!ENTITY st17 "fill:#F2D98B;">
	<!ENTITY st18 "fill:#F2E7C7;">
	<!ENTITY st19 "fill:#BABABA;">
	<!ENTITY st20 "fill:#A1C1D6;">
	<!ENTITY st21 "fill:#1E5476;">
	<!ENTITY st22 "fill:#174D68;">
	<!ENTITY st23 "fill:#658DB0;">
	<!ENTITY st24 "fill:#5A91AF;">
	<!ENTITY st25 "fill:#E86767;">
	<!ENTITY st26 "fill:#E05C5C;">
	<!ENTITY st27 "fill:#C13333;">
	<!ENTITY st28 "fill:#CC3E3E;">
	<!ENTITY st29 "fill:#D85555;">
	<!ENTITY st30 "fill:#C8BDA1;">
	<!ENTITY st31 "fill:#BCAF93;">
	<!ENTITY st32 "fill:#D8CEB6;">
	<!ENTITY st33 "fill:#A3967B;">
	<!ENTITY st34 "fill:#8E8169;">
	<!ENTITY st35 "fill:none;">
]>
<svg version="1.1" xmlns="http://www.w3.org/2000/svg" xmlns:xlink="http://www.w3.org/1999/xlink" x="0px" y="0px"
	 viewBox="0 0 182.13 268.49" style="enable-background:new 0 0 182.13 268.49;" xml:space="preserve">
<g id="Background">
</g>
<g id="Objects">
	<polygon style="&st0;" points="-1427.82,693.04 -1446.54,724.49 -1446.22,720.39 	"/>
	<g>
		<path style="&st1;" d="M-200.42,1056.56c-0.41-4.11-9.46-113.48-10.69-130.75c-1.23-17.27-4.93-60.44-5.76-71.54
			c-0.82-11.1-4.83-35.67-4.83-35.67h-91.4c0,0-4.01,24.57-4.83,35.67c-0.82,11.1-4.52,54.27-5.76,71.54
			c-1.23,17.27-10.28,126.64-10.69,130.75l32.07,4.94l34.91-185.63l34.91,185.63L-200.42,1056.56z"/>
		<polygon style="&st2;" points="-314.22,825.7 -220.58,825.7 -221.7,818.61 -313.1,818.61 		"/>
		<path style="&st1;" d="M-273.51,818.61c0,0-5.4,2.77,0,7.09h52.92l-1.12-7.09H-273.51z"/>
		<g>
			<g>
				<circle style="&st3;" cx="-271.85" cy="822.15" r="1.97"/>
				<g>
					<rect x="-291.18" y="817.07" style="&st4;" width="3.7" height="10.28"/>
					<rect x="-255.83" y="817.07" style="&st4;" width="3.7" height="10.28"/>
				</g>
			</g>
			<g>
				<g>
					<path style="&st4;" d="M-314.22,825.7L-314.22,825.7c-1.18,7.68-2.96,19.84-3.61,27.32l0.03,0.02l18.4-27.34H-314.22z"/>
					<path style="&st4;" d="M-220.55,825.7L-220.55,825.7c1.18,7.68,2.96,19.84,3.61,27.32l-0.03,0.02l-18.4-27.34H-220.55z"/>
				</g>
				<g>
					<path style="&st4;" d="M-268.11,825.7v43.33c0,0,7.86-3.55,9.1-5.7V825.7H-268.11z"/>
					<g>
						<g>
							<polygon style="&st4;" points="-289.72,837.42 -289.72,868.1 -292.65,868.1 							"/>
							<polygon style="&st4;" points="-295.26,882.71 -306.69,954.79 -318.12,1051.92 -303.88,956.19 							"/>
						</g>
						<g>
							<polygon style="&st4;" points="-246.21,837.42 -246.21,868.1 -243.28,868.1 							"/>
							<polygon style="&st4;" points="-239.8,882.71 -228.37,954.79 -216.93,1051.92 -231.17,956.19 							"/>
						</g>
					</g>
				</g>
			</g>
		</g>
	</g>
	<g>
		<path style="&st2;" d="M-1279.63,423.16h26.46c0,0-3.06,21.35-3.93,23.85c-0.88,2.5-10.13,25.79-10.13,25.79l-9.82-26.31
			L-1279.63,423.16z"/>
		<g>
			<path style="&st5;" d="M-1317.18,597.63c0.31-5.67,2.05-14.16,3.61-23.17c0-0.09-1.88-58.3,1.9-74.63
				c-0.11-0.32-0.14-2.66-0.14-2.66c-2.55-35.86-6.96-48.28-9.04-53.41l-1.17-2.43c0,0-5.83-1.34-7.18,6.28
				c-1.35,7.63-13.23,80.96-13.46,102.71c-0.22,21.75,1.57,47.32,1.57,47.32L-1317.18,597.63L-1317.18,597.63z"/>
			<path style="&st1;" d="M-1266.4,602.8l7.92,9.57c0,0,42.46-6.73,43.95-9.57c0,0-4.7-28.26-6.39-37.23
				c-1.69-8.97-3.78-50.17-3.78-50.17l3.78-15.57c0,0,3.54-46.99,10.35-58.51c0,0-29.06-9.01-36.1-11.89l6.73,18.17l-4.6,2.35
				l5.38,6.5c0,0-42.42,48.48-45.26,52.36C-1284.42,508.83-1288.08,544.94-1266.4,602.8z"/>
			<path style="&st2;" d="M-1286.7,429.78l-35.32,11.55c0,0,6.73,9.72,10.17,58.01c0,0,3.44,9.42,4.34,13.9
				c0,0,0.45,20.33-1.79,34.54c-2.24,14.2-7.62,40.07-7.92,51.13c0,0,10.91,9.27,40.82,13.46c0,0,8.22-4.34,10.02-9.57
				c0,0-9.12-28.7-11.81-41.86c-2.69-13.16-7.18-42.16-5.83-52.48l12.86-27.66l-21.38-26.31l4.63-7.18l-5.23-2.39L-1286.7,429.78z"
				/>
			<path style="&st5;" d="M-1215.4,597.63c-1.16-6.98-2.64-13.26-4.2-22.27c0-0.09,2.48-59.2-1.3-75.53c0.11-0.32,0-1.77,0-1.77
				c2.55-35.86,7.1-49.17,9.18-54.31l1.17-2.43c0,0,5.83-1.34,7.18,6.28c1.35,7.63,13.23,80.96,13.46,102.71
				c0.22,21.75-1.57,47.32-1.57,47.32L-1215.4,597.63L-1215.4,597.63z"/>
			<g>
				<path style="&st6;" d="M-1271.18,480.8c0,0,12.41-30.61,13.87-34.87c1.46-4.26,4.15-22.76,4.15-22.76l6.5,6.28l6.73,18.17
					l-4.6,2.35l5.38,6.5l-44.89,51.99L-1271.18,480.8z"/>
				<polygon style="&st6;" points="-1286.7,429.78 -1279.63,423.16 -1277.05,444.69 -1266.7,472.8 -1270.66,482.59 -1292.56,454.48 
					-1287.93,447.31 -1293.16,444.92 				"/>
			</g>
			<g>
				<polygon style="&st7;" points="-1242.64,484.53 -1254.59,484.53 -1254.59,509.38 -1252.93,511.6 -1242.64,511.6 -1232.34,511.6 
					-1230.68,509.38 -1230.68,484.53 				"/>
				<rect x="-1254.59" y="484.53" style="&st6;" width="23.91" height="6.14"/>
			</g>
			<g>
				<circle style="&st6;" cx="-1276.91" cy="513.09" r="3.29"/>
				<circle style="&st6;" cx="-1276.91" cy="538.21" r="3.29"/>
			</g>
		</g>
	</g>
	<g>
		<g>
			<g>
				<path style="&st8;" d="M-1042.11,392.23c-0.12-0.8-0.18-1.25-0.18-1.25c0.39-18.58-10.54-42.08-10.54-42.08s-6.05,2.99-7.8,9.61
					c-1.76,6.62-6.44,40.16-8.39,61.3c-1.95,21.15-3.71,52.97-2.54,57.03l-0.38,15.17h17.94v-13.46L-1042.11,392.23L-1042.11,392.23
					z"/>
				<polygon style="&st9;" points="-1054,476.85 -1071.56,476.85 -1071.94,492.02 -1054,492.02 -1054,478.56 -1053.82,477.21 				
					"/>
			</g>
			<g>
				<path style="&st8;" d="M-959.16,392.23c0.12-0.8,0.18-1.25,0.18-1.25c-0.39-18.58,10.54-42.08,10.54-42.08s6.05,2.99,7.8,9.61
					c1.76,6.62,6.44,40.16,8.39,61.3c1.95,21.15,3.71,52.97,2.54,57.03l0.38,15.17h-17.94v-13.46L-959.16,392.23L-959.16,392.23z"/>
				<polygon style="&st9;" points="-947.27,476.85 -929.71,476.85 -929.33,492.02 -947.27,492.02 -947.27,478.56 -947.45,477.21 
									"/>
			</g>
		</g>
		<g>
			<path style="&st9;" d="M-958.97,390.98c-0.39-18.58,10.54-42.08,10.54-42.08l-32.97-15.81h-18.94h-0.57h-18.94l-32.97,15.81
				c0,0,10.93,23.5,10.54,42.08c0,0,6.44,44,5.95,50.2c-0.49,6.19-6.93,52.76-6.93,52.76s2.93,5.55,17.17,5.55
				c12.39,0,22.7,0,25.18,0c0.37,0,0.57,0,0.57,0c2.48,0,12.8,0,25.18,0c14.24,0,17.17-5.55,17.17-5.55s-6.44-46.57-6.93-52.76
				C-965.41,434.99-958.97,390.98-958.97,390.98z"/>
			<g>
				<g>
					<polygon style="&st8;" points="-1016.09,324.02 -1021.52,336.73 -1014,352 -1001.05,339.18 					"/>
					<polygon style="&st8;" points="-985.07,324.02 -979.64,336.73 -987.16,352 -1000.11,339.18 					"/>
				</g>
				<polygon style="&st9;" points="-1016.09,324.02 -985.07,324.02 -1000.11,339.18 -1001.05,339.18 				"/>
				<g>
					<polygon style="&st8;" points="-1005.14,343.22 -1001.05,339.18 -1000.11,339.18 -996.03,343.22 -996.03,499.49 
						-1004.4,499.49 					"/>
					<g>
						<ellipse style="&st10;" cx="-1000.84" cy="342.74" rx="1.2" ry="1.32"/>
						<ellipse style="&st10;" cx="-1000.84" cy="359.83" rx="1.2" ry="1.32"/>
						<ellipse style="&st10;" cx="-1000.84" cy="376.92" rx="1.2" ry="1.32"/>
						<ellipse style="&st10;" cx="-1000.84" cy="394.01" rx="1.2" ry="1.32"/>
						<ellipse style="&st10;" cx="-1000.84" cy="411.1" rx="1.2" ry="1.32"/>
						<ellipse style="&st10;" cx="-1000.84" cy="428.19" rx="1.2" ry="1.32"/>
						<ellipse style="&st10;" cx="-1000.84" cy="445.27" rx="1.2" ry="1.32"/>
						<ellipse style="&st10;" cx="-1000.84" cy="462.36" rx="1.2" ry="1.32"/>
					</g>
				</g>
			</g>
		</g>
	</g>
	<g>
		<g>
			<path style="&st11;" d="M149.21,200.37c-0.79-5.1-2.35-44.83-2.48-57.51c-0.13-12.68-3-86.4-4.84-101.69
				c-1.83-15.29-5.1-17.91-5.1-17.91c1.7-5.36-1.57-8.63-1.57-8.63H92.87H50.52c0,0-3.27,3.27-1.57,8.63c0,0-3.27,2.61-5.1,17.91
				c-1.83,15.29-4.7,89.01-4.84,101.69c-0.13,12.68-1.7,52.42-2.48,57.51c-0.78,5.1-2.87,23.53-1.83,29.28
				c1.05,5.75,0.26,15.55,4.97,17.65l0.13,5.23c0,0,12.68,3.01,22.48,0v-5.23c0,0,5.1-1.18,5.49-6.67
				c0.39-5.49,3.4-20.13,5.36-26.01c1.96-5.88,5.23-34.9,7.19-43.79c1.96-8.89,7.45-47.58,7.97-53.59
				c0.52-6.02,1.96-27.19,4.57-27.06c2.62-0.13,4.05,21.04,4.58,27.06c0.52,6.01,6.01,44.7,7.97,53.59
				c1.96,8.89,5.23,37.91,7.19,43.79c1.96,5.88,4.97,20.52,5.36,26.01c0.39,5.49,5.49,6.67,5.49,6.67v5.23c9.8,3.01,22.48,0,22.48,0
				l0.13-5.23c4.71-2.09,3.92-11.89,4.96-17.65C152.08,223.89,149.99,205.47,149.21,200.37z"/>
			<g>
				<path style="&st12;" d="M135.22,14.63H92.87H50.52c0,0-3.27,3.27-1.57,8.63h87.84C138.49,17.9,135.22,14.63,135.22,14.63z"/>
				<g>
					<rect x="92.48" y="23.26" style="&st12;" width="0.78" height="66.92"/>
				</g>
				<g>
					<g>
						<circle style="&st13;" cx="86.78" cy="18.93" r="1.32"/>
						<g>
							<rect x="86.38" y="34.96" style="&st13;" width="0.79" height="3.53"/>
							<path style="&st14;" d="M87.72,34.68c0,0.73-0.42,1.32-0.94,1.32l0,0c-0.52,0-0.94-0.59-0.94-1.32V20.25
								c0-0.73,0.42-1.32,0.94-1.32l0,0c0.52,0,0.94,0.59,0.94,1.32V34.68z"/>
						</g>
					</g>
					<g>
						<circle style="&st13;" cx="98.3" cy="18.93" r="1.32"/>
						<g>
							<rect x="97.9" y="34.96" style="&st13;" width="0.79" height="3.53"/>
							<path style="&st14;" d="M99.24,34.68c0,0.73-0.42,1.32-0.94,1.32l0,0c-0.52,0-0.94-0.59-0.94-1.32V20.25
								c0-0.73,0.42-1.32,0.94-1.32l0,0c0.52,0,0.94,0.59,0.94,1.32V34.68z"/>
						</g>
					</g>
				</g>
			</g>
		</g>
		<g>
			<path style="&st12;" d="M39.67,247.29l0.13,5.23c0,0,12.68,3.01,22.48,0v-5.23C49.61,249.19,39.67,247.29,39.67,247.29z"/>
			<path style="&st12;" d="M146.12,247.29l-0.13,5.23c0,0-12.68,3.01-22.48,0v-5.23C136.18,249.19,146.12,247.29,146.12,247.29z"/>
		</g>
	</g>
	<g>
		<path style="&st15;" d="M-514.63,228.55h-37.24c8.05,4.03,14.6,4.77,18.62,4.77C-528.57,233.31-522.68,232.58-514.63,228.55z"/>
		<g>
			<path style="&st16;" d="M-488.74,304.01c11.95,6.17,32.26-10.35,32.26-10.35l-22.9-51.97c0,0-12.39,25.49-12.97,38.83
				L-488.74,304.01z"/>
			<path style="&st17;" d="M-488.74,304.01l-3.61-23.5c0.57-13.34,12.97-38.83,12.97-38.83l-35.24-13.14
				c-8.06,4.03-13.94,4.77-18.62,4.77c-4.02,0-10.56-0.73-18.62-4.77l-35.24,13.14c0,0,12.39,25.49,12.97,38.83l-3.61,23.5
				l-7.57,93.99c0,0,5.14,3.35,51.77,3.38l0,0c0.1,0,0.2,0,0.3,0c0.1,0,0.2,0,0.3,0l0,0c46.63-0.03,51.77-3.38,51.77-3.38
				L-488.74,304.01z"/>
			<path style="&st16;" d="M-577.75,304.01c-11.95,6.17-32.26-10.35-32.26-10.35l22.9-51.97c0,0,12.39,25.49,12.97,38.83
				L-577.75,304.01z"/>
			<path style="&st18;" d="M-554.66,229.59c0,0,6.31,6.32,21.41,6.32c15.1,0,21.41-6.32,21.41-6.32l-2.79-1.04
				c0,0-8.83,4.69-18.85,4.77c-10.02,0.08-18.39-4.77-18.39-4.77L-554.66,229.59z"/>
		</g>
	</g>
	<g>
		<g>
			<path style="&st19;" d="M191.78,645.62c0,0-4.08,1.96-5.79,18.4c0,0-0.86,25.25-1.72,37.39c-0.86,12.14-1.93,23.1-3,25.84
				c-1.07,2.74,0.21,7.05,0,12.92c-0.21,5.87,0.64,26.23-0.43,34.45c-1.07,8.22-5.15,13.51-3.43,14.68
				c1.72,1.17,2.15,1.56,2.36,3.72c0.21,2.15-2.15,9.2-1.72,11.74c0.43,2.54,14.59,4.7,19.31,3.33c4.72-1.37,0.86-4.39,2.36-7.57
				c1.5-3.19,2.36-7.1,4.08-8.47c1.72-1.37-0.86-4.31-1.29-8.81c-0.43-4.5-0.98-12.92,1.87-24.08c2.85-11.16,4.99-20.36,4.14-22.9
				c-0.86-2.55,0.21-11.35,1.29-14.29c1.07-2.94-0.43-6.79,0-8.58c0.43-1.79,2.79-7.47,2.36-9.81c-0.43-2.35-0.21-8.03,1.72-8.61
				L191.78,645.62z"/>
			<g>
				<path style="&st11;" d="M203.65,792.35c0.27-0.22,0.73-0.91,0.73-1.63c-16.4,1.53-27.34-2.02-27.34-2.02
					c0.48,2.15,2.09,2.21,2.32,4.44c0.22,2.23-2.24,9.54-1.79,12.19c0.45,2.64,15.22,4.87,20.14,3.45c4.92-1.42,0.9-4.55,2.46-7.86
					C201.72,797.61,201.85,793.77,203.65,792.35z"/>
				<path style="&st12;" d="M179.35,793.66c-0.04,0.91-0.3,2.27-0.62,3.76l21.64,3.02c0.52-1.22,0.88-2.5,1.21-3.68L179.35,793.66z"
					/>
				<path style="&st12;" d="M177.51,804.11l22.51,3.15c0.53-1.06-0.05-2.4-0.21-3.88l-21.71-3.03
					C177.81,801.73,177.57,803.06,177.51,804.11z"/>
			</g>
		</g>
		<g>
			<path style="&st19;" d="M315.77,645.62c0,0,4.08,1.96,5.79,18.4c0,0,0.86,25.25,1.72,37.39c0.86,12.14,1.93,23.1,3,25.84
				c1.07,2.74-0.21,7.05,0,12.92c0.21,5.87-0.64,26.23,0.43,34.45c1.07,8.22,5.14,13.51,3.43,14.68c-1.72,1.17-2.14,1.56-2.36,3.72
				c-0.22,2.15,2.14,9.2,1.71,11.74c-0.43,2.54-14.59,4.7-19.3,3.33c-4.72-1.37-0.86-4.39-2.36-7.57c-1.5-3.19-2.36-7.1-4.08-8.47
				c-1.72-1.37,0.86-4.31,1.29-8.81c0.43-4.5,0.98-12.92-1.87-24.08c-2.85-11.16-4.99-20.36-4.14-22.9
				c0.86-2.55-0.21-11.35-1.29-14.29c-1.07-2.94,0.43-6.79,0-8.58c-0.43-1.79-2.79-7.47-2.36-9.81c0.43-2.35,0.21-8.03-1.72-8.61
				L315.77,645.62z"/>
			<g>
				<path style="&st11;" d="M303.9,792.35c-0.27-0.22-0.73-0.91-0.73-1.63c16.4,1.53,27.34-2.02,27.34-2.02
					c-0.48,2.15-2.09,2.21-2.31,4.44c-0.22,2.23,2.24,9.54,1.79,12.19c-0.45,2.64-15.22,4.87-20.14,3.45
					c-4.92-1.42-0.9-4.55-2.46-7.86C305.82,797.61,305.69,793.77,303.9,792.35z"/>
				<g>
					<path style="&st12;" d="M328.21,793.66c0.04,0.91,0.3,2.27,0.63,3.76l-21.64,3.02c-0.52-1.22-0.88-2.5-1.21-3.68L328.21,793.66
						z"/>
					<path style="&st12;" d="M330.05,804.11l-22.51,3.15c-0.53-1.06,0.05-2.4,0.21-3.88l21.72-3.03
						C329.76,801.73,329.99,803.06,330.05,804.11z"/>
				</g>
			</g>
		</g>
		<g>
			<path style="&st11;" d="M315.77,645.62c-1.07-1.96-7.08-4.31-16.73-6.66c-9.65-2.35-24.24-12.72-24.24-12.72l-21.03,19.19
				l-21.03-19.19c0,0-14.59,10.37-24.24,12.72c-9.65,2.35-15.66,4.7-16.73,6.66c0,0,3.65,13.5,8.58,20.36
				c0,0,4.93,21.53,13.51,28.97c0,0-2.57,27.21-3,45.22c-0.43,18.01-4.29,32.1,2.57,38.36c0,0,0.86,9.2-1.18,12.53
				c-2.04,3.33-0.97,5.87-0.97,5.87s12.44,4.11,23.81,3.52c11.21-0.58,13.66-2.49,18.67-2.54c5,0.05,7.46,1.96,18.67,2.54
				c11.37,0.59,23.81-3.52,23.81-3.52s1.07-2.55-0.96-5.87c-2.04-3.33-1.18-12.53-1.18-12.53c6.86-6.26,3-20.36,2.57-38.36
				c-0.43-18.01-3-45.22-3-45.22c8.58-7.44,13.51-28.97,13.51-28.97C312.12,659.12,315.77,645.62,315.77,645.62z"/>
			<g>
				<g>
					<polygon style="&st13;" points="239.18,621.54 268.37,621.54 253.93,645.2 					"/>
					<g>
						<path style="&st19;" d="M274.8,626.24c-3.43-0.2-6.44-4.7-6.44-4.7l-14.59,23.4l-14.59-23.4c0,0-3,4.5-6.44,4.7
							c0,0,0.64,17.52,20.65,19.3l-0.05,0.07c0.15-0.01,0.28-0.03,0.42-0.04c0.14,0.01,0.28,0.03,0.42,0.04l-0.05-0.07
							C274.16,643.76,274.8,626.24,274.8,626.24z"/>
						<g>
							<g>
								<polygon style="&st19;" points="251.19,798.09 250.34,798.23 250.34,647.15 253.93,645.2 255.32,644.93 251.19,647.6 
																	"/>
							</g>
							<g>
								<ellipse style="&st19;" cx="255.49" cy="652.27" rx="2.14" ry="1.96"/>
								<ellipse style="&st19;" cx="255.49" cy="675.76" rx="2.14" ry="1.96"/>
								<ellipse style="&st19;" cx="255.49" cy="699.25" rx="2.14" ry="1.96"/>
								<ellipse style="&st19;" cx="255.49" cy="722.73" rx="2.14" ry="1.96"/>
								<ellipse style="&st19;" cx="255.49" cy="746.22" rx="2.14" ry="1.96"/>
								<ellipse style="&st19;" cx="255.49" cy="769.71" rx="2.14" ry="1.96"/>
								<ellipse style="&st19;" cx="255.49" cy="793.2" rx="2.14" ry="1.96"/>
							</g>
						</g>
					</g>
				</g>
				<g>
					<g>
						<path style="&st12;" d="M243,784.38c-0.08-1.52-0.14-2.61-0.23-3.16c-0.34-2.18-4.02-2.06-10.69-1.83
							c-1.27,0.04-2.65,0.09-4.13,0.12c-7.26,0.18-13.16-0.96-14.85-1.33c0.11,0.11,0.22,0.23,0.34,0.33c0,0,0.02,0.22,0.05,0.6
							c2.28,0.46,7.82,1.39,14.49,1.23c1.48-0.04,2.86-0.08,4.14-0.13c5.74-0.2,9.52-0.32,9.75,1.12c0.08,0.51,0.14,1.64,0.22,3.08
							c0.23,4.22,0.6,10.97,2.02,15.07c0.31-0.05,0.61-0.11,0.9-0.16C243.6,795.32,243.22,788.32,243,784.38z"/>
						<g>
							<path style="&st12;" d="M213.32,787.59h24v-4.04h-23.71C213.59,784.87,213.51,786.29,213.32,787.59z"/>
							<path style="&st12;" d="M212.26,791.05c-0.9,1.46-1.19,2.77-1.24,3.78h26.3v-4.04h-24.92
								C212.36,790.87,212.31,790.96,212.26,791.05z"/>
						</g>
					</g>
					<g>
						<path style="&st12;" d="M264.56,784.38c0.08-1.52,0.14-2.61,0.23-3.16c0.34-2.18,4.02-2.06,10.69-1.83
							c1.27,0.04,2.65,0.09,4.13,0.12c7.26,0.18,13.16-0.96,14.85-1.33c-0.11,0.11-0.22,0.23-0.34,0.33c0,0-0.02,0.22-0.05,0.6
							c-2.28,0.46-7.82,1.39-14.5,1.23c-1.48-0.04-2.86-0.08-4.14-0.13c-5.73-0.2-9.52-0.32-9.75,1.12
							c-0.08,0.51-0.14,1.64-0.22,3.08c-0.23,4.22-0.6,10.97-2.02,15.07c-0.31-0.05-0.61-0.11-0.9-0.16
							C263.96,795.32,264.35,788.32,264.56,784.38z"/>
						<g>
							<path style="&st12;" d="M294.24,787.59h-24v-4.04h23.71C293.97,784.87,294.05,786.29,294.24,787.59z"/>
							<path style="&st12;" d="M295.3,791.05c0.9,1.46,1.19,2.77,1.24,3.78h-26.3v-4.04h24.92
								C295.2,790.87,295.25,790.96,295.3,791.05z"/>
						</g>
					</g>
				</g>
			</g>
		</g>
	</g>
	<g>
		<path style="&st20;" d="M44.89,826.07c-0.28-2.79,0.28-14.88,0-18.2c-0.28-3.32-3.61-42.25-4.16-46.9
			c-0.56-4.65-2.22-21.26-2.78-25.42c-0.55-4.16-0.97-16.83-1.8-23.87c-0.83-7.04-2.36-35.88-2.69-37.74
			c-0.33-1.86-0.92-9.96-0.22-12.89c0.69-2.92-0.42-4.65-0.83-7.44c-0.42-2.79-1.39-20.33-1.67-21.39
			c-0.28-1.06-0.41-4.52-1.11-7.17c-0.69-2.66-1.11-6.51-1.11-6.51c0.14-1.33-0.97-9.43-0.97-9.43h-45.67h-45.67
			c0,0-1.11,8.1-0.97,9.43c0,0-0.42,3.85-1.11,6.51c-0.69,2.66-0.83,6.11-1.11,7.17c-0.28,1.06-1.25,18.6-1.67,21.39
			c-0.42,2.79-1.53,4.52-0.83,7.44c0.69,2.92,0.11,11.03-0.22,12.89c-0.33,1.86-1.86,30.69-2.69,37.74
			c-0.83,7.04-1.25,19.71-1.8,23.87c-0.56,4.16-2.22,20.77-2.78,25.42c-0.55,4.65-3.89,43.58-4.16,46.9
			c-0.28,3.32,0.28,15.41,0,18.2c-0.28,2.79-2.64,24.98-1.94,26.71c0,0,18.88-3.05,29.71,0.8c0,0,1.53-3.46,1.8-5.32
			c0.28-1.86-1.39-5.18-0.69-5.98c0.69-0.8,3.89-6.24,3.75-8.63c-0.14-2.39-0.96-7.18,0-9.04c0.97-1.86,1.39-6.78,1.39-9.43
			s1.67-11.83,2.64-15.81c0.97-3.99,3.75-22.46,3.89-26.57c0.14-4.12,1.67-13.69,2.5-15.81c0.83-2.13,2.22-13.42,2.92-17.81
			c0.69-4.38,1.53-14.62,4.16-21.79c2.64-7.17,8.33-22.99,9.02-25.11c0.69-2.13,1.94-6.91,2.08-7.97l1.8-0.4l1.81,0.4
			c0.14,1.06,1.39,5.85,2.08,7.97c0.69,2.13,6.39,17.94,9.02,25.11c2.64,7.17,3.47,17.41,4.16,21.79
			c0.69,4.39,2.08,15.68,2.92,17.81c0.83,2.13,2.36,11.69,2.5,15.81c0.14,4.12,2.92,22.59,3.89,26.57
			c0.97,3.99,2.64,13.15,2.64,15.81s0.42,7.57,1.38,9.43c0.97,1.86,0.14,6.64,0,9.04c-0.14,2.39,3.05,7.84,3.75,8.63
			c0.69,0.8-0.97,4.12-0.69,5.98c0.28,1.86,1.81,5.32,1.81,5.32c10.83-3.85,29.71-0.8,29.71-0.8
			C47.53,851.05,45.17,828.86,44.89,826.07z"/>
		<g>
			<path style="&st21;" d="M-64.78,618.52l0.97-9.43h91.34c0,0,0.78,7.88,0.97,9.43H-64.78z"/>
			<g>
				<rect x="-48.56" y="607.49" style="&st22;" width="3.19" height="11.96"/>
				<rect x="9.8" y="607.49" style="&st22;" width="3.19" height="11.96"/>
			</g>
			<g>
				<path style="&st23;" d="M-21.19,609.09v9.43h2.39v65.49l1.68,0.11l0.04-18.56c0,0,6.64,1.2,6.64-11.03c0-12.22,0-36.01,0-36.01
					v-9.43H-21.19z"/>
				<circle style="&st20;" cx="-16.08" cy="613.34" r="1.53"/>
				<path style="&st23;" d="M-35.94,618.52c0,0,3.99,18.59-31.29,15.94l-0.21,2.79c0,0,34.69,5.71,34.69-18.73H-35.94z"/>
				<path style="&st23;" d="M-0.37,618.52c0,0-3.98,18.59,31.29,15.94l0.21,2.79c0,0-34.69,5.71-34.69-18.73H-0.37z"/>
				<g>
					<path style="&st24;" d="M-53.39,853.57c0,0,0.59-1.34,1.11-2.81c-14.37-4.56-30.17-1.28-30.91-1.12
						c-0.06,1.64-0.04,2.79,0.09,3.13C-83.1,852.77-64.22,849.72-53.39,853.57z"/>
					<path style="&st24;" d="M17.13,853.57c0,0-0.59-1.34-1.11-2.81c14.37-4.56,30.17-1.28,30.91-1.12
						c0.06,1.64,0.04,2.79-0.09,3.13C46.83,852.77,27.95,849.72,17.13,853.57z"/>
				</g>
			</g>
		</g>
	</g>
	<g>
		<path style="&st25;" d="M-888.56,619.12l-34.18-12.71h-20.6h-0.85h-20.6l-34.18,12.71c0,0,8.22,37.23,5.53,51.13l-0.42,97.48
			c0,0,11.67,14.57,49.67,14.79v0.01c0.14,0,0.28,0,0.42,0c0.15,0,0.28,0,0.43,0v-0.01c38-0.22,49.67-14.79,49.67-14.79l-0.42-97.48
			C-896.78,656.35-888.56,619.12-888.56,619.12z"/>
		<g>
			<g>
				<path style="&st26;" d="M-993.43,670.25c2.7-13.9-5.53-51.13-5.53-51.13l-33.94,27.21l28.11,32.29l11.36-7.47L-993.43,670.25z"
					/>
				<polygon style="&st27;" points="-1026.62,641.29 -998.35,674.38 -1004.79,678.62 -1032.9,646.33 				"/>
			</g>
			<g>
				<path style="&st26;" d="M-893.97,670.25c-2.69-13.9,5.53-51.13,5.53-51.13l33.94,27.21l-28.11,32.29l-11.36-7.47L-893.97,670.25
					z"/>
				<polygon style="&st27;" points="-860.79,641.29 -889.05,674.38 -882.61,678.62 -854.5,646.33 				"/>
			</g>
		</g>
		<g>
			<g>
				<polygon style="&st26;" points="-954.82,606.41 -952.02,626.15 -942.37,634.67 -945.18,643.75 -956.17,623.79 -956.17,606.41 
									"/>
				<polygon style="&st26;" points="-931.14,606.41 -932.51,606.41 -934.97,625.92 -942.37,634.67 -945.18,643.75 -945.18,782.52 
					-936.87,782.34 -936.87,643.75 -935.76,634.22 -931.14,623.79 				"/>
				<g>
					<circle style="&st27;" cx="-941.31" cy="644.48" r="1.85"/>
					<circle style="&st27;" cx="-941.31" cy="665.11" r="1.85"/>
					<circle style="&st27;" cx="-941.31" cy="685.74" r="1.85"/>
					<circle style="&st27;" cx="-941.31" cy="706.38" r="1.85"/>
					<circle style="&st27;" cx="-941.31" cy="727.01" r="1.85"/>
					<circle style="&st27;" cx="-941.31" cy="747.64" r="1.85"/>
				</g>
				<polygon style="&st28;" points="-954.93,605.44 -952.02,626.15 -942.37,634.67 -934.97,625.92 -932.28,605.89 				"/>
			</g>
			<g>
				<polygon style="&st29;" points="-956.17,595.98 -964.78,606.41 -972.54,631.75 -956.17,623.79 				"/>
				<polygon style="&st29;" points="-931.14,595.98 -922.53,606.41 -914.77,631.75 -931.14,623.79 				"/>
				<rect x="-956.17" y="595.98" style="&st29;" width="25.02" height="10.43"/>
			</g>
		</g>
	</g>
	<g>
		<g>
			<path style="&st30;" d="M-1289.15,1043.4c-5.38-21.98,4.49-68.17,4.49-68.17c-0.08-0.12-0.2-0.24-0.3-0.36l0.3-0.91
				c0,0,8.52,4.78,13.01,16.74c4.48,11.96,19.44,113.25,18.54,137.06l-27.51,5.34l-8.36-85.44
				C-1289.08,1044.96-1289.15,1043.4-1289.15,1043.4z"/>
			<path style="&st30;" d="M-1412.27,1043.4c5.38-21.98-4.49-68.17-4.49-68.17c0.08-0.12,0.2-0.24,0.3-0.36l-0.3-0.91
				c0,0-8.52,4.78-13.01,16.74c-4.49,11.96-19.44,113.25-18.54,137.06l27.51,5.34l8.36-85.44
				C-1412.34,1044.96-1412.27,1043.4-1412.27,1043.4z"/>
		</g>
		<g>
			<path style="&st31;" d="M-1283.77,974.33c-4.26-6.05-37.68-14.35-37.68-14.35l-29.26-2.02l0,0l0,0h0l0,0l-29.27,2.02
				c0,0-33.41,8.3-37.68,14.35c0,0,9.87,46.2,4.49,68.18c0,0-2.69,57.19,4.93,80.06v14.11h57.52h0h57.52v-14.11
				c7.63-22.87,4.93-80.06,4.93-80.06C-1293.64,1020.53-1283.77,974.33-1283.77,974.33z"/>
			<rect x="-1408.23" y="1122.57" style="&st30;" width="115.05" height="14.11"/>
			<g>
				<g>
					<polygon style="&st32;" points="-1369.36,1010.73 -1385.36,1010.73 -1385.36,1010.73 -1401.35,1010.73 -1401.35,1039.29 
						-1385.36,1045.57 -1385.36,1045.57 -1385.36,1045.57 -1385.36,1045.57 -1385.36,1045.57 -1369.36,1039.29 					"/>
					<polygon style="&st30;" points="-1385.36,1002.67 -1385.36,1002.67 -1402.55,1002.67 -1402.55,1010.73 -1399.11,1014.32 
						-1385.36,1014.32 -1385.36,1014.32 -1371.6,1014.32 -1368.17,1010.73 -1368.17,1002.67 					"/>
					<polygon style="&st32;" points="-1336.61,1010.73 -1320.61,1010.73 -1320.61,1010.73 -1304.62,1010.73 -1304.62,1039.29 
						-1320.61,1045.57 -1320.61,1045.57 -1320.61,1045.57 -1320.61,1045.57 -1320.61,1045.57 -1336.61,1039.29 					"/>
					<polygon style="&st30;" points="-1320.61,1002.67 -1320.61,1002.67 -1303.42,1002.67 -1303.42,1010.73 -1306.86,1014.32 
						-1320.61,1014.32 -1320.61,1014.32 -1334.37,1014.32 -1337.81,1010.73 -1337.81,1002.67 					"/>
				</g>
				<g>
					<g>
						<g>
							<polygon style="&st33;" points="-1375.94,983.97 -1355.6,974.7 -1368.76,945.7 -1379.98,959.98 							"/>
							<polygon style="&st33;" points="-1327.34,983.97 -1347.67,974.7 -1334.52,945.7 -1323.3,959.98 							"/>
						</g>
						<polygon style="&st34;" points="-1368.76,945.7 -1334.52,945.7 -1347.67,974.7 -1355.6,974.7 						"/>
					</g>
					<g>
						<rect x="-1413.14" y="1001.78" style="&st33;" width="60.6" height="0.9"/>
					</g>
					<g>
						<rect x="-1351.64" y="1001.78" style="&st33;" width="63.3" height="0.9"/>
					</g>
					<g>
						<rect x="-1352.54" y="974.7" style="&st33;" width="1.79" height="161.98"/>
					</g>
				</g>
			</g>
		</g>
	</g>
	<rect id="_x3C_Slice_x3E_" x="-1355.03" y="418.15" style="&st35;" width="174" height="196"/>
	<rect id="_x3C_Slice_x3E__1_" x="163.05" y="613.1" style="&st35;" width="180" height="209"/>
	<rect id="_x3C_Slice_x3E__2_" x="-1472.54" y="948.96" style="&st35;" width="234" height="193"/>
	<rect id="_x3C_Slice_x3E__3_" x="-1082.02" y="318.59" style="&st35;" width="166" height="183"/>
	<rect id="_x3C_Slice_x3E__4_" x="-102.11" y="602.49" style="&st35;" width="168" height="265"/>
</g>
</svg>
