<?xml version="1.0" encoding="utf-8"?>
<!-- Generator: Adobe Illustrator 21.0.0, SVG Export Plug-In . SVG Version: 6.00 Build 0)  -->
<!DOCTYPE svg PUBLIC "-//W3C//DTD SVG 1.1//EN" "http://www.w3.org/Graphics/SVG/1.1/DTD/svg11.dtd" [
	<!ENTITY st0 "fill:#3F4241;">
	<!ENTITY st1 "fill:#3E3F3E;">
	<!ENTITY st2 "fill:#474948;">
	<!ENTITY st3 "fill:#272827;">
	<!ENTITY st4 "fill:#2C2D2C;">
	<!ENTITY st5 "fill:#3C3D3C;">
	<!ENTITY st6 "fill:#252625;">
	<!ENTITY st7 "fill:#2D2D2D;">
	<!ENTITY st8 "fill:#F4F3ED;">
	<!ENTITY st9 "fill:#EAE9E4;">
	<!ENTITY st10 "fill:#D1CFC9;">
	<!ENTITY st11 "fill:#DDDDDD;">
	<!ENTITY st12 "fill:#C9C9C9;">
	<!ENTITY st13 "fill:#888889;">
	<!ENTITY st14 "fill:#ADADAD;">
	<!ENTITY st15 "fill:#D8B355;">
	<!ENTITY st16 "fill:#E5C776;">
	<!ENTITY st17 "fill:#F2D98B;">
	<!ENTITY st18 "fill:#F2E7C7;">
	<!ENTITY st19 "fill:#BABABA;">
	<!ENTITY st20 "fill:#A1C1D6;">
	<!ENTITY st21 "fill:#1E5476;">
	<!ENTITY st22 "fill:#174D68;">
	<!ENTITY st23 "fill:#658DB0;">
	<!ENTITY st24 "fill:#5A91AF;">
	<!ENTITY st25 "fill:#E86767;">
	<!ENTITY st26 "fill:#E05C5C;">
	<!ENTITY st27 "fill:#C13333;">
	<!ENTITY st28 "fill:#CC3E3E;">
	<!ENTITY st29 "fill:#D85555;">
	<!ENTITY st30 "fill:#C8BDA1;">
	<!ENTITY st31 "fill:#BCAF93;">
	<!ENTITY st32 "fill:#D8CEB6;">
	<!ENTITY st33 "fill:#A3967B;">
	<!ENTITY st34 "fill:#8E8169;">
	<!ENTITY st35 "fill:none;">
]>
<svg version="1.1" xmlns="http://www.w3.org/2000/svg" xmlns:xlink="http://www.w3.org/1999/xlink" x="0px" y="0px"
	 viewBox="0 0 182.99 210.74" style="enable-background:new 0 0 182.99 210.74;" xml:space="preserve">
<g id="Background">
</g>
<g id="Objects">
	<polygon style="&st0;" points="159.6,684.06 140.88,715.51 141.2,711.41 	"/>
	<g>
		<path style="&st1;" d="M1387,1047.58c-0.41-4.11-9.46-113.48-10.69-130.75c-1.23-17.27-4.93-60.44-5.76-71.54
			c-0.82-11.1-4.83-35.67-4.83-35.67h-91.4c0,0-4.01,24.57-4.83,35.67c-0.82,11.1-4.52,54.27-5.76,71.54
			c-1.23,17.27-10.28,126.64-10.69,130.75l32.07,4.94l34.91-185.63l34.91,185.63L1387,1047.58z"/>
		<polygon style="&st2;" points="1273.2,816.72 1366.84,816.72 1365.72,809.62 1274.32,809.62 		"/>
		<path style="&st1;" d="M1313.92,809.62c0,0-5.4,2.77,0,7.09h52.92l-1.12-7.09H1313.92z"/>
		<g>
			<g>
				<circle style="&st3;" cx="1315.58" cy="813.17" r="1.97"/>
				<g>
					<rect x="1296.24" y="808.08" style="&st4;" width="3.7" height="10.28"/>
					<rect x="1331.6" y="808.08" style="&st4;" width="3.7" height="10.28"/>
				</g>
			</g>
			<g>
				<g>
					<path style="&st4;" d="M1273.2,816.72L1273.2,816.72c-1.18,7.68-2.96,19.84-3.61,27.32l0.03,0.02l18.4-27.34H1273.2z"/>
					<path style="&st4;" d="M1366.88,816.72L1366.88,816.72c1.18,7.68,2.96,19.84,3.61,27.32l-0.03,0.02l-18.4-27.34H1366.88z"/>
				</g>
				<g>
					<path style="&st4;" d="M1319.31,816.72v43.33c0,0,7.86-3.55,9.1-5.7v-37.62H1319.31z"/>
					<g>
						<g>
							<polygon style="&st4;" points="1297.7,828.43 1297.7,859.12 1294.77,859.12 							"/>
							<polygon style="&st4;" points="1292.17,873.73 1280.74,945.81 1269.3,1042.94 1283.54,947.2 							"/>
						</g>
						<g>
							<polygon style="&st4;" points="1341.21,828.43 1341.21,859.12 1344.14,859.12 							"/>
							<polygon style="&st4;" points="1347.62,873.73 1359.06,945.81 1370.49,1042.94 1356.25,947.2 							"/>
						</g>
					</g>
				</g>
			</g>
		</g>
	</g>
	<g>
		<path style="&st2;" d="M307.79,414.18h26.46c0,0-3.06,21.35-3.93,23.85c-0.88,2.5-10.13,25.79-10.13,25.79l-9.82-26.31
			L307.79,414.18z"/>
		<g>
			<path style="&st5;" d="M270.25,588.65c0.31-5.67,2.05-14.16,3.61-23.17c0-0.09-1.88-58.3,1.9-74.63
				c-0.11-0.32-0.14-2.66-0.14-2.66c-2.55-35.86-6.96-48.28-9.04-53.41l-1.17-2.43c0,0-5.83-1.34-7.18,6.28
				c-1.35,7.63-13.23,80.96-13.46,102.71c-0.22,21.75,1.57,47.32,1.57,47.32L270.25,588.65L270.25,588.65z"/>
			<path style="&st1;" d="M321.02,593.81l7.92,9.57c0,0,42.46-6.73,43.95-9.57c0,0-4.7-28.26-6.39-37.23
				c-1.69-8.97-3.78-50.17-3.78-50.17l3.78-15.57c0,0,3.54-46.99,10.35-58.51c0,0-29.06-9.01-36.1-11.89l6.73,18.17l-4.6,2.36
				l5.38,6.5c0,0-42.42,48.48-45.26,52.36C303.01,499.85,299.34,535.95,321.02,593.81z"/>
			<path style="&st2;" d="M300.73,420.8l-35.32,11.55c0,0,6.73,9.72,10.17,58.01c0,0,3.44,9.42,4.34,13.9c0,0,0.45,20.33-1.79,34.54
				c-2.24,14.2-7.62,40.07-7.92,51.13c0,0,10.91,9.27,40.82,13.46c0,0,8.22-4.34,10.02-9.57c0,0-9.12-28.7-11.81-41.86
				c-2.69-13.16-7.18-42.16-5.83-52.48l12.86-27.66l-21.38-26.31l4.63-7.18l-5.23-2.39L300.73,420.8z"/>
			<path style="&st5;" d="M372.02,588.65c-1.16-6.98-2.64-13.26-4.2-22.27c0-0.09,2.48-59.2-1.3-75.53c0.11-0.32,0-1.77,0-1.77
				c2.55-35.86,7.1-49.17,9.18-54.31l1.17-2.43c0,0,5.83-1.34,7.18,6.28c1.35,7.63,13.23,80.96,13.46,102.71
				c0.22,21.75-1.57,47.32-1.57,47.32L372.02,588.65L372.02,588.65z"/>
			<g>
				<path style="&st6;" d="M316.24,471.82c0,0,12.41-30.61,13.87-34.87c1.46-4.26,4.15-22.76,4.15-22.76l6.5,6.28l6.73,18.17
					l-4.6,2.36l5.38,6.5l-44.89,51.99L316.24,471.82z"/>
				<polygon style="&st6;" points="300.73,420.8 307.79,414.18 310.37,435.71 320.72,463.82 316.76,473.61 294.86,445.5 
					299.49,438.33 294.26,435.93 				"/>
			</g>
			<g>
				<polygon style="&st7;" points="344.79,475.55 332.83,475.55 332.83,500.4 334.49,502.61 344.79,502.61 355.08,502.61 
					356.74,500.4 356.74,475.55 				"/>
				<rect x="332.83" y="475.55" style="&st6;" width="23.91" height="6.14"/>
			</g>
			<g>
				<circle style="&st6;" cx="310.52" cy="504.11" r="3.29"/>
				<circle style="&st6;" cx="310.52" cy="529.23" r="3.29"/>
			</g>
		</g>
	</g>
	<g>
		<g>
			<g>
				<path style="&st8;" d="M545.31,383.25c-0.12-0.8-0.18-1.25-0.18-1.25c0.39-18.58-10.54-42.08-10.54-42.08s-6.05,2.99-7.8,9.61
					c-1.76,6.62-6.44,40.16-8.39,61.3c-1.95,21.15-3.71,52.97-2.54,57.03l-0.38,15.17h17.94v-13.46L545.31,383.25L545.31,383.25z"/>
				<polygon style="&st9;" points="533.42,467.87 515.86,467.87 515.49,483.04 533.42,483.04 533.42,469.58 533.61,468.22 				"/>
			</g>
			<g>
				<path style="&st8;" d="M628.27,383.25c0.12-0.8,0.18-1.25,0.18-1.25c-0.39-18.58,10.54-42.08,10.54-42.08s6.05,2.99,7.8,9.61
					c1.76,6.62,6.44,40.16,8.39,61.3c1.95,21.15,3.71,52.97,2.54,57.03l0.38,15.17h-17.94v-13.46L628.27,383.25L628.27,383.25z"/>
				<polygon style="&st9;" points="640.15,467.87 657.71,467.87 658.09,483.04 640.15,483.04 640.15,469.58 639.97,468.22 				"/>
			</g>
		</g>
		<g>
			<path style="&st9;" d="M628.45,382c-0.39-18.58,10.54-42.08,10.54-42.08l-32.97-15.81h-18.94h-0.57h-18.94l-32.97,15.81
				c0,0,10.93,23.5,10.54,42.08c0,0,6.44,44,5.95,50.2c-0.49,6.19-6.93,52.76-6.93,52.76s2.93,5.55,17.17,5.55
				c12.39,0,22.7,0,25.18,0c0.37,0,0.57,0,0.57,0c2.48,0,12.8,0,25.18,0c14.24,0,17.17-5.55,17.17-5.55s-6.44-46.57-6.93-52.76
				C622.01,426,628.45,382,628.45,382z"/>
			<g>
				<g>
					<polygon style="&st8;" points="571.33,315.03 565.9,327.74 573.42,343.02 586.37,330.2 					"/>
					<polygon style="&st8;" points="602.35,315.03 607.78,327.74 600.27,343.02 587.31,330.2 					"/>
				</g>
				<polygon style="&st9;" points="571.33,315.03 602.35,315.03 587.31,330.2 586.37,330.2 				"/>
				<g>
					<polygon style="&st8;" points="582.29,334.24 586.37,330.2 587.31,330.2 591.4,334.24 591.4,490.51 583.02,490.51 					"/>
					<g>
						<ellipse style="&st10;" cx="586.59" cy="333.76" rx="1.2" ry="1.32"/>
						<ellipse style="&st10;" cx="586.59" cy="350.85" rx="1.2" ry="1.32"/>
						<ellipse style="&st10;" cx="586.59" cy="367.94" rx="1.2" ry="1.32"/>
						<ellipse style="&st10;" cx="586.59" cy="385.03" rx="1.2" ry="1.32"/>
						<ellipse style="&st10;" cx="586.59" cy="402.12" rx="1.2" ry="1.32"/>
						<ellipse style="&st10;" cx="586.59" cy="419.2" rx="1.2" ry="1.32"/>
						<ellipse style="&st10;" cx="586.59" cy="436.29" rx="1.2" ry="1.32"/>
						<ellipse style="&st10;" cx="586.59" cy="453.38" rx="1.2" ry="1.32"/>
					</g>
				</g>
			</g>
		</g>
	</g>
	<g>
		<g>
			<path style="&st11;" d="M1736.63,191.39c-0.79-5.1-2.35-44.83-2.48-57.51c-0.13-12.68-3-86.4-4.84-101.69
				c-1.83-15.29-5.1-17.91-5.1-17.91c1.7-5.36-1.57-8.63-1.57-8.63h-42.35h-42.35c0,0-3.27,3.27-1.57,8.63c0,0-3.27,2.61-5.1,17.91
				c-1.83,15.29-4.71,89.01-4.84,101.69c-0.13,12.68-1.7,52.42-2.48,57.51c-0.78,5.1-2.87,23.53-1.83,29.28
				c1.05,5.75,0.26,15.55,4.97,17.65l0.13,5.23c0,0,12.68,3.01,22.48,0v-5.23c0,0,5.1-1.18,5.49-6.67
				c0.39-5.49,3.4-20.13,5.36-26.01c1.96-5.88,5.23-34.9,7.19-43.79c1.96-8.89,7.45-47.58,7.97-53.59
				c0.52-6.02,1.96-27.19,4.57-27.06c2.62-0.13,4.05,21.04,4.58,27.06c0.52,6.01,6.01,44.7,7.97,53.59
				c1.96,8.89,5.23,37.91,7.19,43.79c1.96,5.88,4.97,20.52,5.36,26.01c0.39,5.49,5.49,6.67,5.49,6.67v5.23c9.8,3.01,22.48,0,22.48,0
				l0.13-5.23c4.71-2.09,3.92-11.89,4.96-17.65C1739.51,214.91,1737.42,196.49,1736.63,191.39z"/>
			<g>
				<path style="&st12;" d="M1722.64,5.65h-42.35h-42.35c0,0-3.27,3.27-1.57,8.63h87.84C1725.91,8.92,1722.64,5.65,1722.64,5.65z"/>
				<g>
					<rect x="1679.9" y="14.28" style="&st12;" width="0.78" height="66.92"/>
				</g>
				<g>
					<g>
						<circle style="&st13;" cx="1674.2" cy="9.95" r="1.32"/>
						<g>
							<rect x="1673.81" y="25.97" style="&st13;" width="0.79" height="3.53"/>
							<path style="&st14;" d="M1675.14,25.7c0,0.73-0.42,1.32-0.94,1.32l0,0c-0.52,0-0.94-0.59-0.94-1.32V11.27
								c0-0.73,0.42-1.32,0.94-1.32l0,0c0.52,0,0.94,0.59,0.94,1.32V25.7z"/>
						</g>
					</g>
					<g>
						<circle style="&st13;" cx="1685.72" cy="9.95" r="1.32"/>
						<g>
							<rect x="1685.33" y="25.97" style="&st13;" width="0.79" height="3.53"/>
							<path style="&st14;" d="M1686.66,25.7c0,0.73-0.42,1.32-0.94,1.32l0,0c-0.52,0-0.94-0.59-0.94-1.32V11.27
								c0-0.73,0.42-1.32,0.94-1.32l0,0c0.52,0,0.94,0.59,0.94,1.32V25.7z"/>
						</g>
					</g>
				</g>
			</g>
		</g>
		<g>
			<path style="&st12;" d="M1627.1,238.31l0.13,5.23c0,0,12.68,3.01,22.48,0v-5.23C1637.03,240.21,1627.1,238.31,1627.1,238.31z"/>
			<path style="&st12;" d="M1733.54,238.31l-0.13,5.23c0,0-12.68,3.01-22.48,0v-5.23C1723.61,240.21,1733.54,238.31,1733.54,238.31z
				"/>
		</g>
	</g>
	<g>
		<path style="&st15;" d="M1072.8,219.56h-37.24c8.05,4.03,14.6,4.77,18.62,4.77C1058.86,224.33,1064.74,223.59,1072.8,219.56z"/>
		<g>
			<path style="&st16;" d="M1098.68,295.03c11.95,6.17,32.26-10.35,32.26-10.35l-22.9-51.97c0,0-12.39,25.49-12.97,38.83
				L1098.68,295.03z"/>
			<path style="&st17;" d="M1098.68,295.03l-3.61-23.5c0.57-13.34,12.97-38.83,12.97-38.83l-35.24-13.14
				c-8.06,4.03-13.94,4.77-18.62,4.77c-4.02,0-10.56-0.73-18.62-4.77l-35.24,13.14c0,0,12.39,25.49,12.97,38.83l-3.61,23.5
				l-7.57,93.99c0,0,5.14,3.35,51.77,3.38l0,0c0.1,0,0.2,0,0.3,0c0.1,0,0.2,0,0.3,0l0,0c46.63-0.03,51.77-3.38,51.77-3.38
				L1098.68,295.03z"/>
			<path style="&st16;" d="M1009.67,295.03c-11.95,6.17-32.26-10.35-32.26-10.35l22.9-51.97c0,0,12.39,25.49,12.97,38.83
				L1009.67,295.03z"/>
			<path style="&st18;" d="M1032.76,220.61c0,0,6.31,6.32,21.41,6.32c15.1,0,21.41-6.32,21.41-6.32l-2.79-1.04
				c0,0-8.83,4.69-18.85,4.77c-10.02,0.08-18.39-4.77-18.39-4.77L1032.76,220.61z"/>
		</g>
	</g>
	<g>
		<g>
			<path style="&st19;" d="M30.82,33.59c0,0-4.08,1.96-5.79,18.4c0,0-0.86,25.25-1.72,37.39c-0.86,12.14-1.93,23.1-3,25.84
				c-1.07,2.74,0.21,7.05,0,12.92c-0.21,5.87,0.64,26.23-0.43,34.45c-1.07,8.22-5.15,13.51-3.43,14.68
				c1.72,1.17,2.15,1.56,2.36,3.72c0.21,2.15-2.14,9.2-1.72,11.74c0.43,2.54,14.59,4.7,19.31,3.33c4.72-1.37,0.86-4.39,2.36-7.57
				c1.5-3.19,2.36-7.1,4.08-8.47c1.72-1.37-0.86-4.31-1.29-8.81c-0.43-4.5-0.98-12.92,1.87-24.08c2.85-11.16,4.99-20.36,4.14-22.9
				c-0.86-2.55,0.21-11.35,1.29-14.29c1.07-2.94-0.43-6.79,0-8.58c0.43-1.79,2.79-7.47,2.36-9.81c-0.43-2.35-0.21-8.03,1.72-8.61
				L30.82,33.59z"/>
			<g>
				<path style="&st11;" d="M42.68,180.33c0.27-0.22,0.73-0.91,0.73-1.63c-16.4,1.53-27.34-2.02-27.34-2.02
					c0.48,2.15,2.09,2.21,2.32,4.44c0.22,2.23-2.24,9.54-1.79,12.19c0.45,2.64,15.22,4.87,20.14,3.45c4.92-1.42,0.9-4.55,2.46-7.86
					C40.76,185.59,40.89,181.75,42.68,180.33z"/>
				<path style="&st12;" d="M18.39,181.64c-0.04,0.91-0.3,2.27-0.62,3.76l21.64,3.02c0.52-1.22,0.88-2.5,1.21-3.68L18.39,181.64z"/>
				<path style="&st12;" d="M16.55,192.09l22.51,3.15c0.53-1.06-0.05-2.4-0.21-3.88l-21.71-3.03
					C16.85,189.71,16.61,191.04,16.55,192.09z"/>
			</g>
		</g>
		<g>
			<path style="&st19;" d="M154.81,33.59c0,0,4.08,1.96,5.79,18.4c0,0,0.86,25.25,1.72,37.39c0.86,12.14,1.93,23.1,3,25.84
				c1.07,2.74-0.21,7.05,0,12.92c0.21,5.87-0.64,26.23,0.43,34.45c1.07,8.22,5.14,13.51,3.43,14.68c-1.72,1.17-2.14,1.56-2.36,3.72
				c-0.22,2.15,2.14,9.2,1.71,11.74c-0.43,2.54-14.59,4.7-19.3,3.33c-4.72-1.37-0.86-4.39-2.36-7.57c-1.5-3.19-2.36-7.1-4.08-8.47
				c-1.72-1.37,0.86-4.31,1.29-8.81c0.43-4.5,0.98-12.92-1.87-24.08c-2.85-11.16-4.99-20.36-4.14-22.9
				c0.86-2.55-0.21-11.35-1.29-14.29c-1.07-2.94,0.43-6.79,0-8.58c-0.43-1.79-2.79-7.47-2.36-9.81c0.43-2.35,0.21-8.03-1.72-8.61
				L154.81,33.59z"/>
			<g>
				<path style="&st11;" d="M142.94,180.33c-0.27-0.22-0.73-0.91-0.73-1.63c16.4,1.53,27.34-2.02,27.34-2.02
					c-0.48,2.15-2.09,2.21-2.31,4.44c-0.22,2.23,2.24,9.54,1.79,12.19c-0.45,2.64-15.22,4.87-20.14,3.45
					c-4.92-1.42-0.9-4.55-2.46-7.86C144.86,185.59,144.73,181.75,142.94,180.33z"/>
				<g>
					<path style="&st12;" d="M167.25,181.64c0.04,0.91,0.3,2.27,0.63,3.76l-21.64,3.02c-0.52-1.22-0.88-2.5-1.21-3.68L167.25,181.64
						z"/>
					<path style="&st12;" d="M169.09,192.09l-22.51,3.15c-0.53-1.06,0.05-2.4,0.21-3.88l21.72-3.03
						C168.79,189.71,169.03,191.04,169.09,192.09z"/>
				</g>
			</g>
		</g>
		<g>
			<path style="&st11;" d="M154.81,33.59c-1.07-1.96-7.08-4.31-16.73-6.66c-9.65-2.35-24.24-12.72-24.24-12.72L92.81,33.4
				L71.79,14.22c0,0-14.59,10.37-24.24,12.72c-9.65,2.35-15.66,4.7-16.73,6.66c0,0,3.65,13.5,8.58,20.36c0,0,4.93,21.53,13.51,28.97
				c0,0-2.57,27.21-3,45.22c-0.43,18.01-4.29,32.1,2.57,38.36c0,0,0.86,9.2-1.18,12.53c-2.04,3.33-0.97,5.87-0.97,5.87
				s12.44,4.11,23.81,3.52c11.21-0.58,13.66-2.49,18.67-2.54c5,0.05,7.46,1.96,18.67,2.54c11.37,0.59,23.81-3.52,23.81-3.52
				s1.07-2.55-0.96-5.87c-2.04-3.33-1.18-12.53-1.18-12.53c6.86-6.26,3-20.36,2.57-38.36c-0.43-18.01-3-45.22-3-45.22
				c8.58-7.44,13.51-28.97,13.51-28.97C151.16,47.1,154.81,33.59,154.81,33.59z"/>
			<g>
				<g>
					<polygon style="&st13;" points="78.22,9.52 107.41,9.52 92.97,33.18 					"/>
					<g>
						<path style="&st19;" d="M113.84,14.22c-3.43-0.2-6.44-4.7-6.44-4.7l-14.59,23.4L78.22,9.52c0,0-3,4.5-6.44,4.7
							c0,0,0.64,17.52,20.65,19.3l-0.05,0.07c0.15-0.01,0.28-0.03,0.42-0.04c0.14,0.01,0.28,0.03,0.42,0.04l-0.05-0.07
							C113.2,31.74,113.84,14.22,113.84,14.22z"/>
						<g>
							<g>
								<polygon style="&st19;" points="90.23,186.07 89.37,186.21 89.37,35.13 92.97,33.18 94.36,32.91 90.23,35.58 								"/>
							</g>
							<g>
								<ellipse style="&st19;" cx="94.53" cy="40.25" rx="2.14" ry="1.96"/>
								<ellipse style="&st19;" cx="94.53" cy="63.74" rx="2.14" ry="1.96"/>
								<ellipse style="&st19;" cx="94.53" cy="87.22" rx="2.14" ry="1.96"/>
								<ellipse style="&st19;" cx="94.53" cy="110.71" rx="2.14" ry="1.96"/>
								<ellipse style="&st19;" cx="94.53" cy="134.2" rx="2.14" ry="1.96"/>
								<ellipse style="&st19;" cx="94.53" cy="157.69" rx="2.14" ry="1.96"/>
								<ellipse style="&st19;" cx="94.53" cy="181.18" rx="2.14" ry="1.96"/>
							</g>
						</g>
					</g>
				</g>
				<g>
					<g>
						<path style="&st12;" d="M82.04,172.36c-0.08-1.52-0.14-2.61-0.23-3.16c-0.34-2.18-4.02-2.06-10.69-1.83
							c-1.27,0.04-2.65,0.09-4.13,0.12c-7.26,0.18-13.16-0.96-14.85-1.33c0.11,0.11,0.22,0.23,0.34,0.33c0,0,0.02,0.22,0.05,0.6
							c2.28,0.46,7.82,1.39,14.49,1.23c1.48-0.04,2.86-0.08,4.14-0.13c5.74-0.2,9.52-0.32,9.75,1.12c0.08,0.51,0.14,1.64,0.22,3.08
							c0.23,4.22,0.6,10.97,2.02,15.07c0.31-0.05,0.61-0.11,0.9-0.16C82.64,183.3,82.25,176.3,82.04,172.36z"/>
						<g>
							<path style="&st12;" d="M52.36,175.57h24v-4.04H52.65C52.63,172.85,52.55,174.26,52.36,175.57z"/>
							<path style="&st12;" d="M51.3,179.02c-0.9,1.46-1.19,2.77-1.24,3.78h26.3v-4.04H51.44C51.4,178.85,51.35,178.94,51.3,179.02z
								"/>
						</g>
					</g>
					<g>
						<path style="&st12;" d="M103.6,172.36c0.08-1.52,0.14-2.61,0.23-3.16c0.34-2.18,4.02-2.06,10.69-1.83
							c1.27,0.04,2.65,0.09,4.13,0.12c7.26,0.18,13.16-0.96,14.85-1.33c-0.11,0.11-0.22,0.23-0.34,0.33c0,0-0.02,0.22-0.05,0.6
							c-2.28,0.46-7.82,1.39-14.5,1.23c-1.48-0.04-2.86-0.08-4.14-0.13c-5.73-0.2-9.52-0.32-9.75,1.12
							c-0.08,0.51-0.14,1.64-0.22,3.08c-0.23,4.22-0.6,10.97-2.02,15.07c-0.31-0.05-0.61-0.11-0.9-0.16
							C103,183.3,103.39,176.3,103.6,172.36z"/>
						<g>
							<path style="&st12;" d="M133.28,175.57h-24v-4.04h23.71C133.01,172.85,133.09,174.26,133.28,175.57z"/>
							<path style="&st12;" d="M134.34,179.02c0.9,1.46,1.19,2.77,1.24,3.78h-26.3v-4.04h24.92
								C134.24,178.85,134.29,178.94,134.34,179.02z"/>
						</g>
					</g>
				</g>
			</g>
		</g>
	</g>
	<g>
		<path style="&st20;" d="M1632.31,817.09c-0.28-2.79,0.28-14.88,0-18.2c-0.28-3.32-3.61-42.25-4.16-46.9
			c-0.56-4.65-2.22-21.26-2.78-25.42c-0.55-4.16-0.97-16.83-1.8-23.87c-0.83-7.04-2.36-35.88-2.69-37.74
			c-0.33-1.86-0.92-9.96-0.22-12.89c0.69-2.92-0.42-4.65-0.83-7.44c-0.42-2.79-1.39-20.33-1.67-21.39
			c-0.28-1.06-0.41-4.52-1.11-7.17c-0.69-2.66-1.11-6.51-1.11-6.51c0.14-1.33-0.97-9.43-0.97-9.43h-45.67h-45.67
			c0,0-1.11,8.1-0.97,9.43c0,0-0.42,3.85-1.11,6.51c-0.69,2.66-0.83,6.11-1.11,7.17c-0.28,1.06-1.25,18.6-1.67,21.39
			c-0.42,2.79-1.53,4.52-0.83,7.44c0.69,2.92,0.11,11.03-0.22,12.89c-0.33,1.86-1.86,30.69-2.69,37.74
			c-0.83,7.04-1.25,19.71-1.8,23.87c-0.56,4.16-2.22,20.77-2.78,25.42c-0.55,4.65-3.89,43.58-4.16,46.9
			c-0.28,3.32,0.28,15.41,0,18.2c-0.28,2.79-2.64,24.98-1.94,26.71c0,0,18.88-3.05,29.71,0.8c0,0,1.53-3.46,1.8-5.32
			c0.28-1.86-1.39-5.18-0.69-5.98c0.69-0.8,3.89-6.24,3.75-8.63c-0.14-2.39-0.96-7.18,0-9.04c0.97-1.86,1.39-6.78,1.39-9.43
			s1.66-11.83,2.64-15.81c0.97-3.99,3.75-22.46,3.89-26.57c0.14-4.12,1.67-13.69,2.5-15.81c0.83-2.13,2.22-13.42,2.92-17.81
			c0.69-4.38,1.53-14.62,4.16-21.79c2.64-7.17,8.33-22.99,9.02-25.11c0.69-2.13,1.94-6.91,2.08-7.97l1.8-0.4l1.81,0.4
			c0.14,1.06,1.39,5.85,2.08,7.97c0.69,2.13,6.39,17.94,9.02,25.11c2.64,7.17,3.47,17.41,4.16,21.79
			c0.69,4.39,2.08,15.68,2.92,17.81c0.83,2.13,2.36,11.69,2.5,15.81c0.14,4.12,2.92,22.59,3.89,26.57
			c0.97,3.99,2.64,13.15,2.64,15.81s0.42,7.57,1.38,9.43c0.97,1.86,0.14,6.64,0,9.04c-0.14,2.39,3.05,7.84,3.75,8.63
			c0.69,0.8-0.97,4.12-0.69,5.98c0.28,1.86,1.81,5.32,1.81,5.32c10.83-3.85,29.71-0.8,29.71-0.8
			C1634.95,842.07,1632.59,819.88,1632.31,817.09z"/>
		<g>
			<path style="&st21;" d="M1522.65,609.54l0.97-9.43h91.34c0,0,0.78,7.88,0.97,9.43H1522.65z"/>
			<g>
				<rect x="1538.86" y="598.51" style="&st22;" width="3.19" height="11.96"/>
				<rect x="1597.22" y="598.51" style="&st22;" width="3.19" height="11.96"/>
			</g>
			<g>
				<path style="&st23;" d="M1566.23,600.11v9.43h2.39v65.49l1.68,0.11l0.04-18.56c0,0,6.64,1.2,6.64-11.03c0-12.22,0-36.01,0-36.01
					v-9.43H1566.23z"/>
				<circle style="&st20;" cx="1571.35" cy="604.36" r="1.53"/>
				<path style="&st23;" d="M1551.48,609.54c0,0,3.99,18.59-31.29,15.94l-0.21,2.79c0,0,34.69,5.71,34.69-18.73H1551.48z"/>
				<path style="&st23;" d="M1587.05,609.54c0,0-3.98,18.59,31.29,15.94l0.21,2.79c0,0-34.69,5.71-34.69-18.73H1587.05z"/>
				<g>
					<path style="&st24;" d="M1534.03,844.59c0,0,0.59-1.34,1.11-2.81c-14.37-4.56-30.17-1.28-30.91-1.12
						c-0.06,1.64-0.04,2.79,0.09,3.13C1504.32,843.79,1523.2,840.74,1534.03,844.59z"/>
					<path style="&st24;" d="M1604.55,844.59c0,0-0.59-1.34-1.11-2.81c14.37-4.56,30.17-1.28,30.91-1.12
						c0.06,1.64,0.04,2.79-0.09,3.13C1634.26,843.79,1615.38,840.74,1604.55,844.59z"/>
				</g>
			</g>
		</g>
	</g>
	<g>
		<path style="&st25;" d="M698.86,610.14l-34.18-12.71h-20.6h-0.85h-20.6l-34.18,12.71c0,0,8.22,37.23,5.53,51.13l-0.42,97.48
			c0,0,11.67,14.57,49.67,14.79v0.01c0.14,0,0.28,0,0.42,0c0.15,0,0.28,0,0.43,0v-0.01c38-0.22,49.67-14.79,49.67-14.79l-0.42-97.48
			C690.64,647.36,698.86,610.14,698.86,610.14z"/>
		<g>
			<g>
				<path style="&st26;" d="M593.99,661.27c2.7-13.9-5.53-51.13-5.53-51.13l-33.94,27.21l28.11,32.29l11.36-7.47L593.99,661.27z"/>
				<polygon style="&st27;" points="560.81,632.31 589.07,665.4 582.63,669.64 554.52,637.35 				"/>
			</g>
			<g>
				<path style="&st26;" d="M693.45,661.27c-2.69-13.9,5.53-51.13,5.53-51.13l33.94,27.21l-28.11,32.29l-11.36-7.47L693.45,661.27z"
					/>
				<polygon style="&st27;" points="726.64,632.31 698.37,665.4 704.82,669.64 732.92,637.35 				"/>
			</g>
		</g>
		<g>
			<g>
				<polygon style="&st26;" points="632.6,597.43 635.41,617.16 645.05,625.69 642.25,634.77 631.26,614.81 631.26,597.43 				"/>
				<polygon style="&st26;" points="656.28,597.43 654.92,597.43 652.45,616.94 645.05,625.69 642.25,634.77 642.25,773.54 
					650.55,773.35 650.55,634.77 651.66,625.24 656.28,614.81 				"/>
				<g>
					<circle style="&st27;" cx="646.12" cy="635.5" r="1.85"/>
					<circle style="&st27;" cx="646.12" cy="656.13" r="1.85"/>
					<circle style="&st27;" cx="646.12" cy="676.76" r="1.85"/>
					<circle style="&st27;" cx="646.12" cy="697.39" r="1.85"/>
					<circle style="&st27;" cx="646.12" cy="718.03" r="1.85"/>
					<circle style="&st27;" cx="646.12" cy="738.66" r="1.85"/>
				</g>
				<polygon style="&st28;" points="632.49,596.46 635.41,617.16 645.05,625.69 652.45,616.94 655.14,596.91 				"/>
			</g>
			<g>
				<polygon style="&st29;" points="631.26,587 622.64,597.43 614.89,622.77 631.26,614.81 				"/>
				<polygon style="&st29;" points="656.28,587 664.9,597.43 672.65,622.77 656.28,614.81 				"/>
				<rect x="631.26" y="587" style="&st29;" width="25.02" height="10.43"/>
			</g>
		</g>
	</g>
	<g>
		<g>
			<path style="&st30;" d="M298.27,1034.42c-5.38-21.98,4.49-68.17,4.49-68.17c-0.08-0.12-0.2-0.24-0.3-0.36l0.3-0.91
				c0,0,8.52,4.78,13.01,16.74c4.48,11.96,19.44,113.25,18.54,137.06l-27.51,5.34l-8.36-85.44
				C298.35,1035.98,298.27,1034.42,298.27,1034.42z"/>
			<path style="&st30;" d="M175.15,1034.42c5.38-21.98-4.49-68.17-4.49-68.17c0.08-0.12,0.2-0.24,0.3-0.36l-0.3-0.91
				c0,0-8.52,4.78-13.01,16.74c-4.49,11.96-19.44,113.25-18.54,137.06l27.51,5.34l8.36-85.44
				C175.08,1035.98,175.15,1034.42,175.15,1034.42z"/>
		</g>
		<g>
			<path style="&st31;" d="M303.66,965.35c-4.26-6.05-37.68-14.35-37.68-14.35l-29.26-2.02l0,0l0,0h0l0,0l-29.27,2.02
				c0,0-33.41,8.3-37.68,14.35c0,0,9.87,46.2,4.49,68.18c0,0-2.69,57.19,4.93,80.06v14.11h57.52h0h57.52v-14.11
				c7.63-22.87,4.93-80.06,4.93-80.06C293.79,1011.54,303.66,965.35,303.66,965.35z"/>
			<rect x="179.19" y="1113.58" style="&st30;" width="115.05" height="14.11"/>
			<g>
				<g>
					<polygon style="&st32;" points="218.06,1001.75 202.06,1001.75 202.06,1001.75 186.07,1001.75 186.07,1030.31 202.06,1036.59 
						202.06,1036.59 202.06,1036.59 202.06,1036.59 202.06,1036.59 218.06,1030.31 					"/>
					<polygon style="&st30;" points="202.06,993.69 202.06,993.69 184.87,993.69 184.87,1001.75 188.31,1005.34 202.06,1005.34 
						202.06,1005.34 215.82,1005.34 219.26,1001.75 219.26,993.69 					"/>
					<polygon style="&st32;" points="250.81,1001.75 266.81,1001.75 266.81,1001.75 282.81,1001.75 282.81,1030.31 266.81,1036.59 
						266.81,1036.59 266.81,1036.59 266.81,1036.59 266.81,1036.59 250.81,1030.31 					"/>
					<polygon style="&st30;" points="266.81,993.69 266.81,993.69 284,993.69 284,1001.75 280.56,1005.34 266.81,1005.34 
						266.81,1005.34 253.06,1005.34 249.62,1001.75 249.62,993.69 					"/>
				</g>
				<g>
					<g>
						<g>
							<polygon style="&st33;" points="211.48,974.99 231.82,965.72 218.66,936.72 207.45,950.99 							"/>
							<polygon style="&st33;" points="260.08,974.99 239.75,965.72 252.91,936.72 264.12,950.99 							"/>
						</g>
						<polygon style="&st34;" points="218.66,936.72 252.91,936.72 239.75,965.72 231.82,965.72 						"/>
					</g>
					<g>
						<rect x="174.28" y="992.8" style="&st33;" width="60.6" height="0.9"/>
					</g>
					<g>
						<rect x="235.78" y="992.8" style="&st33;" width="63.3" height="0.9"/>
					</g>
					<g>
						<rect x="234.89" y="965.72" style="&st33;" width="1.79" height="161.98"/>
					</g>
				</g>
			</g>
		</g>
	</g>
	<rect id="_x3C_Slice_x3E_" x="232.39" y="409.17" style="&st35;" width="174" height="196"/>
	<rect id="_x3C_Slice_x3E__1_" x="2.09" y="1.08" style="&st35;" width="180" height="209"/>
	<rect id="_x3C_Slice_x3E__2_" x="114.88" y="939.98" style="&st35;" width="234" height="193"/>
	<rect id="_x3C_Slice_x3E__3_" x="505.4" y="309.6" style="&st35;" width="166" height="183"/>
	<rect id="_x3C_Slice_x3E__4_" x="1485.31" y="593.51" style="&st35;" width="168" height="265"/>
</g>
</svg>
