<?xml version="1.0" encoding="utf-8"?>
<!-- Generator: Adobe Illustrator 21.0.0, SVG Export Plug-In . SVG Version: 6.00 Build 0)  -->
<!DOCTYPE svg PUBLIC "-//W3C//DTD SVG 1.1//EN" "http://www.w3.org/Graphics/SVG/1.1/DTD/svg11.dtd" [
	<!ENTITY st0 "fill:#3F4241;">
	<!ENTITY st1 "fill:#3E3F3E;">
	<!ENTITY st2 "fill:#474948;">
	<!ENTITY st3 "fill:#272827;">
	<!ENTITY st4 "fill:#2C2D2C;">
	<!ENTITY st5 "fill:#3C3D3C;">
	<!ENTITY st6 "fill:#252625;">
	<!ENTITY st7 "fill:#2D2D2D;">
	<!ENTITY st8 "fill:#F4F3ED;">
	<!ENTITY st9 "fill:#EAE9E4;">
	<!ENTITY st10 "fill:#D1CFC9;">
	<!ENTITY st11 "fill:#DDDDDD;">
	<!ENTITY st12 "fill:#C9C9C9;">
	<!ENTITY st13 "fill:#888889;">
	<!ENTITY st14 "fill:#ADADAD;">
	<!ENTITY st15 "fill:#D8B355;">
	<!ENTITY st16 "fill:#E5C776;">
	<!ENTITY st17 "fill:#F2D98B;">
	<!ENTITY st18 "fill:#F2E7C7;">
	<!ENTITY st19 "fill:#BABABA;">
	<!ENTITY st20 "fill:#A1C1D6;">
	<!ENTITY st21 "fill:#1E5476;">
	<!ENTITY st22 "fill:#174D68;">
	<!ENTITY st23 "fill:#658DB0;">
	<!ENTITY st24 "fill:#5A91AF;">
	<!ENTITY st25 "fill:#E86767;">
	<!ENTITY st26 "fill:#E05C5C;">
	<!ENTITY st27 "fill:#C13333;">
	<!ENTITY st28 "fill:#CC3E3E;">
	<!ENTITY st29 "fill:#D85555;">
	<!ENTITY st30 "fill:#C8BDA1;">
	<!ENTITY st31 "fill:#BCAF93;">
	<!ENTITY st32 "fill:#D8CEB6;">
	<!ENTITY st33 "fill:#A3967B;">
	<!ENTITY st34 "fill:#8E8169;">
	<!ENTITY st35 "fill:none;">
]>
<svg version="1.1" xmlns="http://www.w3.org/2000/svg" xmlns:xlink="http://www.w3.org/1999/xlink" x="0px" y="0px"
	 viewBox="0 0 173.99 280.49" style="enable-background:new 0 0 173.99 280.49;" xml:space="preserve">
<g id="Background">
</g>
<g id="Objects">
	<polygon style="&st0;" points="-326.16,784.54 -344.88,815.98 -344.56,811.88 	"/>
	<g>
		<path style="&st1;" d="M155.77,264.6c-0.41-4.11-9.46-113.48-10.69-130.75c-1.23-17.27-4.93-60.44-5.76-71.54
			c-0.82-11.1-4.83-35.67-4.83-35.67h-91.4c0,0-4.01,24.57-4.83,35.67c-0.82,11.1-4.52,54.27-5.76,71.54
			c-1.23,17.27-10.28,126.64-10.69,130.75l32.07,4.94L88.79,83.9l34.91,185.63L155.77,264.6z"/>
		<polygon style="&st2;" points="41.98,33.74 135.61,33.74 134.5,26.65 43.09,26.65 		"/>
		<path style="&st1;" d="M82.69,26.65c0,0-5.4,2.77,0,7.09h52.92l-1.12-7.09H82.69z"/>
		<g>
			<g>
				<circle style="&st3;" cx="84.35" cy="30.19" r="1.97"/>
				<g>
					<rect x="65.01" y="25.1" style="&st4;" width="3.7" height="10.28"/>
					<rect x="100.37" y="25.1" style="&st4;" width="3.7" height="10.28"/>
				</g>
			</g>
			<g>
				<g>
					<path style="&st4;" d="M41.98,33.74L41.98,33.74c-1.18,7.68-2.96,19.84-3.61,27.32l0.03,0.02l18.4-27.34H41.98z"/>
					<path style="&st4;" d="M135.65,33.74L135.65,33.74c1.18,7.68,2.96,19.84,3.61,27.32l-0.03,0.02l-18.4-27.34H135.65z"/>
				</g>
				<g>
					<path style="&st4;" d="M88.09,33.74v43.33c0,0,7.86-3.55,9.1-5.7V33.74H88.09z"/>
					<g>
						<g>
							<polygon style="&st4;" points="66.48,45.46 66.48,76.14 63.55,76.14 							"/>
							<polygon style="&st4;" points="60.94,90.75 49.51,162.83 38.08,259.96 52.31,164.22 							"/>
						</g>
						<g>
							<polygon style="&st4;" points="109.98,45.46 109.98,76.14 112.91,76.14 							"/>
							<polygon style="&st4;" points="116.4,90.75 127.83,162.83 139.26,259.96 125.03,164.22 							"/>
						</g>
					</g>
				</g>
			</g>
		</g>
	</g>
	<g>
		<path style="&st2;" d="M-177.97,514.66h26.46c0,0-3.06,21.35-3.93,23.85c-0.88,2.5-10.13,25.79-10.13,25.79l-9.82-26.31
			L-177.97,514.66z"/>
		<g>
			<path style="&st5;" d="M-215.52,689.13c0.31-5.67,2.05-14.16,3.61-23.17c0-0.09-1.88-58.3,1.9-74.63
				c-0.11-0.32-0.14-2.66-0.14-2.66c-2.55-35.86-6.96-48.28-9.04-53.41l-1.17-2.43c0,0-5.83-1.34-7.18,6.28
				c-1.35,7.63-13.23,80.96-13.46,102.71c-0.22,21.75,1.57,47.32,1.57,47.32L-215.52,689.13L-215.52,689.13z"/>
			<path style="&st1;" d="M-164.74,694.29l7.92,9.57c0,0,42.46-6.73,43.96-9.57c0,0-4.7-28.26-6.39-37.23
				c-1.69-8.97-3.78-50.17-3.78-50.17l3.78-15.57c0,0,3.54-46.99,10.35-58.51c0,0-29.06-9.01-36.1-11.89l6.73,18.16l-4.6,2.36
				l5.38,6.5c0,0-42.42,48.48-45.26,52.36C-182.76,600.33-186.42,636.43-164.74,694.29z"/>
			<path style="&st2;" d="M-185.04,521.27l-35.32,11.55c0,0,6.73,9.72,10.17,58.01c0,0,3.44,9.42,4.34,13.9
				c0,0,0.45,20.33-1.79,34.54c-2.24,14.2-7.62,40.07-7.92,51.13c0,0,10.91,9.27,40.82,13.46c0,0,8.22-4.34,10.02-9.57
				c0,0-9.12-28.7-11.81-41.86c-2.69-13.16-7.18-42.16-5.83-52.48l12.86-27.66l-21.38-26.31l4.63-7.18l-5.23-2.39L-185.04,521.27z"
				/>
			<path style="&st5;" d="M-113.74,689.13c-1.16-6.98-2.64-13.26-4.2-22.27c0-0.09,2.48-59.2-1.3-75.53c0.11-0.32,0-1.77,0-1.77
				c2.55-35.86,7.1-49.17,9.18-54.31l1.17-2.43c0,0,5.83-1.34,7.18,6.28c1.35,7.63,13.23,80.96,13.46,102.71
				c0.22,21.75-1.57,47.32-1.57,47.32L-113.74,689.13L-113.74,689.13z"/>
			<g>
				<path style="&st6;" d="M-169.53,572.29c0,0,12.41-30.61,13.87-34.87c1.46-4.26,4.15-22.76,4.15-22.76l6.5,6.28l6.73,18.16
					l-4.6,2.36l5.38,6.5l-44.89,51.99L-169.53,572.29z"/>
				<polygon style="&st6;" points="-185.04,521.27 -177.97,514.66 -175.39,536.19 -165.05,564.29 -169,574.09 -190.91,545.98 
					-186.27,538.8 -191.5,536.41 				"/>
			</g>
			<g>
				<polygon style="&st7;" points="-140.98,576.03 -152.93,576.03 -152.93,600.88 -151.27,603.09 -140.98,603.09 -130.68,603.09 
					-129.02,600.88 -129.02,576.03 				"/>
				<rect x="-152.93" y="576.03" style="&st6;" width="23.91" height="6.14"/>
			</g>
			<g>
				<circle style="&st6;" cx="-175.25" cy="604.59" r="3.29"/>
				<circle style="&st6;" cx="-175.25" cy="629.7" r="3.29"/>
			</g>
		</g>
	</g>
	<g>
		<g>
			<g>
				<path style="&st8;" d="M59.55,483.73c-0.12-0.8-0.18-1.25-0.18-1.25c0.39-18.58-10.54-42.08-10.54-42.08s-6.05,2.99-7.8,9.61
					c-1.76,6.62-6.44,40.16-8.39,61.3c-1.95,21.15-3.71,52.97-2.54,57.03l-0.38,15.17h17.94v-13.46L59.55,483.73L59.55,483.73z"/>
				<polygon style="&st9;" points="47.66,568.35 30.1,568.35 29.72,583.51 47.66,583.51 47.66,570.06 47.84,568.7 				"/>
			</g>
			<g>
				<path style="&st8;" d="M142.5,483.73c0.12-0.8,0.18-1.25,0.18-1.25c-0.39-18.58,10.54-42.08,10.54-42.08s6.05,2.99,7.8,9.61
					c1.76,6.62,6.44,40.16,8.39,61.3c1.95,21.15,3.71,52.97,2.54,57.03l0.38,15.17h-17.94v-13.46L142.5,483.73L142.5,483.73z"/>
				<polygon style="&st9;" points="154.39,568.35 171.95,568.35 172.33,583.51 154.39,583.51 154.39,570.06 154.2,568.7 				"/>
			</g>
		</g>
		<g>
			<path style="&st9;" d="M142.68,482.48c-0.39-18.58,10.54-42.08,10.54-42.08l-32.97-15.81h-18.94h-0.57H81.8L48.83,440.4
				c0,0,10.93,23.5,10.54,42.08c0,0,6.44,44,5.95,50.2c-0.49,6.19-6.93,52.76-6.93,52.76s2.93,5.55,17.17,5.55
				c12.39,0,22.7,0,25.18,0c0.37,0,0.57,0,0.57,0c2.48,0,12.8,0,25.18,0c14.24,0,17.17-5.55,17.17-5.55s-6.44-46.57-6.93-52.76
				C136.25,526.48,142.68,482.48,142.68,482.48z"/>
			<g>
				<g>
					<polygon style="&st8;" points="85.57,415.51 80.14,428.22 87.65,443.49 100.61,430.68 					"/>
					<polygon style="&st8;" points="116.59,415.51 122.01,428.22 114.5,443.49 101.55,430.68 					"/>
				</g>
				<polygon style="&st9;" points="85.57,415.51 116.59,415.51 101.55,430.68 100.61,430.68 				"/>
				<g>
					<polygon style="&st8;" points="96.52,434.72 100.61,430.68 101.55,430.68 105.63,434.72 105.63,590.99 97.26,590.99 					"/>
					<g>
						<ellipse style="&st10;" cx="100.82" cy="434.24" rx="1.2" ry="1.32"/>
						<ellipse style="&st10;" cx="100.82" cy="451.33" rx="1.2" ry="1.32"/>
						<ellipse style="&st10;" cx="100.82" cy="468.41" rx="1.2" ry="1.32"/>
						<ellipse style="&st10;" cx="100.82" cy="485.5" rx="1.2" ry="1.32"/>
						<ellipse style="&st10;" cx="100.82" cy="502.59" rx="1.2" ry="1.32"/>
						<ellipse style="&st10;" cx="100.82" cy="519.68" rx="1.2" ry="1.32"/>
						<ellipse style="&st10;" cx="100.82" cy="536.77" rx="1.2" ry="1.32"/>
						<ellipse style="&st10;" cx="100.82" cy="553.86" rx="1.2" ry="1.32"/>
					</g>
				</g>
			</g>
		</g>
	</g>
	<g>
		<g>
			<path style="&st11;" d="M1250.87,291.86c-0.79-5.1-2.35-44.83-2.48-57.51c-0.13-12.68-3-86.4-4.84-101.69
				c-1.83-15.29-5.1-17.91-5.1-17.91c1.7-5.36-1.57-8.63-1.57-8.63h-42.35h-42.35c0,0-3.27,3.27-1.57,8.63c0,0-3.27,2.61-5.1,17.91
				c-1.83,15.29-4.71,89.01-4.84,101.69c-0.13,12.68-1.7,52.42-2.48,57.51c-0.78,5.1-2.87,23.53-1.83,29.28
				c1.05,5.75,0.26,15.55,4.97,17.65l0.13,5.23c0,0,12.68,3.01,22.48,0v-5.23c0,0,5.1-1.18,5.49-6.67
				c0.39-5.49,3.4-20.13,5.36-26.01c1.96-5.88,5.23-34.9,7.19-43.79c1.96-8.89,7.45-47.58,7.97-53.59
				c0.52-6.02,1.96-27.19,4.57-27.06c2.62-0.13,4.05,21.04,4.58,27.06c0.52,6.01,6.01,44.7,7.97,53.59
				c1.96,8.89,5.23,37.91,7.19,43.79c1.96,5.88,4.97,20.52,5.36,26.01c0.39,5.49,5.49,6.67,5.49,6.67v5.23c9.8,3.01,22.48,0,22.48,0
				l0.13-5.23c4.71-2.09,3.92-11.89,4.96-17.65C1253.74,315.39,1251.65,296.96,1250.87,291.86z"/>
			<g>
				<path style="&st12;" d="M1236.88,106.13h-42.35h-42.35c0,0-3.27,3.27-1.57,8.63h87.84
					C1240.15,109.39,1236.88,106.13,1236.88,106.13z"/>
				<g>
					<rect x="1194.14" y="114.75" style="&st12;" width="0.78" height="66.92"/>
				</g>
				<g>
					<g>
						<circle style="&st13;" cx="1188.44" cy="110.42" r="1.32"/>
						<g>
							<rect x="1188.04" y="126.45" style="&st13;" width="0.79" height="3.53"/>
							<path style="&st14;" d="M1189.38,126.17c0,0.73-0.42,1.32-0.94,1.32l0,0c-0.52,0-0.94-0.59-0.94-1.32v-14.43
								c0-0.73,0.42-1.32,0.94-1.32l0,0c0.52,0,0.94,0.59,0.94,1.32V126.17z"/>
						</g>
					</g>
					<g>
						<circle style="&st13;" cx="1199.95" cy="110.42" r="1.32"/>
						<g>
							<rect x="1199.56" y="126.45" style="&st13;" width="0.79" height="3.53"/>
							<path style="&st14;" d="M1200.89,126.17c0,0.73-0.42,1.32-0.94,1.32l0,0c-0.52,0-0.94-0.59-0.94-1.32v-14.43
								c0-0.73,0.42-1.32,0.94-1.32l0,0c0.52,0,0.94,0.59,0.94,1.32V126.17z"/>
						</g>
					</g>
				</g>
			</g>
		</g>
		<g>
			<path style="&st12;" d="M1141.33,338.79l0.13,5.23c0,0,12.68,3.01,22.48,0v-5.23C1151.27,340.68,1141.33,338.79,1141.33,338.79z"
				/>
			<path style="&st12;" d="M1247.78,338.79l-0.13,5.23c0,0-12.68,3.01-22.48,0v-5.23C1237.84,340.68,1247.78,338.79,1247.78,338.79z
				"/>
		</g>
	</g>
	<g>
		<path style="&st15;" d="M587.03,320.04H549.8c8.05,4.03,14.6,4.77,18.62,4.77C573.09,324.81,578.98,324.07,587.03,320.04z"/>
		<g>
			<path style="&st16;" d="M612.92,395.51c11.95,6.17,32.26-10.35,32.26-10.35l-22.9-51.97c0,0-12.39,25.49-12.97,38.83
				L612.92,395.51z"/>
			<path style="&st17;" d="M612.92,395.51l-3.61-23.5c0.57-13.34,12.97-38.83,12.97-38.83l-35.24-13.14
				c-8.06,4.03-13.94,4.77-18.62,4.77c-4.02,0-10.56-0.73-18.62-4.77l-35.24,13.14c0,0,12.4,25.49,12.97,38.83l-3.61,23.5
				l-7.57,93.99c0,0,5.14,3.35,51.77,3.38l0,0c0.1,0,0.2,0,0.3,0c0.1,0,0.2,0,0.3,0l0,0c46.63-0.03,51.77-3.38,51.77-3.38
				L612.92,395.51z"/>
			<path style="&st16;" d="M523.91,395.51c-11.95,6.17-32.26-10.35-32.26-10.35l22.9-51.97c0,0,12.4,25.49,12.97,38.83
				L523.91,395.51z"/>
			<path style="&st18;" d="M547,321.08c0,0,6.31,6.32,21.41,6.32c15.1,0,21.41-6.32,21.41-6.32l-2.79-1.04c0,0-8.83,4.69-18.85,4.77
				c-10.02,0.08-18.39-4.77-18.39-4.77L547,321.08z"/>
		</g>
	</g>
	<g>
		<g>
			<path style="&st19;" d="M-454.95,134.07c0,0-4.08,1.96-5.79,18.4c0,0-0.86,25.25-1.72,37.39c-0.86,12.14-1.93,23.1-3,25.84
				c-1.07,2.74,0.21,7.05,0,12.92c-0.21,5.87,0.64,26.23-0.43,34.45c-1.07,8.22-5.15,13.51-3.43,14.68
				c1.72,1.17,2.15,1.56,2.36,3.72c0.21,2.15-2.15,9.2-1.72,11.74c0.43,2.54,14.59,4.7,19.31,3.33c4.72-1.37,0.86-4.39,2.36-7.57
				c1.5-3.19,2.36-7.1,4.08-8.47c1.72-1.37-0.86-4.31-1.29-8.81c-0.43-4.5-0.98-12.92,1.87-24.08c2.85-11.16,4.99-20.36,4.14-22.9
				c-0.86-2.55,0.21-11.35,1.29-14.29c1.07-2.94-0.43-6.79,0-8.58c0.43-1.79,2.79-7.47,2.36-9.81c-0.43-2.35-0.21-8.03,1.72-8.61
				L-454.95,134.07z"/>
			<g>
				<path style="&st11;" d="M-443.08,280.81c0.27-0.22,0.73-0.91,0.73-1.63c-16.4,1.53-27.34-2.02-27.34-2.02
					c0.48,2.15,2.09,2.21,2.32,4.44c0.22,2.23-2.24,9.54-1.79,12.19c0.45,2.64,15.22,4.87,20.14,3.45c4.92-1.42,0.89-4.55,2.46-7.86
					C-445,286.06-444.87,282.23-443.08,280.81z"/>
				<path style="&st12;" d="M-467.37,282.11c-0.04,0.91-0.3,2.27-0.62,3.76l21.64,3.02c0.52-1.22,0.88-2.5,1.21-3.68L-467.37,282.11
					z"/>
				<path style="&st12;" d="M-469.21,292.57l22.51,3.15c0.53-1.06-0.05-2.4-0.21-3.88l-21.71-3.03
					C-468.92,290.19-469.16,291.52-469.21,292.57z"/>
			</g>
		</g>
		<g>
			<path style="&st19;" d="M-330.95,134.07c0,0,4.08,1.96,5.79,18.4c0,0,0.86,25.25,1.72,37.39c0.86,12.14,1.93,23.1,3,25.84
				c1.07,2.74-0.21,7.05,0,12.92c0.21,5.87-0.64,26.23,0.43,34.45c1.07,8.22,5.14,13.51,3.43,14.68c-1.72,1.17-2.14,1.56-2.36,3.72
				c-0.22,2.15,2.14,9.2,1.71,11.74c-0.43,2.54-14.59,4.7-19.3,3.33c-4.72-1.37-0.86-4.39-2.36-7.57c-1.5-3.19-2.36-7.1-4.08-8.47
				c-1.72-1.37,0.86-4.31,1.29-8.81c0.43-4.5,0.98-12.92-1.87-24.08c-2.85-11.16-4.99-20.36-4.14-22.9
				c0.86-2.55-0.21-11.35-1.29-14.29c-1.07-2.94,0.43-6.79,0-8.58c-0.43-1.79-2.79-7.47-2.36-9.81c0.43-2.35,0.21-8.03-1.72-8.61
				L-330.95,134.07z"/>
			<g>
				<path style="&st11;" d="M-342.82,280.81c-0.27-0.22-0.73-0.91-0.73-1.63c16.4,1.53,27.34-2.02,27.34-2.02
					c-0.48,2.15-2.09,2.21-2.31,4.44c-0.22,2.23,2.24,9.54,1.79,12.19c-0.45,2.64-15.22,4.87-20.14,3.45
					c-4.92-1.42-0.9-4.55-2.46-7.86C-340.9,286.06-341.03,282.23-342.82,280.81z"/>
				<g>
					<path style="&st12;" d="M-318.51,282.11c0.04,0.91,0.3,2.27,0.63,3.76l-21.64,3.02c-0.52-1.22-0.88-2.5-1.21-3.68
						L-318.51,282.11z"/>
					<path style="&st12;" d="M-316.68,292.57l-22.51,3.15c-0.53-1.06,0.05-2.4,0.21-3.88l21.72-3.03
						C-316.97,290.19-316.73,291.52-316.68,292.57z"/>
				</g>
			</g>
		</g>
		<g>
			<path style="&st11;" d="M-330.95,134.07c-1.07-1.96-7.08-4.31-16.73-6.66c-9.65-2.35-24.24-12.72-24.24-12.72l-21.03,19.19
				l-21.03-19.19c0,0-14.59,10.37-24.24,12.72c-9.65,2.35-15.66,4.7-16.73,6.66c0,0,3.65,13.5,8.58,20.36
				c0,0,4.93,21.53,13.51,28.97c0,0-2.57,27.21-3,45.22c-0.43,18.01-4.29,32.1,2.57,38.36c0,0,0.86,9.2-1.18,12.53
				c-2.04,3.33-0.97,5.87-0.97,5.87s12.44,4.11,23.81,3.52c11.21-0.58,13.66-2.49,18.67-2.54c5,0.05,7.46,1.96,18.67,2.54
				c11.37,0.59,23.81-3.52,23.81-3.52s1.07-2.55-0.96-5.87c-2.04-3.33-1.18-12.53-1.18-12.53c6.86-6.26,3-20.36,2.57-38.36
				c-0.43-18.01-3-45.22-3-45.22c8.58-7.44,13.51-28.97,13.51-28.97C-334.6,147.58-330.95,134.07-330.95,134.07z"/>
			<g>
				<g>
					<polygon style="&st13;" points="-407.54,110 -378.36,110 -392.79,133.66 					"/>
					<g>
						<path style="&st19;" d="M-371.92,114.69c-3.43-0.2-6.44-4.7-6.44-4.7l-14.59,23.4l-14.59-23.4c0,0-3,4.5-6.44,4.7
							c0,0,0.64,17.52,20.65,19.3l-0.05,0.07c0.15-0.01,0.28-0.03,0.42-0.04c0.14,0.01,0.28,0.03,0.42,0.04l-0.05-0.07
							C-372.56,132.22-371.92,114.69-371.92,114.69z"/>
						<g>
							<g>
								<polygon style="&st19;" points="-395.53,286.55 -396.39,286.69 -396.39,135.61 -392.79,133.66 -391.4,133.39 
									-395.53,136.06 								"/>
							</g>
							<g>
								<ellipse style="&st19;" cx="-391.23" cy="140.73" rx="2.14" ry="1.96"/>
								<ellipse style="&st19;" cx="-391.23" cy="164.21" rx="2.14" ry="1.96"/>
								<ellipse style="&st19;" cx="-391.23" cy="187.7" rx="2.14" ry="1.96"/>
								<ellipse style="&st19;" cx="-391.23" cy="211.19" rx="2.14" ry="1.96"/>
								<ellipse style="&st19;" cx="-391.23" cy="234.68" rx="2.14" ry="1.96"/>
								<ellipse style="&st19;" cx="-391.23" cy="258.17" rx="2.14" ry="1.96"/>
								<ellipse style="&st19;" cx="-391.23" cy="281.65" rx="2.14" ry="1.96"/>
							</g>
						</g>
					</g>
				</g>
				<g>
					<g>
						<path style="&st12;" d="M-403.73,272.83c-0.08-1.52-0.14-2.61-0.23-3.16c-0.34-2.18-4.02-2.06-10.69-1.83
							c-1.27,0.04-2.65,0.09-4.13,0.12c-7.26,0.18-13.16-0.96-14.85-1.33c0.11,0.11,0.22,0.23,0.34,0.33c0,0,0.02,0.22,0.05,0.6
							c2.28,0.46,7.82,1.39,14.49,1.23c1.48-0.04,2.86-0.08,4.14-0.13c5.74-0.2,9.52-0.32,9.75,1.12c0.08,0.51,0.14,1.64,0.22,3.08
							c0.23,4.22,0.6,10.97,2.02,15.07c0.31-0.05,0.61-0.11,0.9-0.16C-403.12,283.78-403.51,276.78-403.73,272.83z"/>
						<g>
							<path style="&st12;" d="M-433.41,276.04h24V272h-23.71C-433.13,273.32-433.21,274.74-433.41,276.04z"/>
							<path style="&st12;" d="M-434.46,279.5c-0.9,1.46-1.19,2.77-1.24,3.78h26.3v-4.04h-24.92
								C-434.37,279.33-434.41,279.42-434.46,279.5z"/>
						</g>
					</g>
					<g>
						<path style="&st12;" d="M-382.16,272.83c0.08-1.52,0.14-2.61,0.23-3.16c0.34-2.18,4.02-2.06,10.69-1.83
							c1.27,0.04,2.65,0.09,4.13,0.12c7.26,0.18,13.16-0.96,14.85-1.33c-0.11,0.11-0.22,0.23-0.34,0.33c0,0-0.02,0.22-0.05,0.6
							c-2.28,0.46-7.82,1.39-14.5,1.23c-1.48-0.04-2.86-0.08-4.14-0.13c-5.73-0.2-9.52-0.32-9.75,1.12
							c-0.08,0.51-0.14,1.64-0.22,3.08c-0.23,4.22-0.6,10.97-2.02,15.07c-0.31-0.05-0.61-0.11-0.9-0.16
							C-382.76,283.78-382.38,276.78-382.16,272.83z"/>
						<g>
							<path style="&st12;" d="M-352.48,276.04h-24V272h23.71C-352.76,273.32-352.67,274.74-352.48,276.04z"/>
							<path style="&st12;" d="M-351.42,279.5c0.9,1.46,1.19,2.77,1.24,3.78h-26.3v-4.04h24.92
								C-351.52,279.33-351.47,279.42-351.42,279.5z"/>
						</g>
					</g>
				</g>
			</g>
		</g>
	</g>
	<g>
		<path style="&st20;" d="M1146.55,917.56c-0.28-2.79,0.28-14.88,0-18.2c-0.28-3.32-3.61-42.25-4.16-46.9
			c-0.56-4.65-2.22-21.26-2.78-25.42c-0.55-4.16-0.97-16.83-1.8-23.87c-0.83-7.04-2.36-35.88-2.69-37.74
			c-0.33-1.86-0.92-9.96-0.22-12.89c0.69-2.92-0.42-4.65-0.83-7.44c-0.42-2.79-1.39-20.33-1.67-21.39
			c-0.28-1.06-0.42-4.52-1.11-7.17c-0.69-2.66-1.11-6.51-1.11-6.51c0.14-1.33-0.97-9.43-0.97-9.43h-45.67h-45.67
			c0,0-1.11,8.1-0.97,9.43c0,0-0.42,3.85-1.11,6.51c-0.69,2.66-0.83,6.11-1.11,7.17c-0.28,1.06-1.25,18.6-1.67,21.39
			c-0.42,2.79-1.53,4.52-0.83,7.44c0.69,2.92,0.11,11.03-0.22,12.89c-0.33,1.86-1.86,30.69-2.69,37.74
			c-0.83,7.04-1.25,19.71-1.8,23.87c-0.56,4.16-2.22,20.77-2.78,25.42c-0.55,4.65-3.89,43.58-4.16,46.9
			c-0.28,3.32,0.28,15.41,0,18.2c-0.28,2.79-2.64,24.98-1.94,26.71c0,0,18.88-3.05,29.71,0.8c0,0,1.53-3.46,1.8-5.32
			c0.28-1.86-1.39-5.18-0.69-5.98c0.69-0.8,3.89-6.24,3.75-8.63c-0.14-2.39-0.96-7.18,0-9.04c0.97-1.86,1.39-6.78,1.39-9.43
			s1.67-11.83,2.64-15.81c0.97-3.99,3.75-22.46,3.89-26.57c0.14-4.12,1.67-13.69,2.5-15.81c0.83-2.13,2.22-13.42,2.92-17.81
			c0.69-4.38,1.53-14.62,4.16-21.79c2.64-7.17,8.33-22.99,9.02-25.11c0.69-2.13,1.94-6.91,2.08-7.97l1.8-0.4l1.81,0.4
			c0.14,1.06,1.39,5.85,2.08,7.97c0.69,2.13,6.39,17.94,9.02,25.11c2.64,7.17,3.47,17.41,4.16,21.79
			c0.69,4.39,2.08,15.68,2.92,17.81c0.83,2.13,2.36,11.69,2.5,15.81c0.14,4.12,2.92,22.59,3.89,26.57
			c0.97,3.99,2.64,13.15,2.64,15.81s0.42,7.57,1.38,9.43c0.97,1.86,0.14,6.64,0,9.04c-0.14,2.39,3.05,7.84,3.75,8.63
			c0.69,0.8-0.97,4.12-0.69,5.98c0.28,1.86,1.81,5.32,1.81,5.32c10.83-3.85,29.71-0.8,29.71-0.8
			C1149.19,942.54,1146.83,920.35,1146.55,917.56z"/>
		<g>
			<path style="&st21;" d="M1036.88,710.02l0.97-9.43h91.34c0,0,0.78,7.88,0.97,9.43H1036.88z"/>
			<g>
				<rect x="1053.1" y="698.99" style="&st22;" width="3.19" height="11.96"/>
				<rect x="1111.46" y="698.99" style="&st22;" width="3.19" height="11.96"/>
			</g>
			<g>
				<path style="&st23;" d="M1080.47,700.59v9.43h2.39v65.49l1.68,0.11l0.04-18.56c0,0,6.64,1.2,6.64-11.03c0-12.22,0-36.01,0-36.01
					v-9.43H1080.47z"/>
				<circle style="&st20;" cx="1085.58" cy="704.84" r="1.53"/>
				<path style="&st23;" d="M1065.72,710.02c0,0,3.99,18.59-31.29,15.94l-0.21,2.79c0,0,34.69,5.71,34.69-18.73H1065.72z"/>
				<path style="&st23;" d="M1101.29,710.02c0,0-3.98,18.59,31.29,15.94l0.21,2.79c0,0-34.69,5.71-34.69-18.73H1101.29z"/>
				<g>
					<path style="&st24;" d="M1048.26,945.07c0,0,0.59-1.34,1.11-2.81c-14.37-4.56-30.17-1.28-30.91-1.12
						c-0.06,1.64-0.04,2.79,0.09,3.13C1018.56,944.27,1037.43,941.21,1048.26,945.07z"/>
					<path style="&st24;" d="M1118.79,945.07c0,0-0.59-1.34-1.11-2.81c14.37-4.56,30.17-1.28,30.91-1.12
						c0.06,1.64,0.04,2.79-0.09,3.13C1148.49,944.27,1129.61,941.21,1118.79,945.07z"/>
				</g>
			</g>
		</g>
	</g>
	<g>
		<path style="&st25;" d="M213.1,710.61l-34.18-12.71h-20.6h-0.85h-20.6l-34.18,12.71c0,0,8.22,37.23,5.53,51.13l-0.42,97.48
			c0,0,11.67,14.57,49.67,14.79v0.01c0.14,0,0.28,0,0.42,0c0.15,0,0.28,0,0.43,0v-0.01c38-0.22,49.67-14.79,49.67-14.79l-0.42-97.48
			C204.87,747.84,213.1,710.61,213.1,710.61z"/>
		<g>
			<g>
				<path style="&st26;" d="M108.23,761.75c2.7-13.9-5.53-51.13-5.53-51.13l-33.94,27.21l28.11,32.29l11.36-7.47L108.23,761.75z"/>
				<polygon style="&st27;" points="75.04,732.78 103.31,765.88 96.87,770.12 68.76,737.82 				"/>
			</g>
			<g>
				<path style="&st26;" d="M207.69,761.75c-2.69-13.9,5.53-51.13,5.53-51.13l33.94,27.21l-28.11,32.29l-11.36-7.47L207.69,761.75z"
					/>
				<polygon style="&st27;" points="240.87,732.78 212.61,765.88 219.05,770.12 247.16,737.82 				"/>
			</g>
		</g>
		<g>
			<g>
				<polygon style="&st26;" points="146.84,697.91 149.64,717.64 159.29,726.16 156.48,735.25 145.49,715.29 145.49,697.91 				"/>
				<polygon style="&st26;" points="170.51,697.91 169.15,697.91 166.69,717.42 159.29,726.16 156.48,735.25 156.48,874.02 
					164.79,873.83 164.79,735.25 165.9,725.71 170.51,715.29 				"/>
				<g>
					<circle style="&st27;" cx="160.35" cy="735.97" r="1.85"/>
					<circle style="&st27;" cx="160.35" cy="756.61" r="1.85"/>
					<circle style="&st27;" cx="160.35" cy="777.24" r="1.85"/>
					<circle style="&st27;" cx="160.35" cy="797.87" r="1.85"/>
					<circle style="&st27;" cx="160.35" cy="818.5" r="1.85"/>
					<circle style="&st27;" cx="160.35" cy="839.14" r="1.85"/>
				</g>
				<polygon style="&st28;" points="146.73,696.93 149.64,717.64 159.29,726.16 166.69,717.42 169.38,697.38 				"/>
			</g>
			<g>
				<polygon style="&st29;" points="145.49,687.48 136.88,697.91 129.12,723.25 145.49,715.29 				"/>
				<polygon style="&st29;" points="170.51,687.48 179.13,697.91 186.89,723.25 170.51,715.29 				"/>
				<rect x="145.49" y="687.48" style="&st29;" width="25.02" height="10.43"/>
			</g>
		</g>
	</g>
	<g>
		<g>
			<path style="&st30;" d="M-187.49,1134.9c-5.38-21.98,4.49-68.17,4.49-68.17c-0.08-0.12-0.2-0.24-0.3-0.36l0.3-0.91
				c0,0,8.52,4.78,13.01,16.74c4.48,11.96,19.44,113.25,18.54,137.06l-27.51,5.34l-8.36-85.44
				C-187.42,1136.46-187.49,1134.9-187.49,1134.9z"/>
			<path style="&st30;" d="M-310.61,1134.9c5.38-21.98-4.49-68.17-4.49-68.17c0.08-0.12,0.2-0.24,0.3-0.36l-0.3-0.91
				c0,0-8.52,4.78-13.01,16.74c-4.49,11.96-19.44,113.25-18.54,137.06l27.51,5.34l8.36-85.44
				C-310.68,1136.46-310.61,1134.9-310.61,1134.9z"/>
		</g>
		<g>
			<path style="&st31;" d="M-182.11,1065.82c-4.26-6.05-37.68-14.35-37.68-14.35l-29.26-2.02l0,0l0,0h0l0,0l-29.27,2.02
				c0,0-33.41,8.3-37.68,14.35c0,0,9.87,46.2,4.49,68.18c0,0-2.69,57.19,4.93,80.06v14.11h57.52h0h57.52v-14.11
				c7.63-22.87,4.93-80.06,4.93-80.06C-191.98,1112.02-182.11,1065.82-182.11,1065.82z"/>
			<rect x="-306.57" y="1214.06" style="&st30;" width="115.05" height="14.11"/>
			<g>
				<g>
					<polygon style="&st32;" points="-267.7,1102.23 -283.7,1102.23 -283.7,1102.23 -299.7,1102.23 -299.7,1130.79 -283.7,1137.06 
						-283.7,1137.06 -283.7,1137.06 -283.7,1137.06 -283.7,1137.06 -267.7,1130.79 					"/>
					<polygon style="&st30;" points="-283.7,1094.17 -283.7,1094.17 -300.89,1094.17 -300.89,1102.23 -297.45,1105.82 
						-283.7,1105.82 -283.7,1105.82 -269.94,1105.82 -266.51,1102.23 -266.51,1094.17 					"/>
					<polygon style="&st32;" points="-234.95,1102.23 -218.95,1102.23 -218.95,1102.23 -202.96,1102.23 -202.96,1130.79 
						-218.95,1137.06 -218.95,1137.06 -218.95,1137.06 -218.95,1137.06 -218.95,1137.06 -234.95,1130.79 					"/>
					<polygon style="&st30;" points="-218.95,1094.17 -218.95,1094.17 -201.76,1094.17 -201.76,1102.23 -205.2,1105.82 
						-218.95,1105.82 -218.95,1105.82 -232.71,1105.82 -236.15,1102.23 -236.15,1094.17 					"/>
				</g>
				<g>
					<g>
						<g>
							<polygon style="&st33;" points="-274.28,1075.47 -253.95,1066.2 -267.1,1037.19 -278.32,1051.47 							"/>
							<polygon style="&st33;" points="-225.68,1075.47 -246.01,1066.2 -232.86,1037.19 -221.65,1051.47 							"/>
						</g>
						<polygon style="&st34;" points="-267.1,1037.19 -232.86,1037.19 -246.01,1066.2 -253.95,1066.2 						"/>
					</g>
					<g>
						<rect x="-311.48" y="1093.27" style="&st33;" width="60.6" height="0.9"/>
					</g>
					<g>
						<rect x="-249.98" y="1093.27" style="&st33;" width="63.3" height="0.9"/>
					</g>
					<g>
						<rect x="-250.88" y="1066.2" style="&st33;" width="1.79" height="161.98"/>
					</g>
				</g>
			</g>
		</g>
	</g>
	<rect id="_x3C_Slice_x3E_" x="-253.37" y="509.65" style="&st35;" width="174" height="196"/>
	<rect id="_x3C_Slice_x3E__1_" x="-483.68" y="101.55" style="&st35;" width="180" height="209"/>
	<rect id="_x3C_Slice_x3E__2_" x="-370.88" y="1040.46" style="&st35;" width="234" height="193"/>
	<rect id="_x3C_Slice_x3E__3_" x="19.64" y="410.08" style="&st35;" width="166" height="183"/>
	<rect id="_x3C_Slice_x3E__4_" x="999.55" y="693.99" style="&st35;" width="168" height="265"/>
</g>
</svg>
