<?xml version="1.0" encoding="utf-8"?>
<!-- Generator: Adobe Illustrator 21.0.0, SVG Export Plug-In . SVG Version: 6.00 Build 0)  -->
<!DOCTYPE svg PUBLIC "-//W3C//DTD SVG 1.1//EN" "http://www.w3.org/Graphics/SVG/1.1/DTD/svg11.dtd" [
	<!ENTITY st0 "fill:#3F4241;">
	<!ENTITY st1 "fill:#3E3F3E;">
	<!ENTITY st2 "fill:#474948;">
	<!ENTITY st3 "fill:#272827;">
	<!ENTITY st4 "fill:#2C2D2C;">
	<!ENTITY st5 "fill:#3C3D3C;">
	<!ENTITY st6 "fill:#252625;">
	<!ENTITY st7 "fill:#2D2D2D;">
	<!ENTITY st8 "fill:#F4F3ED;">
	<!ENTITY st9 "fill:#EAE9E4;">
	<!ENTITY st10 "fill:#D1CFC9;">
	<!ENTITY st11 "fill:#DDDDDD;">
	<!ENTITY st12 "fill:#C9C9C9;">
	<!ENTITY st13 "fill:#888889;">
	<!ENTITY st14 "fill:#ADADAD;">
	<!ENTITY st15 "fill:#D8B355;">
	<!ENTITY st16 "fill:#E5C776;">
	<!ENTITY st17 "fill:#F2D98B;">
	<!ENTITY st18 "fill:#F2E7C7;">
	<!ENTITY st19 "fill:#BABABA;">
	<!ENTITY st20 "fill:#A1C1D6;">
	<!ENTITY st21 "fill:#1E5476;">
	<!ENTITY st22 "fill:#174D68;">
	<!ENTITY st23 "fill:#658DB0;">
	<!ENTITY st24 "fill:#5A91AF;">
	<!ENTITY st25 "fill:#E86767;">
	<!ENTITY st26 "fill:#E05C5C;">
	<!ENTITY st27 "fill:#C13333;">
	<!ENTITY st28 "fill:#CC3E3E;">
	<!ENTITY st29 "fill:#D85555;">
	<!ENTITY st30 "fill:#C8BDA1;">
	<!ENTITY st31 "fill:#BCAF93;">
	<!ENTITY st32 "fill:#D8CEB6;">
	<!ENTITY st33 "fill:#A3967B;">
	<!ENTITY st34 "fill:#8E8169;">
	<!ENTITY st35 "fill:none;">
]>
<svg version="1.1" xmlns="http://www.w3.org/2000/svg" xmlns:xlink="http://www.w3.org/1999/xlink" x="0px" y="0px"
	 viewBox="0 0 242.99 305.85" style="enable-background:new 0 0 242.99 305.85;" xml:space="preserve">
<g id="Background">
</g>
<g id="Objects">
	<polygon style="&st0;" points="-1281.61,115.43 -1300.34,146.88 -1300.02,142.78 	"/>
	<g>
		<path style="&st1;" d="M-799.68-404.5c-0.41-4.11-9.46-113.48-10.69-130.75c-1.23-17.27-4.93-60.44-5.76-71.54
			c-0.82-11.1-4.83-35.67-4.83-35.67h-91.4c0,0-4.01,24.57-4.83,35.67c-0.82,11.1-4.52,54.27-5.76,71.54
			c-1.23,17.27-10.28,126.64-10.69,130.75l32.07,4.94l34.91-185.63l34.91,185.63L-799.68-404.5z"/>
		<polygon style="&st2;" points="-913.48,-635.37 -819.84,-635.37 -820.96,-642.46 -912.36,-642.46 		"/>
		<path style="&st1;" d="M-872.76-642.46c0,0-5.4,2.77,0,7.09h52.92l-1.12-7.09H-872.76z"/>
		<g>
			<g>
				<circle style="&st3;" cx="-871.1" cy="-638.91" r="1.97"/>
				<g>
					<rect x="-890.44" y="-644" style="&st4;" width="3.7" height="10.28"/>
					<rect x="-855.08" y="-644" style="&st4;" width="3.7" height="10.28"/>
				</g>
			</g>
			<g>
				<g>
					<path style="&st4;" d="M-913.48-635.37L-913.48-635.37c-1.18,7.68-2.96,19.84-3.61,27.32l0.03,0.02l18.4-27.34H-913.48z"/>
					<path style="&st4;" d="M-819.8-635.37L-819.8-635.37c1.18,7.68,2.96,19.84,3.61,27.32l-0.03,0.02l-18.4-27.34H-819.8z"/>
				</g>
				<g>
					<path style="&st4;" d="M-867.36-635.37v43.33c0,0,7.86-3.55,9.1-5.7v-37.62H-867.36z"/>
					<g>
						<g>
							<polygon style="&st4;" points="-888.98,-623.65 -888.98,-592.97 -891.91,-592.97 							"/>
							<polygon style="&st4;" points="-894.51,-578.35 -905.94,-506.27 -917.38,-409.15 -903.14,-504.88 							"/>
						</g>
						<g>
							<polygon style="&st4;" points="-845.47,-623.65 -845.47,-592.97 -842.54,-592.97 							"/>
							<polygon style="&st4;" points="-839.05,-578.35 -827.62,-506.27 -816.19,-409.15 -830.43,-504.88 							"/>
						</g>
					</g>
				</g>
			</g>
		</g>
	</g>
	<g>
		<path style="&st2;" d="M-1133.42-154.45h26.46c0,0-3.06,21.35-3.93,23.85c-0.88,2.5-10.13,25.79-10.13,25.79l-9.82-26.31
			L-1133.42-154.45z"/>
		<g>
			<path style="&st5;" d="M-1170.97,20.02c0.31-5.67,2.05-14.16,3.61-23.17c0-0.09-1.88-58.3,1.9-74.63
				c-0.11-0.32-0.14-2.66-0.14-2.66c-2.55-35.86-6.96-48.28-9.04-53.41l-1.17-2.43c0,0-5.83-1.34-7.18,6.28
				c-1.35,7.63-13.23,80.96-13.46,102.71c-0.22,21.75,1.57,47.32,1.57,47.32L-1170.97,20.02L-1170.97,20.02z"/>
			<path style="&st1;" d="M-1120.19,25.19l7.92,9.57c0,0,42.46-6.73,43.95-9.57c0,0-4.7-28.26-6.39-37.23
				c-1.69-8.97-3.78-50.17-3.78-50.17l3.78-15.57c0,0,3.54-46.99,10.35-58.51c0,0-29.06-9.01-36.1-11.89l6.73,18.16l-4.6,2.36
				l5.38,6.5c0,0-42.42,48.48-45.26,52.36C-1138.21-68.78-1141.87-32.67-1120.19,25.19z"/>
			<path style="&st2;" d="M-1140.49-147.83l-35.32,11.55c0,0,6.73,9.72,10.17,58.01c0,0,3.44,9.42,4.34,13.9
				c0,0,0.45,20.33-1.79,34.54c-2.24,14.2-7.62,40.07-7.92,51.13c0,0,10.91,9.27,40.82,13.46c0,0,8.22-4.34,10.02-9.57
				c0,0-9.12-28.7-11.81-41.86c-2.69-13.16-7.18-42.16-5.83-52.48l12.86-27.66l-21.38-26.31l4.63-7.18l-5.23-2.39L-1140.49-147.83z"
				/>
			<path style="&st5;" d="M-1069.19,20.02c-1.16-6.98-2.64-13.26-4.2-22.27c0-0.09,2.48-59.2-1.3-75.53c0.11-0.32,0-1.77,0-1.77
				c2.55-35.86,7.1-49.17,9.18-54.31l1.17-2.43c0,0,5.83-1.34,7.18,6.28c1.35,7.63,13.23,80.96,13.46,102.71
				c0.22,21.75-1.57,47.32-1.57,47.32L-1069.19,20.02L-1069.19,20.02z"/>
			<g>
				<path style="&st6;" d="M-1124.98-96.81c0,0,12.41-30.61,13.87-34.87c1.46-4.26,4.15-22.76,4.15-22.76l6.5,6.28l6.73,18.16
					l-4.6,2.36l5.38,6.5l-44.89,51.99L-1124.98-96.81z"/>
				<polygon style="&st6;" points="-1140.49,-147.83 -1133.42,-154.45 -1130.85,-132.92 -1120.5,-104.81 -1124.46,-95.02 
					-1146.36,-123.13 -1141.72,-130.3 -1146.96,-132.69 				"/>
			</g>
			<g>
				<polygon style="&st7;" points="-1096.43,-93.08 -1108.38,-93.08 -1108.38,-68.23 -1106.72,-66.01 -1096.43,-66.01 
					-1086.14,-66.01 -1084.48,-68.23 -1084.48,-93.08 				"/>
				<rect x="-1108.38" y="-93.08" style="&st6;" width="23.91" height="6.14"/>
			</g>
			<g>
				<circle style="&st6;" cx="-1130.7" cy="-64.52" r="3.29"/>
				<circle style="&st6;" cx="-1130.7" cy="-39.4" r="3.29"/>
			</g>
		</g>
	</g>
	<g>
		<g>
			<g>
				<path style="&st8;" d="M-895.91-185.38c-0.12-0.8-0.18-1.25-0.18-1.25c0.39-18.58-10.54-42.08-10.54-42.08s-6.05,2.99-7.8,9.61
					c-1.76,6.62-6.44,40.16-8.39,61.3c-1.95,21.15-3.71,52.97-2.54,57.03l-0.38,15.17h17.94v-13.46L-895.91-185.38L-895.91-185.38z"
					/>
				<polygon style="&st9;" points="-907.79,-100.76 -925.35,-100.76 -925.73,-85.59 -907.79,-85.59 -907.79,-99.05 -907.61,-100.4 
									"/>
			</g>
			<g>
				<path style="&st8;" d="M-812.95-185.38c0.12-0.8,0.18-1.25,0.18-1.25c-0.39-18.58,10.54-42.08,10.54-42.08s6.05,2.99,7.8,9.61
					c1.76,6.62,6.44,40.16,8.39,61.3c1.95,21.15,3.71,52.97,2.54,57.03l0.38,15.17h-17.94v-13.46L-812.95-185.38L-812.95-185.38z"/>
				<polygon style="&st9;" points="-801.06,-100.76 -783.5,-100.76 -783.13,-85.59 -801.06,-85.59 -801.06,-99.05 -801.25,-100.4 
									"/>
			</g>
		</g>
		<g>
			<path style="&st9;" d="M-812.77-186.63c-0.39-18.58,10.54-42.08,10.54-42.08l-32.97-15.81h-18.94h-0.57h-18.94l-32.97,15.81
				c0,0,10.93,23.5,10.54,42.08c0,0,6.44,44,5.95,50.2c-0.49,6.19-6.93,52.76-6.93,52.76s2.93,5.55,17.17,5.55
				c12.39,0,22.7,0,25.18,0c0.37,0,0.57,0,0.57,0c2.48,0,12.8,0,25.18,0c14.24,0,17.17-5.55,17.17-5.55s-6.44-46.57-6.93-52.76
				C-819.21-142.62-812.77-186.63-812.77-186.63z"/>
			<g>
				<g>
					<polygon style="&st8;" points="-869.88,-253.59 -875.31,-240.88 -867.8,-225.61 -854.84,-238.43 					"/>
					<polygon style="&st8;" points="-838.86,-253.59 -833.44,-240.88 -840.95,-225.61 -853.9,-238.43 					"/>
				</g>
				<polygon style="&st9;" points="-869.88,-253.59 -838.86,-253.59 -853.9,-238.43 -854.84,-238.43 				"/>
				<g>
					<polygon style="&st8;" points="-858.93,-234.39 -854.84,-238.43 -853.9,-238.43 -849.82,-234.39 -849.82,-78.12 
						-858.19,-78.12 					"/>
					<g>
						<ellipse style="&st10;" cx="-854.63" cy="-234.87" rx="1.2" ry="1.32"/>
						<ellipse style="&st10;" cx="-854.63" cy="-217.78" rx="1.2" ry="1.32"/>
						<ellipse style="&st10;" cx="-854.63" cy="-200.69" rx="1.2" ry="1.32"/>
						<ellipse style="&st10;" cx="-854.63" cy="-183.6" rx="1.2" ry="1.32"/>
						<ellipse style="&st10;" cx="-854.63" cy="-166.51" rx="1.2" ry="1.32"/>
						<ellipse style="&st10;" cx="-854.63" cy="-149.42" rx="1.2" ry="1.32"/>
						<ellipse style="&st10;" cx="-854.63" cy="-132.34" rx="1.2" ry="1.32"/>
						<ellipse style="&st10;" cx="-854.63" cy="-115.25" rx="1.2" ry="1.32"/>
					</g>
				</g>
			</g>
		</g>
	</g>
	<g>
		<g>
			<path style="&st11;" d="M295.41-377.24c-0.79-5.1-2.35-44.83-2.48-57.51c-0.13-12.68-3-86.4-4.84-101.69
				c-1.83-15.29-5.1-17.91-5.1-17.91c1.7-5.36-1.57-8.63-1.57-8.63h-42.35h-42.35c0,0-3.27,3.27-1.57,8.63c0,0-3.27,2.61-5.1,17.91
				c-1.83,15.29-4.71,89.01-4.84,101.69c-0.13,12.68-1.7,52.42-2.48,57.51c-0.78,5.1-2.87,23.53-1.83,29.28
				c1.05,5.75,0.26,15.55,4.97,17.65l0.13,5.23c0,0,12.68,3.01,22.48,0v-5.23c0,0,5.1-1.18,5.49-6.67
				c0.39-5.49,3.4-20.13,5.36-26.01c1.96-5.88,5.23-34.9,7.19-43.79c1.96-8.89,7.45-47.58,7.97-53.59
				c0.52-6.02,1.96-27.19,4.57-27.06c2.62-0.13,4.05,21.04,4.58,27.06c0.52,6.01,6.01,44.7,7.97,53.59
				c1.96,8.89,5.23,37.91,7.19,43.79c1.96,5.88,4.97,20.52,5.36,26.01c0.39,5.49,5.49,6.67,5.49,6.67v5.23c9.8,3.01,22.48,0,22.48,0
				l0.13-5.23c4.71-2.09,3.92-11.89,4.96-17.65C298.29-353.71,296.2-372.14,295.41-377.24z"/>
			<g>
				<path style="&st12;" d="M281.43-562.98h-42.35h-42.35c0,0-3.27,3.27-1.57,8.63H283C284.7-559.71,281.43-562.98,281.43-562.98z"
					/>
				<g>
					<rect x="238.69" y="-554.35" style="&st12;" width="0.78" height="66.92"/>
				</g>
				<g>
					<g>
						<circle style="&st13;" cx="232.98" cy="-558.68" r="1.32"/>
						<g>
							<rect x="232.59" y="-542.65" style="&st13;" width="0.79" height="3.53"/>
							<path style="&st14;" d="M233.92-542.93c0,0.73-0.42,1.32-0.94,1.32l0,0c-0.52,0-0.94-0.59-0.94-1.32v-14.43
								c0-0.73,0.42-1.32,0.94-1.32l0,0c0.52,0,0.94,0.59,0.94,1.32V-542.93z"/>
						</g>
					</g>
					<g>
						<circle style="&st13;" cx="244.5" cy="-558.68" r="1.32"/>
						<g>
							<rect x="244.11" y="-542.65" style="&st13;" width="0.79" height="3.53"/>
							<path style="&st14;" d="M245.44-542.93c0,0.73-0.42,1.32-0.94,1.32l0,0c-0.52,0-0.94-0.59-0.94-1.32v-14.43
								c0-0.73,0.42-1.32,0.94-1.32l0,0c0.52,0,0.94,0.59,0.94,1.32V-542.93z"/>
						</g>
					</g>
				</g>
			</g>
		</g>
		<g>
			<path style="&st12;" d="M185.88-330.32l0.13,5.23c0,0,12.68,3.01,22.48,0v-5.23C195.81-328.42,185.88-330.32,185.88-330.32z"/>
			<path style="&st12;" d="M292.32-330.32l-0.13,5.23c0,0-12.68,3.01-22.48,0v-5.23C282.39-328.42,292.32-330.32,292.32-330.32z"/>
		</g>
	</g>
	<g>
		<path style="&st15;" d="M-368.42-349.06h-37.24c8.05,4.03,14.6,4.77,18.62,4.77C-382.36-344.3-376.48-345.03-368.42-349.06z"/>
		<g>
			<path style="&st16;" d="M-342.54-273.6c11.95,6.17,32.26-10.35,32.26-10.35l-22.9-51.97c0,0-12.39,25.49-12.97,38.83
				L-342.54-273.6z"/>
			<path style="&st17;" d="M-342.54-273.6l-3.61-23.5c0.57-13.34,12.97-38.83,12.97-38.83l-35.24-13.14
				c-8.06,4.03-13.94,4.77-18.62,4.77c-4.02,0-10.56-0.73-18.62-4.77l-35.24,13.14c0,0,12.39,25.49,12.97,38.83l-3.61,23.5
				l-7.57,93.99c0,0,5.14,3.35,51.77,3.38l0,0c0.1,0,0.2,0,0.3,0c0.1,0,0.2,0,0.3,0l0,0c46.63-0.03,51.77-3.38,51.77-3.38
				L-342.54-273.6z"/>
			<path style="&st16;" d="M-431.54-273.6c-11.95,6.17-32.26-10.35-32.26-10.35l22.9-51.97c0,0,12.39,25.49,12.97,38.83
				L-431.54-273.6z"/>
			<path style="&st18;" d="M-408.45-348.02c0,0,6.31,6.32,21.41,6.32c15.1,0,21.41-6.32,21.41-6.32l-2.79-1.04
				c0,0-8.83,4.69-18.85,4.77c-10.02,0.08-18.39-4.77-18.39-4.77L-408.45-348.02z"/>
		</g>
	</g>
	<g>
		<g>
			<path style="&st19;" d="M-1410.4-535.03c0,0-4.08,1.96-5.79,18.4c0,0-0.86,25.25-1.72,37.39c-0.86,12.14-1.93,23.1-3,25.84
				c-1.07,2.74,0.21,7.05,0,12.92c-0.21,5.87,0.64,26.23-0.43,34.45c-1.07,8.22-5.15,13.51-3.43,14.68
				c1.72,1.17,2.15,1.56,2.36,3.72c0.21,2.15-2.15,9.2-1.72,11.74c0.43,2.54,14.59,4.7,19.31,3.33c4.72-1.37,0.86-4.39,2.36-7.57
				c1.5-3.19,2.36-7.1,4.08-8.47c1.72-1.37-0.86-4.31-1.29-8.81c-0.43-4.5-0.98-12.92,1.87-24.08c2.85-11.16,4.99-20.36,4.14-22.9
				c-0.86-2.55,0.21-11.35,1.29-14.29c1.07-2.94-0.43-6.79,0-8.58c0.43-1.79,2.79-7.47,2.36-9.81c-0.43-2.35-0.21-8.03,1.72-8.61
				L-1410.4-535.03z"/>
			<g>
				<path style="&st11;" d="M-1398.53-388.3c0.27-0.22,0.73-0.91,0.73-1.63c-16.4,1.53-27.34-2.02-27.34-2.02
					c0.48,2.15,2.09,2.21,2.32,4.44c0.22,2.23-2.24,9.54-1.79,12.19c0.45,2.64,15.22,4.87,20.14,3.45c4.92-1.42,0.89-4.55,2.46-7.86
					C-1400.45-383.04-1400.32-386.88-1398.53-388.3z"/>
				<path style="&st12;" d="M-1422.83-386.99c-0.04,0.91-0.3,2.27-0.62,3.76l21.64,3.02c0.52-1.22,0.88-2.5,1.21-3.68
					L-1422.83-386.99z"/>
				<path style="&st12;" d="M-1424.66-376.53l22.51,3.14c0.53-1.06-0.05-2.4-0.21-3.88l-21.71-3.03
					C-1424.37-378.92-1424.61-377.59-1424.66-376.53z"/>
			</g>
		</g>
		<g>
			<path style="&st19;" d="M-1286.41-535.03c0,0,4.08,1.96,5.79,18.4c0,0,0.86,25.25,1.72,37.39c0.86,12.14,1.93,23.1,3,25.84
				c1.07,2.74-0.21,7.05,0,12.92c0.21,5.87-0.64,26.23,0.43,34.45c1.07,8.22,5.14,13.51,3.43,14.68c-1.72,1.17-2.14,1.56-2.36,3.72
				c-0.22,2.15,2.14,9.2,1.71,11.74c-0.43,2.54-14.59,4.7-19.3,3.33c-4.72-1.37-0.86-4.39-2.36-7.57c-1.5-3.19-2.36-7.1-4.08-8.47
				c-1.72-1.37,0.86-4.31,1.29-8.81c0.43-4.5,0.98-12.92-1.87-24.08c-2.85-11.16-4.99-20.36-4.14-22.9
				c0.86-2.55-0.21-11.35-1.29-14.29c-1.07-2.94,0.43-6.79,0-8.58c-0.43-1.79-2.79-7.47-2.36-9.81c0.43-2.35,0.21-8.03-1.72-8.61
				L-1286.41-535.03z"/>
			<g>
				<path style="&st11;" d="M-1298.27-388.3c-0.27-0.22-0.73-0.91-0.73-1.63c16.4,1.53,27.34-2.02,27.34-2.02
					c-0.48,2.15-2.09,2.21-2.31,4.44c-0.22,2.23,2.24,9.54,1.79,12.19c-0.45,2.64-15.22,4.87-20.14,3.45
					c-4.92-1.42-0.9-4.55-2.46-7.86C-1296.35-383.04-1296.48-386.88-1298.27-388.3z"/>
				<g>
					<path style="&st12;" d="M-1273.97-386.99c0.04,0.91,0.3,2.27,0.63,3.76l-21.64,3.02c-0.52-1.22-0.88-2.5-1.21-3.68
						L-1273.97-386.99z"/>
					<path style="&st12;" d="M-1272.13-376.53l-22.51,3.14c-0.53-1.06,0.05-2.4,0.21-3.88l21.72-3.03
						C-1272.42-378.92-1272.18-377.59-1272.13-376.53z"/>
				</g>
			</g>
		</g>
		<g>
			<path style="&st11;" d="M-1286.41-535.03c-1.07-1.96-7.08-4.31-16.73-6.66c-9.65-2.35-24.24-12.72-24.24-12.72l-21.03,19.19
				l-21.03-19.19c0,0-14.59,10.37-24.24,12.72c-9.65,2.35-15.66,4.7-16.73,6.66c0,0,3.65,13.5,8.58,20.36
				c0,0,4.93,21.53,13.51,28.97c0,0-2.57,27.21-3,45.22c-0.43,18.01-4.29,32.1,2.57,38.36c0,0,0.86,9.2-1.18,12.53
				c-2.04,3.33-0.97,5.87-0.97,5.87s12.44,4.11,23.81,3.52c11.21-0.58,13.66-2.49,18.67-2.54c5,0.05,7.46,1.96,18.67,2.54
				c11.37,0.59,23.81-3.52,23.81-3.52s1.07-2.55-0.96-5.87c-2.04-3.33-1.18-12.53-1.18-12.53c6.86-6.26,3-20.36,2.57-38.36
				c-0.43-18.01-3-45.22-3-45.22c8.58-7.44,13.51-28.97,13.51-28.97C-1290.05-521.53-1286.41-535.03-1286.41-535.03z"/>
			<g>
				<g>
					<polygon style="&st13;" points="-1363,-559.11 -1333.81,-559.11 -1348.25,-535.45 					"/>
					<g>
						<path style="&st19;" d="M-1327.38-554.41c-3.43-0.2-6.44-4.7-6.44-4.7l-14.59,23.4l-14.59-23.4c0,0-3,4.5-6.44,4.7
							c0,0,0.64,17.52,20.65,19.3l-0.05,0.07c0.15-0.01,0.28-0.03,0.42-0.04c0.14,0.01,0.28,0.03,0.42,0.04l-0.05-0.07
							C-1328.02-536.89-1327.38-554.41-1327.38-554.41z"/>
						<g>
							<g>
								<polygon style="&st19;" points="-1350.98,-382.55 -1351.84,-382.42 -1351.84,-533.5 -1348.25,-535.45 -1346.85,-535.72 
									-1350.98,-533.05 								"/>
							</g>
							<g>
								<ellipse style="&st19;" cx="-1346.69" cy="-528.38" rx="2.14" ry="1.96"/>
								<ellipse style="&st19;" cx="-1346.69" cy="-504.89" rx="2.14" ry="1.96"/>
								<ellipse style="&st19;" cx="-1346.69" cy="-481.4" rx="2.14" ry="1.96"/>
								<ellipse style="&st19;" cx="-1346.69" cy="-457.92" rx="2.14" ry="1.96"/>
								<ellipse style="&st19;" cx="-1346.69" cy="-434.43" rx="2.14" ry="1.96"/>
								<ellipse style="&st19;" cx="-1346.69" cy="-410.94" rx="2.14" ry="1.96"/>
								<ellipse style="&st19;" cx="-1346.69" cy="-387.45" rx="2.14" ry="1.96"/>
							</g>
						</g>
					</g>
				</g>
				<g>
					<g>
						<path style="&st12;" d="M-1359.18-396.27c-0.08-1.52-0.14-2.61-0.23-3.16c-0.34-2.18-4.02-2.06-10.69-1.83
							c-1.27,0.04-2.65,0.09-4.13,0.12c-7.26,0.18-13.16-0.96-14.85-1.33c0.11,0.11,0.22,0.23,0.34,0.33c0,0,0.02,0.22,0.05,0.6
							c2.28,0.46,7.82,1.39,14.49,1.23c1.48-0.04,2.86-0.08,4.14-0.13c5.74-0.2,9.52-0.32,9.75,1.12c0.08,0.51,0.14,1.64,0.22,3.08
							c0.23,4.22,0.6,10.97,2.02,15.07c0.31-0.05,0.61-0.11,0.9-0.16C-1358.57-385.33-1358.96-392.33-1359.18-396.27z"/>
						<g>
							<path style="&st12;" d="M-1388.86-393.06h24v-4.04h-23.71C-1388.58-395.78-1388.66-394.36-1388.86-393.06z"/>
							<path style="&st12;" d="M-1389.92-389.6c-0.9,1.46-1.19,2.77-1.24,3.78h26.3v-4.04h-24.92
								C-1389.82-389.77-1389.87-389.69-1389.92-389.6z"/>
						</g>
					</g>
					<g>
						<path style="&st12;" d="M-1337.61-396.27c0.08-1.52,0.14-2.61,0.23-3.16c0.34-2.18,4.02-2.06,10.69-1.83
							c1.27,0.04,2.65,0.09,4.13,0.12c7.26,0.18,13.16-0.96,14.85-1.33c-0.11,0.11-0.22,0.23-0.34,0.33c0,0-0.02,0.22-0.05,0.6
							c-2.28,0.46-7.82,1.39-14.5,1.23c-1.48-0.04-2.86-0.08-4.14-0.13c-5.73-0.2-9.52-0.32-9.75,1.12
							c-0.08,0.51-0.14,1.64-0.22,3.08c-0.23,4.22-0.6,10.97-2.02,15.07c-0.31-0.05-0.61-0.11-0.9-0.16
							C-1338.21-385.33-1337.83-392.33-1337.61-396.27z"/>
						<g>
							<path style="&st12;" d="M-1307.93-393.06h-24v-4.04h23.71C-1308.21-395.78-1308.13-394.36-1307.93-393.06z"/>
							<path style="&st12;" d="M-1306.87-389.6c0.9,1.46,1.19,2.77,1.24,3.78h-26.3v-4.04h24.92
								C-1306.97-389.77-1306.93-389.69-1306.87-389.6z"/>
						</g>
					</g>
				</g>
			</g>
		</g>
	</g>
	<g>
		<path style="&st20;" d="M191.1,248.46c-0.28-2.79,0.28-14.88,0-18.2c-0.28-3.32-3.61-42.25-4.16-46.9
			c-0.56-4.65-2.22-21.26-2.78-25.42c-0.55-4.16-0.97-16.83-1.8-23.87c-0.83-7.04-2.36-35.88-2.69-37.74
			c-0.33-1.86-0.92-9.96-0.22-12.89c0.69-2.92-0.42-4.65-0.83-7.44c-0.42-2.79-1.39-20.33-1.67-21.39
			c-0.28-1.06-0.41-4.52-1.11-7.17c-0.69-2.66-1.11-6.51-1.11-6.51c0.14-1.33-0.97-9.43-0.97-9.43h-45.67H82.4
			c0,0-1.11,8.1-0.97,9.43c0,0-0.42,3.85-1.11,6.51c-0.69,2.66-0.83,6.11-1.11,7.17c-0.28,1.06-1.25,18.6-1.67,21.39
			c-0.42,2.79-1.53,4.52-0.83,7.44c0.69,2.92,0.11,11.03-0.22,12.89c-0.33,1.86-1.86,30.69-2.69,37.74
			c-0.83,7.04-1.25,19.71-1.8,23.87c-0.56,4.16-2.22,20.77-2.78,25.42c-0.55,4.65-3.89,43.58-4.16,46.9
			c-0.28,3.32,0.28,15.41,0,18.2c-0.28,2.79-2.64,24.98-1.94,26.71c0,0,18.88-3.05,29.71,0.8c0,0,1.53-3.46,1.8-5.32
			c0.28-1.86-1.39-5.18-0.69-5.98c0.69-0.8,3.89-6.24,3.75-8.63c-0.14-2.39-0.96-7.18,0-9.04c0.97-1.86,1.39-6.78,1.39-9.43
			s1.67-11.83,2.64-15.81c0.97-3.99,3.75-22.46,3.89-26.57c0.14-4.12,1.67-13.69,2.5-15.81c0.83-2.13,2.22-13.42,2.92-17.81
			c0.69-4.38,1.53-14.62,4.16-21.79c2.64-7.17,8.33-22.99,9.02-25.11c0.69-2.13,1.94-6.91,2.08-7.97l1.8-0.4l1.81,0.4
			c0.14,1.06,1.39,5.85,2.08,7.97c0.69,2.13,6.39,17.94,9.02,25.11c2.64,7.17,3.47,17.41,4.16,21.79
			c0.69,4.39,2.08,15.68,2.92,17.81c0.83,2.13,2.36,11.69,2.5,15.81c0.14,4.12,2.92,22.59,3.89,26.57
			c0.97,3.99,2.64,13.15,2.64,15.81s0.42,7.57,1.38,9.43c0.97,1.86,0.14,6.64,0,9.04c-0.14,2.39,3.05,7.84,3.75,8.63
			c0.69,0.8-0.97,4.12-0.69,5.98c0.28,1.86,1.81,5.32,1.81,5.32c10.83-3.85,29.71-0.8,29.71-0.8
			C193.73,273.44,191.37,251.25,191.1,248.46z"/>
		<g>
			<path style="&st21;" d="M81.43,40.91l0.97-9.43h91.34c0,0,0.78,7.88,0.97,9.43H81.43z"/>
			<g>
				<rect x="97.64" y="29.88" style="&st22;" width="3.19" height="11.96"/>
				<rect x="156.01" y="29.88" style="&st22;" width="3.19" height="11.96"/>
			</g>
			<g>
				<path style="&st23;" d="M125.02,31.48v9.43h2.39v65.49l1.68,0.11l0.04-18.56c0,0,6.64,1.2,6.64-11.03c0-12.22,0-36.01,0-36.01
					v-9.43H125.02z"/>
				<circle style="&st20;" cx="130.13" cy="35.73" r="1.53"/>
				<path style="&st23;" d="M110.27,40.91c0,0,3.99,18.59-31.29,15.94l-0.21,2.79c0,0,34.69,5.71,34.69-18.73H110.27z"/>
				<path style="&st23;" d="M145.84,40.91c0,0-3.98,18.59,31.29,15.94l0.21,2.79c0,0-34.69,5.71-34.69-18.73H145.84z"/>
				<g>
					<path style="&st24;" d="M92.81,275.96c0,0,0.59-1.34,1.11-2.81c-14.37-4.56-30.17-1.28-30.91-1.12
						c-0.06,1.64-0.04,2.79,0.09,3.13C63.1,275.16,81.98,272.11,92.81,275.96z"/>
					<path style="&st24;" d="M163.33,275.96c0,0-0.59-1.34-1.11-2.81c14.37-4.56,30.17-1.28,30.91-1.12
						c0.06,1.64,0.04,2.79-0.09,3.13C193.04,275.16,174.16,272.11,163.33,275.96z"/>
				</g>
			</g>
		</g>
	</g>
	<g>
		<path style="&st25;" d="M-742.35,41.51l-34.18-12.71h-20.6h-0.85h-20.6l-34.18,12.71c0,0,8.22,37.23,5.53,51.13l-0.42,97.48
			c0,0,11.67,14.57,49.67,14.79v0.01c0.14,0,0.28,0,0.42,0c0.15,0,0.28,0,0.43,0v-0.01c38-0.22,49.67-14.79,49.67-14.79l-0.42-97.48
			C-750.58,78.74-742.35,41.51-742.35,41.51z"/>
		<g>
			<g>
				<path style="&st26;" d="M-847.23,92.64c2.7-13.9-5.53-51.13-5.53-51.13l-33.94,27.21l28.11,32.29l11.36-7.47L-847.23,92.64z"/>
				<polygon style="&st27;" points="-880.41,63.68 -852.15,96.77 -858.59,101.01 -886.69,68.72 				"/>
			</g>
			<g>
				<path style="&st26;" d="M-747.76,92.64c-2.69-13.9,5.53-51.13,5.53-51.13l33.94,27.21l-28.11,32.29l-11.36-7.47L-747.76,92.64z"
					/>
				<polygon style="&st27;" points="-714.58,63.68 -742.84,96.77 -736.4,101.01 -708.29,68.72 				"/>
			</g>
		</g>
		<g>
			<g>
				<polygon style="&st26;" points="-808.61,28.8 -805.81,48.54 -796.17,57.06 -798.97,66.14 -809.96,46.18 -809.96,28.8 				"/>
				<polygon style="&st26;" points="-784.94,28.8 -786.3,28.8 -788.77,48.31 -796.17,57.06 -798.97,66.14 -798.97,204.91 
					-790.67,204.73 -790.67,66.14 -789.55,56.61 -784.94,46.18 				"/>
				<g>
					<circle style="&st27;" cx="-795.1" cy="66.87" r="1.85"/>
					<circle style="&st27;" cx="-795.1" cy="87.5" r="1.85"/>
					<circle style="&st27;" cx="-795.1" cy="108.13" r="1.85"/>
					<circle style="&st27;" cx="-795.1" cy="128.77" r="1.85"/>
					<circle style="&st27;" cx="-795.1" cy="149.4" r="1.85"/>
					<circle style="&st27;" cx="-795.1" cy="170.03" r="1.85"/>
				</g>
				<polygon style="&st28;" points="-808.72,27.83 -805.81,48.54 -796.17,57.06 -788.77,48.31 -786.07,28.28 				"/>
			</g>
			<g>
				<polygon style="&st29;" points="-809.96,18.37 -818.58,28.8 -826.33,54.14 -809.96,46.18 				"/>
				<polygon style="&st29;" points="-784.94,18.37 -776.32,28.8 -768.57,54.14 -784.94,46.18 				"/>
				<rect x="-809.96" y="18.37" style="&st29;" width="25.02" height="10.43"/>
			</g>
		</g>
	</g>
	<g>
		<g>
			<path style="&st30;" d="M-1142.94,465.79c-5.38-21.98,4.49-68.17,4.49-68.17c-0.08-0.12-0.2-0.24-0.3-0.36l0.3-0.91
				c0,0,8.52,4.78,13.01,16.74c4.48,11.96,19.44,113.25,18.54,137.06l-27.51,5.34l-8.36-85.44
				C-1142.87,467.35-1142.94,465.79-1142.94,465.79z"/>
			<path style="&st30;" d="M-1266.06,465.79c5.38-21.98-4.49-68.17-4.49-68.17c0.08-0.12,0.2-0.24,0.3-0.36l-0.3-0.91
				c0,0-8.52,4.78-13.01,16.74c-4.49,11.96-19.44,113.25-18.54,137.06l27.51,5.34l8.36-85.44
				C-1266.14,467.35-1266.06,465.79-1266.06,465.79z"/>
		</g>
		<g>
			<path style="&st31;" d="M-1137.56,396.72c-4.26-6.05-37.68-14.35-37.68-14.35l-29.26-2.02l0,0l0,0h0l0,0l-29.27,2.02
				c0,0-33.41,8.3-37.68,14.35c0,0,9.87,46.2,4.49,68.18c0,0-2.69,57.19,4.93,80.06v14.11h57.52h0h57.52v-14.11
				c7.63-22.87,4.93-80.06,4.93-80.06C-1147.43,442.92-1137.56,396.72-1137.56,396.72z"/>
			<rect x="-1262.03" y="544.96" style="&st30;" width="115.05" height="14.11"/>
			<g>
				<g>
					<polygon style="&st32;" points="-1223.16,433.12 -1239.15,433.12 -1239.15,433.12 -1255.15,433.12 -1255.15,461.68 
						-1239.15,467.96 -1239.15,467.96 -1239.15,467.96 -1239.15,467.96 -1239.15,467.96 -1223.16,461.68 					"/>
					<polygon style="&st30;" points="-1239.15,425.06 -1239.15,425.06 -1256.34,425.06 -1256.34,433.12 -1252.91,436.71 
						-1239.15,436.71 -1239.15,436.71 -1225.4,436.71 -1221.96,433.12 -1221.96,425.06 					"/>
					<polygon style="&st32;" points="-1190.4,433.12 -1174.41,433.12 -1174.41,433.12 -1158.41,433.12 -1158.41,461.68 
						-1174.41,467.96 -1174.41,467.96 -1174.41,467.96 -1174.41,467.96 -1174.41,467.96 -1190.4,461.68 					"/>
					<polygon style="&st30;" points="-1174.41,425.06 -1174.41,425.06 -1157.21,425.06 -1157.21,433.12 -1160.65,436.71 
						-1174.41,436.71 -1174.41,436.71 -1188.16,436.71 -1191.6,433.12 -1191.6,425.06 					"/>
				</g>
				<g>
					<g>
						<g>
							<polygon style="&st33;" points="-1229.73,406.36 -1209.4,397.09 -1222.56,368.09 -1233.77,382.37 							"/>
							<polygon style="&st33;" points="-1181.13,406.36 -1201.47,397.09 -1188.31,368.09 -1177.1,382.37 							"/>
						</g>
						<polygon style="&st34;" points="-1222.56,368.09 -1188.31,368.09 -1201.47,397.09 -1209.4,397.09 						"/>
					</g>
					<g>
						<rect x="-1266.93" y="424.17" style="&st33;" width="60.6" height="0.9"/>
					</g>
					<g>
						<rect x="-1205.43" y="424.17" style="&st33;" width="63.3" height="0.9"/>
					</g>
					<g>
						<rect x="-1206.33" y="397.09" style="&st33;" width="1.79" height="161.98"/>
					</g>
				</g>
			</g>
		</g>
	</g>
	<rect id="_x3C_Slice_x3E_" x="-1208.82" y="-159.46" style="&st35;" width="174" height="196"/>
	<rect id="_x3C_Slice_x3E__1_" x="-1439.13" y="-567.55" style="&st35;" width="180" height="209"/>
	<rect id="_x3C_Slice_x3E__2_" x="-1326.34" y="371.35" style="&st35;" width="234" height="193"/>
	<rect id="_x3C_Slice_x3E__3_" x="-935.81" y="-259.02" style="&st35;" width="166" height="183"/>
	<rect id="_x3C_Slice_x3E__4_" x="44.1" y="24.88" style="&st35;" width="168" height="265"/>
</g>
</svg>
