<?xml version="1.0" encoding="utf-8"?>
<!-- Generator: Adobe Illustrator 21.0.0, SVG Export Plug-In . SVG Version: 6.00 Build 0)  -->
<!DOCTYPE svg PUBLIC "-//W3C//DTD SVG 1.1//EN" "http://www.w3.org/Graphics/SVG/1.1/DTD/svg11.dtd" [
	<!ENTITY st0 "fill:none;">
	<!ENTITY st1 "fill:#3B4D57;">
	<!ENTITY st2 "fill:none;stroke:#506670;stroke-width:3;stroke-miterlimit:10;">
	<!ENTITY st3 "fill:url(#XMLID_3_);">
	<!ENTITY st4 "fill:#F9F8F7;">
	<!ENTITY st5 "fill:#718891;">
	<!ENTITY st6 "fill:#7C919B;">
	<!ENTITY st7 "fill:#FF9878;">
	<!ENTITY st8 "fill:#FC8B60;">
	<!ENTITY st9 "fill:#E56D4C;">
	<!ENTITY st10 "fill:#F47F5B;">
	<!ENTITY st11 "fill:#F45B5B;">
	<!ENTITY st12 "fill:#D8D0BB;">
	<!ENTITY st13 "fill:#FC6460;">
	<!ENTITY st14 "fill:#E55555;">
	<!ENTITY st15 "fill:#E2C3A8;">
	<!ENTITY st16 "fill:#E8CFB5;">
	<!ENTITY st17 "fill:#EFD7B8;">
	<!ENTITY st18 "fill:#D3AF94;">
	<!ENTITY st19 "fill:#E9E5D9;">
	<!ENTITY st20 "fill:#F9EBDC;">
	<!ENTITY st21 "fill:#97B797;">
	<!ENTITY st22 "fill:#AFC9B0;">
	<!ENTITY st23 "fill:#9DBF9F;">
	<!ENTITY st24 "fill:#8CAA8C;">
]>
<svg version="1.1" xmlns="http://www.w3.org/2000/svg" xmlns:xlink="http://www.w3.org/1999/xlink" x="0px" y="0px"
	 viewBox="0 0 234.82 275.21" style="enable-background:new 0 0 234.82 275.21;" xml:space="preserve">
<pattern  x="771.89" y="-165.41" width="204.49" height="204.49" patternUnits="userSpaceOnUse" id="New_Pattern" viewBox="0 -204.49 204.49 204.49" style="overflow:visible;">
	<g>
		<rect x="0" y="-204.49" style="&st0;" width="204.49" height="204.49"/>
		<rect x="0" y="-204.49" style="&st1;" width="204.49" height="204.49"/>
		<g>
			<line style="&st2;" x1="29" y1="-190.16" x2="29" y2="-169.83"/>
			<line style="&st2;" x1="18.83" y1="-179.99" x2="39.17" y2="-179.99"/>
		</g>
		<g>
			<line style="&st2;" x1="161.33" y1="-51.08" x2="161.33" y2="-30.75"/>
			<line style="&st2;" x1="151.17" y1="-40.91" x2="171.5" y2="-40.91"/>
		</g>
		<g>
			<line style="&st2;" x1="171.5" y1="-191.41" x2="171.5" y2="-171.08"/>
			<line style="&st2;" x1="161.33" y1="-181.24" x2="181.67" y2="-181.24"/>
		</g>
		<g>
			<line style="&st2;" x1="69.25" y1="-97.66" x2="69.25" y2="-77.33"/>
			<line style="&st2;" x1="59.08" y1="-87.5" x2="79.42" y2="-87.5"/>
		</g>
		<g>
			<line style="&st2;" x1="49.33" y1="-134.74" x2="49.33" y2="-122.91"/>
			<line style="&st2;" x1="43.42" y1="-128.83" x2="55.25" y2="-128.83"/>
		</g>
		<g>
			<line style="&st2;" x1="88.33" y1="-175.74" x2="88.33" y2="-163.91"/>
			<line style="&st2;" x1="82.42" y1="-169.83" x2="94.25" y2="-169.83"/>
		</g>
		<g>
			<line style="&st2;" x1="186" y1="-127.16" x2="186" y2="-115.33"/>
			<line style="&st2;" x1="180.08" y1="-121.25" x2="191.92" y2="-121.25"/>
		</g>
		<g>
			<line style="&st2;" x1="20.33" y1="-22.66" x2="20.33" y2="-10.83"/>
			<line style="&st2;" x1="14.42" y1="-16.75" x2="26.25" y2="-16.75"/>
		</g>
		<g>
			<line style="&st2;" x1="113.25" y1="-106" x2="113.25" y2="-94.16"/>
			<line style="&st2;" x1="107.33" y1="-100.08" x2="119.17" y2="-100.08"/>
		</g>
		<g>
			<line style="&st2;" x1="91.75" y1="-39.16" x2="91.75" y2="-27.33"/>
			<line style="&st2;" x1="85.83" y1="-33.24" x2="97.67" y2="-33.24"/>
		</g>
	</g>
</pattern>
<g id="BACKGROUND">
	<pattern  id="XMLID_3_" xlink:href="#New_Pattern" patternTransform="matrix(0.3 0 0 0.3 -5658.9946 -5260.123)">
	</pattern>
	<rect id="XMLID_1_" x="771.89" y="-165.41" style="&st3;" width="800" height="800"/>
</g>
<g id="Designed_By_Freepik">
	<g id="Freepik_Sign">
		<g id="XMLID_306_">
			<path id="XMLID_550_" style="&st4;" d="M1060.39,575.57v-0.26c-0.35,0.4-0.69,0.72-1.03,0.97c-0.34,0.25-0.71,0.44-1.1,0.57
				c-0.4,0.13-0.83,0.2-1.3,0.2c-0.62,0-1.2-0.13-1.72-0.39c-0.53-0.26-0.99-0.64-1.37-1.13c-0.39-0.49-0.68-1.06-0.88-1.72
				c-0.2-0.66-0.3-1.37-0.3-2.14c0-1.62,0.4-2.88,1.19-3.79c0.79-0.9,1.83-1.36,3.13-1.36c0.75,0,1.38,0.13,1.89,0.38
				c0.51,0.26,1.01,0.65,1.5,1.18v-3.83c0-0.53,0.11-0.93,0.32-1.21c0.21-0.27,0.51-0.41,0.91-0.41c0.39,0,0.69,0.13,0.91,0.38
				c0.21,0.25,0.32,0.62,0.32,1.11v11.44c0,0.49-0.11,0.86-0.34,1.11c-0.23,0.25-0.52,0.37-0.88,0.37c-0.35,0-0.65-0.13-0.88-0.38
				C1060.5,576.41,1060.39,576.04,1060.39,575.57z M1055.29,571.76c0,0.7,0.11,1.3,0.33,1.79c0.22,0.49,0.52,0.87,0.9,1.12
				c0.38,0.25,0.8,0.38,1.24,0.38c0.46,0,0.87-0.12,1.25-0.36c0.38-0.24,0.68-0.6,0.9-1.09c0.23-0.49,0.34-1.11,0.34-1.84
				c0-0.69-0.11-1.29-0.34-1.78c-0.22-0.5-0.53-0.88-0.91-1.14c-0.38-0.26-0.8-0.39-1.26-0.39c-0.47,0-0.9,0.13-1.27,0.4
				c-0.37,0.27-0.66,0.65-0.87,1.16C1055.39,570.51,1055.29,571.1,1055.29,571.76z"/>
			<path id="XMLID_546_" style="&st4;" d="M1071.82,572.42h-5.07c0.01,0.59,0.12,1.11,0.36,1.56c0.23,0.45,0.54,0.79,0.92,1.02
				c0.38,0.23,0.81,0.34,1.27,0.34c0.31,0,0.59-0.04,0.85-0.11c0.26-0.07,0.5-0.19,0.75-0.34c0.24-0.15,0.46-0.32,0.66-0.5
				c0.2-0.18,0.46-0.42,0.79-0.72c0.13-0.11,0.32-0.17,0.57-0.17c0.27,0,0.48,0.07,0.64,0.22c0.16,0.15,0.25,0.35,0.25,0.62
				c0,0.23-0.09,0.51-0.28,0.82c-0.19,0.31-0.46,0.62-0.83,0.9c-0.37,0.29-0.84,0.53-1.4,0.72c-0.56,0.19-1.2,0.29-1.93,0.29
				c-1.66,0-2.96-0.47-3.88-1.42c-0.92-0.95-1.39-2.24-1.39-3.87c0-0.77,0.11-1.48,0.34-2.13c0.23-0.66,0.56-1.22,1-1.69
				c0.44-0.47,0.98-0.83,1.62-1.08c0.64-0.25,1.35-0.38,2.13-0.38c1.01,0,1.88,0.21,2.61,0.64c0.73,0.43,1.27,0.98,1.63,1.66
				c0.36,0.68,0.54,1.37,0.54,2.07c0,0.65-0.19,1.08-0.56,1.27C1073.03,572.32,1072.5,572.42,1071.82,572.42z M1066.75,570.94h4.7
				c-0.06-0.89-0.3-1.55-0.72-1.99c-0.41-0.44-0.96-0.66-1.64-0.66c-0.65,0-1.18,0.22-1.59,0.67
				C1067.09,569.41,1066.84,570.07,1066.75,570.94z"/>
			<path id="XMLID_542_" style="&st4;" d="M1083.64,573.66c0,0.71-0.17,1.33-0.52,1.84c-0.35,0.51-0.86,0.9-1.54,1.16
				c-0.68,0.26-1.51,0.39-2.48,0.39c-0.93,0-1.73-0.14-2.39-0.43c-0.66-0.28-1.16-0.64-1.47-1.07c-0.32-0.43-0.48-0.86-0.48-1.29
				c0-0.29,0.1-0.53,0.3-0.73c0.2-0.2,0.46-0.3,0.77-0.3c0.27,0,0.48,0.07,0.63,0.2c0.15,0.13,0.29,0.32,0.42,0.56
				c0.27,0.46,0.59,0.81,0.96,1.04c0.37,0.23,0.87,0.34,1.52,0.34c0.52,0,0.94-0.12,1.28-0.35c0.33-0.23,0.5-0.5,0.5-0.79
				c0-0.46-0.17-0.79-0.52-1c-0.35-0.21-0.91-0.41-1.71-0.6c-0.89-0.22-1.62-0.46-2.18-0.7c-0.56-0.24-1.01-0.56-1.34-0.96
				c-0.34-0.4-0.5-0.89-0.5-1.47c0-0.52,0.15-1.01,0.47-1.47c0.31-0.46,0.77-0.83,1.37-1.11c0.6-0.28,1.33-0.41,2.19-0.41
				c0.67,0,1.27,0.07,1.81,0.21c0.54,0.14,0.98,0.33,1.34,0.56c0.36,0.23,0.63,0.49,0.82,0.78c0.19,0.29,0.28,0.56,0.28,0.84
				c0,0.3-0.1,0.54-0.3,0.73c-0.2,0.19-0.48,0.29-0.85,0.29c-0.27,0-0.49-0.08-0.68-0.23c-0.19-0.15-0.4-0.38-0.64-0.68
				c-0.2-0.25-0.43-0.46-0.69-0.61c-0.27-0.15-0.63-0.23-1.08-0.23c-0.47,0-0.86,0.1-1.17,0.3c-0.31,0.2-0.47,0.45-0.47,0.74
				c0,0.27,0.11,0.5,0.34,0.67c0.23,0.18,0.54,0.32,0.92,0.43c0.39,0.11,0.92,0.25,1.6,0.42c0.8,0.2,1.46,0.43,1.97,0.7
				c0.51,0.27,0.9,0.59,1.16,0.96C1083.5,572.76,1083.64,573.18,1083.64,573.66z"/>
			<path id="XMLID_530_" style="&st4;" d="M1086.28,565.3c-0.36,0-0.67-0.11-0.93-0.33c-0.26-0.22-0.38-0.54-0.38-0.94
				c0-0.37,0.13-0.67,0.39-0.91c0.26-0.24,0.57-0.36,0.92-0.36c0.34,0,0.63,0.11,0.89,0.32c0.26,0.21,0.39,0.53,0.39,0.94
				c0,0.4-0.13,0.71-0.38,0.94C1086.93,565.19,1086.63,565.3,1086.28,565.3z M1087.57,567.98v7.49c0,0.52-0.12,0.91-0.37,1.18
				c-0.25,0.27-0.56,0.4-0.94,0.4c-0.38,0-0.69-0.13-0.93-0.41c-0.24-0.27-0.36-0.66-0.36-1.17v-7.42c0-0.51,0.12-0.9,0.36-1.16
				c0.24-0.26,0.55-0.39,0.93-0.39c0.38,0,0.69,0.13,0.94,0.39C1087.44,567.16,1087.57,567.52,1087.57,567.98z"/>
			<path id="XMLID_513_" style="&st4;" d="M1098.93,568.41v7.53c0,0.86-0.09,1.6-0.28,2.22c-0.18,0.62-0.48,1.13-0.88,1.54
				c-0.41,0.4-0.94,0.71-1.59,0.9c-0.66,0.2-1.47,0.29-2.45,0.29c-0.89,0-1.69-0.13-2.39-0.38c-0.7-0.25-1.24-0.57-1.62-0.97
				c-0.38-0.4-0.57-0.8-0.57-1.22c0-0.32,0.11-0.58,0.32-0.77c0.21-0.2,0.48-0.3,0.78-0.3c0.38,0,0.71,0.17,1,0.5
				c0.14,0.17,0.28,0.34,0.43,0.52c0.15,0.18,0.31,0.32,0.49,0.45c0.18,0.12,0.4,0.21,0.65,0.28c0.25,0.06,0.55,0.09,0.87,0.09
				c0.67,0,1.19-0.09,1.56-0.28c0.37-0.19,0.63-0.45,0.78-0.78c0.15-0.33,0.24-0.69,0.26-1.08c0.03-0.38,0.04-1,0.06-1.85
				c-0.4,0.56-0.86,0.98-1.38,1.27c-0.52,0.29-1.14,0.44-1.87,0.44c-0.87,0-1.63-0.22-2.28-0.67c-0.65-0.44-1.15-1.06-1.5-1.86
				c-0.35-0.8-0.52-1.72-0.52-2.76c0-0.78,0.11-1.48,0.32-2.11c0.21-0.63,0.52-1.16,0.91-1.59c0.39-0.43,0.85-0.75,1.36-0.97
				c0.51-0.22,1.08-0.33,1.69-0.33c0.73,0,1.37,0.14,1.91,0.42c0.54,0.28,1.04,0.72,1.5,1.33v-0.35c0-0.45,0.11-0.8,0.33-1.04
				c0.22-0.25,0.51-0.37,0.86-0.37c0.5,0,0.83,0.16,1,0.49C1098.84,567.32,1098.93,567.79,1098.93,568.41z M1091.41,571.69
				c0,1.05,0.23,1.85,0.69,2.38c0.46,0.54,1.05,0.81,1.78,0.81c0.43,0,0.84-0.12,1.22-0.35c0.38-0.23,0.7-0.58,0.94-1.04
				c0.24-0.46,0.36-1.03,0.36-1.7c0-1.06-0.23-1.88-0.7-2.47c-0.47-0.59-1.08-0.88-1.84-0.88c-0.74,0-1.33,0.28-1.78,0.85
				C1091.64,569.85,1091.41,570.66,1091.41,571.69z"/>
			<path id="XMLID_504_" style="&st4;" d="M1103.05,567.94v0.31c0.46-0.6,0.95-1.04,1.5-1.32c0.54-0.28,1.16-0.42,1.87-0.42
				c0.68,0,1.29,0.15,1.83,0.45c0.54,0.3,0.94,0.72,1.21,1.26c0.17,0.32,0.28,0.66,0.33,1.03c0.05,0.37,0.08,0.84,0.08,1.41v4.82
				c0,0.52-0.12,0.91-0.36,1.18c-0.24,0.27-0.55,0.4-0.93,0.4c-0.39,0-0.7-0.13-0.94-0.41c-0.24-0.27-0.36-0.66-0.36-1.17v-4.32
				c0-0.85-0.12-1.51-0.36-1.96c-0.24-0.45-0.71-0.68-1.42-0.68c-0.46,0-0.88,0.14-1.26,0.41s-0.66,0.65-0.84,1.13
				c-0.13,0.39-0.19,1.11-0.19,2.17v3.25c0,0.53-0.12,0.92-0.37,1.18c-0.24,0.26-0.56,0.39-0.94,0.39c-0.37,0-0.68-0.13-0.92-0.41
				c-0.24-0.27-0.36-0.66-0.36-1.17v-7.49c0-0.49,0.11-0.86,0.32-1.11c0.22-0.24,0.51-0.37,0.88-0.37c0.23,0,0.43,0.05,0.62,0.16
				c0.18,0.11,0.33,0.27,0.44,0.48C1102.99,567.37,1103.05,567.63,1103.05,567.94z"/>
			<path id="XMLID_482_" style="&st4;" d="M1118.82,572.42h-5.07c0.01,0.59,0.12,1.11,0.36,1.56c0.23,0.45,0.54,0.79,0.92,1.02
				c0.38,0.23,0.81,0.34,1.27,0.34c0.31,0,0.59-0.04,0.85-0.11c0.26-0.07,0.5-0.19,0.75-0.34c0.24-0.15,0.46-0.32,0.67-0.5
				c0.2-0.18,0.46-0.42,0.79-0.72c0.13-0.11,0.32-0.17,0.57-0.17c0.27,0,0.48,0.07,0.65,0.22c0.16,0.15,0.25,0.35,0.25,0.62
				c0,0.23-0.09,0.51-0.28,0.82c-0.18,0.31-0.46,0.62-0.83,0.9c-0.37,0.29-0.83,0.53-1.4,0.72c-0.56,0.19-1.21,0.29-1.93,0.29
				c-1.66,0-2.96-0.47-3.89-1.42c-0.92-0.95-1.39-2.24-1.39-3.87c0-0.77,0.11-1.48,0.34-2.13c0.23-0.66,0.56-1.22,1-1.69
				c0.44-0.47,0.98-0.83,1.61-1.08c0.64-0.25,1.35-0.38,2.13-0.38c1.01,0,1.88,0.21,2.61,0.64c0.73,0.43,1.27,0.98,1.63,1.66
				c0.36,0.68,0.54,1.37,0.54,2.07c0,0.65-0.19,1.08-0.56,1.27C1120.03,572.32,1119.5,572.42,1118.82,572.42z M1113.75,570.94h4.7
				c-0.06-0.89-0.3-1.55-0.72-1.99c-0.41-0.44-0.96-0.66-1.64-0.66c-0.65,0-1.18,0.22-1.59,0.67
				C1114.09,569.41,1113.84,570.07,1113.75,570.94z"/>
			<path id="XMLID_476_" style="&st4;" d="M1129.39,575.57v-0.26c-0.35,0.4-0.69,0.72-1.03,0.97c-0.34,0.25-0.71,0.44-1.1,0.57
				c-0.4,0.13-0.83,0.2-1.3,0.2c-0.62,0-1.2-0.13-1.72-0.39c-0.53-0.26-0.99-0.64-1.37-1.13c-0.39-0.49-0.68-1.06-0.88-1.72
				c-0.2-0.66-0.3-1.37-0.3-2.14c0-1.62,0.4-2.88,1.19-3.79c0.79-0.9,1.83-1.36,3.13-1.36c0.75,0,1.38,0.13,1.89,0.38
				c0.51,0.26,1.01,0.65,1.5,1.18v-3.83c0-0.53,0.11-0.93,0.32-1.21c0.21-0.27,0.51-0.41,0.91-0.41c0.39,0,0.69,0.13,0.91,0.38
				c0.21,0.25,0.32,0.62,0.32,1.11v11.44c0,0.49-0.11,0.86-0.34,1.11c-0.23,0.25-0.52,0.37-0.88,0.37c-0.35,0-0.65-0.13-0.88-0.38
				C1129.51,576.41,1129.39,576.04,1129.39,575.57z M1124.29,571.76c0,0.7,0.11,1.3,0.33,1.79c0.22,0.49,0.52,0.87,0.9,1.12
				c0.38,0.25,0.79,0.38,1.24,0.38c0.46,0,0.87-0.12,1.25-0.36c0.38-0.24,0.68-0.6,0.9-1.09c0.23-0.49,0.34-1.11,0.34-1.84
				c0-0.69-0.11-1.29-0.34-1.78c-0.22-0.5-0.53-0.88-0.91-1.14c-0.38-0.26-0.8-0.39-1.26-0.39c-0.47,0-0.9,0.13-1.27,0.4
				c-0.37,0.27-0.66,0.65-0.87,1.16C1124.39,570.51,1124.29,571.1,1124.29,571.76z"/>
			<path id="XMLID_309_" style="&st4;" d="M1139.99,564.13v3.96c0.49-0.51,0.98-0.89,1.49-1.16c0.51-0.27,1.13-0.4,1.88-0.4
				c0.86,0,1.62,0.21,2.27,0.61c0.65,0.41,1.15,1,1.51,1.78c0.36,0.78,0.54,1.7,0.54,2.76c0,0.79-0.1,1.5-0.3,2.16
				c-0.2,0.66-0.49,1.22-0.87,1.71c-0.38,0.48-0.84,0.85-1.38,1.12c-0.54,0.26-1.14,0.39-1.79,0.39c-0.4,0-0.77-0.05-1.13-0.14
				c-0.35-0.09-0.65-0.22-0.9-0.38c-0.25-0.15-0.46-0.31-0.63-0.48c-0.17-0.16-0.4-0.41-0.69-0.74v0.26c0,0.49-0.12,0.86-0.35,1.11
				c-0.23,0.25-0.53,0.37-0.89,0.37c-0.37,0-0.66-0.12-0.88-0.37c-0.22-0.25-0.33-0.62-0.33-1.11v-11.32c0-0.53,0.11-0.92,0.32-1.19
				c0.21-0.27,0.51-0.4,0.89-0.4c0.4,0,0.71,0.13,0.92,0.38C1139.88,563.29,1139.99,563.66,1139.99,564.13z M1140.11,571.84
				c0,1.03,0.24,1.82,0.71,2.38c0.47,0.55,1.09,0.83,1.86,0.83c0.65,0,1.21-0.28,1.69-0.85c0.47-0.57,0.71-1.38,0.71-2.44
				c0-0.68-0.1-1.27-0.29-1.77c-0.2-0.49-0.47-0.88-0.84-1.14c-0.36-0.27-0.78-0.4-1.26-0.4c-0.49,0-0.93,0.13-1.32,0.4
				c-0.39,0.27-0.69,0.66-0.91,1.17C1140.22,570.53,1140.11,571.13,1140.11,571.84z"/>
			<path id="XMLID_307_" style="&st4;" d="M1151.03,577.37l0.24-0.58l-3.19-8.04c-0.2-0.46-0.29-0.8-0.29-1.01
				c0-0.22,0.06-0.43,0.17-0.62c0.11-0.19,0.27-0.34,0.47-0.46c0.2-0.12,0.41-0.17,0.62-0.17c0.37,0,0.65,0.12,0.85,0.36
				c0.19,0.24,0.36,0.58,0.5,1.02l2.19,6.38l2.08-5.94c0.16-0.48,0.31-0.86,0.45-1.13c0.13-0.27,0.27-0.46,0.42-0.55
				c0.15-0.1,0.36-0.14,0.63-0.14c0.2,0,0.38,0.05,0.57,0.16c0.18,0.1,0.32,0.24,0.42,0.42c0.1,0.18,0.15,0.36,0.15,0.56
				c-0.03,0.12-0.07,0.29-0.12,0.51c-0.06,0.22-0.13,0.45-0.21,0.67l-3.38,8.85c-0.29,0.78-0.58,1.39-0.86,1.83
				c-0.28,0.44-0.65,0.79-1.11,1.02c-0.46,0.24-1.08,0.36-1.86,0.36c-0.76,0-1.33-0.08-1.71-0.25c-0.38-0.17-0.57-0.47-0.57-0.9
				c0-0.3,0.09-0.53,0.27-0.69c0.18-0.16,0.45-0.24,0.8-0.24c0.14,0,0.28,0.02,0.41,0.06c0.16,0.04,0.31,0.06,0.43,0.06
				c0.3,0,0.53-0.04,0.7-0.13c0.17-0.09,0.32-0.24,0.46-0.46C1150.7,578.12,1150.86,577.8,1151.03,577.37z"/>
		</g>
		<g id="XMLID_253_">
			<path id="XMLID_304_" style="&st4;" d="M1188.6,566.73h0.62v-0.78c0-0.81,0.1-1.46,0.31-1.94c0.2-0.48,0.55-0.83,1.05-1.04
				c0.49-0.22,1.16-0.33,2.02-0.33c1.52,0,2.27,0.37,2.27,1.11c0,0.24-0.08,0.45-0.24,0.62c-0.15,0.17-0.34,0.26-0.56,0.26
				c-0.1,0-0.28-0.02-0.53-0.06c-0.24-0.03-0.45-0.06-0.62-0.06c-0.47,0-0.77,0.14-0.9,0.42c-0.13,0.28-0.2,0.67-0.2,1.18v0.62h0.63
				c0.99,0,1.48,0.3,1.48,0.9c0,0.42-0.13,0.69-0.39,0.8c-0.26,0.11-0.62,0.17-1.09,0.17h-0.63v6.87c0,0.51-0.12,0.9-0.37,1.17
				c-0.24,0.27-0.55,0.41-0.94,0.41c-0.37,0-0.67-0.13-0.92-0.41c-0.24-0.27-0.36-0.66-0.36-1.17v-6.87h-0.71
				c-0.39,0-0.68-0.08-0.89-0.26c-0.21-0.17-0.31-0.4-0.31-0.68C1187.29,567.04,1187.73,566.73,1188.6,566.73"/>
			<path id="XMLID_301_" style="&st4;" d="M1197.09,573.31v2.17c0,0.52-0.13,0.92-0.38,1.18c-0.25,0.27-0.56,0.39-0.94,0.39
				c-0.38,0-0.69-0.13-0.93-0.4c-0.24-0.26-0.36-0.66-0.36-1.17v-7.22c0-1.17,0.42-1.75,1.26-1.75c0.43,0,0.74,0.13,0.93,0.41
				c0.19,0.27,0.29,0.67,0.32,1.21c0.31-0.53,0.63-0.93,0.95-1.21c0.33-0.27,0.76-0.41,1.31-0.41c0.55,0,1.07,0.13,1.59,0.41
				c0.52,0.27,0.77,0.64,0.77,1.08c0,0.31-0.11,0.58-0.33,0.78c-0.22,0.21-0.46,0.31-0.71,0.31c-0.1,0-0.33-0.06-0.69-0.18
				c-0.37-0.11-0.69-0.17-0.96-0.17c-0.38,0-0.69,0.1-0.93,0.3c-0.24,0.21-0.43,0.5-0.56,0.89c-0.13,0.39-0.22,0.87-0.27,1.4
				C1197.11,571.87,1197.09,572.53,1197.09,573.31"/>
			<path id="XMLID_297_" style="&st4;" d="M1209.01,572.41h-5.07c0.01,0.59,0.13,1.11,0.36,1.56c0.23,0.45,0.54,0.79,0.92,1.02
				c0.38,0.23,0.8,0.34,1.27,0.34c0.31,0,0.59-0.03,0.85-0.11c0.25-0.07,0.5-0.19,0.74-0.34c0.24-0.15,0.46-0.32,0.66-0.5
				c0.2-0.17,0.47-0.42,0.79-0.72c0.13-0.11,0.32-0.17,0.57-0.17c0.27,0,0.48,0.07,0.65,0.22c0.17,0.15,0.24,0.35,0.24,0.62
				c0,0.23-0.09,0.51-0.27,0.82c-0.19,0.32-0.46,0.62-0.84,0.91c-0.38,0.29-0.84,0.53-1.4,0.71c-0.56,0.19-1.21,0.29-1.93,0.29
				c-1.67,0-2.96-0.47-3.89-1.42c-0.92-0.95-1.39-2.24-1.39-3.87c0-0.77,0.12-1.48,0.35-2.13c0.22-0.66,0.56-1.22,1-1.69
				c0.44-0.47,0.97-0.83,1.61-1.08c0.64-0.25,1.35-0.38,2.13-0.38c1.01,0,1.88,0.21,2.61,0.65c0.72,0.42,1.27,0.98,1.63,1.65
				c0.36,0.68,0.54,1.37,0.54,2.07c0,0.65-0.19,1.07-0.56,1.27C1210.21,572.32,1209.69,572.41,1209.01,572.41 M1203.93,570.94h4.7
				c-0.06-0.88-0.3-1.55-0.71-1.99c-0.42-0.44-0.96-0.66-1.64-0.66c-0.65,0-1.18,0.22-1.59,0.67
				C1204.28,569.41,1204.02,570.07,1203.93,570.94"/>
			<path id="XMLID_279_" style="&st4;" d="M1219.79,572.41h-5.07c0.01,0.59,0.13,1.11,0.35,1.56c0.23,0.45,0.54,0.79,0.92,1.02
				c0.38,0.23,0.8,0.34,1.27,0.34c0.31,0,0.59-0.03,0.84-0.11c0.26-0.07,0.51-0.19,0.75-0.34c0.24-0.15,0.46-0.32,0.66-0.5
				c0.2-0.17,0.46-0.42,0.79-0.72c0.13-0.11,0.33-0.17,0.57-0.17c0.27,0,0.48,0.07,0.65,0.22c0.16,0.15,0.24,0.35,0.24,0.62
				c0,0.23-0.09,0.51-0.27,0.82c-0.18,0.32-0.46,0.62-0.83,0.91c-0.37,0.29-0.84,0.53-1.4,0.71c-0.56,0.19-1.21,0.29-1.93,0.29
				c-1.67,0-2.96-0.47-3.89-1.42c-0.92-0.95-1.39-2.24-1.39-3.87c0-0.77,0.12-1.48,0.35-2.13c0.23-0.66,0.56-1.22,1-1.69
				c0.44-0.47,0.97-0.83,1.61-1.08c0.64-0.25,1.35-0.38,2.13-0.38c1.01,0,1.88,0.21,2.61,0.65c0.72,0.42,1.27,0.98,1.62,1.65
				c0.36,0.68,0.55,1.37,0.55,2.07c0,0.65-0.19,1.07-0.56,1.27C1221,572.32,1220.47,572.41,1219.79,572.41 M1214.72,570.94h4.7
				c-0.06-0.88-0.3-1.55-0.71-1.99c-0.42-0.44-0.96-0.66-1.64-0.66c-0.65,0-1.18,0.22-1.59,0.67
				C1215.06,569.41,1214.81,570.07,1214.72,570.94"/>
			<path id="XMLID_275_" style="&st4;" d="M1225.47,567.96v0.31c0.49-0.6,0.99-1.04,1.53-1.32c0.52-0.29,1.12-0.43,1.78-0.43
				c0.79,0,1.54,0.21,2.21,0.62c0.67,0.41,1.2,1.02,1.59,1.81c0.39,0.79,0.59,1.73,0.59,2.81c0,0.79-0.11,1.53-0.34,2.2
				c-0.22,0.67-0.54,1.23-0.93,1.68c-0.39,0.45-0.86,0.8-1.39,1.04c-0.54,0.24-1.11,0.36-1.73,0.36c-0.74,0-1.36-0.15-1.87-0.45
				c-0.5-0.29-0.98-0.73-1.44-1.3v3.89c0,1.13-0.42,1.71-1.24,1.71c-0.49,0-0.81-0.15-0.97-0.44c-0.15-0.3-0.23-0.72-0.23-1.29
				v-11.19c0-0.49,0.11-0.86,0.32-1.11c0.21-0.24,0.51-0.36,0.88-0.36c0.37,0,0.67,0.13,0.9,0.37
				C1225.36,567.13,1225.47,567.49,1225.47,567.96 M1230.56,571.73c0-0.69-0.11-1.27-0.31-1.76c-0.21-0.49-0.5-0.87-0.87-1.13
				c-0.37-0.26-0.78-0.4-1.23-0.4c-0.71,0-1.32,0.28-1.81,0.84c-0.49,0.57-0.74,1.39-0.74,2.49c0,1.03,0.24,1.83,0.74,2.41
				c0.49,0.57,1.09,0.86,1.81,0.86c0.43,0,0.83-0.13,1.2-0.37c0.37-0.25,0.66-0.63,0.88-1.13
				C1230.45,573.04,1230.56,572.44,1230.56,571.73"/>
			<path id="XMLID_268_" style="&st4;" d="M1235.78,565.3c-0.36,0-0.67-0.12-0.92-0.34c-0.26-0.22-0.39-0.53-0.39-0.94
				c0-0.37,0.13-0.67,0.4-0.91c0.26-0.23,0.57-0.36,0.91-0.36c0.34,0,0.63,0.11,0.89,0.32c0.26,0.22,0.39,0.54,0.39,0.95
				c0,0.4-0.13,0.71-0.38,0.94C1236.43,565.18,1236.13,565.3,1235.78,565.3 M1237.06,567.97v7.5c0,0.52-0.12,0.91-0.37,1.17
				c-0.25,0.27-0.56,0.4-0.94,0.4c-0.38,0-0.69-0.13-0.93-0.41c-0.23-0.28-0.36-0.66-0.36-1.17v-7.43c0-0.51,0.12-0.89,0.36-1.15
				c0.24-0.26,0.55-0.39,0.93-0.39c0.38,0,0.69,0.13,0.94,0.39C1236.94,567.15,1237.06,567.52,1237.06,567.97"/>
			<path id="XMLID_267_" style="&st4;" d="M1245.42,575.86l-2.28-3.77l-1.41,1.33v2.07c0,0.5-0.13,0.88-0.4,1.15
				c-0.26,0.27-0.57,0.41-0.91,0.41c-0.4,0-0.71-0.13-0.94-0.4c-0.23-0.26-0.34-0.66-0.34-1.17v-11.06c0-0.57,0.12-1.01,0.33-1.31
				c0.22-0.3,0.54-0.45,0.95-0.45c0.4,0,0.71,0.14,0.95,0.41c0.23,0.27,0.35,0.67,0.35,1.2v6.29l2.92-3.06
				c0.36-0.38,0.63-0.64,0.83-0.78c0.19-0.14,0.42-0.21,0.69-0.21c0.33,0,0.59,0.1,0.82,0.31c0.21,0.21,0.32,0.46,0.32,0.77
				c0,0.38-0.35,0.89-1.05,1.52l-1.38,1.26l2.66,4.18c0.19,0.31,0.34,0.54,0.42,0.71c0.08,0.16,0.13,0.32,0.13,0.46
				c0,0.41-0.12,0.73-0.34,0.97c-0.22,0.24-0.52,0.35-0.88,0.35c-0.32,0-0.56-0.08-0.73-0.26
				C1245.95,576.62,1245.71,576.31,1245.42,575.86"/>
			<path id="XMLID_264_" style="&st4;" d="M1251.05,577.05c-0.39,0-0.73-0.13-1.01-0.38c-0.29-0.25-0.43-0.61-0.43-1.06
				c0-0.38,0.14-0.72,0.41-0.99c0.28-0.28,0.61-0.42,1.01-0.42c0.4,0,0.74,0.14,1.02,0.41c0.28,0.28,0.42,0.61,0.42,1
				c0,0.45-0.14,0.81-0.42,1.06C1251.77,576.92,1251.43,577.05,1251.05,577.05"/>
			<path id="XMLID_263_" style="&st4;" d="M1263.95,573.84c0,0.32-0.1,0.67-0.29,1.03c-0.19,0.37-0.49,0.72-0.89,1.05
				c-0.39,0.33-0.89,0.6-1.49,0.8c-0.6,0.2-1.28,0.31-2.03,0.31c-1.61,0-2.86-0.47-3.76-1.4c-0.89-0.94-1.35-2.19-1.35-3.76
				c0-1.07,0.21-2.01,0.62-2.82c0.41-0.81,1-1.45,1.78-1.89c0.78-0.45,1.72-0.67,2.79-0.67c0.67,0,1.29,0.1,1.85,0.29
				c0.56,0.2,1.03,0.45,1.43,0.76c0.39,0.31,0.69,0.64,0.89,0.99c0.21,0.35,0.31,0.68,0.31,0.99c0,0.31-0.11,0.57-0.34,0.79
				c-0.23,0.21-0.52,0.32-0.84,0.32c-0.22,0-0.4-0.06-0.54-0.17c-0.14-0.11-0.3-0.29-0.48-0.54c-0.32-0.48-0.65-0.84-1-1.08
				c-0.34-0.24-0.78-0.36-1.31-0.36c-0.76,0-1.38,0.3-1.85,0.9c-0.47,0.6-0.7,1.42-0.7,2.46c0,0.49,0.06,0.94,0.18,1.35
				c0.12,0.41,0.29,0.76,0.52,1.04c0.23,0.29,0.5,0.51,0.83,0.65c0.32,0.15,0.68,0.23,1.06,0.23c0.52,0,0.97-0.12,1.34-0.36
				c0.38-0.24,0.7-0.61,0.99-1.1c0.16-0.29,0.33-0.52,0.51-0.68c0.18-0.16,0.41-0.25,0.68-0.25c0.32,0,0.58,0.12,0.79,0.36
				C1263.85,573.31,1263.95,573.57,1263.95,573.84"/>
			<path id="XMLID_260_" style="&st4;" d="M1275.14,571.78c0,0.77-0.12,1.48-0.36,2.14c-0.25,0.65-0.59,1.21-1.05,1.68
				c-0.46,0.47-1,0.83-1.63,1.08c-0.64,0.25-1.35,0.38-2.14,0.38c-0.79,0-1.49-0.13-2.12-0.38c-0.62-0.25-1.17-0.61-1.63-1.08
				c-0.46-0.48-0.81-1.03-1.05-1.68c-0.23-0.64-0.35-1.36-0.35-2.13c0-0.79,0.12-1.51,0.36-2.16c0.24-0.65,0.59-1.21,1.04-1.67
				c0.45-0.46,0.99-0.82,1.63-1.07c0.64-0.25,1.35-0.37,2.12-0.37c0.79,0,1.5,0.13,2.14,0.38c0.64,0.25,1.18,0.62,1.64,1.08
				c0.46,0.47,0.8,1.03,1.04,1.67C1275.02,570.29,1275.14,571,1275.14,571.78 M1272.54,571.78c0-1.06-0.23-1.88-0.7-2.47
				c-0.46-0.6-1.09-0.89-1.88-0.89c-0.51,0-0.96,0.13-1.34,0.39c-0.39,0.26-0.68,0.65-0.89,1.16c-0.21,0.51-0.31,1.11-0.31,1.8
				c0,0.68,0.1,1.27,0.31,1.77c0.21,0.51,0.5,0.9,0.89,1.17c0.38,0.27,0.83,0.4,1.35,0.4c0.79,0,1.41-0.3,1.88-0.89
				C1272.3,573.64,1272.54,572.82,1272.54,571.78"/>
			<path id="XMLID_259_" style="&st4;" d="M1285.03,571.97v3.45c0,0.55-0.12,0.95-0.37,1.23c-0.25,0.27-0.57,0.41-0.98,0.41
				c-0.39,0-0.71-0.13-0.95-0.41c-0.25-0.28-0.37-0.68-0.37-1.23v-4.13c0-0.65-0.02-1.16-0.06-1.53c-0.04-0.35-0.17-0.65-0.36-0.88
				c-0.2-0.23-0.51-0.35-0.93-0.35c-0.85,0-1.41,0.29-1.68,0.88c-0.27,0.58-0.41,1.41-0.41,2.51v3.5c0,0.54-0.12,0.95-0.36,1.22
				c-0.25,0.27-0.57,0.41-0.96,0.41s-0.72-0.14-0.97-0.41c-0.25-0.28-0.38-0.69-0.38-1.22V568c0-0.49,0.11-0.86,0.34-1.11
				c0.23-0.26,0.53-0.38,0.89-0.38c0.36,0,0.65,0.12,0.89,0.36c0.24,0.24,0.35,0.57,0.35,0.98v0.24c0.45-0.54,0.94-0.93,1.45-1.18
				c0.52-0.26,1.08-0.39,1.71-0.39c0.65,0,1.21,0.13,1.68,0.39c0.47,0.26,0.85,0.65,1.16,1.18c0.44-0.53,0.91-0.92,1.41-1.18
				c0.5-0.26,1.05-0.39,1.66-0.39c0.71,0,1.32,0.14,1.83,0.42c0.51,0.28,0.89,0.68,1.15,1.2c0.22,0.47,0.33,1.21,0.33,2.22v5.06
				c0,0.55-0.12,0.95-0.37,1.23c-0.25,0.27-0.57,0.41-0.98,0.41c-0.39,0-0.71-0.14-0.96-0.41c-0.25-0.28-0.38-0.69-0.38-1.22v-4.36
				c0-0.56-0.02-1-0.07-1.34c-0.05-0.34-0.18-0.62-0.38-0.85c-0.21-0.23-0.53-0.34-0.95-0.34c-0.34,0-0.67,0.11-0.97,0.31
				c-0.31,0.2-0.55,0.48-0.72,0.81C1285.13,570.08,1285.03,570.86,1285.03,571.97"/>
		</g>
		<g id="XMLID_239_">
			<path id="XMLID_252_" style="&st4;" d="M1164.33,571.15c0,0,0-0.01,0-0.02C1164.33,571.14,1164.33,571.15,1164.33,571.15z"/>
			<path id="XMLID_251_" style="&st4;" d="M1164.46,571.98C1164.46,571.98,1164.46,571.98,1164.46,571.98
				c-0.05-0.24-0.09-0.47-0.12-0.7C1164.38,571.51,1164.41,571.75,1164.46,571.98z"/>
			<path id="XMLID_250_" style="&st4;" d="M1165.32,574.39c-0.01-0.01-0.01-0.02-0.02-0.03
				C1165.31,574.36,1165.31,574.38,1165.32,574.39z"/>
			<path id="XMLID_249_" style="&st4;" d="M1165.24,574.23c-0.02-0.04-0.04-0.09-0.07-0.13
				C1165.19,574.14,1165.21,574.18,1165.24,574.23z"/>
			<path id="XMLID_248_" style="&st4;" d="M1164.7,572.91c0.13,0.4,0.28,0.79,0.46,1.16C1164.98,573.69,1164.83,573.3,1164.7,572.91
				C1164.7,572.91,1164.7,572.91,1164.7,572.91z"/>
			<path id="XMLID_247_" style="&st4;" d="M1174.37,561.21c0.5,0,0.87,0.04,1.29,0.11l0.12-0.76c0,0-1.17-0.36-2.71-0.23l-0.12-0.41
				c0.48-0.1,0.84-0.53,0.84-1.04c0-0.58-0.47-1.05-1.06-1.05c-0.58,0-1.06,0.47-1.06,1.05c0,0.51,0.36,0.93,0.84,1.04l0.13,0.46
				c-1.63,0.22-2.93,0.86-2.93,0.86l0.23,0.71c0.99-0.33,1.85-0.53,2.62-0.61C1173.33,561.25,1173.9,561.21,1174.37,561.21z"/>
			<path id="XMLID_246_" style="&st4;" d="M1165.3,565.07L1165.3,565.07c0.04-0.06,0.08-0.1,0.12-0.15l-0.31-0.22l-0.49-0.36
				c-0.03,0.04-0.79,0.74-1.4,2.05c-0.03-0.04-0.06-0.08-0.09-0.12c-0.18-0.2-0.44-0.3-0.76-0.29c0,0-0.01,0-0.01,0
				c-0.2,0-0.34-0.07-0.43-0.15c0.09-0.11,0.14-0.26,0.14-0.41c0-0.37-0.3-0.67-0.67-0.67c-0.37,0-0.67,0.3-0.67,0.67
				c0,0.37,0.3,0.67,0.67,0.67c0.06,0,0.11-0.01,0.17-0.02c0.16,0.18,0.43,0.34,0.81,0.33c0.2,0,0.34,0.05,0.44,0.16
				c0.11,0.12,0.15,0.29,0.16,0.43c0,0,0,0,0,0c-0.44,1.19-0.31,2.67-0.31,2.67l1.06,0.04c0.02-0.54,0.1-1.48,0.37-2.23
				C1164.61,566.02,1165.27,565.11,1165.3,565.07z"/>
			<path id="XMLID_245_" style="&st4;" d="M1183.57,562.1c-0.37,0-0.67,0.3-0.67,0.67c0,0.06,0.01,0.11,0.02,0.16
				c-0.18,0.17-0.34,0.43-0.34,0.81c0,0.2-0.05,0.34-0.15,0.44c-0.08,0.07-0.19,0.12-0.29,0.14c-0.79-1.1-1.76-1.78-1.76-1.78
				l-0.76,0.81c0.57,0.52,1.16,1.18,1.73,1.99c0.39,0.56,0.8,1.29,1.14,2.02l1.02-0.49c0,0-0.47-1.16-1.13-2.19
				c0.11-0.04,0.23-0.1,0.33-0.19c0.2-0.18,0.3-0.44,0.29-0.76c0-0.21,0.07-0.35,0.15-0.44c0.12,0.09,0.26,0.14,0.41,0.14
				c0.37,0,0.67-0.3,0.67-0.67C1184.24,562.4,1183.94,562.1,1183.57,562.1z"/>
			<path id="XMLID_244_" style="&st4;" d="M1180.91,571.3c-1.41,0.69-3.73,1.59-6.78,2.02c-1.2,0.17-2.36,0.23-3.43,0.23
				c-1.39,0-2.62-0.1-3.56-0.22c-1.08-0.13-1.92-0.3-2.43-0.42c0.12,0.39,0.27,0.78,0.45,1.16c0,0.01,0.01,0.02,0.01,0.03
				c0.02,0.04,0.04,0.09,0.07,0.13c0.02,0.04,0.04,0.09,0.07,0.13c0.01,0.01,0.01,0.02,0.02,0.03c0.3,0.57,0.67,1.09,1.08,1.55
				c1.44,1.57,2.91,1.82,2.92,1.83l0.02,0l0.02,0.01c0.01,0.01,1.31,0.43,3.29,0.43c1.94,0,3.85-0.39,5.67-1.17
				c1.35-0.69,2.62-1.74,3.25-2.67c0.49-0.72,0.84-1.49,1.05-2.29c0.11-0.43,0.2-1.11,0.15-1.83
				C1182.38,570.51,1181.76,570.89,1180.91,571.3z"/>
			<path id="XMLID_240_" style="&st4;" d="M1165.75,565.41c-0.04,0.06-0.65,0.93-1.14,2.25c-0.36,0.99-0.35,2.44-0.35,2.46v0
				c0,0.34,0.02,0.68,0.06,1.01c0,0.01,0,0.01,0,0.02c0,0.04,0.01,0.08,0.02,0.13c0.03,0.23,0.07,0.47,0.12,0.7
				c0.7,0.18,4.88,1.15,9.55,0.5c2.93-0.41,5.15-1.27,6.5-1.93c1.12-0.54,1.84-1.04,2.12-1.24c-0.28-1.03-1.04-2.64-1.74-3.65
				c-2.01-2.87-4.17-3.6-5.28-3.78c-0.42-0.07-0.76-0.11-1.24-0.11c-0.45,0-1,0.04-1.74,0.12c-0.74,0.08-1.57,0.27-2.53,0.6
				c-1.35,0.45-2.57,1.16-3.53,2.05l-0.03,0.03C1166.39,564.7,1166.09,564.97,1165.75,565.41z M1178.02,564.74
				c0.96,0,1.74,0.78,1.74,1.74c0,0.96-0.78,1.74-1.74,1.74c-0.96,0-1.74-0.78-1.74-1.74
				C1176.28,565.52,1177.06,564.74,1178.02,564.74z M1169.78,564.67c1.56,0,2.82,1.26,2.82,2.82c0,1.55-1.26,2.81-2.82,2.81
				c-1.55,0-2.82-1.26-2.82-2.81C1166.96,565.93,1168.23,564.67,1169.78,564.67z"/>
		</g>
	</g>
</g>
<g id="OBJECTS">
	<g>
		<path style="&st5;" d="M1494.35,12.34l23.6,193.12l-29.49,3.14l-14.64-126.27C1479.84,26.2,1494.35,12.34,1494.35,12.34z"/>
		<path style="&st6;" d="M1454.1-15.56l40.24,27.9c0,0-14.51,13.86-20.53,70c-3.31,30.81-4.09,74.39,1.52,135.43
			c0,0-40.17,7.98-61.61,7.98c-21.47,0-61.65-7.98-61.65-7.98c5.61-61,4.87-104.56,1.56-135.4c0-0.03,0-0.03,0-0.03
			c-6.02-56.17-20.53-70-20.53-70l40.21-27.9c0,0,15.66,18.67,40.41,18.67S1454.1-15.56,1454.1-15.56z"/>
		<path style="&st5;" d="M1454.1-15.56c0,0-15.62,18.67-40.38,18.67s-40.41-18.67-40.41-18.67s21.27,6.46,40.41,6.46
			S1454.1-15.56,1454.1-15.56z"/>
		<path style="&st5;" d="M1353.64,82.34c0,0,0,0,0,0.03L1339,208.61l-29.49-3.14l23.6-193.12
			C1333.11,12.34,1347.62,26.17,1353.64,82.34z"/>
	</g>
	<g>
		<polygon style="&st7;" points="733.26,521.39 720.48,547.48 699.53,547.48 698.08,521.39 		"/>
		<path style="&st8;" d="M711.97,348.15l-13.99,59.99c-3.35,14.33-4.63,29.03-3.82,43.73l3.92,69.52l1.45,26.09l0.47,8.14
			c0,0-22.03,7.4-53.97,8.58v-0.03V400.81c0-1.86-0.2-3.72-0.64-5.54c-0.51-2.26-1.32-4.49-2.43-6.56l-3.65-6.76l25.11-23.99
			c10.07,6.52,18.65,7.94,18.65,7.94l-6.45-34.81L711.97,348.15z M687.74,412.36v-21.29v-4.16h-27.31v4.16v21.29l13.65,5.27
			L687.74,412.36z"/>
		<polygon style="&st7;" points="687.74,391.07 687.74,412.36 674.08,417.64 660.43,412.36 660.43,391.07 		"/>
		<rect x="660.43" y="386.92" style="&st9;" width="27.31" height="4.16"/>
		<path style="&st7;" d="M676.62,331.09l6.45,34.81c0,0-8.58-1.42-18.65-7.94c-3.45-2.2-7.03-5.04-10.54-8.62v-20.78v-4.6
			c0-2.53-1.39-4.9-3.68-5.95c-2.6-1.18-6.66-2.37-12.44-2.37c-5.75,0-9.8,1.18-12.4,2.37c-2.33,1.05-3.72,3.41-3.72,5.95v4.6v20.78
			c-4.43,4.56-9.06,7.87-13.28,10.31c-8.85,5.1-15.92,6.25-15.92,6.25l6.45-34.81l15.92-21.53c1.49-1.99,3.82-3.18,6.29-3.18h16.66
			h16.69c2.47,0,4.8,1.18,6.29,3.18L676.62,331.09z"/>
		<path style="&st10;" d="M664.42,357.95l-25.11,23.99l14.57-32.61C657.39,352.92,660.97,355.76,664.42,357.95z M657.12,360.39
			c0-1.12-0.88-1.99-1.99-1.99c-1.08,0-1.96,0.88-1.96,1.99c0,1.08,0.88,1.96,1.96,1.96C656.24,362.35,657.12,361.47,657.12,360.39z
			"/>
		<path style="&st7;" d="M655.12,358.39c1.12,0,1.99,0.88,1.99,1.99c0,1.08-0.88,1.96-1.99,1.96c-1.08,0-1.96-0.88-1.96-1.96
			C653.16,359.27,654.04,358.39,655.12,358.39z"/>
		<polygon style="&st9;" points="653.87,328.55 653.87,349.34 639.31,381.95 621.63,349.34 621.63,328.55 637.75,328.55 		"/>
		<path style="&st9;" d="M653.87,323.96v4.6h-16.12h-16.12v-4.6c0-2.53,1.39-4.9,3.72-5.95c2.6-1.18,6.66-2.37,12.4-2.37
			c5.78,0,9.83,1.18,12.44,2.37C652.49,319.06,653.87,321.42,653.87,323.96z"/>
		<path style="&st9;" d="M646.03,564.17v0.03c-2.67,0.07-5.44,0.14-8.28,0.14c-2.81,0-5.58-0.07-8.25-0.14v-0.03V379.99l15.88,15.28
			c0.44,1.82,0.64,3.68,0.64,5.54V564.17z M641.67,403.07c0-2.16-1.76-3.92-3.92-3.92s-3.92,1.76-3.92,3.92s1.76,3.92,3.92,3.92
			S641.67,405.23,641.67,403.07z M641.67,449.3c0-2.16-1.76-3.92-3.92-3.92s-3.92,1.76-3.92,3.92s1.76,3.92,3.92,3.92
			S641.67,451.46,641.67,449.3z M641.67,495.53c0-2.16-1.76-3.92-3.92-3.92s-3.92,1.76-3.92,3.92c0,2.16,1.76,3.92,3.92,3.92
			S641.67,497.7,641.67,495.53z M641.67,541.76c0-2.2-1.76-3.92-3.92-3.92s-3.92,1.72-3.92,3.92c0,2.16,1.76,3.92,3.92,3.92
			S641.67,543.93,641.67,541.76z"/>
		<path style="&st10;" d="M645.39,395.26l-15.88-15.28l-21.16-20.34c4.22-2.43,8.85-5.75,13.28-10.31l17.67,32.61l3.65,6.76
			C644.07,390.77,644.88,393,645.39,395.26z M622.38,360.39c0-1.12-0.88-1.99-1.99-1.99c-1.08,0-1.96,0.88-1.96,1.99
			c0,1.08,0.88,1.96,1.96,1.96C621.5,362.35,622.38,361.47,622.38,360.39z"/>
		<circle style="&st7;" cx="637.75" cy="403.07" r="3.92"/>
		<circle style="&st7;" cx="637.75" cy="449.3" r="3.92"/>
		<circle style="&st7;" cx="637.75" cy="495.53" r="3.92"/>
		<path style="&st7;" d="M637.75,537.84c2.16,0,3.92,1.72,3.92,3.92c0,2.16-1.76,3.92-3.92,3.92s-3.92-1.76-3.92-3.92
			C633.83,539.57,635.59,537.84,637.75,537.84z"/>
		<path style="&st8;" d="M629.51,564.17v0.03c-31.9-1.15-53.97-8.58-53.97-8.58l0.44-8.14l1.49-26.09l3.89-69.52
			c0.84-14.7-0.44-29.4-3.78-43.73l-14.02-59.99l35.35-17.07l-6.45,34.81c0,0,7.06-1.15,15.92-6.25l21.16,20.34V564.17z
			 M615.11,412.36v-21.29v-4.16h-27.34v4.16v21.29l13.69,5.27L615.11,412.36z"/>
		<path style="&st7;" d="M620.38,358.39c1.12,0,1.99,0.88,1.99,1.99c0,1.08-0.88,1.96-1.99,1.96c-1.08,0-1.96-0.88-1.96-1.96
			C618.42,359.27,619.3,358.39,620.38,358.39z"/>
		<polygon style="&st7;" points="615.11,391.07 615.11,412.36 601.46,417.64 587.77,412.36 587.77,391.07 		"/>
		<rect x="587.77" y="386.92" style="&st9;" width="27.34" height="4.16"/>
		<polygon style="&st7;" points="577.46,521.39 575.98,547.48 555.06,547.48 542.25,521.39 		"/>
		<polygon style="&st9;" points="542.25,521.39 552.09,521.39 550.87,513.44 		"/>
		<path style="&st10;" d="M577.56,408.14l-14.03-59.99c0,0-26.22,70.16-12.67,165.29l1.22,7.94h25.37l3.89-69.52
			C582.19,437.17,580.91,422.47,577.56,408.14z"/>
		<polygon style="&st9;" points="733.26,521.39 723.42,521.39 724.64,513.44 		"/>
		<path style="&st10;" d="M697.94,408.14l14.03-59.99c0,0,26.22,70.16,12.67,165.29l-1.22,7.94h-25.37l-3.89-69.52
			C693.31,437.17,694.6,422.47,697.94,408.14z"/>
	</g>
	<g>
		<path style="&st11;" d="M1284.74,504.72c0.23,1-0.4,2.01-1.41,2.24l-24.97,5.46c-0.94,0.2-1.87-0.37-2.14-1.31l-3.61-12.82
			l28.92-6.16v0.03L1284.74,504.72z"/>
		<path style="&st12;" d="M1284.53,488.55c0.37,1.51-0.6,3.05-2.14,3.38l-0.87,0.2l-28.92,6.16l-2.44,0.5
			c-1.47,0.33-2.91-0.57-3.31-2.04l-8.1-31.77h-0.03l-4.18-126.59l9.31-20.45L1284.53,488.55z"/>
		<path style="&st12;" d="M1243.83,317.94l-9.31,20.45l-33.34-22.13c7.33-8.3,9.04-17.71,9.04-17.71l21.69,6.69
			C1237.87,307.06,1242.39,311.88,1243.83,317.94z"/>
		<path style="&st13;" d="M1238.84,468.93c0.23,6.09-1.47,12.12-4.82,17.2l-6.76,10.31h-55.87h-55.87l-6.76-10.31
			c-3.35-5.09-5.05-11.11-4.85-17.2l0.13-3.95l4.22-126.59l33.34-22.16c5.76,6.53,15.06,12.35,29.79,12.35
			c14.73,0,24-5.82,29.79-12.32l33.34,22.13l4.18,126.59L1238.84,468.93z M1227.26,440.11v-3.65h-31.97v3.65H1227.26z
			 M1147.5,440.11v-3.65h-31.97v3.65H1147.5z"/>
		<path style="&st11;" d="M1227.26,496.45v7c0,3.88-3.15,7-7,7h-48.87h-48.87c-3.88,0-7-3.11-7-7v-7h55.87H1227.26z"/>
		<rect x="1195.3" y="436.47" style="&st14;" width="31.97" height="3.65"/>
		<path style="&st11;" d="M1201.19,316.27c-5.79,6.49-15.06,12.32-29.79,12.32c-14.73,0-24.03-5.82-29.79-12.35
			c-7.33-8.3-9.04-17.67-9.04-17.67l8.5-2.61c0,0,2.51,24.47,30.33,24.47c27.82,0,30.33-24.47,30.33-24.47l8.5,2.61
			C1210.23,298.56,1208.52,307.97,1201.19,316.27z"/>
		<path style="&st14;" d="M1201.72,295.95c0,0-2.51,24.47-30.33,24.47c-27.82,0-30.33-24.47-30.33-24.47s14.36,8.94,30.33,8.94
			C1187.33,304.89,1201.72,295.95,1201.72,295.95z"/>
		<rect x="1115.53" y="436.47" style="&st14;" width="31.97" height="3.65"/>
		<path style="&st12;" d="M1141.61,316.23l-33.34,22.16l-9.31-20.45c1.44-6.06,5.96-10.88,11.88-12.69l21.72-6.69
			C1132.57,298.56,1134.28,307.93,1141.61,316.23z"/>
		<path style="&st12;" d="M1098.96,317.94l9.31,20.45l-4.22,126.59l-8.13,31.77c-0.37,1.47-1.81,2.38-3.28,2.04l-2.48-0.54
			l-28.89-6.13l-0.87-0.2c-1.54-0.33-2.51-1.87-2.14-3.38L1098.96,317.94z"/>
		<path style="&st11;" d="M1090.16,498.26v0.03l-3.58,12.82c-0.27,0.94-1.2,1.51-2.18,1.31l-24.94-5.46
			c-1.04-0.23-1.64-1.24-1.41-2.24l3.21-12.55v-0.03L1090.16,498.26z"/>
	</g>
	<g>
		<path style="&st15;" d="M396.78-231.84l1.5,6.39c-7.89,6.18-18.04,8.44-29.84,7.89l-1.83-6.6h0.03
			C376.66-224.05,386.72-226.62,396.78-231.84z"/>
		<path style="&st16;" d="M355.23-407.73l41.55,175.88c-10.06,5.23-20.12,7.8-30.14,7.67h-0.03l-26.66-96.55
			C340.68-383.91,355.23-407.73,355.23-407.73z"/>
		<path style="&st17;" d="M330.28-419.84l24.95,12.11c0,0-14.55,23.82-15.29,87.01c-0.34,28.89,2.23,66.01,10.39,112.84
			c0,0-20.21,10.85-58,12.66v-159.65c-1.93-2.97-3.79-5.9-5.56-8.84l21.34-12.14c7.18,3.15,14.43,4.71,19.23,5.44
			c3.15,0.49,6.05-1.74,6.39-4.92C334.65-384.34,335.57-402.87,330.28-419.84z"/>
		<path style="&st16;" d="M233.31-419.84c5.81-18.74,19.2-35.59,48.49-35.59c29.29,0,42.68,16.85,48.49,35.59
			c5.29,16.97,4.37,35.49,3.45,44.51c-0.34,3.18-3.24,5.41-6.39,4.92c-4.8-0.73-12.05-2.29-19.23-5.44
			c-6.45-2.81-12.9-6.97-17.49-13.02c4.71-10.03,8.44-19.93,10.79-29.75c0.4-1.62,0.76-3.27,1.07-4.89
			c1.31-6.73-1.74-13.6-7.77-16.91c-3.27-1.77-7.52-3.15-12.93-3.15c-5.41,0-9.69,1.38-12.96,3.15c-5.99,3.3-9.05,10.18-7.77,16.91
			c0.31,1.62,0.67,3.27,1.07,4.89c2.35,9.81,6.08,19.72,10.85,29.72c-4.59,6.05-11.04,10.21-17.52,13.05
			c-7.18,3.15-14.43,4.71-19.23,5.44c-3.15,0.49-6.05-1.74-6.39-4.92C228.93-384.37,228.02-402.9,233.31-419.84z"/>
		<path style="&st15;" d="M308.12-375.84l-21.34,12.14c-1.74-2.84-3.42-5.66-5.01-8.47l0.12-0.09c3.18-5.56,6.11-11.1,8.74-16.6
			C295.22-382.81,301.67-378.65,308.12-375.84z M294.73-376.85c0-1.44-1.16-2.6-2.6-2.6s-2.6,1.16-2.6,2.6
			c0,1.41,1.16,2.57,2.6,2.57S294.73-375.44,294.73-376.85z"/>
		<path style="&st18;" d="M294.73-440.41c6.02,3.3,9.08,10.18,7.77,16.91c-0.31,1.62-0.67,3.27-1.07,4.89
			c-13.12-7.22-26.17-7.22-39.29,0c-0.4-1.62-0.76-3.27-1.07-4.89c-1.28-6.73,1.77-13.6,7.77-16.91c3.27-1.77,7.55-3.15,12.96-3.15
			C287.21-443.56,291.46-442.18,294.73-440.41z"/>
		<path style="&st18;" d="M290.63-388.87c-2.63,5.5-5.56,11.04-8.74,16.6l-0.12,0.09c-3.21-5.59-6.15-11.16-8.77-16.72
			c-4.77-10-8.5-19.9-10.85-29.72c13.12-7.22,26.17-7.22,39.29,0C299.07-408.8,295.34-398.89,290.63-388.87z"/>
		<path style="&st19;" d="M292.13-379.45c1.44,0,2.6,1.16,2.6,2.6c0,1.41-1.16,2.57-2.6,2.57s-2.6-1.16-2.6-2.57
			C289.53-378.29,290.69-379.45,292.13-379.45z"/>
		<path style="&st15;" d="M292.34-354.87v159.65c-3.36,0.15-6.88,0.24-10.55,0.24v-165.89L292.34-354.87z M289.38-348.82
			c0-1.44-1.16-2.6-2.6-2.6c-1.44,0-2.6,1.16-2.6,2.6c0,1.44,1.16,2.6,2.6,2.6C288.21-346.22,289.38-347.38,289.38-348.82z
			 M289.38-321.27c0-1.44-1.16-2.6-2.6-2.6c-1.44,0-2.6,1.16-2.6,2.6c0,1.44,1.16,2.6,2.6,2.6
			C288.21-318.67,289.38-319.83,289.38-321.27z M289.38-293.72c0-1.44-1.16-2.6-2.6-2.6c-1.44,0-2.6,1.16-2.6,2.6
			c0,1.44,1.16,2.6,2.6,2.6C288.21-291.13,289.38-292.29,289.38-293.72z M289.38-266.18c0-1.44-1.16-2.6-2.6-2.6
			c-1.44,0-2.6,1.16-2.6,2.6c0,1.44,1.16,2.6,2.6,2.6C288.21-263.58,289.38-264.74,289.38-266.18z M289.38-238.63
			c0-1.44-1.16-2.6-2.6-2.6c-1.44,0-2.6,1.16-2.6,2.6c0,1.44,1.16,2.6,2.6,2.6C288.21-236.03,289.38-237.19,289.38-238.63z
			 M289.38-211.09c0-1.44-1.16-2.6-2.6-2.6c-1.44,0-2.6,1.16-2.6,2.6c0,1.44,1.16,2.6,2.6,2.6
			C288.21-208.49,289.38-209.65,289.38-211.09z"/>
		<path style="&st15;" d="M292.34-354.87l-10.55-5.99v-0.03l-26.32-14.95c6.48-2.84,12.93-7,17.52-13.05
			c2.63,5.56,5.56,11.13,8.77,16.72c1.59,2.81,3.27,5.63,5.01,8.47C288.55-360.77,290.42-357.83,292.34-354.87z M274.03-376.85
			c0-1.44-1.16-2.6-2.6-2.6c-1.41,0-2.57,1.16-2.57,2.6c0,1.41,1.16,2.57,2.57,2.57C272.87-374.28,274.03-375.44,274.03-376.85z"/>
		<circle style="&st19;" cx="286.78" cy="-348.82" r="2.6"/>
		<circle style="&st19;" cx="286.78" cy="-321.27" r="2.6"/>
		<circle style="&st19;" cx="286.78" cy="-293.72" r="2.6"/>
		<circle style="&st19;" cx="286.78" cy="-266.18" r="2.6"/>
		<circle style="&st19;" cx="286.78" cy="-238.63" r="2.6"/>
		<circle style="&st19;" cx="286.78" cy="-211.09" r="2.6"/>
		<path style="&st17;" d="M281.79-360.86v165.89c-44.57,0-68.54-12.9-68.54-12.9c8.16-46.84,10.73-83.95,10.39-112.84
			c-0.73-63.19-15.32-87.01-15.32-87.01l24.98-12.11c-5.29,16.94-4.37,35.46-3.45,44.51c0.34,3.18,3.24,5.41,6.39,4.92
			c4.8-0.73,12.05-2.29,19.23-5.44l26.32,14.95V-360.86z"/>
		<path style="&st19;" d="M271.43-379.45c1.44,0,2.6,1.16,2.6,2.6c0,1.41-1.16,2.57-2.6,2.57c-1.41,0-2.57-1.16-2.57-2.57
			C268.86-378.29,270.02-379.45,271.43-379.45z"/>
		<path style="&st16;" d="M223.65-320.72l-26.69,96.55c-10.06,0.12-20.09-2.45-30.14-7.67l41.52-175.88
			C208.33-407.73,222.91-383.91,223.65-320.72z"/>
		<path style="&st15;" d="M196.96-224.17l-1.83,6.6c-11.77,0.55-21.95-1.71-29.81-7.89l1.5-6.39
			C176.87-226.62,186.9-224.05,196.96-224.17z"/>
	</g>
	<g>
		<polygon style="&st17;" points="176.62,142.25 222.41,226.22 214.44,235.84 211.95,230.93 149.72,108.45 152.16,108.45 
			152.16,106.94 157.37,106.94 170.11,130.28 		"/>
		<polygon style="&st15;" points="211.95,230.93 200.33,239.95 149.51,108.45 149.72,108.45 		"/>
		<polygon style="&st17;" points="200.33,239.95 203.73,248.76 159.2,261.23 134.65,106.94 145.93,106.94 145.93,108.45 
			149.51,108.45 		"/>
		<path style="&st15;" d="M189.96,139.12l-13.34,3.13l-6.51-11.97l-9.5-46.98l2.12-8.45c1.39-5.55,2.08-11.26,2.06-16.97
			c0,0-0.16-32-0.18-39.58c0.73,0.96,1.32,2.06,1.76,3.22C179.16,57.11,186.49,96.69,189.96,139.12z"/>
		<polygon style="&st15;" points="134.65,106.94 159.2,261.23 158.42,256.44 139.69,260.98 		"/>
		<rect x="152.16" y="96.19" style="&st20;" width="5.21" height="10.76"/>
		<polygon style="&st15;" points="145.93,94.72 145.93,96.19 145.93,106.94 145.93,108.45 149.51,108.45 149.72,108.45 
			152.16,108.45 152.16,106.94 152.16,96.19 152.16,94.72 		"/>
		<path style="&st20;" d="M145.93,96.19v10.76h-11.28h-4.93v-4.2h1.53c0.62,0,1.14-0.53,1.14-1.14c0-0.64-0.53-1.14-1.14-1.14h-1.53
			v-4.27H145.93z"/>
		<path style="&st17;" d="M139.69,260.98l0.21,6.49h-17.49V108.45h6.37c0.53,0,0.94-0.43,0.94-0.94v-0.57h4.93L139.69,260.98z"/>
		<path style="&st15;" d="M131.24,100.46h-1.53h-2.1h-4.07c-0.62,0-1.14,0.5-1.14,1.14c0,0.62,0.53,1.14,1.14,1.14h4.07h2.1h1.53
			c0.62,0,1.14-0.53,1.14-1.14C132.39,100.96,131.86,100.46,131.24,100.46z"/>
		<path style="&st17;" d="M122.41,108.45v159.02h-17.47l0.21-6.49l5.02-154.04h4.96v0.57c0,0.5,0.41,0.94,0.94,0.94H122.41z"/>
		<path style="&st20;" d="M123.55,100.46h4.07v-2.79c0-0.53-0.43-0.98-0.96-0.98h-4.25h-4.22c-0.55,0-0.98,0.46-0.98,0.98v7.83
			c0,0.55,0.43,0.98,0.98,0.98h4.22h4.25c0.53,0,0.96-0.43,0.96-0.98v-2.76h-4.07c-0.62,0-1.14-0.53-1.14-1.14
			C122.41,100.96,122.93,100.46,123.55,100.46z"/>
		<path style="&st15;" d="M128.78,94.72h-6.37h-6.35c-0.53,0-0.94,0.43-0.94,0.96v0.5v10.76v0.57c0,0.5,0.41,0.94,0.94,0.94h6.35
			h6.37c0.53,0,0.94-0.43,0.94-0.94v-0.57v-4.2h-2.1v2.76c0,0.55-0.43,0.98-0.96,0.98h-4.25h-4.22c-0.55,0-0.98-0.43-0.98-0.98
			v-7.83c0-0.53,0.43-0.98,0.98-0.98h4.22h4.25c0.53,0,0.96,0.46,0.96,0.98v2.79h2.1v-4.27v-0.5
			C129.71,95.16,129.3,94.72,128.78,94.72z"/>
		<path style="&st17;" d="M164.61,18.31c-1.21-1.6-2.83-2.9-4.68-3.79l-10.25-4.8c0,0-8.82,40.72-27.27,40.72
			c-18.45,0-27.25-40.72-27.25-40.72l-10.28,4.8c-1.83,0.87-3.45,2.17-4.66,3.77c-0.05,7.49-0.18,39.6-0.18,39.6
			C80,63.6,80.7,69.31,82.1,74.86l2.12,8.45v0.02l3.22,12.86h5.23v-1.46h6.23v1.46h16.21v-0.5c0-0.53,0.41-0.96,0.94-0.96h6.35h6.37
			c0.53,0,0.94,0.43,0.94,0.96v0.5h16.21v-1.46h6.23v1.46h5.21l3.24-12.88l2.12-8.45c1.39-5.55,2.08-11.26,2.06-16.97
			C164.79,57.89,164.63,25.89,164.61,18.31z"/>
		<path style="&st20;" d="M146.89,8.42c0,0-8.52,39.3-24.48,39.3S97.92,8.42,97.92,8.42l-2.76,1.3c0,0,8.79,40.72,27.25,40.72
			c18.45,0,27.27-40.72,27.27-40.72L146.89,8.42z"/>
		<path style="&st18;" d="M122.41,15.04c-13.41,0-24.48-6.62-24.48-6.62s8.52,39.3,24.48,39.3s24.48-39.3,24.48-39.3
			S135.83,15.04,122.41,15.04z"/>
		<polygon style="&st20;" points="115.12,96.19 115.12,106.94 110.16,106.94 98.91,106.94 98.91,96.19 		"/>
		<polygon style="&st15;" points="110.16,106.94 105.14,260.98 86.39,256.44 		"/>
		<polygon style="&st17;" points="110.16,106.94 86.39,256.44 85.64,261.23 41.08,248.76 44.48,239.95 95.3,108.45 98.91,108.45 
			98.91,106.94 		"/>
		<polygon style="&st15;" points="92.67,94.72 92.67,96.19 92.67,106.94 92.67,108.45 95.11,108.45 95.3,108.45 98.91,108.45 
			98.91,106.94 98.91,96.19 98.91,94.72 		"/>
		<polygon style="&st15;" points="95.3,108.45 44.48,239.95 32.88,230.93 95.11,108.45 		"/>
		<polygon style="&st17;" points="95.11,108.45 32.88,230.93 30.39,235.84 22.4,226.22 68.19,142.25 74.72,130.28 74.72,130.26 
			87.44,106.94 92.67,106.94 92.67,108.45 		"/>
		<rect x="87.44" y="96.19" style="&st20;" width="5.23" height="10.76"/>
		<path style="&st15;" d="M84.22,83.31v0.02l-9.5,46.93v0.02l-6.53,11.97l-13.31-3.13c3.47-42.43,10.8-82.01,23.57-117.59
			c0.43-1.16,1.03-2.26,1.78-3.24c-0.05,7.49-0.18,39.6-0.18,39.6C80,63.6,80.7,69.31,82.1,74.86L84.22,83.31z"/>
	</g>
	<g>
		<polygon style="&st21;" points="1063.35,-334.06 1066.46,-319.44 1041.49,-313.01 1037.74,-328.65 1050.22,-331.28 
			1050.53,-329.84 1056.7,-331.13 1056.39,-332.57 		"/>
		<path style="&st21;" d="M1037.74-454.94l24.06,113.55l-6.96,1.46l-0.29-1.4l-6.14,1.31l0.29,1.4l-12.73,2.66l-14.5-60.34
			l10.58-62.56l3.02,0.98C1036.41-457.47,1037.43-456.34,1037.74-454.94z"/>
		<polygon style="&st22;" points="1056.39,-332.57 1054.84,-339.93 1054.55,-341.33 1048.41,-340.02 1048.69,-338.63 
			1050.22,-331.28 1050.53,-329.84 1056.7,-331.13 		"/>
		<g>
			<polygon style="&st23;" points="1063.53,-341.75 1061.8,-341.4 1054.84,-339.93 1056.39,-332.57 1063.35,-334.06 
				1065.08,-334.41 			"/>
			<polygon style="&st23;" points="1035.96,-335.96 1034.39,-335.63 1035.94,-328.27 1037.74,-328.65 1050.22,-331.28 
				1048.69,-338.63 			"/>
		</g>
		<path style="&st23;" d="M1052.18-237.25c0,0-26.86,10.18-72.83,10.18c-46,0-72.85-10.18-72.85-10.18
			c3.39-37.86,11.18-68.53,18.38-90.31c8.03-24.17,15.37-37.41,15.37-37.41h5.97v1.42h5.92v-1.42h17.59v0.31
			c0,0.6,0.49,1.11,1.09,1.11h17.05c0.6,0,1.11-0.51,1.11-1.11v-0.31h17.59v1.42h5.9v-1.42h5.97c0,0,7.34,13.24,15.37,37.41
			C1041-305.78,1048.76-275.11,1052.18-237.25z M1019.13-350.71l-0.91-2.95l-20.98,6.52l0.91,2.93L1019.13-350.71z M998.33-317.05
			c0-1.73-1.4-3.13-3.13-3.13c-1.73,0-3.13,1.4-3.13,3.13c0,1.73,1.4,3.13,3.13,3.13C996.93-313.92,998.33-315.32,998.33-317.05z
			 M998.33-296.11c0-1.73-1.4-3.13-3.13-3.13c-1.73,0-3.13,1.4-3.13,3.13s1.4,3.13,3.13,3.13
			C996.93-292.98,998.33-294.38,998.33-296.11z M966.59-317.05c0-1.73-1.4-3.13-3.13-3.13s-3.13,1.4-3.13,3.13
			c0,1.73,1.4,3.13,3.13,3.13S966.59-315.32,966.59-317.05z M966.59-296.11c0-1.73-1.4-3.13-3.13-3.13s-3.13,1.4-3.13,3.13
			s1.4,3.13,3.13,3.13S966.59-294.38,966.59-296.11z M960.52-344.21l0.91-2.93l-20.98-6.52l-0.91,2.95L960.52-344.21z"/>
		<path style="&st23;" d="M1032.04-458.87l-10.58,62.56l-3.04,17.99h-5.97v-1.4h-5.9v1.4h-9.65v-10.25v-4.24
			c0-6.39-1.77-12.64-5.12-18.1c-0.18-0.29-0.35-0.58-0.53-0.86c13.75-8.87,21.58-17.54,25.04-21.93c1.24-1.6,0.98-3.88-0.6-5.15
			l-2.06-1.66l10.56-11.78c1.49-1.66,1.37-4.21-0.24-5.77l-5.52-5.23L1032.04-458.87z"/>
		<path style="&st21;" d="M1023.94-458.05c1.62,1.55,1.73,4.1,0.24,5.77l-10.56,11.78l-19.6-15.79c1.44-2.64,2.26-5.21,2.64-7.67
			c1.02-6.39-0.89-11.82-2.35-14.81c-0.75-1.57-2.33-2.53-4.06-2.53v-4.75h1.53c1.69,0,3.3,0.67,4.52,1.82l22.11,20.96
			L1023.94-458.05z"/>
		<polygon style="&st21;" points="1018.22,-353.66 1019.13,-350.71 998.15,-344.21 997.24,-347.14 		"/>
		<rect x="1012.46" y="-378.32" style="&st12;" width="5.97" height="13.35"/>
		<path style="&st22;" d="M1015.69-438.84c1.57,1.26,1.84,3.55,0.6,5.15c-3.46,4.39-11.29,13.06-25.04,21.93
			c-3.28-5.34-7.63-12.44-11.91-19.54c5.9-9.8,11.78-19.63,14.68-24.99l19.6,15.79L1015.69-438.84z"/>
		<polygon style="&st21;" points="1006.56,-379.72 1006.56,-378.32 1006.56,-364.97 1006.56,-363.55 1012.46,-363.55 
			1012.46,-364.97 1012.46,-378.32 1012.46,-379.72 		"/>
		<path style="&st12;" d="M1006.56-378.32v13.35h-17.59v-5.43h1.66c0.69,0,1.22-0.55,1.22-1.24c0-0.67-0.53-1.22-1.22-1.22h-1.66
			v-5.46h7.94H1006.56z"/>
		<path style="&st23;" d="M996.91-388.57v10.25h-7.94v-0.29c0-0.62-0.51-1.11-1.11-1.11h-17.05c-0.6,0-1.09,0.49-1.09,1.11v0.29
			h-17.59v-1.4h-5.92v1.4h-5.97l-3.04-17.99l-10.58-62.56l13.62-4.41l-5.52,5.23c-1.62,1.55-1.73,4.1-0.24,5.77l10.56,11.78
			l-2.06,1.66c-1.57,1.26-1.82,3.57-0.58,5.17c4.99,6.34,19.07,21.51,46.75,33.42c2.62,1.11,4.75,3.06,6.1,5.43
			c-0.02,0-0.02,0-0.04,0c-1.73,0-3.13,1.4-3.13,3.13c0,1.73,1.4,3.13,3.13,3.13c0.62,0,1.2-0.2,1.69-0.51
			C996.91-388.9,996.91-388.75,996.91-388.57z M966.59-406.91c0-1.73-1.4-3.13-3.13-3.13s-3.13,1.4-3.13,3.13
			c0,1.73,1.4,3.13,3.13,3.13S966.59-405.18,966.59-406.91z M966.59-391.7c0-1.73-1.4-3.13-3.13-3.13s-3.13,1.4-3.13,3.13
			c0,1.73,1.4,3.13,3.13,3.13S966.59-389.97,966.59-391.7z"/>
		<path style="&st22;" d="M995.25-394.82c-1.35-2.37-3.48-4.32-6.1-5.43c-27.68-11.91-41.76-27.08-46.75-33.42
			c-1.24-1.6-1-3.9,0.58-5.17l2.06-1.66l19.6-15.79c2.91,5.37,8.76,15.19,14.7,24.99c4.28,7.1,8.63,14.19,11.91,19.54
			c0.18,0.29,0.35,0.58,0.53,0.86c3.35,5.46,5.12,11.71,5.12,18.1v4.24c0-0.18,0-0.33-0.02-0.51
			C996.82-391.14,996.22-393.09,995.25-394.82z"/>
		<circle style="&st19;" cx="995.2" cy="-317.05" r="3.13"/>
		<circle style="&st19;" cx="995.2" cy="-296.11" r="3.13"/>
		<path style="&st19;" d="M996.89-389.08c-0.49,0.31-1.06,0.51-1.69,0.51c-1.73,0-3.13-1.4-3.13-3.13c0-1.73,1.4-3.13,3.13-3.13
			c0.02,0,0.02,0,0.04,0C996.22-393.09,996.82-391.14,996.89-389.08z"/>
		<path style="&st24;" d="M994.32-478.79c-0.75-1.57-2.33-2.53-4.06-2.53h-10.91h-10.93c-1.73,0-3.3,0.95-4.06,2.53
			c-1.46,2.99-3.37,8.43-2.35,14.81c0.38,2.46,1.2,5.03,2.64,7.67c2.91,5.37,8.76,15.19,14.7,24.99c5.9-9.8,11.78-19.63,14.68-24.99
			c1.44-2.64,2.26-5.21,2.64-7.67C997.69-470.36,995.78-475.79,994.32-478.79z"/>
		<path style="&st21;" d="M990.26-486.06v4.75h-10.91h-10.93c-1.73,0-3.3,0.95-4.06,2.53c-1.46,2.99-3.37,8.43-2.35,14.81
			c0.38,2.46,1.2,5.03,2.64,7.67l-19.6,15.79l-10.56-11.78c-1.49-1.66-1.37-4.21,0.24-5.77l5.52-5.23l22.11-20.96
			c1.22-1.15,2.84-1.82,4.52-1.82h12.46H990.26z"/>
		<path style="&st19;" d="M987.86-379.72h-17.05c-0.6,0-1.09,0.49-1.09,1.11v0.29v13.35v0.31c0,0.6,0.49,1.11,1.09,1.11h17.05
			c0.6,0,1.11-0.51,1.11-1.11v-0.31v-5.43h-2.37v3.84c0,0.44-0.35,0.82-0.8,0.82h-12.91c-0.47,0-0.82-0.38-0.82-0.82v-10.13
			c0-0.44,0.35-0.82,0.82-0.82h12.91c0.44,0,0.8,0.38,0.8,0.82v3.84h2.37v-5.46v-0.29C988.97-379.23,988.46-379.72,987.86-379.72z"
			/>
		<path style="&st12;" d="M986.6-370.41v3.84c0,0.44-0.35,0.82-0.8,0.82h-12.91c-0.47,0-0.82-0.38-0.82-0.82v-10.13
			c0-0.44,0.35-0.82,0.82-0.82h12.91c0.44,0,0.8,0.38,0.8,0.82v3.84h-6.03c-0.69,0-1.22,0.55-1.22,1.22c0,0.69,0.53,1.24,1.22,1.24
			H986.6z"/>
		<path style="&st19;" d="M990.63-372.87h-1.66h-2.37h-6.03c-0.69,0-1.22,0.55-1.22,1.22c0,0.69,0.53,1.24,1.22,1.24h6.03h2.37h1.66
			c0.69,0,1.22-0.55,1.22-1.24C991.85-372.31,991.32-372.87,990.63-372.87z"/>
		<rect x="952.13" y="-378.32" style="&st12;" width="17.59" height="13.35"/>
		<circle style="&st19;" cx="963.47" cy="-406.91" r="3.13"/>
		<circle style="&st19;" cx="963.47" cy="-391.7" r="3.13"/>
		<circle style="&st19;" cx="963.47" cy="-317.05" r="3.13"/>
		<circle style="&st19;" cx="963.47" cy="-296.11" r="3.13"/>
		<polygon style="&st21;" points="961.43,-347.14 960.52,-344.21 939.54,-350.71 940.45,-353.66 		"/>
		<polygon style="&st21;" points="946.21,-379.72 946.21,-378.32 946.21,-364.97 946.21,-363.55 952.13,-363.55 952.13,-364.97 
			952.13,-378.32 952.13,-379.72 		"/>
		<rect x="940.25" y="-378.32" style="&st12;" width="5.97" height="13.35"/>
		<path style="&st21;" d="M926.63-458.87l10.58,62.56l-14.5,60.34L910-338.63l0.29-1.4l-6.17-1.31l-0.29,1.4l-6.96-1.46
			l24.08-113.55c0.29-1.4,1.31-2.53,2.66-2.95L926.63-458.87z"/>
		<polygon style="&st21;" points="920.93,-328.65 917.18,-313.01 892.21,-319.44 895.32,-334.06 902.28,-332.57 901.97,-331.13 
			908.13,-329.84 908.45,-331.28 		"/>
		<polygon style="&st22;" points="904.12,-341.33 903.83,-339.93 902.28,-332.57 901.97,-331.13 908.13,-329.84 908.45,-331.28 
			910,-338.63 910.29,-340.02 		"/>
		<g>
			<polygon style="&st23;" points="922.7,-335.96 910,-338.63 908.45,-331.28 920.93,-328.65 922.73,-328.27 924.28,-335.63 			"/>
			<polygon style="&st23;" points="895.14,-341.75 893.59,-334.41 895.32,-334.06 902.28,-332.57 903.83,-339.93 896.87,-341.4 			
				"/>
		</g>
	</g>
	<g>
		<text transform="matrix(1 0 0 1 1081.1436 -99.3049)" style="&st4; font-family:'CooperHewitt-Light'; font-size:28.7736px;">Winter Clothes</text>
		<g>
			<path style="&st4;" d="M1270.68-89.39h-197.56v-42.19h197.56V-89.39z M1074.11-90.39h195.56v-40.19h-195.56V-90.39z"/>
		</g>
	</g>
</g>
</svg>
