<?xml version="1.0" encoding="utf-8"?>
<!-- Generator: Adobe Illustrator 21.0.0, SVG Export Plug-In . SVG Version: 6.00 Build 0)  -->
<!DOCTYPE svg PUBLIC "-//W3C//DTD SVG 1.1//EN" "http://www.w3.org/Graphics/SVG/1.1/DTD/svg11.dtd" [
	<!ENTITY st0 "fill:none;">
	<!ENTITY st1 "fill:#3B4D57;">
	<!ENTITY st2 "fill:none;stroke:#506670;stroke-width:3;stroke-miterlimit:10;">
	<!ENTITY st3 "fill:url(#XMLID_3_);">
	<!ENTITY st4 "fill:#F9F8F7;">
	<!ENTITY st5 "fill:#718891;">
	<!ENTITY st6 "fill:#7C919B;">
	<!ENTITY st7 "fill:#FF9878;">
	<!ENTITY st8 "fill:#FC8B60;">
	<!ENTITY st9 "fill:#E56D4C;">
	<!ENTITY st10 "fill:#F47F5B;">
	<!ENTITY st11 "fill:#F45B5B;">
	<!ENTITY st12 "fill:#D8D0BB;">
	<!ENTITY st13 "fill:#FC6460;">
	<!ENTITY st14 "fill:#E55555;">
	<!ENTITY st15 "fill:#E2C3A8;">
	<!ENTITY st16 "fill:#E8CFB5;">
	<!ENTITY st17 "fill:#EFD7B8;">
	<!ENTITY st18 "fill:#D3AF94;">
	<!ENTITY st19 "fill:#E9E5D9;">
	<!ENTITY st20 "fill:#F9EBDC;">
	<!ENTITY st21 "fill:#97B797;">
	<!ENTITY st22 "fill:#AFC9B0;">
	<!ENTITY st23 "fill:#9DBF9F;">
	<!ENTITY st24 "fill:#8CAA8C;">
]>
<svg version="1.1" xmlns="http://www.w3.org/2000/svg" xmlns:xlink="http://www.w3.org/1999/xlink" x="0px" y="0px"
	 viewBox="0 0 223.21 269.68" style="enable-background:new 0 0 223.21 269.68;" xml:space="preserve">
<pattern  x="1177.5" y="275.43" width="204.49" height="204.49" patternUnits="userSpaceOnUse" id="New_Pattern" viewBox="0 -204.49 204.49 204.49" style="overflow:visible;">
	<g>
		<rect x="0" y="-204.49" style="&st0;" width="204.49" height="204.49"/>
		<rect x="0" y="-204.49" style="&st1;" width="204.49" height="204.49"/>
		<g>
			<line style="&st2;" x1="29" y1="-190.16" x2="29" y2="-169.83"/>
			<line style="&st2;" x1="18.83" y1="-179.99" x2="39.17" y2="-179.99"/>
		</g>
		<g>
			<line style="&st2;" x1="161.33" y1="-51.08" x2="161.33" y2="-30.75"/>
			<line style="&st2;" x1="151.17" y1="-40.91" x2="171.5" y2="-40.91"/>
		</g>
		<g>
			<line style="&st2;" x1="171.5" y1="-191.41" x2="171.5" y2="-171.08"/>
			<line style="&st2;" x1="161.33" y1="-181.24" x2="181.67" y2="-181.24"/>
		</g>
		<g>
			<line style="&st2;" x1="69.25" y1="-97.66" x2="69.25" y2="-77.33"/>
			<line style="&st2;" x1="59.08" y1="-87.5" x2="79.42" y2="-87.5"/>
		</g>
		<g>
			<line style="&st2;" x1="49.33" y1="-134.74" x2="49.33" y2="-122.91"/>
			<line style="&st2;" x1="43.42" y1="-128.83" x2="55.25" y2="-128.83"/>
		</g>
		<g>
			<line style="&st2;" x1="88.33" y1="-175.74" x2="88.33" y2="-163.91"/>
			<line style="&st2;" x1="82.42" y1="-169.83" x2="94.25" y2="-169.83"/>
		</g>
		<g>
			<line style="&st2;" x1="186" y1="-127.16" x2="186" y2="-115.33"/>
			<line style="&st2;" x1="180.08" y1="-121.25" x2="191.92" y2="-121.25"/>
		</g>
		<g>
			<line style="&st2;" x1="20.33" y1="-22.66" x2="20.33" y2="-10.83"/>
			<line style="&st2;" x1="14.42" y1="-16.75" x2="26.25" y2="-16.75"/>
		</g>
		<g>
			<line style="&st2;" x1="113.25" y1="-106" x2="113.25" y2="-94.16"/>
			<line style="&st2;" x1="107.33" y1="-100.08" x2="119.17" y2="-100.08"/>
		</g>
		<g>
			<line style="&st2;" x1="91.75" y1="-39.16" x2="91.75" y2="-27.33"/>
			<line style="&st2;" x1="85.83" y1="-33.24" x2="97.67" y2="-33.24"/>
		</g>
	</g>
</pattern>
<g id="BACKGROUND">
	<pattern  id="XMLID_3_" xlink:href="#New_Pattern" patternTransform="matrix(0.3 0 0 0.3 -5942.9209 -5572.5835)">
	</pattern>
	<rect id="XMLID_1_" x="1177.5" y="275.43" style="&st3;" width="800" height="800"/>
</g>
<g id="Designed_By_Freepik">
	<g id="Freepik_Sign">
		<g id="XMLID_306_">
			<path id="XMLID_550_" style="&st4;" d="M1466,1016.41v-0.26c-0.35,0.4-0.69,0.72-1.03,0.97c-0.34,0.25-0.71,0.44-1.1,0.57
				c-0.4,0.13-0.83,0.2-1.3,0.2c-0.62,0-1.2-0.13-1.72-0.39c-0.53-0.26-0.99-0.64-1.37-1.13c-0.39-0.49-0.68-1.06-0.88-1.72
				c-0.2-0.66-0.3-1.37-0.3-2.14c0-1.62,0.4-2.88,1.19-3.79c0.79-0.9,1.83-1.36,3.13-1.36c0.75,0,1.38,0.13,1.89,0.38
				c0.51,0.26,1.01,0.65,1.5,1.18v-3.83c0-0.53,0.11-0.93,0.32-1.21c0.21-0.27,0.51-0.41,0.91-0.41c0.39,0,0.69,0.13,0.91,0.38
				c0.21,0.25,0.32,0.62,0.32,1.11v11.44c0,0.49-0.11,0.86-0.34,1.11c-0.23,0.25-0.52,0.37-0.88,0.37c-0.35,0-0.65-0.13-0.88-0.38
				C1466.11,1017.25,1466,1016.88,1466,1016.41z M1460.9,1012.6c0,0.7,0.11,1.3,0.33,1.79c0.22,0.49,0.52,0.87,0.9,1.12
				c0.38,0.25,0.8,0.38,1.24,0.38c0.46,0,0.87-0.12,1.25-0.36c0.38-0.24,0.68-0.6,0.9-1.09c0.23-0.49,0.34-1.11,0.34-1.84
				c0-0.69-0.11-1.29-0.34-1.78c-0.22-0.5-0.53-0.88-0.91-1.14c-0.38-0.26-0.8-0.39-1.26-0.39c-0.47,0-0.9,0.13-1.27,0.4
				c-0.37,0.27-0.66,0.65-0.87,1.16C1461,1011.35,1460.9,1011.94,1460.9,1012.6z"/>
			<path id="XMLID_546_" style="&st4;" d="M1477.43,1013.26h-5.07c0.01,0.59,0.12,1.11,0.36,1.56c0.23,0.45,0.54,0.79,0.92,1.02
				c0.38,0.23,0.81,0.34,1.27,0.34c0.31,0,0.59-0.04,0.85-0.11c0.26-0.07,0.5-0.19,0.75-0.34c0.24-0.15,0.46-0.32,0.66-0.5
				c0.2-0.18,0.46-0.42,0.79-0.72c0.13-0.11,0.32-0.17,0.57-0.17c0.27,0,0.48,0.07,0.64,0.22c0.16,0.15,0.25,0.35,0.25,0.62
				c0,0.23-0.09,0.51-0.28,0.82c-0.19,0.31-0.46,0.62-0.83,0.9c-0.37,0.29-0.84,0.53-1.4,0.72c-0.56,0.19-1.2,0.29-1.93,0.29
				c-1.66,0-2.96-0.47-3.88-1.42c-0.92-0.95-1.39-2.24-1.39-3.87c0-0.77,0.11-1.48,0.34-2.13c0.23-0.66,0.56-1.22,1-1.69
				c0.44-0.47,0.98-0.83,1.62-1.08c0.64-0.25,1.35-0.38,2.13-0.38c1.01,0,1.88,0.21,2.61,0.64c0.73,0.43,1.27,0.98,1.63,1.66
				c0.36,0.68,0.54,1.37,0.54,2.07c0,0.65-0.19,1.08-0.56,1.27C1478.63,1013.16,1478.11,1013.26,1477.43,1013.26z M1472.36,1011.78
				h4.7c-0.06-0.89-0.3-1.55-0.72-1.99c-0.41-0.44-0.96-0.66-1.64-0.66c-0.65,0-1.18,0.22-1.59,0.67
				C1472.7,1010.25,1472.45,1010.91,1472.36,1011.78z"/>
			<path id="XMLID_542_" style="&st4;" d="M1489.25,1014.5c0,0.71-0.17,1.33-0.52,1.84c-0.35,0.51-0.86,0.9-1.54,1.16
				c-0.68,0.26-1.51,0.39-2.48,0.39c-0.93,0-1.73-0.14-2.39-0.43c-0.66-0.28-1.16-0.64-1.47-1.07c-0.32-0.43-0.48-0.86-0.48-1.29
				c0-0.29,0.1-0.53,0.3-0.73c0.2-0.2,0.46-0.3,0.77-0.3c0.27,0,0.48,0.07,0.63,0.2s0.29,0.32,0.42,0.56
				c0.27,0.46,0.59,0.81,0.96,1.04c0.37,0.23,0.87,0.34,1.52,0.34c0.52,0,0.94-0.12,1.28-0.35c0.33-0.23,0.5-0.5,0.5-0.79
				c0-0.46-0.17-0.79-0.52-1c-0.35-0.21-0.91-0.41-1.71-0.6c-0.89-0.22-1.62-0.46-2.18-0.7c-0.56-0.24-1.01-0.56-1.34-0.96
				c-0.34-0.4-0.5-0.89-0.5-1.47c0-0.52,0.15-1.01,0.47-1.47c0.31-0.46,0.77-0.83,1.37-1.11c0.6-0.28,1.33-0.41,2.19-0.41
				c0.67,0,1.27,0.07,1.81,0.21c0.54,0.14,0.98,0.33,1.34,0.56c0.36,0.23,0.63,0.49,0.82,0.78c0.19,0.29,0.28,0.56,0.28,0.84
				c0,0.3-0.1,0.54-0.3,0.73c-0.2,0.19-0.48,0.29-0.85,0.29c-0.27,0-0.49-0.08-0.68-0.23c-0.19-0.15-0.4-0.38-0.64-0.68
				c-0.2-0.25-0.43-0.46-0.69-0.61c-0.27-0.15-0.63-0.23-1.08-0.23c-0.47,0-0.86,0.1-1.17,0.3c-0.31,0.2-0.47,0.45-0.47,0.74
				c0,0.27,0.11,0.5,0.34,0.67c0.23,0.18,0.54,0.32,0.92,0.43c0.39,0.11,0.92,0.25,1.6,0.42c0.8,0.2,1.46,0.43,1.97,0.7
				c0.51,0.27,0.9,0.59,1.16,0.96C1489.11,1013.6,1489.25,1014.03,1489.25,1014.5z"/>
			<path id="XMLID_530_" style="&st4;" d="M1491.89,1006.14c-0.36,0-0.67-0.11-0.93-0.33c-0.26-0.22-0.38-0.54-0.38-0.94
				c0-0.37,0.13-0.67,0.39-0.91c0.26-0.24,0.57-0.36,0.92-0.36c0.34,0,0.63,0.11,0.89,0.32c0.26,0.21,0.39,0.53,0.39,0.94
				c0,0.4-0.13,0.71-0.38,0.94C1492.54,1006.03,1492.24,1006.14,1491.89,1006.14z M1493.18,1008.82v7.49c0,0.52-0.12,0.91-0.37,1.18
				c-0.25,0.27-0.56,0.4-0.94,0.4c-0.38,0-0.69-0.13-0.93-0.41c-0.24-0.27-0.36-0.66-0.36-1.17v-7.42c0-0.51,0.12-0.9,0.36-1.16
				c0.24-0.26,0.55-0.39,0.93-0.39c0.38,0,0.69,0.13,0.94,0.39C1493.05,1008,1493.18,1008.36,1493.18,1008.82z"/>
			<path id="XMLID_513_" style="&st4;" d="M1504.54,1009.25v7.53c0,0.86-0.09,1.6-0.28,2.22c-0.18,0.62-0.48,1.13-0.88,1.54
				c-0.41,0.4-0.94,0.71-1.59,0.9c-0.66,0.2-1.47,0.29-2.45,0.29c-0.89,0-1.69-0.13-2.39-0.38c-0.7-0.25-1.24-0.57-1.62-0.97
				c-0.38-0.4-0.57-0.8-0.57-1.22c0-0.32,0.11-0.58,0.32-0.77c0.21-0.2,0.48-0.3,0.78-0.3c0.38,0,0.71,0.17,1,0.5
				c0.14,0.17,0.28,0.34,0.43,0.52c0.15,0.18,0.31,0.32,0.49,0.45c0.18,0.12,0.4,0.21,0.65,0.28c0.25,0.06,0.55,0.09,0.87,0.09
				c0.67,0,1.19-0.09,1.56-0.28c0.37-0.19,0.63-0.45,0.78-0.78c0.15-0.33,0.24-0.69,0.26-1.08c0.03-0.38,0.04-1,0.06-1.85
				c-0.4,0.56-0.86,0.98-1.38,1.27c-0.52,0.29-1.14,0.44-1.87,0.44c-0.87,0-1.63-0.22-2.28-0.67c-0.65-0.44-1.15-1.06-1.5-1.86
				c-0.35-0.8-0.52-1.72-0.52-2.76c0-0.78,0.11-1.48,0.32-2.11c0.21-0.63,0.52-1.16,0.91-1.59c0.39-0.43,0.85-0.75,1.36-0.97
				c0.51-0.22,1.08-0.33,1.69-0.33c0.73,0,1.37,0.14,1.91,0.42c0.54,0.28,1.04,0.72,1.5,1.33v-0.35c0-0.45,0.11-0.8,0.33-1.04
				c0.22-0.25,0.51-0.37,0.86-0.37c0.5,0,0.83,0.16,1,0.49C1504.45,1008.16,1504.54,1008.63,1504.54,1009.25z M1497.02,1012.53
				c0,1.05,0.23,1.85,0.69,2.38c0.46,0.54,1.05,0.81,1.78,0.81c0.43,0,0.84-0.12,1.22-0.35c0.38-0.23,0.7-0.58,0.94-1.04
				c0.24-0.46,0.36-1.03,0.36-1.7c0-1.06-0.23-1.88-0.7-2.47c-0.47-0.59-1.08-0.88-1.84-0.88c-0.74,0-1.33,0.28-1.78,0.85
				C1497.25,1010.7,1497.02,1011.5,1497.02,1012.53z"/>
			<path id="XMLID_504_" style="&st4;" d="M1508.66,1008.78v0.31c0.46-0.6,0.95-1.04,1.5-1.32c0.54-0.28,1.16-0.42,1.87-0.42
				c0.68,0,1.29,0.15,1.83,0.45c0.54,0.3,0.94,0.72,1.21,1.26c0.17,0.32,0.28,0.66,0.33,1.03c0.05,0.37,0.08,0.84,0.08,1.41v4.82
				c0,0.52-0.12,0.91-0.36,1.18c-0.24,0.27-0.55,0.4-0.93,0.4c-0.39,0-0.7-0.13-0.94-0.41c-0.24-0.27-0.36-0.66-0.36-1.17v-4.32
				c0-0.85-0.12-1.51-0.36-1.96c-0.24-0.45-0.71-0.68-1.42-0.68c-0.46,0-0.88,0.14-1.26,0.41s-0.66,0.65-0.84,1.13
				c-0.13,0.39-0.19,1.11-0.19,2.17v3.25c0,0.53-0.12,0.92-0.37,1.18c-0.24,0.26-0.56,0.39-0.94,0.39c-0.37,0-0.68-0.13-0.92-0.41
				c-0.24-0.27-0.36-0.66-0.36-1.17v-7.49c0-0.49,0.11-0.86,0.32-1.11c0.22-0.24,0.51-0.37,0.88-0.37c0.23,0,0.43,0.05,0.62,0.16
				c0.18,0.11,0.33,0.27,0.44,0.48C1508.6,1008.21,1508.66,1008.47,1508.66,1008.78z"/>
			<path id="XMLID_482_" style="&st4;" d="M1524.43,1013.26h-5.07c0.01,0.59,0.12,1.11,0.36,1.56c0.23,0.45,0.54,0.79,0.92,1.02
				c0.38,0.23,0.81,0.34,1.27,0.34c0.31,0,0.59-0.04,0.85-0.11c0.26-0.07,0.5-0.19,0.75-0.34c0.24-0.15,0.46-0.32,0.67-0.5
				c0.2-0.18,0.46-0.42,0.79-0.72c0.13-0.11,0.32-0.17,0.57-0.17c0.27,0,0.48,0.07,0.65,0.22s0.25,0.35,0.25,0.62
				c0,0.23-0.09,0.51-0.28,0.82c-0.18,0.31-0.46,0.62-0.83,0.9c-0.37,0.29-0.83,0.53-1.4,0.72c-0.56,0.19-1.21,0.29-1.93,0.29
				c-1.66,0-2.96-0.47-3.89-1.42c-0.92-0.95-1.39-2.24-1.39-3.87c0-0.77,0.11-1.48,0.34-2.13c0.23-0.66,0.56-1.22,1-1.69
				c0.44-0.47,0.98-0.83,1.61-1.08c0.64-0.25,1.35-0.38,2.13-0.38c1.01,0,1.88,0.21,2.61,0.64c0.73,0.43,1.27,0.98,1.63,1.66
				c0.36,0.68,0.54,1.37,0.54,2.07c0,0.65-0.19,1.08-0.56,1.27C1525.63,1013.16,1525.11,1013.26,1524.43,1013.26z M1519.36,1011.78
				h4.7c-0.06-0.89-0.3-1.55-0.72-1.99c-0.41-0.44-0.96-0.66-1.64-0.66c-0.65,0-1.18,0.22-1.59,0.67
				C1519.7,1010.25,1519.45,1010.91,1519.36,1011.78z"/>
			<path id="XMLID_476_" style="&st4;" d="M1535,1016.41v-0.26c-0.35,0.4-0.69,0.72-1.03,0.97c-0.34,0.25-0.71,0.44-1.1,0.57
				c-0.4,0.13-0.83,0.2-1.3,0.2c-0.62,0-1.2-0.13-1.72-0.39c-0.53-0.26-0.99-0.64-1.37-1.13c-0.39-0.49-0.68-1.06-0.88-1.72
				c-0.2-0.66-0.3-1.37-0.3-2.14c0-1.62,0.4-2.88,1.19-3.79c0.79-0.9,1.83-1.36,3.13-1.36c0.75,0,1.38,0.13,1.89,0.38
				c0.51,0.26,1.01,0.65,1.5,1.18v-3.83c0-0.53,0.11-0.93,0.32-1.21c0.21-0.27,0.51-0.41,0.91-0.41c0.39,0,0.69,0.13,0.91,0.38
				c0.21,0.25,0.32,0.62,0.32,1.11v11.44c0,0.49-0.11,0.86-0.34,1.11c-0.23,0.25-0.52,0.37-0.88,0.37c-0.35,0-0.65-0.13-0.88-0.38
				C1535.12,1017.25,1535,1016.88,1535,1016.41z M1529.9,1012.6c0,0.7,0.11,1.3,0.33,1.79c0.22,0.49,0.52,0.87,0.9,1.12
				c0.38,0.25,0.79,0.38,1.24,0.38c0.46,0,0.87-0.12,1.25-0.36c0.38-0.24,0.68-0.6,0.9-1.09c0.23-0.49,0.34-1.11,0.34-1.84
				c0-0.69-0.11-1.29-0.34-1.78c-0.22-0.5-0.53-0.88-0.91-1.14c-0.38-0.26-0.8-0.39-1.26-0.39c-0.47,0-0.9,0.13-1.27,0.4
				c-0.37,0.27-0.66,0.65-0.87,1.16S1529.9,1011.94,1529.9,1012.6z"/>
			<path id="XMLID_309_" style="&st4;" d="M1545.6,1004.97v3.96c0.49-0.51,0.98-0.89,1.49-1.16c0.51-0.27,1.13-0.4,1.88-0.4
				c0.86,0,1.62,0.21,2.27,0.61c0.65,0.41,1.15,1,1.51,1.78c0.36,0.78,0.54,1.7,0.54,2.76c0,0.79-0.1,1.5-0.3,2.16
				c-0.2,0.66-0.49,1.22-0.87,1.71c-0.38,0.48-0.84,0.85-1.38,1.12c-0.54,0.26-1.14,0.39-1.79,0.39c-0.4,0-0.77-0.05-1.13-0.14
				c-0.35-0.09-0.65-0.22-0.9-0.38c-0.25-0.15-0.46-0.31-0.63-0.48c-0.17-0.16-0.4-0.41-0.69-0.74v0.26c0,0.49-0.12,0.86-0.35,1.11
				c-0.23,0.25-0.53,0.37-0.89,0.37c-0.37,0-0.66-0.12-0.88-0.37c-0.22-0.25-0.33-0.62-0.33-1.11v-11.32c0-0.53,0.11-0.92,0.32-1.19
				c0.21-0.27,0.51-0.4,0.89-0.4c0.4,0,0.71,0.13,0.92,0.38C1545.49,1004.13,1545.6,1004.5,1545.6,1004.97z M1545.72,1012.68
				c0,1.03,0.24,1.82,0.71,2.38c0.47,0.55,1.09,0.83,1.86,0.83c0.65,0,1.21-0.28,1.69-0.85c0.47-0.57,0.71-1.38,0.71-2.44
				c0-0.68-0.1-1.27-0.29-1.77c-0.2-0.49-0.47-0.88-0.84-1.14c-0.36-0.27-0.78-0.4-1.26-0.4c-0.49,0-0.93,0.13-1.32,0.4
				c-0.39,0.27-0.69,0.66-0.91,1.17C1545.83,1011.37,1545.72,1011.97,1545.72,1012.68z"/>
			<path id="XMLID_307_" style="&st4;" d="M1556.64,1018.21l0.24-0.58l-3.19-8.04c-0.2-0.46-0.29-0.8-0.29-1.01
				c0-0.22,0.06-0.43,0.17-0.62c0.11-0.19,0.27-0.34,0.47-0.46c0.2-0.12,0.41-0.17,0.62-0.17c0.37,0,0.65,0.12,0.85,0.36
				c0.19,0.24,0.36,0.58,0.5,1.02l2.19,6.38l2.08-5.94c0.16-0.48,0.31-0.86,0.45-1.13c0.13-0.27,0.27-0.46,0.42-0.55
				c0.15-0.1,0.36-0.14,0.63-0.14c0.2,0,0.38,0.05,0.57,0.16c0.18,0.1,0.32,0.24,0.42,0.42c0.1,0.18,0.15,0.36,0.15,0.56
				c-0.03,0.12-0.07,0.29-0.12,0.51c-0.06,0.22-0.13,0.45-0.21,0.67l-3.38,8.85c-0.29,0.78-0.58,1.39-0.86,1.83
				c-0.28,0.44-0.65,0.79-1.11,1.02c-0.46,0.24-1.08,0.36-1.86,0.36c-0.76,0-1.33-0.08-1.71-0.25c-0.38-0.17-0.57-0.47-0.57-0.9
				c0-0.3,0.09-0.53,0.27-0.69c0.18-0.16,0.45-0.24,0.8-0.24c0.14,0,0.28,0.02,0.41,0.06c0.16,0.04,0.31,0.06,0.43,0.06
				c0.3,0,0.53-0.04,0.7-0.13c0.17-0.09,0.32-0.24,0.46-0.46C1556.31,1018.96,1556.47,1018.64,1556.64,1018.21z"/>
		</g>
		<g id="XMLID_253_">
			<path id="XMLID_304_" style="&st4;" d="M1594.21,1007.57h0.62v-0.78c0-0.81,0.1-1.46,0.31-1.94c0.2-0.48,0.55-0.83,1.05-1.04
				c0.49-0.22,1.16-0.33,2.02-0.33c1.52,0,2.27,0.37,2.27,1.11c0,0.24-0.08,0.45-0.24,0.62c-0.15,0.17-0.34,0.26-0.56,0.26
				c-0.1,0-0.28-0.02-0.53-0.06c-0.24-0.03-0.45-0.06-0.62-0.06c-0.47,0-0.77,0.14-0.9,0.42c-0.13,0.28-0.2,0.67-0.2,1.18v0.62h0.63
				c0.99,0,1.48,0.3,1.48,0.9c0,0.42-0.13,0.69-0.39,0.8c-0.26,0.11-0.62,0.17-1.09,0.17h-0.63v6.87c0,0.51-0.12,0.9-0.37,1.17
				c-0.24,0.27-0.55,0.41-0.94,0.41c-0.37,0-0.67-0.13-0.92-0.41c-0.24-0.27-0.36-0.66-0.36-1.17v-6.87h-0.71
				c-0.39,0-0.68-0.08-0.89-0.26c-0.21-0.17-0.31-0.4-0.31-0.68C1592.9,1007.88,1593.34,1007.57,1594.21,1007.57"/>
			<path id="XMLID_301_" style="&st4;" d="M1602.7,1014.15v2.17c0,0.52-0.13,0.92-0.38,1.18c-0.25,0.27-0.56,0.39-0.94,0.39
				c-0.38,0-0.69-0.13-0.93-0.4c-0.24-0.26-0.36-0.66-0.36-1.17v-7.22c0-1.17,0.42-1.75,1.26-1.75c0.43,0,0.74,0.13,0.93,0.41
				c0.19,0.27,0.29,0.67,0.32,1.21c0.31-0.53,0.63-0.93,0.95-1.21c0.33-0.27,0.76-0.41,1.31-0.41c0.55,0,1.07,0.13,1.59,0.41
				c0.52,0.27,0.77,0.64,0.77,1.08c0,0.31-0.11,0.58-0.33,0.78c-0.22,0.21-0.46,0.31-0.71,0.31c-0.1,0-0.33-0.06-0.69-0.18
				c-0.37-0.11-0.69-0.17-0.96-0.17c-0.38,0-0.69,0.1-0.93,0.3c-0.24,0.2-0.43,0.5-0.56,0.89c-0.13,0.39-0.22,0.87-0.27,1.4
				C1602.72,1012.71,1602.7,1013.37,1602.7,1014.15"/>
			<path id="XMLID_297_" style="&st4;" d="M1614.62,1013.25h-5.07c0.01,0.59,0.13,1.11,0.36,1.56c0.23,0.45,0.54,0.79,0.92,1.02
				c0.38,0.23,0.8,0.34,1.27,0.34c0.31,0,0.59-0.03,0.85-0.11c0.25-0.07,0.5-0.19,0.74-0.34c0.24-0.15,0.46-0.32,0.66-0.5
				c0.2-0.17,0.47-0.42,0.79-0.72c0.13-0.11,0.32-0.17,0.57-0.17c0.27,0,0.48,0.07,0.65,0.22c0.17,0.15,0.24,0.35,0.24,0.62
				c0,0.23-0.09,0.51-0.27,0.82c-0.19,0.32-0.46,0.62-0.84,0.91c-0.38,0.29-0.84,0.53-1.4,0.71c-0.56,0.19-1.21,0.29-1.93,0.29
				c-1.67,0-2.96-0.47-3.89-1.42c-0.92-0.95-1.39-2.24-1.39-3.87c0-0.77,0.12-1.48,0.35-2.13c0.22-0.66,0.56-1.22,1-1.69
				c0.44-0.47,0.97-0.83,1.61-1.08c0.64-0.25,1.35-0.38,2.13-0.38c1.01,0,1.88,0.21,2.61,0.65c0.72,0.42,1.27,0.98,1.63,1.65
				c0.36,0.68,0.54,1.37,0.54,2.07c0,0.65-0.19,1.07-0.56,1.27C1615.82,1013.16,1615.3,1013.25,1614.62,1013.25 M1609.54,1011.78
				h4.7c-0.06-0.88-0.3-1.55-0.71-1.99c-0.42-0.44-0.96-0.66-1.64-0.66c-0.65,0-1.18,0.22-1.59,0.67
				C1609.88,1010.25,1609.63,1010.91,1609.54,1011.78"/>
			<path id="XMLID_279_" style="&st4;" d="M1625.4,1013.25h-5.07c0.01,0.59,0.13,1.11,0.35,1.56c0.23,0.45,0.54,0.79,0.92,1.02
				c0.38,0.23,0.8,0.34,1.27,0.34c0.31,0,0.59-0.03,0.84-0.11c0.26-0.07,0.51-0.19,0.75-0.34c0.24-0.15,0.46-0.32,0.66-0.5
				c0.2-0.17,0.46-0.42,0.79-0.72c0.13-0.11,0.33-0.17,0.57-0.17c0.27,0,0.48,0.07,0.65,0.22c0.16,0.15,0.24,0.35,0.24,0.62
				c0,0.23-0.09,0.51-0.27,0.82c-0.18,0.32-0.46,0.62-0.83,0.91c-0.37,0.29-0.84,0.53-1.4,0.71c-0.56,0.19-1.21,0.29-1.93,0.29
				c-1.67,0-2.96-0.47-3.89-1.42c-0.92-0.95-1.39-2.24-1.39-3.87c0-0.77,0.12-1.48,0.35-2.13c0.23-0.66,0.56-1.22,1-1.69
				c0.44-0.47,0.97-0.83,1.61-1.08c0.64-0.25,1.35-0.38,2.13-0.38c1.01,0,1.88,0.21,2.61,0.65c0.72,0.42,1.27,0.98,1.62,1.65
				c0.36,0.68,0.55,1.37,0.55,2.07c0,0.65-0.19,1.07-0.56,1.27C1626.61,1013.16,1626.08,1013.25,1625.4,1013.25 M1620.33,1011.78
				h4.7c-0.06-0.88-0.3-1.55-0.71-1.99c-0.42-0.44-0.96-0.66-1.64-0.66c-0.65,0-1.18,0.22-1.59,0.67
				C1620.67,1010.25,1620.42,1010.91,1620.33,1011.78"/>
			<path id="XMLID_275_" style="&st4;" d="M1631.08,1008.8v0.31c0.49-0.6,0.99-1.04,1.53-1.32c0.52-0.29,1.12-0.43,1.78-0.43
				c0.79,0,1.54,0.21,2.21,0.62c0.67,0.41,1.2,1.02,1.59,1.81c0.39,0.79,0.59,1.73,0.59,2.81c0,0.79-0.11,1.53-0.34,2.2
				c-0.22,0.67-0.54,1.23-0.93,1.68c-0.39,0.45-0.86,0.8-1.39,1.04c-0.54,0.24-1.11,0.36-1.73,0.36c-0.74,0-1.36-0.15-1.87-0.45
				c-0.5-0.29-0.98-0.73-1.44-1.3v3.89c0,1.13-0.42,1.71-1.24,1.71c-0.49,0-0.81-0.15-0.97-0.44c-0.15-0.3-0.23-0.72-0.23-1.29
				v-11.19c0-0.49,0.11-0.86,0.32-1.11c0.21-0.24,0.51-0.36,0.88-0.36c0.37,0,0.67,0.13,0.9,0.37
				C1630.97,1007.97,1631.08,1008.33,1631.08,1008.8 M1636.17,1012.57c0-0.69-0.11-1.27-0.31-1.76c-0.21-0.49-0.5-0.87-0.87-1.13
				c-0.37-0.26-0.78-0.4-1.23-0.4c-0.71,0-1.32,0.28-1.81,0.84c-0.49,0.57-0.74,1.39-0.74,2.49c0,1.03,0.24,1.83,0.74,2.41
				c0.49,0.57,1.09,0.86,1.81,0.86c0.43,0,0.83-0.13,1.2-0.37c0.37-0.25,0.66-0.63,0.88-1.13
				C1636.06,1013.88,1636.17,1013.28,1636.17,1012.57"/>
			<path id="XMLID_268_" style="&st4;" d="M1641.38,1006.14c-0.36,0-0.67-0.12-0.92-0.34c-0.26-0.22-0.39-0.53-0.39-0.94
				c0-0.37,0.13-0.67,0.4-0.91c0.26-0.23,0.57-0.36,0.91-0.36c0.34,0,0.63,0.11,0.89,0.32c0.26,0.22,0.39,0.54,0.39,0.95
				c0,0.4-0.13,0.71-0.38,0.94C1642.04,1006.02,1641.74,1006.14,1641.38,1006.14 M1642.67,1008.81v7.5c0,0.52-0.12,0.91-0.37,1.17
				c-0.25,0.27-0.56,0.4-0.94,0.4c-0.38,0-0.69-0.13-0.93-0.41c-0.23-0.28-0.36-0.66-0.36-1.17v-7.43c0-0.51,0.12-0.89,0.36-1.15
				c0.24-0.26,0.55-0.39,0.93-0.39c0.38,0,0.69,0.13,0.94,0.39C1642.55,1007.99,1642.67,1008.36,1642.67,1008.81"/>
			<path id="XMLID_267_" style="&st4;" d="M1651.03,1016.7l-2.28-3.77l-1.41,1.33v2.07c0,0.5-0.13,0.88-0.4,1.15
				c-0.26,0.27-0.57,0.41-0.91,0.41c-0.4,0-0.71-0.13-0.94-0.4c-0.23-0.26-0.34-0.66-0.34-1.17v-11.06c0-0.57,0.12-1.01,0.33-1.31
				c0.22-0.3,0.54-0.45,0.95-0.45c0.4,0,0.71,0.14,0.95,0.41c0.23,0.27,0.35,0.67,0.35,1.2v6.29l2.92-3.06
				c0.36-0.38,0.63-0.64,0.83-0.78c0.19-0.14,0.42-0.21,0.69-0.21c0.33,0,0.59,0.1,0.82,0.31c0.21,0.21,0.32,0.46,0.32,0.77
				c0,0.38-0.35,0.89-1.05,1.52l-1.38,1.26l2.66,4.18c0.19,0.31,0.34,0.54,0.42,0.71c0.08,0.16,0.13,0.32,0.13,0.46
				c0,0.41-0.12,0.73-0.34,0.97c-0.22,0.24-0.52,0.35-0.88,0.35c-0.32,0-0.56-0.08-0.73-0.26
				C1651.55,1017.46,1651.32,1017.15,1651.03,1016.7"/>
			<path id="XMLID_264_" style="&st4;" d="M1656.66,1017.89c-0.39,0-0.73-0.13-1.01-0.38c-0.29-0.25-0.43-0.61-0.43-1.06
				c0-0.38,0.14-0.72,0.41-0.99c0.28-0.28,0.61-0.42,1.01-0.42c0.4,0,0.74,0.14,1.02,0.41c0.28,0.28,0.42,0.61,0.42,1
				c0,0.45-0.14,0.81-0.42,1.06C1657.38,1017.76,1657.04,1017.89,1656.66,1017.89"/>
			<path id="XMLID_263_" style="&st4;" d="M1669.56,1014.68c0,0.32-0.1,0.67-0.29,1.03c-0.19,0.37-0.49,0.72-0.89,1.05
				c-0.39,0.33-0.89,0.6-1.49,0.8c-0.6,0.2-1.28,0.31-2.03,0.31c-1.61,0-2.86-0.47-3.76-1.4c-0.89-0.94-1.35-2.19-1.35-3.76
				c0-1.07,0.21-2.01,0.62-2.82c0.41-0.81,1-1.45,1.78-1.89c0.78-0.45,1.72-0.67,2.79-0.67c0.67,0,1.29,0.1,1.85,0.29
				c0.56,0.2,1.03,0.45,1.43,0.76c0.39,0.31,0.69,0.64,0.89,0.99c0.21,0.35,0.31,0.68,0.31,0.99c0,0.31-0.11,0.57-0.34,0.79
				c-0.23,0.21-0.52,0.32-0.84,0.32c-0.22,0-0.4-0.06-0.54-0.17c-0.14-0.11-0.3-0.29-0.48-0.54c-0.32-0.48-0.65-0.84-1-1.08
				c-0.34-0.24-0.78-0.36-1.31-0.36c-0.76,0-1.38,0.3-1.85,0.9c-0.47,0.6-0.7,1.42-0.7,2.46c0,0.49,0.06,0.94,0.18,1.35
				c0.12,0.41,0.29,0.76,0.52,1.04c0.23,0.29,0.5,0.51,0.83,0.65c0.32,0.15,0.68,0.23,1.06,0.23c0.52,0,0.97-0.12,1.34-0.36
				c0.38-0.24,0.7-0.61,0.99-1.1c0.16-0.29,0.33-0.52,0.51-0.68c0.18-0.16,0.41-0.25,0.68-0.25c0.32,0,0.58,0.12,0.79,0.36
				C1669.46,1014.15,1669.56,1014.41,1669.56,1014.68"/>
			<path id="XMLID_260_" style="&st4;" d="M1680.75,1012.62c0,0.77-0.12,1.48-0.36,2.14c-0.25,0.65-0.59,1.21-1.05,1.68
				c-0.46,0.47-1,0.83-1.63,1.08c-0.64,0.25-1.35,0.38-2.14,0.38c-0.79,0-1.49-0.13-2.12-0.38c-0.62-0.25-1.17-0.61-1.63-1.08
				c-0.46-0.48-0.81-1.03-1.05-1.68c-0.23-0.64-0.35-1.36-0.35-2.13c0-0.79,0.12-1.51,0.36-2.16c0.24-0.65,0.59-1.21,1.04-1.67
				c0.45-0.46,0.99-0.82,1.63-1.07c0.64-0.25,1.35-0.37,2.12-0.37c0.79,0,1.5,0.13,2.14,0.38c0.64,0.25,1.18,0.62,1.64,1.08
				c0.46,0.47,0.8,1.03,1.04,1.67C1680.63,1011.13,1680.75,1011.84,1680.75,1012.62 M1678.15,1012.62c0-1.06-0.23-1.88-0.7-2.47
				c-0.46-0.6-1.09-0.89-1.88-0.89c-0.51,0-0.96,0.13-1.34,0.39c-0.39,0.26-0.68,0.65-0.89,1.16c-0.21,0.51-0.31,1.11-0.31,1.8
				c0,0.68,0.1,1.27,0.31,1.77c0.21,0.51,0.5,0.9,0.89,1.17c0.38,0.27,0.83,0.4,1.35,0.4c0.79,0,1.41-0.3,1.88-0.89
				C1677.91,1014.48,1678.15,1013.66,1678.15,1012.62"/>
			<path id="XMLID_259_" style="&st4;" d="M1690.64,1012.81v3.45c0,0.55-0.12,0.95-0.37,1.23c-0.25,0.27-0.57,0.41-0.98,0.41
				c-0.39,0-0.71-0.13-0.95-0.41c-0.25-0.28-0.37-0.68-0.37-1.23v-4.13c0-0.65-0.02-1.16-0.06-1.53c-0.04-0.35-0.17-0.65-0.36-0.88
				c-0.2-0.23-0.51-0.35-0.93-0.35c-0.85,0-1.41,0.29-1.68,0.88c-0.27,0.58-0.41,1.41-0.41,2.51v3.5c0,0.54-0.12,0.95-0.36,1.22
				c-0.25,0.27-0.57,0.41-0.96,0.41s-0.72-0.14-0.97-0.41c-0.25-0.28-0.38-0.69-0.38-1.22v-7.42c0-0.49,0.11-0.86,0.34-1.11
				c0.23-0.26,0.53-0.38,0.89-0.38c0.36,0,0.65,0.12,0.89,0.36c0.24,0.24,0.35,0.57,0.35,0.98v0.24c0.45-0.54,0.94-0.93,1.45-1.18
				c0.52-0.26,1.08-0.39,1.71-0.39c0.65,0,1.21,0.13,1.68,0.39c0.47,0.26,0.85,0.65,1.16,1.18c0.44-0.53,0.91-0.92,1.41-1.18
				c0.5-0.26,1.05-0.39,1.66-0.39c0.71,0,1.32,0.14,1.83,0.42c0.51,0.28,0.89,0.68,1.15,1.2c0.22,0.47,0.33,1.21,0.33,2.22v5.06
				c0,0.55-0.12,0.95-0.37,1.23c-0.25,0.27-0.57,0.41-0.98,0.41c-0.39,0-0.71-0.14-0.96-0.41c-0.25-0.28-0.38-0.69-0.38-1.22v-4.36
				c0-0.56-0.02-1-0.07-1.34c-0.05-0.34-0.18-0.62-0.38-0.85c-0.21-0.23-0.53-0.34-0.95-0.34c-0.34,0-0.67,0.11-0.97,0.31
				c-0.31,0.2-0.55,0.48-0.72,0.81C1690.74,1010.92,1690.64,1011.7,1690.64,1012.81"/>
		</g>
		<g id="XMLID_239_">
			<path id="XMLID_252_" style="&st4;" d="M1569.94,1011.99c0,0,0-0.01,0-0.02C1569.94,1011.98,1569.94,1011.99,1569.94,1011.99z"/>
			<path id="XMLID_251_" style="&st4;" d="M1570.07,1012.82C1570.07,1012.82,1570.07,1012.82,1570.07,1012.82
				c-0.05-0.24-0.09-0.47-0.12-0.7C1569.98,1012.35,1570.02,1012.59,1570.07,1012.82z"/>
			<path id="XMLID_250_" style="&st4;" d="M1570.93,1015.23c-0.01-0.01-0.01-0.02-0.02-0.03
				C1570.92,1015.2,1570.92,1015.22,1570.93,1015.23z"/>
			<path id="XMLID_249_" style="&st4;" d="M1570.85,1015.07c-0.02-0.04-0.04-0.09-0.07-0.13
				C1570.8,1014.98,1570.82,1015.02,1570.85,1015.07z"/>
			<path id="XMLID_248_" style="&st4;" d="M1570.31,1013.75c0.13,0.4,0.28,0.79,0.46,1.16
				C1570.59,1014.53,1570.44,1014.14,1570.31,1013.75C1570.31,1013.75,1570.31,1013.75,1570.31,1013.75z"/>
			<path id="XMLID_247_" style="&st4;" d="M1579.98,1002.05c0.5,0,0.87,0.04,1.29,0.11l0.12-0.76c0,0-1.17-0.36-2.71-0.23
				l-0.12-0.41c0.48-0.1,0.84-0.53,0.84-1.04c0-0.58-0.47-1.05-1.06-1.05c-0.58,0-1.06,0.47-1.06,1.05c0,0.51,0.36,0.93,0.84,1.04
				l0.13,0.46c-1.63,0.22-2.93,0.86-2.93,0.86l0.23,0.71c0.99-0.33,1.85-0.53,2.62-0.61
				C1578.94,1002.09,1579.51,1002.05,1579.98,1002.05z"/>
			<path id="XMLID_246_" style="&st4;" d="M1570.91,1005.91L1570.91,1005.91c0.04-0.06,0.08-0.1,0.12-0.15l-0.31-0.22l-0.49-0.36
				c-0.03,0.04-0.79,0.74-1.4,2.05c-0.03-0.04-0.06-0.08-0.09-0.12c-0.18-0.2-0.44-0.3-0.76-0.29c0,0-0.01,0-0.01,0
				c-0.2,0-0.34-0.07-0.43-0.15c0.09-0.11,0.14-0.26,0.14-0.41c0-0.37-0.3-0.67-0.67-0.67c-0.37,0-0.67,0.3-0.67,0.67
				c0,0.37,0.3,0.67,0.67,0.67c0.06,0,0.11-0.01,0.17-0.02c0.16,0.18,0.43,0.34,0.81,0.33c0.2,0,0.34,0.05,0.44,0.16
				c0.11,0.12,0.15,0.3,0.16,0.43c0,0,0,0,0,0c-0.44,1.19-0.31,2.67-0.31,2.67l1.06,0.04c0.02-0.54,0.1-1.48,0.37-2.23
				C1570.22,1006.86,1570.88,1005.95,1570.91,1005.91z"/>
			<path id="XMLID_245_" style="&st4;" d="M1589.18,1002.94c-0.37,0-0.67,0.3-0.67,0.67c0,0.06,0.01,0.11,0.02,0.16
				c-0.18,0.17-0.34,0.43-0.34,0.81c0,0.2-0.05,0.34-0.15,0.44c-0.08,0.07-0.19,0.12-0.29,0.14c-0.79-1.1-1.76-1.78-1.76-1.78
				l-0.76,0.81c0.57,0.52,1.16,1.18,1.73,1.99c0.39,0.56,0.8,1.29,1.14,2.02l1.02-0.49c0,0-0.47-1.16-1.13-2.19
				c0.11-0.04,0.23-0.1,0.33-0.19c0.2-0.18,0.3-0.44,0.29-0.76c0-0.21,0.07-0.35,0.15-0.44c0.12,0.09,0.26,0.14,0.41,0.14
				c0.37,0,0.67-0.3,0.67-0.67C1589.85,1003.24,1589.55,1002.94,1589.18,1002.94z"/>
			<path id="XMLID_244_" style="&st4;" d="M1586.52,1012.14c-1.41,0.69-3.73,1.59-6.78,2.02c-1.2,0.17-2.36,0.23-3.43,0.23
				c-1.39,0-2.62-0.1-3.56-0.22c-1.08-0.13-1.92-0.3-2.43-0.42c0.12,0.39,0.27,0.78,0.45,1.16c0,0.01,0.01,0.02,0.01,0.03
				c0.02,0.04,0.04,0.09,0.07,0.13c0.02,0.04,0.04,0.09,0.07,0.13c0.01,0.01,0.01,0.02,0.02,0.03c0.3,0.57,0.67,1.09,1.08,1.55
				c1.44,1.57,2.91,1.82,2.92,1.83l0.02,0l0.02,0.01c0.01,0.01,1.31,0.43,3.29,0.43c1.94,0,3.85-0.39,5.67-1.17
				c1.35-0.69,2.62-1.74,3.25-2.67c0.49-0.72,0.84-1.49,1.05-2.29c0.11-0.43,0.2-1.11,0.15-1.83
				C1587.99,1011.35,1587.37,1011.73,1586.52,1012.14z"/>
			<path id="XMLID_240_" style="&st4;" d="M1571.36,1006.25c-0.04,0.06-0.65,0.93-1.14,2.25c-0.36,0.99-0.35,2.44-0.35,2.46v0
				c0,0.34,0.02,0.68,0.06,1.01c0,0.01,0,0.01,0,0.02c0,0.04,0.01,0.08,0.02,0.13c0.03,0.23,0.07,0.47,0.12,0.7
				c0.7,0.18,4.88,1.15,9.55,0.5c2.93-0.41,5.15-1.27,6.5-1.93c1.12-0.54,1.84-1.04,2.12-1.24c-0.28-1.03-1.04-2.64-1.74-3.65
				c-2.01-2.87-4.17-3.6-5.28-3.78c-0.42-0.07-0.76-0.11-1.24-0.11c-0.45,0-1,0.04-1.74,0.12c-0.74,0.08-1.57,0.27-2.53,0.6
				c-1.35,0.45-2.57,1.16-3.53,2.05l-0.03,0.03C1572,1005.54,1571.7,1005.81,1571.36,1006.25z M1583.63,1005.58
				c0.96,0,1.74,0.78,1.74,1.74c0,0.96-0.78,1.74-1.74,1.74c-0.96,0-1.74-0.78-1.74-1.74
				C1581.89,1006.36,1582.67,1005.58,1583.63,1005.58z M1575.39,1005.51c1.56,0,2.82,1.26,2.82,2.82c0,1.55-1.26,2.81-2.82,2.81
				c-1.55,0-2.82-1.26-2.82-2.81C1572.57,1006.77,1573.83,1005.51,1575.39,1005.51z"/>
		</g>
	</g>
</g>
<g id="OBJECTS">
	<g>
		<path style="&st5;" d="M1899.95,453.18l23.6,193.12l-29.49,3.14l-14.64-126.27C1885.45,467.04,1899.95,453.18,1899.95,453.18z"/>
		<path style="&st6;" d="M1859.71,425.28l40.24,27.9c0,0-14.51,13.86-20.53,70c-3.31,30.81-4.09,74.39,1.52,135.43
			c0,0-40.17,7.98-61.61,7.98c-21.47,0-61.65-7.98-61.65-7.98c5.61-61,4.87-104.56,1.56-135.4c0-0.03,0-0.03,0-0.03
			c-6.02-56.17-20.53-70-20.53-70l40.21-27.9c0,0,15.66,18.67,40.41,18.67S1859.71,425.28,1859.71,425.28z"/>
		<path style="&st5;" d="M1859.71,425.28c0,0-15.62,18.67-40.38,18.67s-40.41-18.67-40.41-18.67s21.27,6.46,40.41,6.46
			S1859.71,425.28,1859.71,425.28z"/>
		<path style="&st5;" d="M1759.25,523.18c0,0,0,0,0,0.03l-14.64,126.23l-29.49-3.14l23.6-193.12
			C1738.72,453.18,1753.23,467.01,1759.25,523.18z"/>
	</g>
	<g>
		<polygon style="&st7;" points="208.01,224.05 195.23,250.14 174.28,250.14 172.83,224.05 		"/>
		<path style="&st8;" d="M186.72,50.81l-13.99,59.99c-3.35,14.33-4.63,29.03-3.82,43.73l3.92,69.52l1.45,26.09l0.47,8.14
			c0,0-22.03,7.4-53.97,8.58v-0.03V103.47c0-1.86-0.2-3.72-0.64-5.54c-0.51-2.26-1.32-4.49-2.43-6.56l-3.65-6.76l25.11-23.99
			c10.07,6.52,18.65,7.94,18.65,7.94l-6.45-34.81L186.72,50.81z M162.48,115.02V93.73v-4.16h-27.31v4.16v21.29l13.65,5.27
			L162.48,115.02z"/>
		<polygon style="&st7;" points="162.48,93.73 162.48,115.02 148.83,120.3 135.18,115.02 135.18,93.73 		"/>
		<rect x="135.18" y="89.58" style="&st9;" width="27.31" height="4.16"/>
		<path style="&st7;" d="M151.37,33.75l6.45,34.81c0,0-8.58-1.42-18.65-7.94c-3.45-2.2-7.03-5.04-10.54-8.62V31.21v-4.6
			c0-2.53-1.39-4.9-3.68-5.95c-2.6-1.18-6.66-2.37-12.44-2.37c-5.75,0-9.8,1.18-12.4,2.37c-2.33,1.05-3.72,3.41-3.72,5.95v4.6V52
			c-4.43,4.56-9.06,7.87-13.28,10.31c-8.85,5.1-15.92,6.25-15.92,6.25l6.45-34.81l15.92-21.53c1.49-1.99,3.82-3.18,6.29-3.18h16.66
			h16.69c2.47,0,4.8,1.18,6.29,3.18L151.37,33.75z"/>
		<path style="&st10;" d="M139.17,60.61l-25.11,23.99L128.62,52C132.14,55.58,135.72,58.42,139.17,60.61z M131.87,63.05
			c0-1.12-0.88-1.99-1.99-1.99c-1.08,0-1.96,0.88-1.96,1.99c0,1.08,0.88,1.96,1.96,1.96C130.99,65.01,131.87,64.13,131.87,63.05z"/>
		<path style="&st7;" d="M129.87,61.05c1.12,0,1.99,0.88,1.99,1.99c0,1.08-0.88,1.96-1.99,1.96c-1.08,0-1.96-0.88-1.96-1.96
			C127.91,61.93,128.79,61.05,129.87,61.05z"/>
		<polygon style="&st9;" points="128.62,31.21 128.62,52 114.06,84.61 96.38,52 96.38,31.21 112.5,31.21 		"/>
		<path style="&st9;" d="M128.62,26.62v4.6H112.5H96.38v-4.6c0-2.53,1.39-4.9,3.72-5.95c2.6-1.18,6.66-2.37,12.4-2.37
			c5.78,0,9.83,1.18,12.44,2.37C127.24,21.72,128.62,24.08,128.62,26.62z"/>
		<path style="&st9;" d="M120.78,266.83v0.03c-2.67,0.07-5.44,0.14-8.28,0.14c-2.81,0-5.58-0.07-8.25-0.14v-0.03V82.65l15.88,15.28
			c0.44,1.82,0.64,3.68,0.64,5.54V266.83z M116.42,105.73c0-2.16-1.76-3.92-3.92-3.92s-3.92,1.76-3.92,3.92
			c0,2.16,1.76,3.92,3.92,3.92S116.42,107.89,116.42,105.73z M116.42,151.96c0-2.16-1.76-3.92-3.92-3.92s-3.92,1.76-3.92,3.92
			c0,2.16,1.76,3.92,3.92,3.92S116.42,154.12,116.42,151.96z M116.42,198.19c0-2.16-1.76-3.92-3.92-3.92s-3.92,1.76-3.92,3.92
			c0,2.16,1.76,3.92,3.92,3.92S116.42,200.36,116.42,198.19z M116.42,244.42c0-2.2-1.76-3.92-3.92-3.92s-3.92,1.72-3.92,3.92
			c0,2.16,1.76,3.92,3.92,3.92S116.42,246.59,116.42,244.42z"/>
		<path style="&st10;" d="M120.14,97.92l-15.88-15.28L83.1,62.3c4.22-2.43,8.85-5.75,13.28-10.31l17.67,32.61l3.65,6.76
			C118.82,93.43,119.63,95.66,120.14,97.92z M97.13,63.05c0-1.12-0.88-1.99-1.99-1.99c-1.08,0-1.96,0.88-1.96,1.99
			c0,1.08,0.88,1.96,1.96,1.96C96.25,65.01,97.13,64.13,97.13,63.05z"/>
		<circle style="&st7;" cx="112.5" cy="105.73" r="3.92"/>
		<circle style="&st7;" cx="112.5" cy="151.96" r="3.92"/>
		<circle style="&st7;" cx="112.5" cy="198.19" r="3.92"/>
		<path style="&st7;" d="M112.5,240.5c2.16,0,3.92,1.72,3.92,3.92c0,2.16-1.76,3.92-3.92,3.92s-3.92-1.76-3.92-3.92
			C108.58,242.23,110.34,240.5,112.5,240.5z"/>
		<path style="&st8;" d="M104.26,266.83v0.03c-31.9-1.15-53.97-8.58-53.97-8.58l0.44-8.14l1.49-26.09l3.89-69.52
			c0.84-14.7-0.44-29.4-3.78-43.73L38.29,50.81l35.35-17.07l-6.45,34.81c0,0,7.06-1.15,15.92-6.25l21.16,20.34V266.83z
			 M89.86,115.02V93.73v-4.16H62.52v4.16v21.29l13.69,5.27L89.86,115.02z"/>
		<path style="&st7;" d="M95.13,61.05c1.12,0,1.99,0.88,1.99,1.99c0,1.08-0.88,1.96-1.99,1.96c-1.08,0-1.96-0.88-1.96-1.96
			C93.17,61.93,94.05,61.05,95.13,61.05z"/>
		<polygon style="&st7;" points="89.86,93.73 89.86,115.02 76.21,120.3 62.52,115.02 62.52,93.73 		"/>
		<rect x="62.52" y="89.58" style="&st9;" width="27.34" height="4.16"/>
		<polygon style="&st7;" points="52.21,224.05 50.72,250.14 29.81,250.14 17,224.05 		"/>
		<polygon style="&st9;" points="17,224.05 26.84,224.05 25.61,216.1 		"/>
		<path style="&st10;" d="M52.31,110.8L38.29,50.81c0,0-26.22,70.16-12.67,165.29l1.22,7.94h25.37l3.89-69.52
			C56.94,139.83,55.66,125.13,52.31,110.8z"/>
		<polygon style="&st9;" points="208.01,224.05 198.16,224.05 199.39,216.1 		"/>
		<path style="&st10;" d="M172.69,110.8l14.02-59.99c0,0,26.22,70.16,12.67,165.29l-1.22,7.94h-25.37l-3.89-69.52
			C168.06,139.83,169.34,125.13,172.69,110.8z"/>
	</g>
	<g>
		<path style="&st11;" d="M1690.34,945.56c0.23,1-0.4,2.01-1.41,2.24l-24.97,5.46c-0.94,0.2-1.87-0.37-2.14-1.31l-3.61-12.82
			l28.92-6.16V933L1690.34,945.56z"/>
		<path style="&st12;" d="M1690.14,929.39c0.37,1.51-0.6,3.05-2.14,3.38l-0.87,0.2l-28.92,6.16l-2.44,0.5
			c-1.47,0.33-2.91-0.57-3.31-2.04l-8.1-31.77h-0.03l-4.18-126.59l9.31-20.45L1690.14,929.39z"/>
		<path style="&st12;" d="M1649.44,758.78l-9.31,20.45l-33.34-22.13c7.33-8.3,9.04-17.71,9.04-17.71l21.69,6.69
			C1643.48,747.9,1648,752.72,1649.44,758.78z"/>
		<path style="&st13;" d="M1644.45,909.77c0.23,6.09-1.47,12.12-4.82,17.2l-6.76,10.31h-55.87h-55.87l-6.76-10.31
			c-3.35-5.09-5.05-11.11-4.85-17.2l0.13-3.95l4.22-126.59l33.34-22.16c5.76,6.53,15.06,12.35,29.79,12.35
			c14.73,0,24-5.82,29.79-12.32l33.34,22.13l4.18,126.59L1644.45,909.77z M1632.87,880.95v-3.65h-31.97v3.65H1632.87z
			 M1553.11,880.95v-3.65h-31.97v3.65H1553.11z"/>
		<path style="&st11;" d="M1632.87,937.29v7c0,3.88-3.15,7-7,7h-48.87h-48.87c-3.88,0-7-3.11-7-7v-7h55.87H1632.87z"/>
		<rect x="1600.91" y="877.31" style="&st14;" width="31.97" height="3.65"/>
		<path style="&st11;" d="M1606.8,757.11c-5.79,6.49-15.06,12.32-29.79,12.32c-14.73,0-24.03-5.82-29.79-12.35
			c-7.33-8.3-9.04-17.67-9.04-17.67l8.5-2.61c0,0,2.51,24.47,30.33,24.47c27.82,0,30.33-24.47,30.33-24.47l8.5,2.61
			C1615.84,739.4,1614.13,748.81,1606.8,757.11z"/>
		<path style="&st14;" d="M1607.33,736.79c0,0-2.51,24.47-30.33,24.47c-27.82,0-30.33-24.47-30.33-24.47s14.36,8.94,30.33,8.94
			C1592.94,745.73,1607.33,736.79,1607.33,736.79z"/>
		<rect x="1521.14" y="877.31" style="&st14;" width="31.97" height="3.65"/>
		<path style="&st12;" d="M1547.22,757.07l-33.34,22.16l-9.31-20.45c1.44-6.06,5.96-10.88,11.88-12.69l21.72-6.69
			C1538.18,739.4,1539.89,748.77,1547.22,757.07z"/>
		<path style="&st12;" d="M1504.57,758.78l9.31,20.45l-4.22,126.59l-8.13,31.77c-0.37,1.47-1.81,2.38-3.28,2.04l-2.48-0.54
			l-28.89-6.13l-0.87-0.2c-1.54-0.33-2.51-1.87-2.14-3.38L1504.57,758.78z"/>
		<path style="&st11;" d="M1495.77,939.1v0.03l-3.58,12.82c-0.27,0.94-1.2,1.51-2.18,1.31l-24.94-5.46
			c-1.04-0.23-1.64-1.24-1.41-2.24l3.21-12.55v-0.03L1495.77,939.1z"/>
	</g>
	<g>
		<path style="&st15;" d="M802.39,209l1.5,6.39c-7.89,6.18-18.04,8.44-29.84,7.89l-1.83-6.6h0.03
			C782.27,216.79,792.33,214.22,802.39,209z"/>
		<path style="&st16;" d="M760.84,33.11L802.39,209c-10.06,5.23-20.12,7.8-30.14,7.67h-0.03l-26.66-96.55
			C746.29,56.93,760.84,33.11,760.84,33.11z"/>
		<path style="&st17;" d="M735.89,21l24.95,12.11c0,0-14.55,23.82-15.29,87.01c-0.34,28.89,2.23,66.01,10.39,112.84
			c0,0-20.21,10.85-58,12.66V85.97c-1.93-2.97-3.79-5.9-5.56-8.84L713.73,65c7.18,3.15,14.43,4.71,19.23,5.44
			c3.15,0.49,6.05-1.74,6.39-4.92C740.26,56.5,741.18,37.97,735.89,21z"/>
		<path style="&st16;" d="M638.92,21c5.81-18.74,19.2-35.59,48.49-35.59c29.29,0,42.68,16.85,48.49,35.59
			c5.29,16.97,4.37,35.49,3.45,44.51c-0.34,3.18-3.24,5.41-6.39,4.92c-4.8-0.73-12.05-2.29-19.23-5.44
			c-6.45-2.81-12.9-6.97-17.49-13.02c4.71-10.03,8.44-19.93,10.79-29.75c0.4-1.62,0.76-3.27,1.07-4.89
			c1.31-6.73-1.74-13.6-7.77-16.91c-3.27-1.77-7.52-3.15-12.93-3.15c-5.41,0-9.69,1.38-12.96,3.15c-5.99,3.3-9.05,10.18-7.77,16.91
			c0.31,1.62,0.67,3.27,1.07,4.89c2.35,9.81,6.08,19.72,10.85,29.72C674.01,58,667.56,62.16,661.08,65
			c-7.18,3.15-14.43,4.71-19.23,5.44c-3.15,0.49-6.05-1.74-6.39-4.92C634.54,56.47,633.63,37.94,638.92,21z"/>
		<path style="&st15;" d="M713.73,65l-21.34,12.14c-1.74-2.84-3.42-5.66-5.01-8.47l0.12-0.09c3.18-5.56,6.11-11.1,8.74-16.6
			C700.83,58.03,707.28,62.19,713.73,65z M700.34,63.99c0-1.44-1.16-2.6-2.6-2.6s-2.6,1.16-2.6,2.6c0,1.41,1.16,2.57,2.6,2.57
			S700.34,65.4,700.34,63.99z"/>
		<path style="&st18;" d="M700.34,0.43c6.02,3.3,9.08,10.18,7.77,16.91c-0.31,1.62-0.67,3.27-1.07,4.89
			c-13.12-7.22-26.17-7.22-39.29,0c-0.4-1.62-0.76-3.27-1.07-4.89c-1.28-6.73,1.77-13.6,7.77-16.91c3.27-1.77,7.55-3.15,12.96-3.15
			C692.82-2.72,697.06-1.34,700.34,0.43z"/>
		<path style="&st18;" d="M696.24,51.97c-2.63,5.5-5.56,11.04-8.74,16.6l-0.12,0.09c-3.21-5.59-6.15-11.16-8.77-16.72
			c-4.77-10-8.5-19.9-10.85-29.72c13.12-7.22,26.17-7.22,39.29,0C704.68,32.04,700.95,41.95,696.24,51.97z"/>
		<path style="&st19;" d="M697.74,61.39c1.44,0,2.6,1.16,2.6,2.6c0,1.41-1.16,2.57-2.6,2.57s-2.6-1.16-2.6-2.57
			C695.14,62.55,696.3,61.39,697.74,61.39z"/>
		<path style="&st15;" d="M697.95,85.97v159.65c-3.36,0.15-6.88,0.24-10.55,0.24V79.98L697.95,85.97z M694.99,92.02
			c0-1.44-1.16-2.6-2.6-2.6s-2.6,1.16-2.6,2.6s1.16,2.6,2.6,2.6S694.99,93.46,694.99,92.02z M694.99,119.57c0-1.44-1.16-2.6-2.6-2.6
			s-2.6,1.16-2.6,2.6c0,1.44,1.16,2.6,2.6,2.6S694.99,121.01,694.99,119.57z M694.99,147.12c0-1.44-1.16-2.6-2.6-2.6
			s-2.6,1.16-2.6,2.6c0,1.44,1.16,2.6,2.6,2.6S694.99,148.55,694.99,147.12z M694.99,174.66c0-1.44-1.16-2.6-2.6-2.6
			s-2.6,1.16-2.6,2.6c0,1.44,1.16,2.6,2.6,2.6S694.99,176.1,694.99,174.66z M694.99,202.21c0-1.44-1.16-2.6-2.6-2.6
			s-2.6,1.16-2.6,2.6s1.16,2.6,2.6,2.6S694.99,203.65,694.99,202.21z M694.99,229.75c0-1.44-1.16-2.6-2.6-2.6s-2.6,1.16-2.6,2.6
			c0,1.44,1.16,2.6,2.6,2.6S694.99,231.19,694.99,229.75z"/>
		<path style="&st15;" d="M697.95,85.97l-10.55-5.99v-0.03L661.08,65c6.48-2.84,12.93-7,17.52-13.05
			c2.63,5.56,5.56,11.13,8.77,16.72c1.59,2.81,3.27,5.63,5.01,8.47C694.16,80.07,696.03,83.01,697.95,85.97z M679.64,63.99
			c0-1.44-1.16-2.6-2.6-2.6c-1.41,0-2.57,1.16-2.57,2.6c0,1.41,1.16,2.57,2.57,2.57C678.48,66.56,679.64,65.4,679.64,63.99z"/>
		<circle style="&st19;" cx="692.39" cy="92.02" r="2.6"/>
		<circle style="&st19;" cx="692.39" cy="119.57" r="2.6"/>
		<circle style="&st19;" cx="692.39" cy="147.12" r="2.6"/>
		<circle style="&st19;" cx="692.39" cy="174.66" r="2.6"/>
		<circle style="&st19;" cx="692.39" cy="202.21" r="2.6"/>
		<circle style="&st19;" cx="692.39" cy="229.75" r="2.6"/>
		<path style="&st17;" d="M687.4,79.98v165.89c-44.57,0-68.54-12.9-68.54-12.9c8.16-46.84,10.73-83.95,10.39-112.84
			c-0.73-63.19-15.32-87.01-15.32-87.01L638.92,21c-5.29,16.94-4.37,35.46-3.45,44.51c0.34,3.18,3.24,5.41,6.39,4.92
			c4.8-0.73,12.05-2.29,19.23-5.44l26.32,14.95V79.98z"/>
		<path style="&st19;" d="M677.04,61.39c1.44,0,2.6,1.16,2.6,2.6c0,1.41-1.16,2.57-2.6,2.57c-1.41,0-2.57-1.16-2.57-2.57
			C674.47,62.55,675.63,61.39,677.04,61.39z"/>
		<path style="&st16;" d="M629.25,120.12l-26.69,96.55c-10.06,0.12-20.09-2.45-30.14-7.67l41.52-175.88
			C613.94,33.11,628.52,56.93,629.25,120.12z"/>
		<path style="&st15;" d="M602.56,216.67l-1.83,6.6c-11.77,0.55-21.95-1.71-29.81-7.89l1.5-6.39
			C582.48,214.22,592.51,216.79,602.56,216.67z"/>
	</g>
	<g>
		<polygon style="&st17;" points="582.23,583.09 628.02,667.06 620.05,676.68 617.56,671.77 555.33,549.29 557.77,549.29 
			557.77,547.78 562.98,547.78 575.72,571.12 		"/>
		<polygon style="&st15;" points="617.56,671.77 605.94,680.79 555.12,549.29 555.33,549.29 		"/>
		<polygon style="&st17;" points="605.94,680.79 609.34,689.6 564.81,702.07 540.26,547.78 551.54,547.78 551.54,549.29 
			555.12,549.29 		"/>
		<path style="&st15;" d="M595.57,579.96l-13.34,3.13l-6.51-11.97l-9.5-46.98l2.12-8.45c1.39-5.55,2.08-11.26,2.06-16.97
			c0,0-0.16-32-0.18-39.58c0.73,0.96,1.32,2.06,1.76,3.22C584.77,497.95,592.1,537.53,595.57,579.96z"/>
		<polygon style="&st15;" points="540.26,547.78 564.81,702.07 564.03,697.28 545.3,701.82 		"/>
		<rect x="557.77" y="537.03" style="&st20;" width="5.21" height="10.76"/>
		<polygon style="&st15;" points="551.54,535.56 551.54,537.03 551.54,547.78 551.54,549.29 555.12,549.29 555.33,549.29 
			557.77,549.29 557.77,547.78 557.77,537.03 557.77,535.56 		"/>
		<path style="&st20;" d="M551.54,537.03v10.76h-11.28h-4.93v-4.2h1.53c0.62,0,1.14-0.53,1.14-1.14c0-0.64-0.53-1.14-1.14-1.14
			h-1.53v-4.27H551.54z"/>
		<path style="&st17;" d="M545.3,701.82l0.21,6.49h-17.49V549.29h6.37c0.53,0,0.94-0.43,0.94-0.94v-0.57h4.93L545.3,701.82z"/>
		<path style="&st15;" d="M536.85,541.3h-1.53h-2.1h-4.07c-0.62,0-1.14,0.5-1.14,1.14c0,0.62,0.53,1.14,1.14,1.14h4.07h2.1h1.53
			c0.62,0,1.14-0.53,1.14-1.14C537.99,541.8,537.47,541.3,536.85,541.3z"/>
		<path style="&st17;" d="M528.01,549.29v159.02h-17.47l0.21-6.49l5.02-154.04h4.96v0.57c0,0.5,0.41,0.94,0.94,0.94H528.01z"/>
		<path style="&st20;" d="M529.16,541.3h4.07v-2.79c0-0.53-0.43-0.98-0.96-0.98h-4.25h-4.22c-0.55,0-0.98,0.46-0.98,0.98v7.83
			c0,0.55,0.43,0.98,0.98,0.98h4.22h4.25c0.53,0,0.96-0.43,0.96-0.98v-2.76h-4.07c-0.62,0-1.14-0.53-1.14-1.14
			C528.01,541.8,528.54,541.3,529.16,541.3z"/>
		<path style="&st15;" d="M534.39,535.56h-6.37h-6.35c-0.53,0-0.94,0.43-0.94,0.96v0.5v10.76v0.57c0,0.5,0.41,0.94,0.94,0.94h6.35
			h6.37c0.53,0,0.94-0.43,0.94-0.94v-0.57v-4.2h-2.1v2.76c0,0.55-0.43,0.98-0.96,0.98h-4.25h-4.22c-0.55,0-0.98-0.43-0.98-0.98
			v-7.83c0-0.53,0.43-0.98,0.98-0.98h4.22h4.25c0.53,0,0.96,0.46,0.96,0.98v2.79h2.1v-4.27v-0.5
			C535.32,536,534.91,535.56,534.39,535.56z"/>
		<path style="&st17;" d="M570.22,459.15c-1.21-1.6-2.83-2.9-4.68-3.79l-10.25-4.8c0,0-8.82,40.72-27.27,40.72
			c-18.45,0-27.25-40.72-27.25-40.72l-10.28,4.8c-1.83,0.87-3.45,2.17-4.66,3.77c-0.05,7.49-0.18,39.6-0.18,39.6
			c-0.05,5.71,0.66,11.42,2.06,16.97l2.12,8.45v0.02l3.22,12.86h5.23v-1.46h6.23v1.46h16.21v-0.5c0-0.53,0.41-0.96,0.94-0.96h6.35
			h6.37c0.53,0,0.94,0.43,0.94,0.96v0.5h16.21v-1.46h6.23v1.46h5.21l3.24-12.88l2.12-8.45c1.39-5.55,2.08-11.26,2.06-16.97
			C570.4,498.73,570.24,466.73,570.22,459.15z"/>
		<path style="&st20;" d="M552.5,449.26c0,0-8.52,39.3-24.48,39.3s-24.48-39.3-24.48-39.3l-2.76,1.3c0,0,8.79,40.72,27.25,40.72
			c18.45,0,27.27-40.72,27.27-40.72L552.5,449.26z"/>
		<path style="&st18;" d="M528.01,455.88c-13.41,0-24.48-6.62-24.48-6.62s8.52,39.3,24.48,39.3s24.48-39.3,24.48-39.3
			S541.44,455.88,528.01,455.88z"/>
		<polygon style="&st20;" points="520.73,537.03 520.73,547.78 515.77,547.78 504.51,547.78 504.51,537.03 		"/>
		<polygon style="&st15;" points="515.77,547.78 510.75,701.82 492,697.28 		"/>
		<polygon style="&st17;" points="515.77,547.78 492,697.28 491.25,702.07 446.69,689.6 450.09,680.79 500.91,549.29 504.51,549.29 
			504.51,547.78 		"/>
		<polygon style="&st15;" points="498.28,535.56 498.28,537.03 498.28,547.78 498.28,549.29 500.72,549.29 500.91,549.29 
			504.51,549.29 504.51,547.78 504.51,537.03 504.51,535.56 		"/>
		<polygon style="&st15;" points="500.91,549.29 450.09,680.79 438.49,671.77 500.72,549.29 		"/>
		<polygon style="&st17;" points="500.72,549.29 438.49,671.77 436,676.68 428.01,667.06 473.8,583.09 480.33,571.12 480.33,571.1 
			493.05,547.78 498.28,547.78 498.28,549.29 		"/>
		<rect x="493.05" y="537.03" style="&st20;" width="5.23" height="10.76"/>
		<path style="&st15;" d="M489.83,524.15v0.02l-9.5,46.93v0.02l-6.53,11.97l-13.31-3.13c3.47-42.43,10.8-82.01,23.57-117.59
			c0.43-1.16,1.03-2.26,1.78-3.24c-0.05,7.49-0.18,39.6-0.18,39.6c-0.05,5.71,0.66,11.42,2.06,16.97L489.83,524.15z"/>
	</g>
	<g>
		<polygon style="&st21;" points="1468.96,106.78 1472.07,121.4 1447.1,127.83 1443.35,112.19 1455.83,109.56 1456.14,111 
			1462.31,109.71 1462,108.27 		"/>
		<path style="&st21;" d="M1443.35-14.1l24.06,113.55l-6.96,1.46l-0.29-1.4l-6.14,1.31l0.29,1.4l-12.73,2.66l-14.5-60.34
			l10.58-62.56l3.02,0.98C1442.02-16.63,1443.04-15.5,1443.35-14.1z"/>
		<polygon style="&st22;" points="1462,108.27 1460.45,100.91 1460.16,99.51 1454.01,100.82 1454.3,102.21 1455.83,109.56 
			1456.14,111 1462.31,109.71 		"/>
		<g>
			<polygon style="&st23;" points="1469.14,99.09 1467.41,99.44 1460.45,100.91 1462,108.27 1468.96,106.78 1470.69,106.43 			"/>
			<polygon style="&st23;" points="1441.57,104.88 1440,105.21 1441.55,112.57 1443.35,112.19 1455.83,109.56 1454.3,102.21 			"/>
		</g>
		<path style="&st23;" d="M1457.79,203.59c0,0-26.86,10.18-72.83,10.18c-46,0-72.85-10.18-72.85-10.18
			c3.39-37.86,11.18-68.53,18.38-90.31c8.03-24.17,15.37-37.41,15.37-37.41h5.97v1.42h5.92v-1.42h17.59v0.31
			c0,0.6,0.49,1.11,1.09,1.11h17.05c0.6,0,1.11-0.51,1.11-1.11v-0.31h17.59v1.42h5.9v-1.42h5.97c0,0,7.34,13.24,15.37,37.41
			C1446.61,135.06,1454.37,165.73,1457.79,203.59z M1424.74,90.13l-0.91-2.95l-20.98,6.52l0.91,2.93L1424.74,90.13z M1403.94,123.79
			c0-1.73-1.4-3.13-3.13-3.13c-1.73,0-3.13,1.4-3.13,3.13c0,1.73,1.4,3.13,3.13,3.13C1402.54,126.92,1403.94,125.52,1403.94,123.79z
			 M1403.94,144.73c0-1.73-1.4-3.13-3.13-3.13c-1.73,0-3.13,1.4-3.13,3.13s1.4,3.13,3.13,3.13
			C1402.54,147.86,1403.94,146.46,1403.94,144.73z M1372.2,123.79c0-1.73-1.4-3.13-3.13-3.13c-1.73,0-3.13,1.4-3.13,3.13
			c0,1.73,1.4,3.13,3.13,3.13C1370.81,126.92,1372.2,125.52,1372.2,123.79z M1372.2,144.73c0-1.73-1.4-3.13-3.13-3.13
			c-1.73,0-3.13,1.4-3.13,3.13s1.4,3.13,3.13,3.13C1370.81,147.86,1372.2,146.46,1372.2,144.73z M1366.13,96.63l0.91-2.93
			l-20.98-6.52l-0.91,2.95L1366.13,96.63z"/>
		<path style="&st23;" d="M1437.65-18.03l-10.58,62.56l-3.04,17.99h-5.97v-1.4h-5.9v1.4h-9.65V52.27v-4.24
			c0-6.39-1.77-12.64-5.12-18.1c-0.18-0.29-0.35-0.58-0.53-0.86c13.75-8.87,21.58-17.54,25.04-21.93c1.24-1.6,0.98-3.88-0.6-5.15
			l-2.06-1.66l10.56-11.78c1.49-1.66,1.37-4.21-0.24-5.77l-5.52-5.23L1437.65-18.03z"/>
		<path style="&st21;" d="M1429.55-17.21c1.62,1.55,1.73,4.1,0.24,5.77l-10.56,11.78l-19.6-15.79c1.44-2.64,2.26-5.21,2.64-7.67
			c1.02-6.39-0.89-11.82-2.35-14.81c-0.75-1.57-2.33-2.53-4.06-2.53v-4.75h1.53c1.69,0,3.3,0.67,4.52,1.82l22.11,20.96
			L1429.55-17.21z"/>
		<polygon style="&st21;" points="1423.83,87.18 1424.74,90.13 1403.76,96.63 1402.85,93.7 		"/>
		<rect x="1418.07" y="62.52" style="&st12;" width="5.97" height="13.35"/>
		<path style="&st22;" d="M1421.3,2c1.57,1.26,1.84,3.55,0.6,5.15c-3.46,4.39-11.29,13.06-25.04,21.93
			c-3.28-5.34-7.63-12.44-11.91-19.54c5.9-9.8,11.78-19.63,14.68-24.99l19.6,15.79L1421.3,2z"/>
		<polygon style="&st21;" points="1412.17,61.12 1412.17,62.52 1412.17,75.87 1412.17,77.29 1418.07,77.29 1418.07,75.87 
			1418.07,62.52 1418.07,61.12 		"/>
		<path style="&st12;" d="M1412.17,62.52v13.35h-17.59v-5.43h1.66c0.69,0,1.22-0.55,1.22-1.24c0-0.67-0.53-1.22-1.22-1.22h-1.66
			v-5.46h7.94H1412.17z"/>
		<path style="&st23;" d="M1402.52,52.27v10.25h-7.94v-0.29c0-0.62-0.51-1.11-1.11-1.11h-17.05c-0.6,0-1.09,0.49-1.09,1.11v0.29
			h-17.59v-1.4h-5.92v1.4h-5.97l-3.04-17.99l-10.58-62.56l13.62-4.41l-5.52,5.23c-1.62,1.55-1.73,4.1-0.24,5.77l10.56,11.78
			L1348.58,2c-1.57,1.26-1.82,3.57-0.58,5.17c4.99,6.34,19.07,21.51,46.75,33.42c2.62,1.11,4.75,3.06,6.1,5.43
			c-0.02,0-0.02,0-0.04,0c-1.73,0-3.13,1.4-3.13,3.13c0,1.73,1.4,3.13,3.13,3.13c0.62,0,1.2-0.2,1.69-0.51
			C1402.52,51.94,1402.52,52.09,1402.52,52.27z M1372.2,33.93c0-1.73-1.4-3.13-3.13-3.13c-1.73,0-3.13,1.4-3.13,3.13
			c0,1.73,1.4,3.13,3.13,3.13C1370.81,37.06,1372.2,35.66,1372.2,33.93z M1372.2,49.14c0-1.73-1.4-3.13-3.13-3.13
			c-1.73,0-3.13,1.4-3.13,3.13c0,1.73,1.4,3.13,3.13,3.13C1370.81,52.27,1372.2,50.87,1372.2,49.14z"/>
		<path style="&st22;" d="M1400.86,46.02c-1.35-2.37-3.48-4.32-6.1-5.43c-27.68-11.91-41.76-27.08-46.75-33.42
			c-1.24-1.6-1-3.9,0.58-5.17l2.06-1.66l19.6-15.79c2.91,5.37,8.76,15.19,14.7,24.99c4.28,7.1,8.63,14.19,11.91,19.54
			c0.18,0.29,0.35,0.58,0.53,0.86c3.35,5.46,5.12,11.71,5.12,18.1v4.24c0-0.18,0-0.33-0.02-0.51
			C1402.43,49.7,1401.83,47.75,1400.86,46.02z"/>
		<circle style="&st19;" cx="1400.81" cy="123.79" r="3.13"/>
		<circle style="&st19;" cx="1400.81" cy="144.73" r="3.13"/>
		<path style="&st19;" d="M1402.5,51.76c-0.49,0.31-1.06,0.51-1.69,0.51c-1.73,0-3.13-1.4-3.13-3.13c0-1.73,1.4-3.13,3.13-3.13
			c0.02,0,0.02,0,0.04,0C1401.83,47.75,1402.43,49.7,1402.5,51.76z"/>
		<path style="&st24;" d="M1399.92-37.95c-0.75-1.57-2.33-2.53-4.06-2.53h-10.91h-10.93c-1.73,0-3.3,0.95-4.06,2.53
			c-1.46,2.99-3.37,8.43-2.35,14.81c0.38,2.46,1.2,5.03,2.64,7.67c2.91,5.37,8.76,15.19,14.7,24.99c5.9-9.8,11.78-19.63,14.68-24.99
			c1.44-2.64,2.26-5.21,2.64-7.67C1403.3-29.52,1401.39-34.95,1399.92-37.95z"/>
		<path style="&st21;" d="M1395.87-45.22v4.75h-10.91h-10.93c-1.73,0-3.3,0.95-4.06,2.53c-1.46,2.99-3.37,8.43-2.35,14.81
			c0.38,2.46,1.2,5.03,2.64,7.67l-19.6,15.79l-10.56-11.78c-1.49-1.66-1.38-4.21,0.24-5.77l5.52-5.23l22.11-20.96
			c1.22-1.15,2.84-1.82,4.52-1.82h12.46H1395.87z"/>
		<path style="&st19;" d="M1393.47,61.12h-17.05c-0.6,0-1.09,0.49-1.09,1.11v0.29v13.35v0.31c0,0.6,0.49,1.11,1.09,1.11h17.05
			c0.6,0,1.11-0.51,1.11-1.11v-0.31v-5.43h-2.37v3.84c0,0.44-0.35,0.82-0.8,0.82h-12.91c-0.47,0-0.82-0.38-0.82-0.82V64.14
			c0-0.44,0.35-0.82,0.82-0.82h12.91c0.44,0,0.8,0.38,0.8,0.82v3.84h2.37v-5.46v-0.29C1394.58,61.61,1394.07,61.12,1393.47,61.12z"
			/>
		<path style="&st12;" d="M1392.21,70.43v3.84c0,0.44-0.35,0.82-0.8,0.82h-12.91c-0.47,0-0.82-0.38-0.82-0.82V64.14
			c0-0.44,0.35-0.82,0.82-0.82h12.91c0.44,0,0.8,0.38,0.8,0.82v3.84h-6.03c-0.69,0-1.22,0.55-1.22,1.22c0,0.69,0.53,1.24,1.22,1.24
			H1392.21z"/>
		<path style="&st19;" d="M1396.24,67.97h-1.66h-2.37h-6.03c-0.69,0-1.22,0.55-1.22,1.22c0,0.69,0.53,1.24,1.22,1.24h6.03h2.37h1.66
			c0.69,0,1.22-0.55,1.22-1.24C1397.46,68.53,1396.93,67.97,1396.24,67.97z"/>
		<rect x="1357.74" y="62.52" style="&st12;" width="17.59" height="13.35"/>
		<circle style="&st19;" cx="1369.08" cy="33.93" r="3.13"/>
		<circle style="&st19;" cx="1369.08" cy="49.14" r="3.13"/>
		<circle style="&st19;" cx="1369.08" cy="123.79" r="3.13"/>
		<circle style="&st19;" cx="1369.08" cy="144.73" r="3.13"/>
		<polygon style="&st21;" points="1367.04,93.7 1366.13,96.63 1345.15,90.13 1346.06,87.18 		"/>
		<polygon style="&st21;" points="1351.82,61.12 1351.82,62.52 1351.82,75.87 1351.82,77.29 1357.74,77.29 1357.74,75.87 
			1357.74,62.52 1357.74,61.12 		"/>
		<rect x="1345.86" y="62.52" style="&st12;" width="5.97" height="13.35"/>
		<path style="&st21;" d="M1332.24-18.03l10.58,62.56l-14.5,60.34l-12.71-2.66l0.29-1.4l-6.17-1.31l-0.29,1.4l-6.96-1.46
			l24.08-113.55c0.29-1.4,1.31-2.53,2.66-2.95L1332.24-18.03z"/>
		<polygon style="&st21;" points="1326.54,112.19 1322.79,127.83 1297.82,121.4 1300.93,106.78 1307.89,108.27 1307.58,109.71 
			1313.74,111 1314.05,109.56 		"/>
		<polygon style="&st22;" points="1309.73,99.51 1309.44,100.91 1307.89,108.27 1307.58,109.71 1313.74,111 1314.05,109.56 
			1315.61,102.21 1315.9,100.82 		"/>
		<g>
			<polygon style="&st23;" points="1328.31,104.88 1315.61,102.21 1314.05,109.56 1326.54,112.19 1328.34,112.57 1329.89,105.21 			
				"/>
			<polygon style="&st23;" points="1300.75,99.09 1299.2,106.43 1300.93,106.78 1307.89,108.27 1309.44,100.91 1302.48,99.44 			"/>
		</g>
	</g>
	<g>
		<text transform="matrix(1 0 0 1 1486.7532 341.5353)" style="&st4; font-family:'CooperHewitt-Light'; font-size:28.7736px;">Winter Clothes</text>
		<g>
			<path style="&st4;" d="M1676.29,351.45h-197.56v-42.19h197.56V351.45z M1479.72,350.45h195.56v-40.19h-195.56V350.45z"/>
		</g>
	</g>
</g>
</svg>
