<?xml version="1.0" encoding="utf-8"?>
<!-- Generator: Adobe Illustrator 21.0.0, SVG Export Plug-In . SVG Version: 6.00 Build 0)  -->
<!DOCTYPE svg PUBLIC "-//W3C//DTD SVG 1.1//EN" "http://www.w3.org/Graphics/SVG/1.1/DTD/svg11.dtd" [
	<!ENTITY st0 "fill:none;">
	<!ENTITY st1 "fill:#3B4D57;">
	<!ENTITY st2 "fill:none;stroke:#506670;stroke-width:3;stroke-miterlimit:10;">
	<!ENTITY st3 "fill:url(#XMLID_3_);">
	<!ENTITY st4 "fill:#F9F8F7;">
	<!ENTITY st5 "fill:#718891;">
	<!ENTITY st6 "fill:#7C919B;">
	<!ENTITY st7 "fill:#FF9878;">
	<!ENTITY st8 "fill:#FC8B60;">
	<!ENTITY st9 "fill:#E56D4C;">
	<!ENTITY st10 "fill:#F47F5B;">
	<!ENTITY st11 "fill:#F45B5B;">
	<!ENTITY st12 "fill:#D8D0BB;">
	<!ENTITY st13 "fill:#FC6460;">
	<!ENTITY st14 "fill:#E55555;">
	<!ENTITY st15 "fill:#E2C3A8;">
	<!ENTITY st16 "fill:#E8CFB5;">
	<!ENTITY st17 "fill:#EFD7B8;">
	<!ENTITY st18 "fill:#D3AF94;">
	<!ENTITY st19 "fill:#E9E5D9;">
	<!ENTITY st20 "fill:#F9EBDC;">
	<!ENTITY st21 "fill:#97B797;">
	<!ENTITY st22 "fill:#AFC9B0;">
	<!ENTITY st23 "fill:#9DBF9F;">
	<!ENTITY st24 "fill:#8CAA8C;">
]>
<svg version="1.1" xmlns="http://www.w3.org/2000/svg" xmlns:xlink="http://www.w3.org/1999/xlink" x="0px" y="0px"
	 viewBox="0 0 251.79 279.46" style="enable-background:new 0 0 251.79 279.46;" xml:space="preserve">
<pattern  x="616.76" y="303.32" width="204.49" height="204.49" patternUnits="userSpaceOnUse" id="New_Pattern" viewBox="0 -204.49 204.49 204.49" style="overflow:visible;">
	<g>
		<rect x="0" y="-204.49" style="&st0;" width="204.49" height="204.49"/>
		<rect x="0" y="-204.49" style="&st1;" width="204.49" height="204.49"/>
		<g>
			<line style="&st2;" x1="29" y1="-190.16" x2="29" y2="-169.83"/>
			<line style="&st2;" x1="18.83" y1="-179.99" x2="39.17" y2="-179.99"/>
		</g>
		<g>
			<line style="&st2;" x1="161.33" y1="-51.08" x2="161.33" y2="-30.75"/>
			<line style="&st2;" x1="151.17" y1="-40.91" x2="171.5" y2="-40.91"/>
		</g>
		<g>
			<line style="&st2;" x1="171.5" y1="-191.41" x2="171.5" y2="-171.08"/>
			<line style="&st2;" x1="161.33" y1="-181.24" x2="181.67" y2="-181.24"/>
		</g>
		<g>
			<line style="&st2;" x1="69.25" y1="-97.66" x2="69.25" y2="-77.33"/>
			<line style="&st2;" x1="59.08" y1="-87.5" x2="79.42" y2="-87.5"/>
		</g>
		<g>
			<line style="&st2;" x1="49.33" y1="-134.74" x2="49.33" y2="-122.91"/>
			<line style="&st2;" x1="43.42" y1="-128.83" x2="55.25" y2="-128.83"/>
		</g>
		<g>
			<line style="&st2;" x1="88.33" y1="-175.74" x2="88.33" y2="-163.91"/>
			<line style="&st2;" x1="82.42" y1="-169.83" x2="94.25" y2="-169.83"/>
		</g>
		<g>
			<line style="&st2;" x1="186" y1="-127.16" x2="186" y2="-115.33"/>
			<line style="&st2;" x1="180.08" y1="-121.25" x2="191.92" y2="-121.25"/>
		</g>
		<g>
			<line style="&st2;" x1="20.33" y1="-22.66" x2="20.33" y2="-10.83"/>
			<line style="&st2;" x1="14.42" y1="-16.75" x2="26.25" y2="-16.75"/>
		</g>
		<g>
			<line style="&st2;" x1="113.25" y1="-106" x2="113.25" y2="-94.16"/>
			<line style="&st2;" x1="107.33" y1="-100.08" x2="119.17" y2="-100.08"/>
		</g>
		<g>
			<line style="&st2;" x1="91.75" y1="-39.16" x2="91.75" y2="-27.33"/>
			<line style="&st2;" x1="85.83" y1="-33.24" x2="97.67" y2="-33.24"/>
		</g>
	</g>
</pattern>
<g id="BACKGROUND">
	<pattern  id="XMLID_3_" xlink:href="#New_Pattern" patternTransform="matrix(0.3 0 0 0.3 -5550.3975 -5585.2573)">
	</pattern>
	<rect id="XMLID_1_" x="616.76" y="303.32" style="&st3;" width="800" height="800"/>
</g>
<g id="Designed_By_Freepik">
	<g id="Freepik_Sign">
		<g id="XMLID_306_">
			<path id="XMLID_550_" style="&st4;" d="M905.25,1044.3v-0.26c-0.35,0.4-0.69,0.72-1.03,0.97c-0.34,0.25-0.71,0.44-1.1,0.57
				c-0.4,0.13-0.83,0.2-1.3,0.2c-0.62,0-1.2-0.13-1.72-0.39c-0.53-0.26-0.99-0.64-1.37-1.13c-0.39-0.49-0.68-1.06-0.88-1.72
				c-0.2-0.66-0.3-1.37-0.3-2.14c0-1.62,0.4-2.88,1.19-3.79c0.79-0.9,1.83-1.36,3.13-1.36c0.75,0,1.38,0.13,1.89,0.38
				c0.51,0.26,1.01,0.65,1.5,1.18V1033c0-0.53,0.11-0.93,0.32-1.21c0.21-0.27,0.51-0.41,0.91-0.41c0.39,0,0.69,0.13,0.91,0.38
				c0.21,0.25,0.32,0.62,0.32,1.11v11.44c0,0.49-0.11,0.86-0.34,1.11c-0.23,0.25-0.52,0.37-0.88,0.37c-0.35,0-0.65-0.13-0.88-0.38
				C905.36,1045.14,905.25,1044.78,905.25,1044.3z M900.15,1040.49c0,0.7,0.11,1.3,0.33,1.79c0.22,0.49,0.52,0.87,0.9,1.12
				c0.38,0.25,0.79,0.38,1.24,0.38c0.46,0,0.87-0.12,1.25-0.36c0.38-0.24,0.68-0.6,0.9-1.09c0.23-0.49,0.34-1.11,0.34-1.84
				c0-0.69-0.11-1.29-0.34-1.78c-0.22-0.5-0.53-0.88-0.91-1.14c-0.38-0.26-0.8-0.39-1.26-0.39c-0.47,0-0.9,0.13-1.27,0.4
				c-0.37,0.27-0.66,0.65-0.87,1.16C900.25,1039.24,900.15,1039.83,900.15,1040.49z"/>
			<path id="XMLID_546_" style="&st4;" d="M916.68,1041.15h-5.07c0.01,0.59,0.12,1.11,0.36,1.56c0.23,0.45,0.54,0.79,0.92,1.02
				c0.38,0.23,0.81,0.34,1.27,0.34c0.31,0,0.59-0.04,0.85-0.11c0.26-0.07,0.5-0.19,0.75-0.34c0.24-0.15,0.46-0.32,0.66-0.5
				c0.2-0.18,0.46-0.42,0.79-0.72c0.13-0.11,0.32-0.17,0.57-0.17c0.27,0,0.48,0.07,0.64,0.22c0.16,0.15,0.25,0.35,0.25,0.62
				c0,0.23-0.09,0.51-0.28,0.82c-0.19,0.31-0.46,0.62-0.83,0.9c-0.37,0.29-0.84,0.53-1.4,0.72c-0.56,0.19-1.2,0.29-1.93,0.29
				c-1.66,0-2.96-0.47-3.88-1.42c-0.92-0.95-1.39-2.24-1.39-3.87c0-0.77,0.11-1.48,0.34-2.13c0.23-0.66,0.56-1.22,1-1.69
				c0.44-0.47,0.98-0.83,1.62-1.08c0.64-0.25,1.35-0.38,2.13-0.38c1.01,0,1.88,0.21,2.61,0.64c0.73,0.43,1.27,0.98,1.63,1.66
				c0.36,0.68,0.54,1.37,0.54,2.07c0,0.65-0.19,1.08-0.56,1.27S917.36,1041.15,916.68,1041.15z M911.61,1039.68h4.7
				c-0.06-0.89-0.3-1.55-0.72-1.99c-0.42-0.44-0.96-0.66-1.64-0.66c-0.65,0-1.18,0.22-1.59,0.67
				C911.95,1038.14,911.7,1038.8,911.61,1039.68z"/>
			<path id="XMLID_542_" style="&st4;" d="M928.5,1042.39c0,0.71-0.17,1.33-0.52,1.84c-0.35,0.51-0.86,0.9-1.54,1.16
				c-0.68,0.26-1.51,0.39-2.48,0.39c-0.93,0-1.73-0.14-2.39-0.43c-0.66-0.28-1.16-0.64-1.47-1.07c-0.32-0.43-0.48-0.86-0.48-1.29
				c0-0.29,0.1-0.53,0.3-0.73c0.2-0.2,0.46-0.3,0.77-0.3c0.27,0,0.48,0.07,0.63,0.2c0.15,0.13,0.29,0.32,0.42,0.56
				c0.27,0.46,0.58,0.81,0.96,1.04c0.37,0.23,0.87,0.34,1.52,0.34c0.52,0,0.94-0.12,1.28-0.35c0.33-0.23,0.5-0.5,0.5-0.79
				c0-0.46-0.17-0.79-0.52-1c-0.35-0.21-0.91-0.41-1.71-0.6c-0.89-0.22-1.62-0.46-2.18-0.7c-0.56-0.24-1.01-0.56-1.34-0.96
				c-0.34-0.4-0.5-0.89-0.5-1.47c0-0.52,0.15-1.01,0.47-1.47c0.31-0.46,0.77-0.83,1.37-1.11c0.6-0.28,1.33-0.41,2.19-0.41
				c0.67,0,1.27,0.07,1.81,0.21c0.54,0.14,0.98,0.33,1.34,0.56c0.36,0.23,0.63,0.49,0.82,0.78c0.19,0.29,0.28,0.56,0.28,0.84
				c0,0.3-0.1,0.54-0.3,0.73c-0.2,0.19-0.48,0.29-0.85,0.29c-0.27,0-0.49-0.08-0.68-0.23c-0.19-0.15-0.4-0.38-0.64-0.68
				c-0.2-0.25-0.43-0.46-0.69-0.61c-0.27-0.15-0.63-0.23-1.08-0.23c-0.47,0-0.86,0.1-1.17,0.3c-0.31,0.2-0.47,0.45-0.47,0.74
				c0,0.27,0.11,0.5,0.34,0.67c0.23,0.18,0.54,0.32,0.92,0.43c0.39,0.11,0.92,0.25,1.6,0.42c0.8,0.2,1.46,0.43,1.97,0.7
				c0.51,0.27,0.9,0.59,1.16,0.96C928.37,1041.49,928.5,1041.92,928.5,1042.39z"/>
			<path id="XMLID_530_" style="&st4;" d="M931.15,1034.03c-0.36,0-0.67-0.11-0.93-0.33c-0.26-0.22-0.38-0.54-0.38-0.94
				c0-0.37,0.13-0.67,0.39-0.91c0.26-0.24,0.57-0.36,0.92-0.36c0.34,0,0.63,0.11,0.89,0.32c0.26,0.21,0.39,0.53,0.39,0.94
				c0,0.4-0.13,0.71-0.38,0.94C931.79,1033.92,931.49,1034.03,931.15,1034.03z M932.43,1036.71v7.49c0,0.52-0.12,0.91-0.37,1.18
				c-0.25,0.27-0.56,0.4-0.94,0.4c-0.38,0-0.69-0.13-0.93-0.41c-0.24-0.27-0.36-0.66-0.36-1.17v-7.42c0-0.51,0.12-0.9,0.36-1.16
				c0.24-0.26,0.55-0.39,0.93-0.39c0.38,0,0.69,0.13,0.94,0.39C932.3,1035.89,932.43,1036.25,932.43,1036.71z"/>
			<path id="XMLID_513_" style="&st4;" d="M943.79,1037.14v7.53c0,0.86-0.09,1.6-0.28,2.22c-0.18,0.62-0.48,1.13-0.88,1.54
				c-0.41,0.4-0.94,0.71-1.59,0.9c-0.66,0.2-1.47,0.29-2.45,0.29c-0.89,0-1.69-0.13-2.39-0.38c-0.7-0.25-1.24-0.57-1.62-0.97
				c-0.38-0.4-0.57-0.8-0.57-1.22c0-0.32,0.11-0.58,0.32-0.77c0.21-0.2,0.48-0.3,0.78-0.3c0.38,0,0.71,0.17,1,0.5
				c0.14,0.17,0.28,0.34,0.43,0.52c0.15,0.18,0.31,0.32,0.49,0.45c0.18,0.12,0.4,0.21,0.65,0.28c0.25,0.06,0.55,0.09,0.87,0.09
				c0.67,0,1.19-0.09,1.56-0.28c0.37-0.19,0.63-0.45,0.78-0.78c0.15-0.33,0.24-0.69,0.26-1.08c0.03-0.38,0.04-1,0.06-1.85
				c-0.4,0.56-0.86,0.98-1.38,1.27c-0.52,0.29-1.14,0.44-1.87,0.44c-0.87,0-1.63-0.22-2.28-0.67c-0.65-0.44-1.15-1.06-1.5-1.86
				c-0.35-0.8-0.52-1.72-0.52-2.76c0-0.78,0.11-1.48,0.32-2.11c0.21-0.63,0.52-1.16,0.91-1.59c0.39-0.43,0.85-0.75,1.36-0.97
				c0.51-0.22,1.08-0.33,1.69-0.33c0.73,0,1.37,0.14,1.91,0.42c0.54,0.28,1.04,0.72,1.5,1.33v-0.35c0-0.45,0.11-0.8,0.33-1.04
				c0.22-0.25,0.51-0.37,0.86-0.37c0.5,0,0.83,0.16,1,0.49C943.7,1036.06,943.79,1036.53,943.79,1037.14z M936.27,1040.43
				c0,1.05,0.23,1.85,0.69,2.38c0.46,0.54,1.05,0.81,1.78,0.81c0.43,0,0.84-0.12,1.22-0.35c0.38-0.23,0.7-0.58,0.94-1.05
				c0.24-0.46,0.36-1.03,0.36-1.7c0-1.06-0.23-1.88-0.7-2.47s-1.08-0.88-1.84-0.88c-0.74,0-1.33,0.28-1.78,0.85
				C936.5,1038.59,936.27,1039.39,936.27,1040.43z"/>
			<path id="XMLID_504_" style="&st4;" d="M947.91,1036.67v0.31c0.46-0.6,0.95-1.04,1.5-1.32s1.16-0.42,1.87-0.42
				c0.68,0,1.29,0.15,1.83,0.45c0.54,0.3,0.94,0.72,1.21,1.26c0.17,0.32,0.28,0.66,0.33,1.03c0.05,0.37,0.08,0.84,0.08,1.41v4.82
				c0,0.52-0.12,0.91-0.36,1.18c-0.24,0.27-0.55,0.4-0.93,0.4c-0.39,0-0.7-0.13-0.94-0.41c-0.24-0.27-0.36-0.66-0.36-1.17v-4.32
				c0-0.85-0.12-1.51-0.36-1.96c-0.24-0.45-0.71-0.68-1.42-0.68c-0.46,0-0.88,0.14-1.26,0.41c-0.38,0.28-0.66,0.65-0.84,1.13
				c-0.13,0.39-0.19,1.11-0.19,2.17v3.25c0,0.53-0.12,0.92-0.37,1.18c-0.24,0.26-0.56,0.39-0.94,0.39c-0.37,0-0.68-0.13-0.92-0.41
				c-0.24-0.27-0.36-0.66-0.36-1.17v-7.49c0-0.49,0.11-0.86,0.32-1.11c0.22-0.24,0.51-0.37,0.88-0.37c0.23,0,0.43,0.05,0.62,0.16
				c0.18,0.11,0.33,0.27,0.44,0.48C947.85,1036.1,947.91,1036.36,947.91,1036.67z"/>
			<path id="XMLID_482_" style="&st4;" d="M963.68,1041.15h-5.07c0.01,0.59,0.12,1.11,0.36,1.56c0.23,0.45,0.54,0.79,0.92,1.02
				c0.38,0.23,0.81,0.34,1.27,0.34c0.31,0,0.59-0.04,0.85-0.11c0.26-0.07,0.5-0.19,0.75-0.34c0.24-0.15,0.46-0.32,0.67-0.5
				c0.2-0.18,0.46-0.42,0.79-0.72c0.13-0.11,0.32-0.17,0.57-0.17c0.27,0,0.48,0.07,0.65,0.22c0.16,0.15,0.25,0.35,0.25,0.62
				c0,0.23-0.09,0.51-0.28,0.82c-0.18,0.31-0.46,0.62-0.83,0.9c-0.37,0.29-0.83,0.53-1.4,0.72c-0.56,0.19-1.21,0.29-1.93,0.29
				c-1.67,0-2.96-0.47-3.89-1.42c-0.92-0.95-1.39-2.24-1.39-3.87c0-0.77,0.11-1.48,0.34-2.13c0.23-0.66,0.56-1.22,1-1.69
				c0.44-0.47,0.98-0.83,1.61-1.08c0.64-0.25,1.35-0.38,2.13-0.38c1.01,0,1.88,0.21,2.61,0.64c0.73,0.43,1.27,0.98,1.63,1.66
				c0.36,0.68,0.54,1.37,0.54,2.07c0,0.65-0.19,1.08-0.56,1.27C964.89,1041.05,964.36,1041.15,963.68,1041.15z M958.61,1039.68h4.7
				c-0.06-0.89-0.3-1.55-0.72-1.99c-0.42-0.44-0.96-0.66-1.64-0.66c-0.65,0-1.18,0.22-1.59,0.67
				C958.95,1038.14,958.7,1038.8,958.61,1039.68z"/>
			<path id="XMLID_476_" style="&st4;" d="M974.25,1044.3v-0.26c-0.35,0.4-0.69,0.72-1.03,0.97c-0.34,0.25-0.71,0.44-1.1,0.57
				c-0.4,0.13-0.83,0.2-1.3,0.2c-0.62,0-1.2-0.13-1.72-0.39c-0.53-0.26-0.99-0.64-1.37-1.13c-0.39-0.49-0.68-1.06-0.88-1.72
				c-0.2-0.66-0.3-1.37-0.3-2.14c0-1.62,0.4-2.88,1.19-3.79c0.79-0.9,1.83-1.36,3.13-1.36c0.75,0,1.38,0.13,1.89,0.38
				c0.51,0.26,1.01,0.65,1.5,1.18V1033c0-0.53,0.11-0.93,0.32-1.21c0.21-0.27,0.51-0.41,0.91-0.41c0.39,0,0.69,0.13,0.91,0.38
				c0.21,0.25,0.32,0.62,0.32,1.11v11.44c0,0.49-0.11,0.86-0.34,1.11c-0.23,0.25-0.52,0.37-0.88,0.37c-0.35,0-0.65-0.13-0.88-0.38
				C974.37,1045.14,974.25,1044.78,974.25,1044.3z M969.15,1040.49c0,0.7,0.11,1.3,0.33,1.79c0.22,0.49,0.52,0.87,0.9,1.12
				c0.38,0.25,0.79,0.38,1.24,0.38c0.46,0,0.87-0.12,1.25-0.36c0.38-0.24,0.68-0.6,0.9-1.09c0.23-0.49,0.34-1.11,0.34-1.84
				c0-0.69-0.11-1.29-0.34-1.78c-0.22-0.5-0.53-0.88-0.91-1.14c-0.38-0.26-0.8-0.39-1.26-0.39c-0.47,0-0.9,0.13-1.27,0.4
				c-0.37,0.27-0.66,0.65-0.87,1.16C969.25,1039.24,969.15,1039.83,969.15,1040.49z"/>
			<path id="XMLID_309_" style="&st4;" d="M984.85,1032.87v3.96c0.49-0.51,0.98-0.89,1.49-1.16c0.51-0.27,1.13-0.4,1.88-0.4
				c0.86,0,1.62,0.21,2.27,0.61c0.65,0.41,1.15,1,1.51,1.78c0.36,0.78,0.54,1.7,0.54,2.76c0,0.79-0.1,1.5-0.3,2.16
				c-0.2,0.66-0.49,1.22-0.87,1.71c-0.38,0.48-0.84,0.85-1.38,1.12c-0.54,0.26-1.14,0.39-1.79,0.39c-0.4,0-0.77-0.05-1.13-0.14
				c-0.35-0.09-0.65-0.22-0.9-0.38c-0.25-0.15-0.46-0.31-0.63-0.48c-0.17-0.16-0.4-0.41-0.69-0.74v0.26c0,0.49-0.12,0.86-0.35,1.11
				c-0.23,0.25-0.53,0.37-0.89,0.37c-0.37,0-0.66-0.12-0.88-0.37c-0.22-0.25-0.33-0.62-0.33-1.11v-11.32c0-0.53,0.11-0.92,0.32-1.19
				c0.21-0.27,0.51-0.4,0.89-0.4c0.4,0,0.71,0.13,0.92,0.38C984.74,1032.03,984.85,1032.39,984.85,1032.87z M984.97,1040.57
				c0,1.03,0.24,1.82,0.71,2.38c0.47,0.55,1.09,0.83,1.86,0.83c0.65,0,1.21-0.28,1.69-0.85c0.47-0.57,0.71-1.38,0.71-2.44
				c0-0.68-0.1-1.27-0.29-1.77c-0.2-0.49-0.47-0.88-0.84-1.14c-0.36-0.27-0.78-0.4-1.26-0.4c-0.49,0-0.93,0.13-1.32,0.4
				c-0.39,0.27-0.69,0.66-0.91,1.17C985.08,1039.26,984.97,1039.87,984.97,1040.57z"/>
			<path id="XMLID_307_" style="&st4;" d="M995.9,1046.11l0.24-0.58l-3.19-8.04c-0.2-0.46-0.29-0.8-0.29-1.01
				c0-0.22,0.06-0.43,0.17-0.62c0.11-0.19,0.27-0.34,0.47-0.46c0.2-0.12,0.41-0.17,0.62-0.17c0.37,0,0.65,0.12,0.85,0.36
				c0.19,0.24,0.36,0.58,0.5,1.02l2.19,6.38l2.08-5.94c0.16-0.48,0.31-0.86,0.45-1.13c0.13-0.27,0.27-0.46,0.42-0.55
				c0.15-0.1,0.36-0.14,0.63-0.14c0.2,0,0.38,0.05,0.57,0.16c0.18,0.1,0.32,0.24,0.42,0.42c0.1,0.18,0.15,0.36,0.15,0.56
				c-0.03,0.12-0.07,0.29-0.12,0.51c-0.06,0.22-0.13,0.45-0.21,0.67l-3.38,8.85c-0.29,0.78-0.58,1.39-0.86,1.83
				c-0.28,0.44-0.65,0.79-1.11,1.02c-0.46,0.24-1.08,0.36-1.86,0.36c-0.76,0-1.33-0.08-1.71-0.25c-0.38-0.17-0.57-0.47-0.57-0.9
				c0-0.3,0.09-0.53,0.27-0.69c0.18-0.16,0.45-0.24,0.8-0.24c0.14,0,0.28,0.02,0.41,0.06c0.16,0.04,0.31,0.06,0.43,0.06
				c0.3,0,0.53-0.04,0.7-0.13c0.17-0.09,0.32-0.24,0.46-0.46C995.56,1046.85,995.72,1046.53,995.9,1046.11z"/>
		</g>
		<g id="XMLID_253_">
			<path id="XMLID_304_" style="&st4;" d="M1033.46,1035.46h0.62v-0.78c0-0.81,0.1-1.46,0.31-1.94c0.2-0.48,0.55-0.83,1.05-1.04
				c0.49-0.22,1.16-0.33,2.02-0.33c1.52,0,2.27,0.37,2.27,1.11c0,0.24-0.08,0.45-0.24,0.62c-0.15,0.17-0.34,0.26-0.56,0.26
				c-0.1,0-0.28-0.02-0.53-0.06c-0.24-0.03-0.45-0.06-0.62-0.06c-0.47,0-0.77,0.14-0.9,0.42c-0.13,0.28-0.2,0.67-0.2,1.18v0.62h0.63
				c0.99,0,1.48,0.3,1.48,0.9c0,0.42-0.13,0.69-0.39,0.8c-0.26,0.11-0.62,0.17-1.09,0.17h-0.63v6.87c0,0.51-0.12,0.9-0.37,1.17
				c-0.24,0.27-0.55,0.41-0.94,0.41c-0.37,0-0.67-0.13-0.92-0.41c-0.24-0.27-0.36-0.66-0.36-1.17v-6.87h-0.71
				c-0.39,0-0.68-0.08-0.89-0.26c-0.21-0.17-0.31-0.4-0.31-0.68C1032.16,1035.77,1032.59,1035.46,1033.46,1035.46"/>
			<path id="XMLID_301_" style="&st4;" d="M1041.95,1042.04v2.17c0,0.52-0.13,0.92-0.38,1.18c-0.25,0.27-0.56,0.39-0.94,0.39
				c-0.38,0-0.69-0.13-0.93-0.4c-0.24-0.26-0.36-0.66-0.36-1.17v-7.22c0-1.17,0.42-1.75,1.26-1.75c0.43,0,0.74,0.13,0.93,0.41
				c0.19,0.27,0.29,0.67,0.32,1.21c0.31-0.53,0.63-0.93,0.95-1.21c0.33-0.27,0.76-0.41,1.31-0.41c0.55,0,1.07,0.13,1.59,0.41
				c0.52,0.27,0.77,0.64,0.77,1.08c0,0.31-0.11,0.58-0.33,0.78c-0.22,0.21-0.46,0.31-0.71,0.31c-0.1,0-0.33-0.06-0.69-0.18
				c-0.37-0.11-0.69-0.17-0.96-0.17c-0.38,0-0.69,0.1-0.93,0.3c-0.24,0.2-0.43,0.5-0.56,0.89c-0.13,0.39-0.22,0.87-0.27,1.4
				C1041.97,1040.6,1041.95,1041.26,1041.95,1042.04"/>
			<path id="XMLID_297_" style="&st4;" d="M1053.87,1041.15h-5.07c0.01,0.59,0.13,1.11,0.36,1.56c0.23,0.45,0.54,0.79,0.92,1.02
				c0.38,0.23,0.8,0.34,1.27,0.34c0.31,0,0.59-0.03,0.85-0.11c0.25-0.07,0.5-0.19,0.74-0.34c0.24-0.15,0.46-0.32,0.66-0.5
				c0.2-0.17,0.47-0.42,0.79-0.72c0.13-0.11,0.32-0.17,0.57-0.17c0.27,0,0.48,0.07,0.65,0.22c0.17,0.15,0.24,0.35,0.24,0.62
				c0,0.23-0.09,0.51-0.27,0.82c-0.19,0.32-0.46,0.62-0.84,0.91c-0.38,0.29-0.84,0.53-1.4,0.71c-0.56,0.19-1.21,0.29-1.93,0.29
				c-1.67,0-2.96-0.47-3.89-1.42c-0.92-0.95-1.39-2.24-1.39-3.87c0-0.77,0.12-1.48,0.35-2.13c0.22-0.66,0.56-1.22,1-1.69
				c0.44-0.47,0.97-0.83,1.61-1.08c0.64-0.25,1.35-0.38,2.13-0.38c1.01,0,1.88,0.21,2.61,0.65c0.72,0.42,1.27,0.98,1.63,1.65
				c0.36,0.68,0.54,1.37,0.54,2.07c0,0.65-0.19,1.07-0.56,1.27C1055.07,1041.05,1054.55,1041.15,1053.87,1041.15 M1048.79,1039.67
				h4.7c-0.06-0.88-0.3-1.55-0.71-1.99c-0.42-0.44-0.96-0.66-1.64-0.66c-0.65,0-1.18,0.22-1.59,0.67
				C1049.14,1038.14,1048.88,1038.8,1048.79,1039.67"/>
			<path id="XMLID_279_" style="&st4;" d="M1064.66,1041.15h-5.07c0.01,0.59,0.13,1.11,0.35,1.56c0.23,0.45,0.54,0.79,0.92,1.02
				c0.38,0.23,0.8,0.34,1.27,0.34c0.31,0,0.59-0.03,0.84-0.11c0.26-0.07,0.51-0.19,0.75-0.34c0.24-0.15,0.46-0.32,0.66-0.5
				c0.2-0.17,0.46-0.42,0.79-0.72c0.13-0.11,0.33-0.17,0.57-0.17c0.27,0,0.48,0.07,0.65,0.22c0.16,0.15,0.24,0.35,0.24,0.62
				c0,0.23-0.09,0.51-0.27,0.82c-0.18,0.32-0.46,0.62-0.83,0.91c-0.37,0.29-0.84,0.53-1.4,0.71c-0.56,0.19-1.21,0.29-1.93,0.29
				c-1.67,0-2.96-0.47-3.89-1.42c-0.92-0.95-1.39-2.24-1.39-3.87c0-0.77,0.12-1.48,0.35-2.13c0.23-0.66,0.56-1.22,1-1.69
				c0.44-0.47,0.97-0.83,1.61-1.08c0.64-0.25,1.35-0.38,2.13-0.38c1.01,0,1.88,0.21,2.61,0.65c0.72,0.42,1.27,0.98,1.62,1.65
				c0.36,0.68,0.54,1.37,0.54,2.07c0,0.65-0.19,1.07-0.56,1.27C1065.86,1041.05,1065.33,1041.15,1064.66,1041.15 M1059.58,1039.67
				h4.7c-0.06-0.88-0.3-1.55-0.71-1.99c-0.42-0.44-0.96-0.66-1.64-0.66c-0.65,0-1.18,0.22-1.59,0.67
				C1059.92,1038.14,1059.67,1038.8,1059.58,1039.67"/>
			<path id="XMLID_275_" style="&st4;" d="M1070.34,1036.69v0.31c0.49-0.6,0.99-1.04,1.53-1.32c0.52-0.29,1.12-0.43,1.78-0.43
				c0.79,0,1.54,0.21,2.21,0.62c0.67,0.41,1.2,1.02,1.59,1.81c0.39,0.79,0.59,1.73,0.59,2.81c0,0.79-0.11,1.53-0.34,2.2
				c-0.22,0.67-0.54,1.23-0.93,1.68c-0.39,0.45-0.86,0.8-1.39,1.04c-0.54,0.24-1.11,0.36-1.73,0.36c-0.74,0-1.36-0.15-1.87-0.45
				c-0.5-0.29-0.98-0.73-1.44-1.3v3.89c0,1.13-0.42,1.71-1.24,1.71c-0.49,0-0.81-0.15-0.97-0.44c-0.15-0.3-0.23-0.72-0.23-1.29
				v-11.19c0-0.49,0.11-0.86,0.32-1.11c0.21-0.24,0.51-0.36,0.88-0.36c0.37,0,0.67,0.13,0.9,0.37
				C1070.22,1035.86,1070.34,1036.22,1070.34,1036.69 M1075.42,1040.46c0-0.69-0.11-1.27-0.31-1.76c-0.21-0.49-0.5-0.87-0.87-1.13
				c-0.37-0.26-0.78-0.4-1.23-0.4c-0.71,0-1.32,0.28-1.81,0.84c-0.49,0.57-0.74,1.39-0.74,2.49c0,1.03,0.24,1.83,0.74,2.41
				c0.49,0.57,1.09,0.86,1.81,0.86c0.43,0,0.83-0.13,1.2-0.37c0.37-0.25,0.66-0.63,0.88-1.13
				C1075.31,1041.77,1075.42,1041.17,1075.42,1040.46"/>
			<path id="XMLID_268_" style="&st4;" d="M1080.64,1034.03c-0.36,0-0.67-0.12-0.92-0.34c-0.26-0.22-0.39-0.53-0.39-0.94
				c0-0.37,0.13-0.67,0.4-0.91c0.26-0.23,0.57-0.36,0.91-0.36c0.34,0,0.63,0.11,0.89,0.32c0.26,0.22,0.39,0.54,0.39,0.95
				c0,0.4-0.13,0.71-0.38,0.94C1081.29,1033.91,1080.99,1034.03,1080.64,1034.03 M1081.92,1036.71v7.5c0,0.52-0.12,0.91-0.37,1.17
				c-0.25,0.27-0.56,0.4-0.94,0.4s-0.69-0.13-0.93-0.41c-0.23-0.28-0.36-0.66-0.36-1.17v-7.43c0-0.51,0.12-0.89,0.36-1.15
				c0.24-0.26,0.55-0.39,0.93-0.39s0.69,0.13,0.94,0.39C1081.8,1035.89,1081.92,1036.25,1081.92,1036.71"/>
			<path id="XMLID_267_" style="&st4;" d="M1090.28,1044.6l-2.28-3.77l-1.41,1.33v2.07c0,0.5-0.13,0.88-0.4,1.15
				c-0.26,0.27-0.57,0.41-0.91,0.41c-0.4,0-0.71-0.13-0.94-0.4c-0.23-0.26-0.34-0.66-0.34-1.17v-11.06c0-0.57,0.12-1.01,0.33-1.31
				c0.22-0.3,0.54-0.45,0.95-0.45c0.4,0,0.71,0.14,0.95,0.41c0.23,0.27,0.35,0.67,0.35,1.2v6.29l2.92-3.06
				c0.36-0.38,0.63-0.64,0.83-0.78c0.19-0.14,0.42-0.21,0.69-0.21c0.33,0,0.59,0.1,0.82,0.31c0.21,0.21,0.32,0.46,0.32,0.77
				c0,0.38-0.35,0.89-1.05,1.52l-1.38,1.26l2.66,4.18c0.19,0.31,0.34,0.54,0.42,0.71c0.08,0.16,0.13,0.32,0.13,0.46
				c0,0.41-0.12,0.73-0.34,0.97c-0.22,0.24-0.52,0.35-0.88,0.35c-0.32,0-0.56-0.08-0.73-0.26
				C1090.81,1045.35,1090.57,1045.04,1090.28,1044.6"/>
			<path id="XMLID_264_" style="&st4;" d="M1095.92,1045.78c-0.39,0-0.73-0.13-1.01-0.38c-0.29-0.25-0.43-0.61-0.43-1.06
				c0-0.38,0.14-0.72,0.41-0.99c0.28-0.28,0.61-0.42,1.01-0.42c0.4,0,0.74,0.14,1.02,0.41c0.28,0.28,0.42,0.61,0.42,1
				c0,0.45-0.14,0.81-0.42,1.06C1096.63,1045.65,1096.29,1045.78,1095.92,1045.78"/>
			<path id="XMLID_263_" style="&st4;" d="M1108.81,1042.57c0,0.32-0.1,0.67-0.29,1.03c-0.19,0.37-0.49,0.72-0.89,1.05
				c-0.39,0.33-0.89,0.6-1.49,0.8c-0.6,0.2-1.28,0.31-2.03,0.31c-1.61,0-2.86-0.47-3.76-1.4c-0.89-0.94-1.35-2.19-1.35-3.76
				c0-1.07,0.21-2.01,0.62-2.82c0.41-0.81,1-1.45,1.78-1.89c0.78-0.45,1.72-0.67,2.79-0.67c0.67,0,1.29,0.1,1.85,0.29
				c0.56,0.2,1.03,0.45,1.43,0.76c0.39,0.31,0.69,0.64,0.89,0.99c0.21,0.35,0.31,0.68,0.31,0.99c0,0.31-0.11,0.57-0.34,0.79
				c-0.23,0.21-0.52,0.32-0.84,0.32c-0.22,0-0.4-0.06-0.54-0.17c-0.14-0.11-0.3-0.29-0.48-0.54c-0.32-0.48-0.65-0.84-1-1.08
				c-0.34-0.24-0.78-0.36-1.31-0.36c-0.76,0-1.38,0.3-1.85,0.9c-0.47,0.6-0.7,1.42-0.7,2.46c0,0.49,0.06,0.94,0.18,1.35
				c0.12,0.41,0.29,0.76,0.52,1.04c0.23,0.29,0.5,0.51,0.83,0.65c0.32,0.15,0.68,0.23,1.06,0.23c0.52,0,0.97-0.12,1.34-0.36
				c0.38-0.24,0.7-0.61,0.99-1.1c0.16-0.29,0.33-0.52,0.51-0.68c0.18-0.16,0.41-0.25,0.68-0.25c0.32,0,0.58,0.12,0.79,0.36
				C1108.71,1042.04,1108.81,1042.3,1108.81,1042.57"/>
			<path id="XMLID_260_" style="&st4;" d="M1120,1040.51c0,0.77-0.12,1.48-0.36,2.14c-0.25,0.65-0.59,1.21-1.05,1.68
				c-0.46,0.47-1,0.83-1.63,1.08c-0.64,0.25-1.35,0.38-2.14,0.38c-0.79,0-1.49-0.13-2.12-0.38c-0.62-0.25-1.17-0.61-1.63-1.08
				c-0.46-0.48-0.81-1.03-1.05-1.68c-0.23-0.64-0.35-1.36-0.35-2.13c0-0.79,0.12-1.51,0.36-2.16c0.24-0.65,0.59-1.21,1.04-1.67
				c0.45-0.46,0.99-0.82,1.63-1.07c0.64-0.25,1.35-0.37,2.12-0.37c0.79,0,1.5,0.13,2.14,0.38c0.64,0.25,1.18,0.62,1.64,1.08
				c0.46,0.47,0.8,1.03,1.04,1.67C1119.88,1039.02,1120,1039.73,1120,1040.51 M1117.4,1040.51c0-1.06-0.23-1.88-0.7-2.47
				c-0.46-0.6-1.09-0.89-1.88-0.89c-0.51,0-0.96,0.13-1.34,0.39c-0.39,0.26-0.68,0.65-0.89,1.16c-0.21,0.51-0.31,1.11-0.31,1.8
				c0,0.68,0.1,1.27,0.31,1.77c0.21,0.51,0.5,0.9,0.89,1.17c0.38,0.27,0.83,0.4,1.35,0.4c0.79,0,1.41-0.3,1.88-0.89
				C1117.17,1042.37,1117.4,1041.55,1117.4,1040.51"/>
			<path id="XMLID_259_" style="&st4;" d="M1129.9,1040.7v3.45c0,0.55-0.12,0.95-0.37,1.23c-0.25,0.27-0.57,0.41-0.98,0.41
				c-0.39,0-0.71-0.13-0.95-0.41c-0.25-0.28-0.37-0.68-0.37-1.23v-4.13c0-0.65-0.02-1.16-0.06-1.53c-0.04-0.35-0.17-0.65-0.36-0.88
				c-0.2-0.23-0.51-0.35-0.93-0.35c-0.85,0-1.41,0.29-1.68,0.88c-0.27,0.58-0.41,1.41-0.41,2.51v3.5c0,0.54-0.12,0.95-0.36,1.22
				c-0.25,0.27-0.57,0.41-0.96,0.41c-0.4,0-0.72-0.14-0.97-0.41c-0.25-0.28-0.38-0.69-0.38-1.22v-7.42c0-0.49,0.11-0.86,0.34-1.11
				c0.23-0.26,0.53-0.38,0.89-0.38c0.36,0,0.65,0.12,0.89,0.36c0.24,0.24,0.35,0.57,0.35,0.98v0.24c0.45-0.54,0.94-0.93,1.45-1.18
				c0.52-0.26,1.08-0.39,1.71-0.39c0.65,0,1.21,0.13,1.68,0.39c0.47,0.26,0.85,0.65,1.16,1.18c0.44-0.53,0.91-0.92,1.41-1.18
				c0.5-0.26,1.05-0.39,1.66-0.39c0.71,0,1.32,0.14,1.83,0.42c0.51,0.28,0.89,0.68,1.15,1.2c0.22,0.47,0.33,1.21,0.33,2.22v5.06
				c0,0.55-0.12,0.95-0.37,1.23c-0.25,0.27-0.57,0.41-0.98,0.41c-0.39,0-0.71-0.14-0.96-0.41c-0.25-0.28-0.38-0.69-0.38-1.22v-4.36
				c0-0.56-0.02-1-0.07-1.34c-0.05-0.34-0.18-0.62-0.38-0.85c-0.21-0.23-0.53-0.34-0.95-0.34c-0.34,0-0.67,0.11-0.97,0.31
				c-0.31,0.2-0.55,0.48-0.72,0.81C1129.99,1038.82,1129.9,1039.59,1129.9,1040.7"/>
		</g>
		<g id="XMLID_239_">
			<path id="XMLID_252_" style="&st4;" d="M1009.19,1039.88c0,0,0-0.01,0-0.02C1009.19,1039.87,1009.19,1039.88,1009.19,1039.88z"/>
			<path id="XMLID_251_" style="&st4;" d="M1009.32,1040.71C1009.32,1040.71,1009.32,1040.71,1009.32,1040.71
				c-0.05-0.24-0.09-0.47-0.12-0.7C1009.24,1040.24,1009.28,1040.48,1009.32,1040.71z"/>
			<path id="XMLID_250_" style="&st4;" d="M1010.18,1043.12c-0.01-0.01-0.01-0.02-0.02-0.03
				C1010.17,1043.1,1010.17,1043.11,1010.18,1043.12z"/>
			<path id="XMLID_249_" style="&st4;" d="M1010.1,1042.96c-0.02-0.05-0.04-0.09-0.07-0.13
				C1010.05,1042.87,1010.08,1042.91,1010.1,1042.96z"/>
			<path id="XMLID_248_" style="&st4;" d="M1009.56,1041.64c0.13,0.4,0.28,0.79,0.46,1.16
				C1009.84,1042.42,1009.69,1042.03,1009.56,1041.64C1009.57,1041.64,1009.56,1041.64,1009.56,1041.64z"/>
			<path id="XMLID_247_" style="&st4;" d="M1019.23,1029.95c0.5,0,0.87,0.04,1.29,0.11l0.12-0.76c0,0-1.17-0.36-2.71-0.23
				l-0.12-0.41c0.48-0.1,0.84-0.53,0.84-1.04c0-0.58-0.47-1.05-1.06-1.05c-0.58,0-1.06,0.47-1.06,1.05c0,0.51,0.36,0.93,0.84,1.04
				l0.13,0.46c-1.63,0.22-2.93,0.86-2.93,0.86l0.23,0.71c0.99-0.33,1.85-0.53,2.62-0.61
				C1018.19,1029.98,1018.76,1029.95,1019.23,1029.95z"/>
			<path id="XMLID_246_" style="&st4;" d="M1010.16,1033.8L1010.16,1033.8c0.04-0.06,0.08-0.1,0.12-0.15l-0.31-0.22l-0.49-0.36
				c-0.03,0.04-0.79,0.74-1.4,2.05c-0.03-0.04-0.06-0.08-0.09-0.12c-0.18-0.2-0.44-0.3-0.76-0.29c0,0-0.01,0-0.01,0
				c-0.2,0-0.34-0.07-0.43-0.15c0.09-0.11,0.14-0.26,0.14-0.41c0-0.37-0.3-0.67-0.67-0.67c-0.37,0-0.67,0.3-0.67,0.67
				c0,0.37,0.3,0.67,0.67,0.67c0.06,0,0.11-0.01,0.17-0.02c0.16,0.18,0.43,0.34,0.81,0.33c0.2,0,0.34,0.05,0.44,0.16
				c0.11,0.12,0.15,0.3,0.16,0.43c0,0,0,0,0,0c-0.44,1.19-0.31,2.67-0.31,2.67l1.06,0.04c0.02-0.54,0.1-1.48,0.37-2.23
				C1009.47,1034.75,1010.13,1033.84,1010.16,1033.8z"/>
			<path id="XMLID_245_" style="&st4;" d="M1028.43,1030.83c-0.37,0-0.67,0.3-0.67,0.67c0,0.06,0.01,0.11,0.02,0.16
				c-0.18,0.17-0.34,0.43-0.34,0.81c0,0.2-0.05,0.34-0.15,0.44c-0.08,0.07-0.19,0.12-0.29,0.14c-0.79-1.1-1.76-1.78-1.76-1.78
				l-0.76,0.81c0.57,0.52,1.16,1.18,1.73,1.99c0.39,0.56,0.8,1.29,1.14,2.02l1.02-0.49c0,0-0.47-1.16-1.13-2.19
				c0.11-0.04,0.23-0.1,0.33-0.19c0.2-0.18,0.3-0.44,0.29-0.76c0-0.21,0.07-0.35,0.15-0.44c0.12,0.09,0.26,0.14,0.41,0.14
				c0.37,0,0.67-0.3,0.67-0.67C1029.1,1031.13,1028.8,1030.83,1028.43,1030.83z"/>
			<path id="XMLID_244_" style="&st4;" d="M1025.77,1040.03c-1.41,0.69-3.73,1.59-6.78,2.02c-1.2,0.17-2.36,0.23-3.43,0.23
				c-1.39,0-2.62-0.1-3.56-0.22c-1.08-0.13-1.92-0.3-2.43-0.42c0.12,0.39,0.27,0.78,0.45,1.16c0,0.01,0.01,0.02,0.01,0.03
				c0.02,0.04,0.04,0.09,0.07,0.13c0.02,0.04,0.04,0.09,0.07,0.13c0.01,0.01,0.01,0.02,0.02,0.03c0.3,0.57,0.67,1.09,1.08,1.55
				c1.44,1.57,2.91,1.82,2.92,1.83l0.02,0l0.02,0.01c0.01,0.01,1.31,0.43,3.29,0.43c1.94,0,3.85-0.39,5.67-1.17
				c1.35-0.69,2.62-1.74,3.25-2.67c0.49-0.72,0.84-1.49,1.05-2.29c0.11-0.43,0.2-1.11,0.15-1.83
				C1027.25,1039.24,1026.62,1039.62,1025.77,1040.03z"/>
			<path id="XMLID_240_" style="&st4;" d="M1010.61,1034.14c-0.04,0.06-0.65,0.93-1.14,2.25c-0.36,0.99-0.35,2.44-0.35,2.46v0
				c0,0.34,0.02,0.68,0.06,1.01c0,0.01,0,0.01,0,0.02c0,0.04,0.01,0.08,0.02,0.13c0.03,0.23,0.07,0.47,0.12,0.7
				c0.7,0.18,4.88,1.15,9.55,0.5c2.93-0.41,5.15-1.27,6.5-1.93c1.12-0.54,1.84-1.04,2.12-1.24c-0.28-1.03-1.04-2.64-1.74-3.65
				c-2.01-2.87-4.17-3.6-5.28-3.78c-0.42-0.07-0.76-0.11-1.24-0.11c-0.45,0-1,0.04-1.74,0.12c-0.74,0.08-1.57,0.27-2.53,0.6
				c-1.35,0.45-2.57,1.16-3.53,2.05l-0.03,0.03C1011.25,1033.43,1010.95,1033.7,1010.61,1034.14z M1022.88,1033.47
				c0.96,0,1.74,0.78,1.74,1.74c0,0.96-0.78,1.74-1.74,1.74c-0.96,0-1.74-0.78-1.74-1.74
				C1021.14,1034.25,1021.92,1033.47,1022.88,1033.47z M1014.64,1033.4c1.56,0,2.82,1.26,2.82,2.82c0,1.55-1.26,2.81-2.82,2.81
				c-1.55,0-2.82-1.26-2.82-2.81C1011.83,1034.66,1013.09,1033.4,1014.64,1033.4z"/>
		</g>
	</g>
</g>
<g id="OBJECTS">
	<g>
		<path style="&st5;" d="M1339.21,481.07l23.6,193.12l-29.49,3.14l-14.64-126.27C1324.7,494.94,1339.21,481.07,1339.21,481.07z"/>
		<path style="&st6;" d="M1298.97,453.17l40.24,27.9c0,0-14.51,13.86-20.53,70c-3.31,30.81-4.09,74.39,1.52,135.43
			c0,0-40.17,7.98-61.61,7.98c-21.47,0-61.65-7.98-61.65-7.98c5.61-61,4.87-104.56,1.56-135.4c0-0.03,0-0.03,0-0.03
			c-6.02-56.17-20.53-70-20.53-70l40.21-27.9c0,0,15.66,18.67,40.41,18.67C1283.34,471.84,1298.97,453.17,1298.97,453.17z"/>
		<path style="&st5;" d="M1298.97,453.17c0,0-15.62,18.67-40.38,18.67c-24.75,0-40.41-18.67-40.41-18.67s21.27,6.46,40.41,6.46
			C1277.73,459.63,1298.97,453.17,1298.97,453.17z"/>
		<path style="&st5;" d="M1198.5,551.07c0,0,0,0,0,0.03l-14.64,126.23l-29.49-3.14l23.6-193.12
			C1177.97,481.07,1192.48,494.9,1198.5,551.07z"/>
	</g>
	<g>
		<polygon style="&st7;" points="-352.74,251.94 -365.52,278.03 -386.47,278.03 -387.92,251.94 		"/>
		<path style="&st8;" d="M-374.03,78.71l-13.99,59.99c-3.35,14.33-4.63,29.03-3.82,43.73l3.92,69.52l1.45,26.09l0.47,8.14
			c0,0-22.03,7.4-53.97,8.58v-0.03V131.36c0-1.86-0.2-3.72-0.64-5.54c-0.51-2.26-1.32-4.49-2.43-6.56l-3.65-6.76l25.11-23.99
			c10.07,6.52,18.65,7.94,18.65,7.94l-6.45-34.81L-374.03,78.71z M-398.26,142.92v-21.29v-4.16h-27.31v4.16v21.29l13.65,5.27
			L-398.26,142.92z"/>
		<polygon style="&st7;" points="-398.26,121.62 -398.26,142.92 -411.92,148.19 -425.57,142.92 -425.57,121.62 		"/>
		<rect x="-425.57" y="117.47" style="&st9;" width="27.31" height="4.16"/>
		<path style="&st7;" d="M-409.38,61.64l6.45,34.81c0,0-8.58-1.42-18.65-7.94c-3.45-2.2-7.03-5.04-10.54-8.62V59.1v-4.6
			c0-2.53-1.39-4.9-3.68-5.95c-2.6-1.18-6.66-2.37-12.44-2.37c-5.75,0-9.8,1.18-12.4,2.37c-2.33,1.05-3.72,3.41-3.72,5.95v4.6v20.78
			c-4.43,4.56-9.06,7.87-13.28,10.31c-8.85,5.1-15.92,6.25-15.92,6.25l6.45-34.81l15.92-21.53c1.49-1.99,3.82-3.18,6.29-3.18h16.66
			h16.69c2.47,0,4.8,1.18,6.29,3.18L-409.38,61.64z"/>
		<path style="&st10;" d="M-421.58,88.51l-25.11,23.99l14.57-32.61C-428.61,83.47-425.03,86.31-421.58,88.51z M-428.88,90.94
			c0-1.12-0.88-1.99-1.99-1.99c-1.08,0-1.96,0.88-1.96,1.99c0,1.08,0.88,1.96,1.96,1.96C-429.76,92.9-428.88,92.02-428.88,90.94z"/>
		<path style="&st7;" d="M-430.88,88.94c1.12,0,1.99,0.88,1.99,1.99c0,1.08-0.88,1.96-1.99,1.96c-1.08,0-1.96-0.88-1.96-1.96
			C-432.84,89.82-431.96,88.94-430.88,88.94z"/>
		<polygon style="&st9;" points="-432.13,59.1 -432.13,79.89 -446.69,112.5 -464.37,79.89 -464.37,59.1 -448.25,59.1 		"/>
		<path style="&st9;" d="M-432.13,54.51v4.6h-16.12h-16.12v-4.6c0-2.53,1.39-4.9,3.72-5.95c2.6-1.18,6.66-2.37,12.4-2.37
			c5.78,0,9.83,1.18,12.44,2.37C-433.51,49.61-432.13,51.97-432.13,54.51z"/>
		<path style="&st9;" d="M-439.97,294.72v0.03c-2.67,0.07-5.44,0.14-8.28,0.14c-2.8,0-5.58-0.07-8.25-0.14v-0.03V110.54l15.88,15.28
			c0.44,1.82,0.64,3.68,0.64,5.54V294.72z M-444.33,133.62c0-2.16-1.76-3.92-3.92-3.92s-3.92,1.76-3.92,3.92s1.76,3.92,3.92,3.92
			S-444.33,135.78-444.33,133.62z M-444.33,179.85c0-2.16-1.76-3.92-3.92-3.92s-3.92,1.76-3.92,3.92c0,2.16,1.76,3.92,3.92,3.92
			S-444.33,182.02-444.33,179.85z M-444.33,226.08c0-2.16-1.76-3.92-3.92-3.92s-3.92,1.76-3.92,3.92c0,2.16,1.76,3.92,3.92,3.92
			S-444.33,228.25-444.33,226.08z M-444.33,272.32c0-2.2-1.76-3.92-3.92-3.92s-3.92,1.72-3.92,3.92c0,2.16,1.76,3.92,3.92,3.92
			S-444.33,274.48-444.33,272.32z"/>
		<path style="&st10;" d="M-440.61,125.82l-15.88-15.28l-21.16-20.34c4.22-2.43,8.85-5.75,13.28-10.31l17.67,32.61l3.65,6.76
			C-441.93,121.32-441.12,123.55-440.61,125.82z M-463.62,90.94c0-1.12-0.88-1.99-1.99-1.99c-1.08,0-1.96,0.88-1.96,1.99
			c0,1.08,0.88,1.96,1.96,1.96C-464.5,92.9-463.62,92.02-463.62,90.94z"/>
		<circle style="&st7;" cx="-448.25" cy="133.62" r="3.92"/>
		<circle style="&st7;" cx="-448.25" cy="179.85" r="3.92"/>
		<circle style="&st7;" cx="-448.25" cy="226.08" r="3.92"/>
		<path style="&st7;" d="M-448.25,268.4c2.16,0,3.92,1.72,3.92,3.92c0,2.16-1.76,3.92-3.92,3.92s-3.92-1.76-3.92-3.92
			C-452.17,270.12-450.41,268.4-448.25,268.4z"/>
		<path style="&st8;" d="M-456.49,294.72v0.03c-31.9-1.15-53.97-8.58-53.97-8.58l0.44-8.14l1.49-26.09l3.89-69.52
			c0.84-14.7-0.44-29.4-3.78-43.73l-14.02-59.99l35.35-17.07l-6.45,34.81c0,0,7.06-1.15,15.92-6.25l21.16,20.34V294.72z
			 M-470.89,142.92v-21.29v-4.16h-27.34v4.16v21.29l13.69,5.27L-470.89,142.92z"/>
		<path style="&st7;" d="M-465.62,88.94c1.12,0,1.99,0.88,1.99,1.99c0,1.08-0.88,1.96-1.99,1.96c-1.08,0-1.96-0.88-1.96-1.96
			C-467.58,89.82-466.7,88.94-465.62,88.94z"/>
		<polygon style="&st7;" points="-470.89,121.62 -470.89,142.92 -484.54,148.19 -498.23,142.92 -498.23,121.62 		"/>
		<rect x="-498.23" y="117.47" style="&st9;" width="27.34" height="4.16"/>
		<polygon style="&st7;" points="-508.54,251.94 -510.02,278.03 -530.94,278.03 -543.75,251.94 		"/>
		<polygon style="&st9;" points="-543.75,251.94 -533.91,251.94 -535.13,244 		"/>
		<path style="&st10;" d="M-508.44,138.69l-14.03-59.99c0,0-26.22,70.16-12.67,165.29l1.22,7.94h25.37l3.89-69.52
			C-503.81,167.72-505.09,153.02-508.44,138.69z"/>
		<polygon style="&st9;" points="-352.74,251.94 -362.58,251.94 -361.36,244 		"/>
		<path style="&st10;" d="M-388.06,138.69l14.02-59.99c0,0,26.22,70.16,12.67,165.29l-1.22,7.94h-25.37l-3.89-69.52
			C-392.69,167.72-391.4,153.02-388.06,138.69z"/>
	</g>
	<g>
		<path style="&st11;" d="M1129.6,973.45c0.23,1-0.4,2.01-1.41,2.24l-24.97,5.46c-0.94,0.2-1.87-0.37-2.14-1.31l-3.61-12.82
			l28.92-6.16v0.03L1129.6,973.45z"/>
		<path style="&st12;" d="M1129.4,957.28c0.37,1.51-0.6,3.05-2.14,3.38l-0.87,0.2l-28.92,6.16l-2.44,0.5
			c-1.47,0.33-2.91-0.57-3.31-2.04l-8.1-31.77h-0.03l-4.18-126.59l9.31-20.45L1129.4,957.28z"/>
		<path style="&st12;" d="M1088.69,786.67l-9.31,20.45L1046.05,785c7.33-8.3,9.04-17.71,9.04-17.71l21.69,6.69
			C1082.74,775.79,1087.25,780.61,1088.69,786.67z"/>
		<path style="&st13;" d="M1083.71,937.67c0.23,6.09-1.47,12.12-4.82,17.2l-6.76,10.31h-55.87h-55.87l-6.76-10.31
			c-3.35-5.09-5.05-11.11-4.85-17.2l0.13-3.95l4.22-126.59l33.34-22.16c5.76,6.53,15.06,12.35,29.79,12.35
			c14.73,0,24-5.82,29.79-12.32l33.34,22.13l4.18,126.59L1083.71,937.67z M1072.12,908.85v-3.65h-31.97v3.65H1072.12z
			 M992.36,908.85v-3.65h-31.97v3.65H992.36z"/>
		<path style="&st11;" d="M1072.12,965.18v7c0,3.88-3.15,7-7,7h-48.87h-48.87c-3.88,0-7-3.11-7-7v-7h55.87H1072.12z"/>
		<rect x="1040.16" y="905.2" style="&st14;" width="31.97" height="3.65"/>
		<path style="&st11;" d="M1046.05,785c-5.79,6.49-15.06,12.32-29.79,12.32c-14.73,0-24.03-5.82-29.79-12.35
			c-7.33-8.3-9.04-17.67-9.04-17.67l8.5-2.61c0,0,2.51,24.47,30.33,24.47c27.82,0,30.33-24.47,30.33-24.47l8.5,2.61
			C1055.09,767.29,1053.38,776.7,1046.05,785z"/>
		<path style="&st14;" d="M1046.59,764.68c0,0-2.51,24.47-30.33,24.47c-27.82,0-30.33-24.47-30.33-24.47s14.36,8.94,30.33,8.94
			C1032.19,773.62,1046.59,764.68,1046.59,764.68z"/>
		<rect x="960.39" y="905.2" style="&st14;" width="31.97" height="3.65"/>
		<path style="&st12;" d="M986.47,784.96l-33.34,22.16l-9.31-20.45c1.44-6.06,5.96-10.88,11.88-12.69l21.72-6.69
			C977.43,767.29,979.14,776.66,986.47,784.96z"/>
		<path style="&st12;" d="M943.82,786.67l9.31,20.45l-4.22,126.59l-8.13,31.77c-0.37,1.47-1.81,2.38-3.28,2.04l-2.48-0.54
			l-28.89-6.13l-0.87-0.2c-1.54-0.33-2.51-1.87-2.14-3.38L943.82,786.67z"/>
		<path style="&st11;" d="M935.02,966.99v0.03l-3.58,12.82c-0.27,0.94-1.21,1.51-2.18,1.31l-24.94-5.46
			c-1.04-0.23-1.64-1.24-1.41-2.24l3.21-12.55v-0.03L935.02,966.99z"/>
	</g>
	<g>
		<path style="&st15;" d="M241.64,236.89l1.5,6.39c-7.89,6.18-18.04,8.44-29.84,7.89l-1.83-6.6h0.03
			C221.52,244.68,231.58,242.11,241.64,236.89z"/>
		<path style="&st16;" d="M200.09,61l41.55,175.88c-10.06,5.23-20.12,7.8-30.14,7.67h-0.03l-26.66-96.55
			C185.54,84.82,200.09,61,200.09,61z"/>
		<path style="&st17;" d="M175.14,48.9L200.09,61c0,0-14.55,23.82-15.29,87.01c-0.34,28.89,2.23,66.01,10.39,112.84
			c0,0-20.21,10.85-58,12.66V113.86c-1.93-2.97-3.79-5.9-5.56-8.84l21.34-12.14c7.18,3.15,14.43,4.71,19.23,5.44
			c3.15,0.49,6.05-1.74,6.39-4.92C179.52,84.39,180.43,65.86,175.14,48.9z"/>
		<path style="&st16;" d="M78.17,48.9c5.81-18.74,19.2-35.59,48.49-35.59c29.29,0,42.68,16.85,48.49,35.59
			c5.29,16.97,4.37,35.49,3.45,44.51c-0.34,3.18-3.24,5.41-6.39,4.92c-4.8-0.73-12.05-2.29-19.23-5.44
			c-6.45-2.81-12.9-6.97-17.49-13.02c4.71-10.03,8.44-19.93,10.79-29.75c0.4-1.62,0.76-3.27,1.07-4.89
			c1.31-6.73-1.74-13.6-7.77-16.91c-3.27-1.77-7.52-3.15-12.93-3.15c-5.41,0-9.69,1.38-12.96,3.15c-5.99,3.3-9.05,10.18-7.77,16.91
			c0.31,1.62,0.67,3.27,1.07,4.89c2.35,9.81,6.08,19.72,10.85,29.72c-4.59,6.05-11.04,10.21-17.52,13.05
			c-7.18,3.15-14.43,4.71-19.23,5.44c-3.15,0.49-6.05-1.74-6.39-4.92C73.8,84.36,72.88,65.83,78.17,48.9z"/>
		<path style="&st15;" d="M152.98,92.89l-21.34,12.14c-1.74-2.84-3.42-5.66-5.01-8.47l0.12-0.09c3.18-5.56,6.11-11.1,8.74-16.6
			C140.08,85.92,146.53,90.08,152.98,92.89z M139.59,91.88c0-1.44-1.16-2.6-2.6-2.6c-1.44,0-2.6,1.16-2.6,2.6
			c0,1.41,1.16,2.57,2.6,2.57C138.43,94.45,139.59,93.29,139.59,91.88z"/>
		<path style="&st18;" d="M139.59,28.32c6.02,3.3,9.08,10.18,7.77,16.91c-0.31,1.62-0.67,3.27-1.07,4.89
			c-13.12-7.22-26.17-7.22-39.29,0c-0.4-1.62-0.76-3.27-1.07-4.89c-1.28-6.73,1.77-13.6,7.77-16.91c3.27-1.77,7.55-3.15,12.96-3.15
			C132.07,25.17,136.32,26.55,139.59,28.32z"/>
		<path style="&st18;" d="M135.49,79.87c-2.63,5.5-5.56,11.04-8.74,16.6l-0.12,0.09c-3.21-5.59-6.15-11.16-8.77-16.72
			c-4.77-10-8.5-19.9-10.85-29.72c13.12-7.22,26.17-7.22,39.29,0C143.93,59.93,140.2,69.84,135.49,79.87z"/>
		<path style="&st19;" d="M136.99,89.28c1.44,0,2.6,1.16,2.6,2.6c0,1.41-1.16,2.57-2.6,2.57c-1.44,0-2.6-1.16-2.6-2.57
			C134.39,90.44,135.55,89.28,136.99,89.28z"/>
		<path style="&st15;" d="M137.2,113.86v159.65c-3.36,0.15-6.88,0.24-10.55,0.24V107.87L137.2,113.86z M134.24,119.92
			c0-1.44-1.16-2.6-2.6-2.6c-1.44,0-2.6,1.16-2.6,2.6s1.16,2.6,2.6,2.6C133.08,122.51,134.24,121.35,134.24,119.92z M134.24,147.46
			c0-1.44-1.16-2.6-2.6-2.6c-1.44,0-2.6,1.16-2.6,2.6c0,1.44,1.16,2.6,2.6,2.6C133.08,150.06,134.24,148.9,134.24,147.46z
			 M134.24,175.01c0-1.44-1.16-2.6-2.6-2.6c-1.44,0-2.6,1.16-2.6,2.6c0,1.44,1.16,2.6,2.6,2.6
			C133.08,177.61,134.24,176.44,134.24,175.01z M134.24,202.55c0-1.44-1.16-2.6-2.6-2.6c-1.44,0-2.6,1.16-2.6,2.6
			c0,1.44,1.16,2.6,2.6,2.6C133.08,205.15,134.24,203.99,134.24,202.55z M134.24,230.1c0-1.44-1.16-2.6-2.6-2.6
			c-1.44,0-2.6,1.16-2.6,2.6s1.16,2.6,2.6,2.6C133.08,232.7,134.24,231.54,134.24,230.1z M134.24,257.65c0-1.44-1.16-2.6-2.6-2.6
			c-1.44,0-2.6,1.16-2.6,2.6s1.16,2.6,2.6,2.6C133.08,260.24,134.24,259.08,134.24,257.65z"/>
		<path style="&st15;" d="M137.2,113.86l-10.55-5.99v-0.03l-26.32-14.95c6.48-2.84,12.93-7,17.52-13.05
			c2.63,5.56,5.56,11.13,8.77,16.72c1.59,2.81,3.27,5.63,5.01,8.47C133.41,107.96,135.28,110.9,137.2,113.86z M118.89,91.88
			c0-1.44-1.16-2.6-2.6-2.6c-1.41,0-2.57,1.16-2.57,2.6c0,1.41,1.16,2.57,2.57,2.57C117.73,94.45,118.89,93.29,118.89,91.88z"/>
		<circle style="&st19;" cx="131.64" cy="119.92" r="2.6"/>
		<circle style="&st19;" cx="131.64" cy="147.46" r="2.6"/>
		<circle style="&st19;" cx="131.64" cy="175.01" r="2.6"/>
		<circle style="&st19;" cx="131.64" cy="202.55" r="2.6"/>
		<circle style="&st19;" cx="131.64" cy="230.1" r="2.6"/>
		<circle style="&st19;" cx="131.64" cy="257.65" r="2.6"/>
		<path style="&st17;" d="M126.66,107.87v165.89c-44.57,0-68.54-12.9-68.54-12.9c8.16-46.84,10.73-83.95,10.39-112.84
			C67.77,84.82,53.19,61,53.19,61L78.17,48.9c-5.29,16.94-4.37,35.46-3.45,44.51c0.34,3.18,3.24,5.41,6.39,4.92
			c4.8-0.73,12.05-2.29,19.23-5.44l26.32,14.95V107.87z"/>
		<path style="&st19;" d="M116.29,89.28c1.44,0,2.6,1.16,2.6,2.6c0,1.41-1.16,2.57-2.6,2.57c-1.41,0-2.57-1.16-2.57-2.57
			C113.72,90.44,114.89,89.28,116.29,89.28z"/>
		<path style="&st16;" d="M68.51,148.01l-26.69,96.55c-10.06,0.12-20.09-2.45-30.14-7.67L53.19,61
			C53.19,61,67.77,84.82,68.51,148.01z"/>
		<path style="&st15;" d="M41.82,244.56l-1.83,6.6c-11.77,0.55-21.95-1.71-29.81-7.89l1.5-6.39
			C21.73,242.11,31.76,244.68,41.82,244.56z"/>
	</g>
	<g>
		<polygon style="&st17;" points="21.48,610.98 67.27,694.96 59.3,704.57 56.81,699.66 -5.42,577.18 -2.98,577.18 -2.98,575.67 
			2.23,575.67 14.97,599.01 		"/>
		<polygon style="&st15;" points="56.81,699.66 45.19,708.68 -5.63,577.18 -5.42,577.18 		"/>
		<polygon style="&st17;" points="45.19,708.68 48.59,717.5 4.06,729.97 -20.49,575.67 -9.21,575.67 -9.21,577.18 -5.63,577.18 		
			"/>
		<path style="&st15;" d="M34.82,607.85l-13.34,3.13l-6.51-11.97l-9.5-46.98l2.12-8.45c1.39-5.55,2.08-11.26,2.06-16.97
			c0,0-0.16-32-0.18-39.58c0.73,0.96,1.32,2.06,1.76,3.22C24.02,525.84,31.35,565.42,34.82,607.85z"/>
		<polygon style="&st15;" points="-20.49,575.67 4.06,729.97 3.28,725.17 -15.45,729.71 		"/>
		<rect x="-2.98" y="564.92" style="&st20;" width="5.21" height="10.76"/>
		<polygon style="&st15;" points="-9.21,563.46 -9.21,564.92 -9.21,575.67 -9.21,577.18 -5.63,577.18 -5.42,577.18 -2.98,577.18 
			-2.98,575.67 -2.98,564.92 -2.98,563.46 		"/>
		<path style="&st20;" d="M-9.21,564.92v10.76h-11.28h-4.93v-4.2h1.53c0.62,0,1.14-0.53,1.14-1.14c0-0.64-0.53-1.14-1.14-1.14h-1.53
			v-4.27H-9.21z"/>
		<path style="&st17;" d="M-15.45,729.71l0.21,6.49h-17.49V577.18h6.37c0.53,0,0.94-0.43,0.94-0.94v-0.57h4.93L-15.45,729.71z"/>
		<path style="&st15;" d="M-23.9,569.19h-1.53h-2.1h-4.07c-0.62,0-1.14,0.5-1.14,1.14c0,0.62,0.53,1.14,1.14,1.14h4.07h2.1h1.53
			c0.62,0,1.14-0.53,1.14-1.14C-22.75,569.69-23.28,569.19-23.9,569.19z"/>
		<path style="&st17;" d="M-32.73,577.18V736.2H-50.2l0.21-6.49l5.02-154.04h4.96v0.57c0,0.5,0.41,0.94,0.94,0.94H-32.73z"/>
		<path style="&st20;" d="M-31.59,569.19h4.07v-2.79c0-0.53-0.43-0.98-0.96-0.98h-4.25h-4.22c-0.55,0-0.98,0.46-0.98,0.98v7.83
			c0,0.55,0.43,0.98,0.98,0.98h4.22h4.25c0.53,0,0.96-0.43,0.96-0.98v-2.76h-4.07c-0.62,0-1.14-0.53-1.14-1.14
			C-32.73,569.69-32.21,569.19-31.59,569.19z"/>
		<path style="&st15;" d="M-26.36,563.46h-6.37h-6.35c-0.53,0-0.94,0.43-0.94,0.96v0.5v10.76v0.57c0,0.5,0.41,0.94,0.94,0.94h6.35
			h6.37c0.53,0,0.94-0.43,0.94-0.94v-0.57v-4.2h-2.1v2.76c0,0.55-0.43,0.98-0.96,0.98h-4.25h-4.22c-0.55,0-0.98-0.43-0.98-0.98
			v-7.83c0-0.53,0.43-0.98,0.98-0.98h4.22h4.25c0.53,0,0.96,0.46,0.96,0.98v2.79h2.1v-4.27v-0.5
			C-25.43,563.89-25.84,563.46-26.36,563.46z"/>
		<path style="&st17;" d="M9.47,487.04c-1.21-1.6-2.83-2.9-4.68-3.79l-10.25-4.8c0,0-8.82,40.72-27.27,40.72
			c-18.45,0-27.25-40.72-27.25-40.72l-10.28,4.8c-1.83,0.87-3.45,2.17-4.66,3.77c-0.05,7.49-0.18,39.6-0.18,39.6
			c-0.05,5.71,0.66,11.42,2.06,16.97l2.12,8.45v0.02l3.22,12.86h5.23v-1.46h6.23v1.46h16.21v-0.5c0-0.53,0.41-0.96,0.94-0.96h6.35
			h6.37c0.53,0,0.94,0.43,0.94,0.96v0.5h16.21v-1.46h6.23v1.46h5.21l3.24-12.88l2.12-8.45c1.39-5.55,2.08-11.26,2.06-16.97
			C9.65,526.62,9.49,494.62,9.47,487.04z"/>
		<path style="&st20;" d="M-8.25,477.15c0,0-8.52,39.3-24.48,39.3s-24.48-39.3-24.48-39.3l-2.76,1.3c0,0,8.79,40.72,27.25,40.72
			c18.45,0,27.27-40.72,27.27-40.72L-8.25,477.15z"/>
		<path style="&st18;" d="M-32.73,483.78c-13.41,0-24.48-6.62-24.48-6.62s8.52,39.3,24.48,39.3s24.48-39.3,24.48-39.3
			S-19.3,483.78-32.73,483.78z"/>
		<polygon style="&st20;" points="-40.02,564.92 -40.02,575.67 -44.97,575.67 -56.23,575.67 -56.23,564.92 		"/>
		<polygon style="&st15;" points="-44.97,575.67 -50,729.71 -68.75,725.17 		"/>
		<polygon style="&st17;" points="-44.97,575.67 -68.75,725.17 -69.5,729.97 -114.06,717.5 -110.66,708.68 -59.84,577.18 
			-56.23,577.18 -56.23,575.67 		"/>
		<polygon style="&st15;" points="-62.47,563.46 -62.47,564.92 -62.47,575.67 -62.47,577.18 -60.02,577.18 -59.84,577.18 
			-56.23,577.18 -56.23,575.67 -56.23,564.92 -56.23,563.46 		"/>
		<polygon style="&st15;" points="-59.84,577.18 -110.66,708.68 -122.26,699.66 -60.02,577.18 		"/>
		<polygon style="&st17;" points="-60.02,577.18 -122.26,699.66 -124.75,704.57 -132.74,694.96 -86.95,610.98 -80.42,599.01 
			-80.42,598.99 -67.7,575.67 -62.47,575.67 -62.47,577.18 		"/>
		<rect x="-67.7" y="564.92" style="&st20;" width="5.23" height="10.76"/>
		<path style="&st15;" d="M-70.92,552.04v0.02l-9.5,46.93v0.02l-6.53,11.97l-13.31-3.13c3.47-42.43,10.8-82.01,23.57-117.59
			c0.43-1.16,1.03-2.26,1.78-3.24c-0.05,7.49-0.18,39.6-0.18,39.6c-0.05,5.71,0.66,11.42,2.06,16.97L-70.92,552.04z"/>
	</g>
	<g>
		<polygon style="&st21;" points="908.21,134.67 911.32,149.29 886.35,155.72 882.6,140.09 895.09,137.45 895.4,138.89 
			901.56,137.6 901.25,136.16 		"/>
		<path style="&st21;" d="M882.6,13.79l24.06,113.55l-6.96,1.46l-0.29-1.4l-6.14,1.31l0.29,1.4l-12.73,2.66l-14.5-60.34L876.9,9.86
			l3.02,0.98C881.27,11.26,882.29,12.39,882.6,13.79z"/>
		<polygon style="&st22;" points="901.25,136.16 899.7,128.8 899.41,127.4 893.27,128.71 893.55,130.11 895.09,137.45 895.4,138.89 
			901.56,137.6 		"/>
		<g>
			<polygon style="&st23;" points="908.39,126.98 906.66,127.33 899.7,128.8 901.25,136.16 908.21,134.67 909.94,134.32 			"/>
			<polygon style="&st23;" points="880.83,132.77 879.25,133.1 880.8,140.46 882.6,140.09 895.09,137.45 893.55,130.11 			"/>
		</g>
		<path style="&st23;" d="M897.04,231.48c0,0-26.86,10.18-72.83,10.18c-46,0-72.85-10.18-72.85-10.18
			c3.39-37.86,11.18-68.53,18.38-90.31c8.03-24.17,15.37-37.41,15.37-37.41h5.97v1.42H797v-1.42h17.59v0.31
			c0,0.6,0.49,1.11,1.09,1.11h17.05c0.6,0,1.11-0.51,1.11-1.11v-0.31h17.59v1.42h5.9v-1.42h5.97c0,0,7.34,13.24,15.37,37.41
			C885.86,162.95,893.62,193.62,897.04,231.48z M863.99,118.02l-0.91-2.95l-20.98,6.52l0.91,2.93L863.99,118.02z M843.19,151.68
			c0-1.73-1.4-3.13-3.13-3.13s-3.13,1.4-3.13,3.13c0,1.73,1.4,3.13,3.13,3.13S843.19,153.41,843.19,151.68z M843.19,172.62
			c0-1.73-1.4-3.13-3.13-3.13s-3.13,1.4-3.13,3.13s1.4,3.13,3.13,3.13S843.19,174.35,843.19,172.62z M811.45,151.68
			c0-1.73-1.4-3.13-3.13-3.13c-1.73,0-3.13,1.4-3.13,3.13c0,1.73,1.4,3.13,3.13,3.13C810.06,154.81,811.45,153.41,811.45,151.68z
			 M811.45,172.62c0-1.73-1.4-3.13-3.13-3.13c-1.73,0-3.13,1.4-3.13,3.13s1.4,3.13,3.13,3.13
			C810.06,175.75,811.45,174.35,811.45,172.62z M805.38,124.52l0.91-2.93l-20.98-6.52l-0.91,2.95L805.38,124.52z"/>
		<path style="&st23;" d="M876.9,9.86l-10.58,62.56l-3.04,17.99h-5.97v-1.4h-5.9v1.4h-9.65V80.16v-4.24c0-6.39-1.77-12.64-5.12-18.1
			c-0.18-0.29-0.35-0.58-0.53-0.86c13.75-8.87,21.58-17.54,25.04-21.93c1.24-1.6,0.98-3.88-0.6-5.15l-2.06-1.66l10.56-11.78
			c1.49-1.66,1.37-4.21-0.24-5.77l-5.52-5.23L876.9,9.86z"/>
		<path style="&st21;" d="M868.81,10.68c1.62,1.55,1.73,4.1,0.24,5.77l-10.56,11.78l-19.6-15.79c1.44-2.64,2.26-5.21,2.64-7.67
			c1.02-6.39-0.89-11.82-2.35-14.81c-0.75-1.57-2.33-2.53-4.06-2.53v-4.75h1.53c1.69,0,3.3,0.67,4.52,1.82l22.11,20.96L868.81,10.68
			z"/>
		<polygon style="&st21;" points="863.08,115.07 863.99,118.02 843.01,124.52 842.1,121.59 		"/>
		<rect x="857.32" y="90.41" style="&st12;" width="5.97" height="13.35"/>
		<path style="&st22;" d="M860.56,29.89c1.57,1.26,1.84,3.55,0.6,5.15c-3.46,4.39-11.29,13.06-25.04,21.93
			c-3.28-5.34-7.63-12.44-11.91-19.54c5.9-9.8,11.78-19.63,14.68-24.99l19.6,15.79L860.56,29.89z"/>
		<polygon style="&st21;" points="851.42,89.01 851.42,90.41 851.42,103.76 851.42,105.18 857.32,105.18 857.32,103.76 
			857.32,90.41 857.32,89.01 		"/>
		<path style="&st12;" d="M851.42,90.41v13.35h-17.59v-5.43h1.66c0.69,0,1.22-0.55,1.22-1.24c0-0.67-0.53-1.22-1.22-1.22h-1.66
			v-5.46h7.94H851.42z"/>
		<path style="&st23;" d="M841.77,80.16v10.25h-7.94v-0.29c0-0.62-0.51-1.11-1.11-1.11h-17.05c-0.6,0-1.09,0.49-1.09,1.11v0.29H797
			v-1.4h-5.92v1.4h-5.97l-3.04-17.99L771.49,9.86l13.62-4.41l-5.52,5.23c-1.62,1.55-1.73,4.1-0.24,5.77l10.56,11.78l-2.06,1.66
			c-1.57,1.26-1.82,3.57-0.58,5.17c4.99,6.34,19.07,21.51,46.75,33.42c2.62,1.11,4.75,3.06,6.1,5.43c-0.02,0-0.02,0-0.04,0
			c-1.73,0-3.13,1.4-3.13,3.13c0,1.73,1.4,3.13,3.13,3.13c0.62,0,1.2-0.2,1.69-0.51C841.77,79.83,841.77,79.99,841.77,80.16z
			 M811.45,61.82c0-1.73-1.4-3.13-3.13-3.13c-1.73,0-3.13,1.4-3.13,3.13s1.4,3.13,3.13,3.13C810.06,64.95,811.45,63.55,811.45,61.82
			z M811.45,77.04c0-1.73-1.4-3.13-3.13-3.13c-1.73,0-3.13,1.4-3.13,3.13c0,1.73,1.4,3.13,3.13,3.13
			C810.06,80.16,811.45,78.77,811.45,77.04z"/>
		<path style="&st22;" d="M840.11,73.91c-1.35-2.37-3.48-4.32-6.1-5.43c-27.68-11.91-41.76-27.08-46.75-33.42
			c-1.24-1.6-1-3.9,0.58-5.17l2.06-1.66l19.6-15.79c2.91,5.37,8.76,15.19,14.7,24.99c4.28,7.1,8.63,14.19,11.91,19.54
			c0.18,0.29,0.35,0.58,0.53,0.86c3.35,5.46,5.12,11.71,5.12,18.1v4.24c0-0.18,0-0.33-0.02-0.51
			C841.68,77.59,841.08,75.64,840.11,73.91z"/>
		<circle style="&st19;" cx="840.06" cy="151.68" r="3.13"/>
		<circle style="&st19;" cx="840.06" cy="172.62" r="3.13"/>
		<path style="&st19;" d="M841.75,79.65c-0.49,0.31-1.06,0.51-1.69,0.51c-1.73,0-3.13-1.4-3.13-3.13c0-1.73,1.4-3.13,3.13-3.13
			c0.02,0,0.02,0,0.04,0C841.08,75.64,841.68,77.59,841.75,79.65z"/>
		<path style="&st24;" d="M839.18-10.05c-0.75-1.57-2.33-2.53-4.06-2.53h-10.91h-10.93c-1.73,0-3.3,0.95-4.06,2.53
			c-1.46,2.99-3.37,8.43-2.35,14.81c0.38,2.46,1.2,5.03,2.64,7.67c2.91,5.37,8.76,15.19,14.7,24.99c5.9-9.8,11.78-19.63,14.68-24.99
			c1.44-2.64,2.26-5.21,2.64-7.67C842.55-1.63,840.64-7.06,839.18-10.05z"/>
		<path style="&st21;" d="M835.12-17.33v4.75h-10.91h-10.93c-1.73,0-3.3,0.95-4.06,2.53c-1.46,2.99-3.37,8.43-2.35,14.81
			c0.38,2.46,1.2,5.03,2.64,7.67l-19.6,15.79l-10.56-11.78c-1.49-1.66-1.37-4.21,0.24-5.77l5.52-5.23l22.11-20.96
			c1.22-1.15,2.84-1.82,4.52-1.82h12.46H835.12z"/>
		<path style="&st19;" d="M832.72,89.01h-17.05c-0.6,0-1.09,0.49-1.09,1.11v0.29v13.35v0.31c0,0.6,0.49,1.11,1.09,1.11h17.05
			c0.6,0,1.11-0.51,1.11-1.11v-0.31v-5.43h-2.37v3.84c0,0.44-0.35,0.82-0.8,0.82h-12.91c-0.47,0-0.82-0.38-0.82-0.82V92.03
			c0-0.44,0.35-0.82,0.82-0.82h12.91c0.44,0,0.8,0.38,0.8,0.82v3.84h2.37v-5.46v-0.29C833.83,89.5,833.32,89.01,832.72,89.01z"/>
		<path style="&st12;" d="M831.46,98.33v3.84c0,0.44-0.35,0.82-0.8,0.82h-12.91c-0.47,0-0.82-0.38-0.82-0.82V92.03
			c0-0.44,0.35-0.82,0.82-0.82h12.91c0.44,0,0.8,0.38,0.8,0.82v3.84h-6.03c-0.69,0-1.22,0.55-1.22,1.22c0,0.69,0.53,1.24,1.22,1.24
			H831.46z"/>
		<path style="&st19;" d="M835.49,95.86h-1.66h-2.37h-6.03c-0.69,0-1.22,0.55-1.22,1.22c0,0.69,0.53,1.24,1.22,1.24h6.03h2.37h1.66
			c0.69,0,1.22-0.55,1.22-1.24C836.71,96.42,836.18,95.86,835.49,95.86z"/>
		<rect x="797" y="90.41" style="&st12;" width="17.59" height="13.35"/>
		<circle style="&st19;" cx="808.33" cy="61.82" r="3.13"/>
		<circle style="&st19;" cx="808.33" cy="77.04" r="3.13"/>
		<circle style="&st19;" cx="808.33" cy="151.68" r="3.13"/>
		<circle style="&st19;" cx="808.33" cy="172.62" r="3.13"/>
		<polygon style="&st21;" points="806.29,121.59 805.38,124.52 784.4,118.02 785.31,115.07 		"/>
		<polygon style="&st21;" points="791.07,89.01 791.07,90.41 791.07,103.76 791.07,105.18 797,105.18 797,103.76 797,90.41 
			797,89.01 		"/>
		<rect x="785.11" y="90.41" style="&st12;" width="5.97" height="13.35"/>
		<path style="&st21;" d="M771.49,9.86l10.58,62.56l-14.5,60.34l-12.71-2.66l0.29-1.4l-6.17-1.31l-0.29,1.4l-6.96-1.46l24.08-113.55
			c0.29-1.4,1.31-2.53,2.66-2.95L771.49,9.86z"/>
		<polygon style="&st21;" points="765.79,140.09 762.04,155.72 737.07,149.29 740.18,134.67 747.14,136.16 746.83,137.6 753,138.89 
			753.31,137.45 		"/>
		<polygon style="&st22;" points="748.98,127.4 748.69,128.8 747.14,136.16 746.83,137.6 753,138.89 753.31,137.45 754.86,130.11 
			755.15,128.71 		"/>
		<g>
			<polygon style="&st23;" points="767.57,132.77 754.86,130.11 753.31,137.45 765.79,140.09 767.59,140.46 769.14,133.1 			"/>
			<polygon style="&st23;" points="740,126.98 738.45,134.32 740.18,134.67 747.14,136.16 748.69,128.8 741.73,127.33 			"/>
		</g>
	</g>
	<g>
		<text transform="matrix(1 0 0 1 926.0049 369.4269)" style="&st4; font-family:'CooperHewitt-Light'; font-size:28.7736px;">Winter Clothes</text>
		<g>
			<path style="&st4;" d="M1115.54,379.34H917.97v-42.19h197.56V379.34z M918.97,378.34h195.56v-40.19H918.97V378.34z"/>
		</g>
	</g>
</g>
</svg>
