<?xml version="1.0" encoding="utf-8"?>
<!-- Generator: Adobe Illustrator 21.0.0, SVG Export Plug-In . SVG Version: 6.00 Build 0)  -->
<!DOCTYPE svg PUBLIC "-//W3C//DTD SVG 1.1//EN" "http://www.w3.org/Graphics/SVG/1.1/DTD/svg11.dtd" [
	<!ENTITY st0 "fill:none;">
	<!ENTITY st1 "fill:#3B4D57;">
	<!ENTITY st2 "fill:none;stroke:#506670;stroke-width:3;stroke-miterlimit:10;">
	<!ENTITY st3 "fill:url(#XMLID_3_);">
	<!ENTITY st4 "fill:#F9F8F7;">
	<!ENTITY st5 "fill:#718891;">
	<!ENTITY st6 "fill:#7C919B;">
	<!ENTITY st7 "fill:#FF9878;">
	<!ENTITY st8 "fill:#FC8B60;">
	<!ENTITY st9 "fill:#E56D4C;">
	<!ENTITY st10 "fill:#F47F5B;">
	<!ENTITY st11 "fill:#F45B5B;">
	<!ENTITY st12 "fill:#D8D0BB;">
	<!ENTITY st13 "fill:#FC6460;">
	<!ENTITY st14 "fill:#E55555;">
	<!ENTITY st15 "fill:#E2C3A8;">
	<!ENTITY st16 "fill:#E8CFB5;">
	<!ENTITY st17 "fill:#EFD7B8;">
	<!ENTITY st18 "fill:#D3AF94;">
	<!ENTITY st19 "fill:#E9E5D9;">
	<!ENTITY st20 "fill:#F9EBDC;">
	<!ENTITY st21 "fill:#97B797;">
	<!ENTITY st22 "fill:#AFC9B0;">
	<!ENTITY st23 "fill:#9DBF9F;">
	<!ENTITY st24 "fill:#8CAA8C;">
]>
<svg version="1.1" xmlns="http://www.w3.org/2000/svg" xmlns:xlink="http://www.w3.org/1999/xlink" x="0px" y="0px"
	 viewBox="0 0 198.21 284.82" style="enable-background:new 0 0 198.21 284.82;" xml:space="preserve">
<pattern  x="-108.09" y="331.89" width="204.49" height="204.49" patternUnits="userSpaceOnUse" id="New_Pattern" viewBox="0 -204.49 204.49 204.49" style="overflow:visible;">
	<g>
		<rect x="0" y="-204.49" style="&st0;" width="204.49" height="204.49"/>
		<rect x="0" y="-204.49" style="&st1;" width="204.49" height="204.49"/>
		<g>
			<line style="&st2;" x1="29" y1="-190.16" x2="29" y2="-169.83"/>
			<line style="&st2;" x1="18.83" y1="-179.99" x2="39.17" y2="-179.99"/>
		</g>
		<g>
			<line style="&st2;" x1="161.33" y1="-51.08" x2="161.33" y2="-30.75"/>
			<line style="&st2;" x1="151.17" y1="-40.91" x2="171.5" y2="-40.91"/>
		</g>
		<g>
			<line style="&st2;" x1="171.5" y1="-191.41" x2="171.5" y2="-171.08"/>
			<line style="&st2;" x1="161.33" y1="-181.24" x2="181.67" y2="-181.24"/>
		</g>
		<g>
			<line style="&st2;" x1="69.25" y1="-97.66" x2="69.25" y2="-77.33"/>
			<line style="&st2;" x1="59.08" y1="-87.5" x2="79.42" y2="-87.5"/>
		</g>
		<g>
			<line style="&st2;" x1="49.33" y1="-134.74" x2="49.33" y2="-122.91"/>
			<line style="&st2;" x1="43.42" y1="-128.83" x2="55.25" y2="-128.83"/>
		</g>
		<g>
			<line style="&st2;" x1="88.33" y1="-175.74" x2="88.33" y2="-163.91"/>
			<line style="&st2;" x1="82.42" y1="-169.83" x2="94.25" y2="-169.83"/>
		</g>
		<g>
			<line style="&st2;" x1="186" y1="-127.16" x2="186" y2="-115.33"/>
			<line style="&st2;" x1="180.08" y1="-121.25" x2="191.92" y2="-121.25"/>
		</g>
		<g>
			<line style="&st2;" x1="20.33" y1="-22.66" x2="20.33" y2="-10.83"/>
			<line style="&st2;" x1="14.42" y1="-16.75" x2="26.25" y2="-16.75"/>
		</g>
		<g>
			<line style="&st2;" x1="113.25" y1="-106" x2="113.25" y2="-94.16"/>
			<line style="&st2;" x1="107.33" y1="-100.08" x2="119.17" y2="-100.08"/>
		</g>
		<g>
			<line style="&st2;" x1="91.75" y1="-39.16" x2="91.75" y2="-27.33"/>
			<line style="&st2;" x1="85.83" y1="-33.24" x2="97.67" y2="-33.24"/>
		</g>
	</g>
</pattern>
<g id="BACKGROUND">
	<pattern  id="XMLID_3_" xlink:href="#New_Pattern" patternTransform="matrix(0.3 0 0 0.3 -5043.0049 -5601.5073)">
	</pattern>
	<rect id="XMLID_1_" x="-108.09" y="331.89" style="&st3;" width="800" height="800"/>
</g>
<g id="Designed_By_Freepik">
	<g id="Freepik_Sign">
		<g id="XMLID_306_">
			<path id="XMLID_550_" style="&st4;" d="M180.4,1072.87v-0.26c-0.35,0.4-0.69,0.72-1.03,0.97c-0.34,0.25-0.71,0.44-1.1,0.57
				c-0.4,0.13-0.83,0.2-1.3,0.2c-0.62,0-1.2-0.13-1.72-0.39c-0.53-0.26-0.99-0.64-1.37-1.13c-0.39-0.49-0.68-1.06-0.88-1.72
				c-0.2-0.66-0.3-1.37-0.3-2.14c0-1.62,0.4-2.88,1.19-3.79c0.79-0.9,1.83-1.36,3.13-1.36c0.75,0,1.38,0.13,1.89,0.38
				c0.51,0.26,1.01,0.65,1.5,1.18v-3.83c0-0.53,0.11-0.93,0.32-1.21c0.21-0.27,0.51-0.41,0.91-0.41c0.39,0,0.69,0.13,0.91,0.38
				c0.21,0.25,0.32,0.62,0.32,1.11v11.44c0,0.49-0.11,0.86-0.34,1.11c-0.23,0.25-0.52,0.37-0.88,0.37c-0.35,0-0.65-0.13-0.88-0.38
				C180.52,1073.71,180.4,1073.35,180.4,1072.87z M175.3,1069.06c0,0.7,0.11,1.3,0.33,1.79c0.22,0.49,0.52,0.87,0.9,1.12
				c0.38,0.25,0.79,0.38,1.24,0.38c0.46,0,0.87-0.12,1.25-0.36c0.38-0.24,0.68-0.6,0.9-1.09c0.23-0.49,0.34-1.11,0.34-1.84
				c0-0.69-0.11-1.29-0.34-1.78c-0.22-0.5-0.53-0.88-0.91-1.14c-0.38-0.26-0.8-0.39-1.26-0.39c-0.47,0-0.9,0.13-1.27,0.4
				c-0.37,0.27-0.66,0.65-0.87,1.16C175.4,1067.81,175.3,1068.4,175.3,1069.06z"/>
			<path id="XMLID_546_" style="&st4;" d="M191.84,1069.72h-5.07c0.01,0.59,0.12,1.11,0.36,1.56c0.23,0.45,0.54,0.79,0.92,1.02
				c0.38,0.23,0.81,0.34,1.27,0.34c0.31,0,0.59-0.04,0.85-0.11c0.26-0.07,0.5-0.19,0.75-0.34c0.24-0.15,0.46-0.32,0.66-0.5
				c0.2-0.18,0.46-0.42,0.79-0.72c0.13-0.11,0.32-0.17,0.57-0.17c0.27,0,0.48,0.07,0.64,0.22c0.16,0.15,0.25,0.35,0.25,0.62
				c0,0.23-0.09,0.51-0.28,0.82c-0.19,0.31-0.46,0.62-0.83,0.9c-0.37,0.29-0.84,0.53-1.4,0.72c-0.56,0.19-1.2,0.29-1.93,0.29
				c-1.66,0-2.96-0.47-3.88-1.42c-0.92-0.95-1.39-2.24-1.39-3.87c0-0.77,0.11-1.48,0.34-2.13c0.23-0.66,0.56-1.22,1-1.69
				c0.44-0.47,0.98-0.83,1.62-1.08c0.64-0.25,1.35-0.38,2.13-0.38c1.01,0,1.88,0.21,2.61,0.64c0.73,0.43,1.27,0.98,1.63,1.66
				c0.36,0.68,0.54,1.37,0.54,2.07c0,0.65-0.19,1.08-0.56,1.27C193.04,1069.62,192.51,1069.72,191.84,1069.72z M186.76,1068.25h4.7
				c-0.06-0.89-0.3-1.55-0.72-1.99c-0.41-0.44-0.96-0.66-1.64-0.66c-0.65,0-1.18,0.22-1.59,0.67
				C187.1,1066.71,186.85,1067.37,186.76,1068.25z"/>
			<path id="XMLID_542_" style="&st4;" d="M203.65,1070.96c0,0.71-0.17,1.33-0.52,1.84c-0.35,0.51-0.86,0.9-1.54,1.16
				c-0.68,0.26-1.51,0.39-2.48,0.39c-0.93,0-1.73-0.14-2.39-0.43c-0.66-0.28-1.16-0.64-1.47-1.07c-0.32-0.43-0.48-0.86-0.48-1.29
				c0-0.29,0.1-0.53,0.3-0.73c0.2-0.2,0.46-0.3,0.77-0.3c0.27,0,0.48,0.07,0.63,0.2c0.15,0.13,0.29,0.32,0.42,0.56
				c0.27,0.46,0.58,0.81,0.96,1.04c0.37,0.23,0.87,0.34,1.52,0.34c0.52,0,0.94-0.12,1.28-0.35c0.33-0.23,0.5-0.5,0.5-0.79
				c0-0.46-0.17-0.79-0.52-1c-0.35-0.21-0.91-0.41-1.71-0.6c-0.89-0.22-1.62-0.46-2.18-0.7c-0.56-0.24-1.01-0.56-1.34-0.96
				c-0.34-0.4-0.5-0.89-0.5-1.47c0-0.52,0.15-1.01,0.47-1.47c0.31-0.46,0.77-0.83,1.37-1.11c0.6-0.28,1.33-0.41,2.19-0.41
				c0.67,0,1.27,0.07,1.81,0.21c0.54,0.14,0.98,0.33,1.34,0.56c0.36,0.23,0.63,0.49,0.82,0.78c0.19,0.29,0.28,0.56,0.28,0.84
				c0,0.3-0.1,0.54-0.3,0.73c-0.2,0.19-0.48,0.29-0.85,0.29c-0.27,0-0.49-0.08-0.68-0.23c-0.19-0.15-0.4-0.38-0.64-0.68
				c-0.2-0.25-0.43-0.46-0.69-0.61c-0.27-0.15-0.63-0.23-1.08-0.23c-0.47,0-0.86,0.1-1.17,0.3c-0.31,0.2-0.47,0.45-0.47,0.74
				c0,0.27,0.11,0.5,0.34,0.67c0.23,0.18,0.54,0.32,0.92,0.43c0.39,0.11,0.92,0.25,1.6,0.42c0.8,0.2,1.46,0.43,1.97,0.7
				c0.51,0.27,0.9,0.59,1.16,0.96C203.52,1070.07,203.65,1070.49,203.65,1070.96z"/>
			<path id="XMLID_530_" style="&st4;" d="M206.3,1062.61c-0.36,0-0.67-0.11-0.93-0.33c-0.26-0.22-0.38-0.54-0.38-0.94
				c0-0.37,0.13-0.67,0.39-0.91c0.26-0.24,0.57-0.36,0.92-0.36c0.34,0,0.63,0.11,0.89,0.32c0.26,0.21,0.39,0.53,0.39,0.94
				c0,0.4-0.13,0.71-0.38,0.94C206.95,1062.49,206.65,1062.61,206.3,1062.61z M207.58,1065.28v7.49c0,0.52-0.12,0.91-0.37,1.18
				c-0.25,0.27-0.56,0.4-0.94,0.4c-0.38,0-0.69-0.13-0.93-0.41c-0.24-0.27-0.36-0.66-0.36-1.17v-7.42c0-0.51,0.12-0.9,0.36-1.16
				c0.24-0.26,0.55-0.39,0.93-0.39c0.38,0,0.69,0.13,0.94,0.39C207.46,1064.46,207.58,1064.82,207.58,1065.28z"/>
			<path id="XMLID_513_" style="&st4;" d="M218.94,1065.71v7.53c0,0.86-0.09,1.6-0.28,2.22c-0.18,0.62-0.48,1.13-0.88,1.54
				c-0.41,0.4-0.94,0.71-1.59,0.9c-0.66,0.2-1.47,0.29-2.45,0.29c-0.89,0-1.69-0.13-2.39-0.38c-0.7-0.25-1.24-0.57-1.62-0.97
				c-0.38-0.4-0.57-0.8-0.57-1.22c0-0.32,0.11-0.58,0.32-0.77c0.21-0.2,0.48-0.3,0.78-0.3c0.38,0,0.71,0.17,1,0.5
				c0.14,0.17,0.28,0.34,0.43,0.52c0.15,0.18,0.31,0.32,0.49,0.45c0.18,0.12,0.4,0.21,0.65,0.28c0.25,0.06,0.55,0.09,0.87,0.09
				c0.67,0,1.19-0.09,1.56-0.28c0.37-0.19,0.63-0.45,0.78-0.78c0.15-0.33,0.24-0.69,0.26-1.08c0.03-0.38,0.04-1,0.06-1.85
				c-0.4,0.56-0.86,0.98-1.38,1.27c-0.52,0.29-1.14,0.44-1.87,0.44c-0.87,0-1.63-0.22-2.28-0.67c-0.65-0.44-1.15-1.06-1.5-1.86
				c-0.35-0.8-0.52-1.72-0.52-2.76c0-0.78,0.11-1.48,0.32-2.11c0.21-0.63,0.52-1.16,0.91-1.59c0.39-0.43,0.85-0.75,1.36-0.97
				c0.51-0.22,1.08-0.33,1.69-0.33c0.73,0,1.37,0.14,1.91,0.42c0.54,0.28,1.04,0.72,1.5,1.33v-0.35c0-0.45,0.11-0.8,0.33-1.04
				c0.22-0.25,0.51-0.37,0.86-0.37c0.5,0,0.83,0.16,1,0.49C218.86,1064.63,218.94,1065.1,218.94,1065.71z M211.43,1069
				c0,1.05,0.23,1.85,0.69,2.38c0.46,0.54,1.05,0.81,1.78,0.81c0.43,0,0.84-0.12,1.22-0.35c0.38-0.23,0.7-0.58,0.94-1.05
				c0.24-0.46,0.36-1.03,0.36-1.7c0-1.06-0.23-1.88-0.7-2.47s-1.08-0.88-1.84-0.88c-0.74,0-1.33,0.28-1.78,0.85
				C211.65,1067.16,211.43,1067.96,211.43,1069z"/>
			<path id="XMLID_504_" style="&st4;" d="M223.06,1065.25v0.31c0.46-0.6,0.95-1.04,1.5-1.32c0.54-0.28,1.16-0.42,1.87-0.42
				c0.68,0,1.29,0.15,1.83,0.45c0.54,0.3,0.94,0.72,1.21,1.26c0.17,0.32,0.28,0.66,0.33,1.03c0.05,0.37,0.08,0.84,0.08,1.41v4.82
				c0,0.52-0.12,0.91-0.36,1.18c-0.24,0.27-0.55,0.4-0.93,0.4c-0.39,0-0.7-0.13-0.94-0.41c-0.24-0.27-0.36-0.66-0.36-1.17v-4.32
				c0-0.85-0.12-1.51-0.36-1.96c-0.24-0.45-0.71-0.68-1.42-0.68c-0.46,0-0.88,0.14-1.26,0.41c-0.38,0.28-0.66,0.65-0.84,1.13
				c-0.13,0.39-0.19,1.11-0.19,2.17v3.25c0,0.53-0.12,0.92-0.37,1.18c-0.24,0.26-0.56,0.39-0.94,0.39c-0.37,0-0.68-0.13-0.92-0.41
				c-0.24-0.27-0.36-0.66-0.36-1.17v-7.49c0-0.49,0.11-0.86,0.32-1.11c0.22-0.24,0.51-0.37,0.88-0.37c0.23,0,0.43,0.05,0.62,0.16
				c0.18,0.11,0.33,0.27,0.44,0.48C223.01,1064.67,223.06,1064.94,223.06,1065.25z"/>
			<path id="XMLID_482_" style="&st4;" d="M238.84,1069.72h-5.07c0.01,0.59,0.12,1.11,0.36,1.56c0.23,0.45,0.54,0.79,0.92,1.02
				c0.38,0.23,0.81,0.34,1.27,0.34c0.31,0,0.59-0.04,0.85-0.11c0.26-0.07,0.5-0.19,0.75-0.34c0.24-0.15,0.46-0.32,0.67-0.5
				c0.2-0.18,0.46-0.42,0.79-0.72c0.13-0.11,0.32-0.17,0.57-0.17c0.27,0,0.48,0.07,0.65,0.22c0.16,0.15,0.25,0.35,0.25,0.62
				c0,0.23-0.09,0.51-0.28,0.82c-0.18,0.31-0.46,0.62-0.83,0.9c-0.37,0.29-0.83,0.53-1.4,0.72c-0.56,0.19-1.21,0.29-1.93,0.29
				c-1.67,0-2.96-0.47-3.89-1.42c-0.92-0.95-1.39-2.24-1.39-3.87c0-0.77,0.11-1.48,0.34-2.13c0.23-0.66,0.56-1.22,1-1.69
				c0.44-0.47,0.98-0.83,1.61-1.08c0.64-0.25,1.35-0.38,2.13-0.38c1.01,0,1.88,0.21,2.61,0.64c0.73,0.43,1.27,0.98,1.63,1.66
				c0.36,0.68,0.54,1.37,0.54,2.07c0,0.65-0.19,1.08-0.56,1.27C240.04,1069.62,239.51,1069.72,238.84,1069.72z M233.76,1068.25h4.7
				c-0.06-0.89-0.3-1.55-0.72-1.99c-0.42-0.44-0.96-0.66-1.64-0.66c-0.65,0-1.18,0.22-1.59,0.67
				C234.1,1066.71,233.85,1067.37,233.76,1068.25z"/>
			<path id="XMLID_476_" style="&st4;" d="M249.41,1072.87v-0.26c-0.35,0.4-0.69,0.72-1.03,0.97c-0.34,0.25-0.71,0.44-1.1,0.57
				c-0.4,0.13-0.83,0.2-1.3,0.2c-0.62,0-1.2-0.13-1.72-0.39c-0.53-0.26-0.99-0.64-1.37-1.13c-0.39-0.49-0.68-1.06-0.88-1.72
				c-0.2-0.66-0.3-1.37-0.3-2.14c0-1.62,0.4-2.88,1.19-3.79c0.79-0.9,1.83-1.36,3.13-1.36c0.75,0,1.38,0.13,1.89,0.38
				c0.51,0.26,1.01,0.65,1.5,1.18v-3.83c0-0.53,0.11-0.93,0.32-1.21c0.21-0.27,0.51-0.41,0.91-0.41c0.39,0,0.69,0.13,0.91,0.38
				c0.21,0.25,0.32,0.62,0.32,1.11v11.44c0,0.49-0.11,0.86-0.34,1.11c-0.23,0.25-0.52,0.37-0.88,0.37c-0.35,0-0.65-0.13-0.88-0.38
				C249.52,1073.71,249.41,1073.35,249.41,1072.87z M244.31,1069.06c0,0.7,0.11,1.3,0.33,1.79c0.22,0.49,0.52,0.87,0.9,1.12
				c0.38,0.25,0.79,0.38,1.24,0.38c0.46,0,0.87-0.12,1.25-0.36c0.38-0.24,0.68-0.6,0.9-1.09c0.23-0.49,0.34-1.11,0.34-1.84
				c0-0.69-0.11-1.29-0.34-1.78c-0.22-0.5-0.53-0.88-0.91-1.14c-0.38-0.26-0.8-0.39-1.26-0.39c-0.47,0-0.9,0.13-1.27,0.4
				c-0.37,0.27-0.66,0.65-0.87,1.16C244.41,1067.81,244.31,1068.4,244.31,1069.06z"/>
			<path id="XMLID_309_" style="&st4;" d="M260,1061.44v3.96c0.49-0.51,0.98-0.89,1.49-1.16c0.51-0.27,1.13-0.4,1.88-0.4
				c0.86,0,1.62,0.21,2.27,0.61c0.65,0.41,1.15,1,1.51,1.78c0.36,0.78,0.54,1.7,0.54,2.76c0,0.79-0.1,1.5-0.3,2.16
				c-0.2,0.66-0.49,1.22-0.87,1.71c-0.38,0.48-0.84,0.85-1.38,1.12c-0.54,0.26-1.14,0.39-1.79,0.39c-0.4,0-0.77-0.05-1.13-0.14
				c-0.35-0.09-0.65-0.22-0.9-0.38c-0.25-0.15-0.46-0.31-0.63-0.48c-0.17-0.16-0.4-0.41-0.69-0.74v0.26c0,0.49-0.12,0.86-0.35,1.11
				c-0.23,0.25-0.53,0.37-0.89,0.37c-0.37,0-0.66-0.12-0.88-0.37c-0.22-0.25-0.33-0.62-0.33-1.11v-11.32c0-0.53,0.11-0.92,0.32-1.19
				c0.21-0.27,0.51-0.4,0.89-0.4c0.4,0,0.71,0.13,0.92,0.38C259.9,1060.6,260,1060.96,260,1061.44z M260.13,1069.14
				c0,1.03,0.24,1.82,0.71,2.38c0.47,0.55,1.09,0.83,1.86,0.83c0.65,0,1.21-0.28,1.69-0.85c0.47-0.57,0.71-1.38,0.71-2.44
				c0-0.68-0.1-1.27-0.29-1.77c-0.2-0.49-0.47-0.88-0.84-1.14c-0.36-0.27-0.78-0.4-1.26-0.4c-0.49,0-0.93,0.13-1.32,0.4
				c-0.39,0.27-0.69,0.66-0.91,1.17C260.24,1067.83,260.13,1068.44,260.13,1069.14z"/>
			<path id="XMLID_307_" style="&st4;" d="M271.05,1074.68l0.24-0.58l-3.19-8.04c-0.2-0.46-0.29-0.8-0.29-1.01
				c0-0.22,0.06-0.43,0.17-0.62c0.11-0.19,0.27-0.34,0.47-0.46c0.2-0.12,0.41-0.17,0.62-0.17c0.37,0,0.65,0.12,0.85,0.36
				c0.19,0.24,0.36,0.58,0.5,1.02l2.19,6.38l2.08-5.94c0.16-0.48,0.31-0.86,0.45-1.13c0.13-0.27,0.27-0.46,0.42-0.55
				c0.15-0.1,0.36-0.14,0.63-0.14c0.2,0,0.38,0.05,0.57,0.16c0.18,0.1,0.32,0.24,0.42,0.42c0.1,0.18,0.15,0.36,0.15,0.56
				c-0.03,0.12-0.07,0.29-0.12,0.51c-0.06,0.22-0.13,0.45-0.21,0.67l-3.38,8.85c-0.29,0.78-0.58,1.39-0.86,1.83
				c-0.28,0.44-0.65,0.79-1.11,1.02c-0.46,0.24-1.08,0.36-1.86,0.36c-0.76,0-1.33-0.08-1.71-0.25c-0.38-0.17-0.57-0.47-0.57-0.9
				c0-0.3,0.09-0.53,0.27-0.69c0.18-0.16,0.45-0.24,0.8-0.24c0.14,0,0.28,0.02,0.41,0.06c0.16,0.04,0.31,0.06,0.43,0.06
				c0.3,0,0.53-0.04,0.7-0.13c0.17-0.09,0.32-0.24,0.46-0.46C270.72,1075.42,270.87,1075.1,271.05,1074.68z"/>
		</g>
		<g id="XMLID_253_">
			<path id="XMLID_304_" style="&st4;" d="M308.61,1064.03h0.62v-0.78c0-0.81,0.1-1.46,0.31-1.94c0.2-0.48,0.55-0.83,1.05-1.04
				c0.49-0.22,1.16-0.33,2.02-0.33c1.52,0,2.27,0.37,2.27,1.11c0,0.24-0.08,0.45-0.24,0.62c-0.15,0.17-0.34,0.26-0.56,0.26
				c-0.1,0-0.28-0.02-0.53-0.06c-0.24-0.03-0.45-0.06-0.62-0.06c-0.47,0-0.77,0.14-0.9,0.42c-0.13,0.28-0.2,0.67-0.2,1.18v0.62h0.63
				c0.99,0,1.48,0.3,1.48,0.9c0,0.42-0.13,0.69-0.39,0.8c-0.26,0.11-0.62,0.17-1.09,0.17h-0.63v6.87c0,0.51-0.12,0.9-0.37,1.17
				c-0.24,0.27-0.55,0.41-0.94,0.41c-0.37,0-0.67-0.13-0.92-0.41c-0.24-0.27-0.36-0.66-0.36-1.17v-6.87h-0.71
				c-0.39,0-0.68-0.08-0.89-0.26c-0.21-0.17-0.31-0.4-0.31-0.68C307.31,1064.34,307.74,1064.03,308.61,1064.03"/>
			<path id="XMLID_301_" style="&st4;" d="M317.1,1070.61v2.17c0,0.52-0.13,0.92-0.38,1.18c-0.25,0.27-0.56,0.39-0.94,0.39
				c-0.38,0-0.69-0.13-0.93-0.4c-0.24-0.26-0.36-0.66-0.36-1.17v-7.22c0-1.17,0.42-1.75,1.26-1.75c0.43,0,0.74,0.13,0.93,0.41
				c0.19,0.27,0.29,0.67,0.32,1.21c0.31-0.53,0.63-0.93,0.95-1.21c0.33-0.27,0.76-0.41,1.31-0.41c0.55,0,1.07,0.13,1.59,0.41
				c0.52,0.27,0.77,0.64,0.77,1.08c0,0.31-0.11,0.58-0.33,0.78c-0.22,0.21-0.46,0.31-0.71,0.31c-0.1,0-0.33-0.06-0.69-0.18
				c-0.37-0.11-0.69-0.17-0.96-0.17c-0.38,0-0.69,0.1-0.93,0.3c-0.24,0.2-0.43,0.5-0.56,0.89c-0.13,0.39-0.22,0.87-0.27,1.4
				C317.12,1069.17,317.1,1069.83,317.1,1070.61"/>
			<path id="XMLID_297_" style="&st4;" d="M329.02,1069.72h-5.07c0.01,0.59,0.13,1.11,0.36,1.56c0.23,0.45,0.54,0.79,0.92,1.02
				c0.38,0.23,0.8,0.34,1.27,0.34c0.31,0,0.59-0.03,0.85-0.11c0.25-0.07,0.5-0.19,0.74-0.34c0.24-0.15,0.46-0.32,0.66-0.5
				c0.2-0.17,0.47-0.42,0.79-0.72c0.13-0.11,0.32-0.17,0.57-0.17c0.27,0,0.48,0.07,0.65,0.22c0.17,0.15,0.24,0.35,0.24,0.62
				c0,0.23-0.09,0.51-0.27,0.82c-0.19,0.32-0.46,0.62-0.84,0.91c-0.38,0.29-0.84,0.53-1.4,0.71c-0.56,0.19-1.21,0.29-1.93,0.29
				c-1.67,0-2.96-0.47-3.89-1.42c-0.92-0.95-1.39-2.24-1.39-3.87c0-0.77,0.12-1.48,0.35-2.13c0.22-0.66,0.56-1.22,1-1.69
				c0.44-0.47,0.97-0.83,1.61-1.08c0.64-0.25,1.35-0.38,2.13-0.38c1.01,0,1.88,0.21,2.61,0.65c0.72,0.42,1.27,0.98,1.63,1.65
				c0.36,0.68,0.54,1.37,0.54,2.07c0,0.65-0.19,1.07-0.56,1.27C330.23,1069.62,329.7,1069.72,329.02,1069.72 M323.95,1068.24h4.7
				c-0.06-0.88-0.3-1.55-0.71-1.99c-0.42-0.44-0.96-0.66-1.64-0.66c-0.65,0-1.18,0.22-1.59,0.67
				C324.29,1066.71,324.04,1067.37,323.95,1068.24"/>
			<path id="XMLID_279_" style="&st4;" d="M339.81,1069.72h-5.07c0.01,0.59,0.13,1.11,0.35,1.56c0.23,0.45,0.54,0.79,0.92,1.02
				c0.38,0.23,0.8,0.34,1.27,0.34c0.31,0,0.59-0.03,0.84-0.11c0.26-0.07,0.51-0.19,0.75-0.34c0.24-0.15,0.46-0.32,0.66-0.5
				c0.2-0.17,0.46-0.42,0.79-0.72c0.13-0.11,0.33-0.17,0.57-0.17c0.27,0,0.48,0.07,0.65,0.22c0.16,0.15,0.24,0.35,0.24,0.62
				c0,0.23-0.09,0.51-0.27,0.82c-0.18,0.32-0.46,0.62-0.83,0.91c-0.37,0.29-0.84,0.53-1.4,0.71c-0.56,0.19-1.21,0.29-1.93,0.29
				c-1.67,0-2.96-0.47-3.89-1.42c-0.92-0.95-1.39-2.24-1.39-3.87c0-0.77,0.12-1.48,0.35-2.13c0.23-0.66,0.56-1.22,1-1.69
				c0.44-0.47,0.97-0.83,1.61-1.08c0.64-0.25,1.35-0.38,2.13-0.38c1.01,0,1.88,0.21,2.61,0.65c0.72,0.42,1.27,0.98,1.62,1.65
				c0.36,0.68,0.54,1.37,0.54,2.07c0,0.65-0.19,1.07-0.56,1.27C341.01,1069.62,340.49,1069.72,339.81,1069.72 M334.74,1068.24h4.7
				c-0.06-0.88-0.3-1.55-0.71-1.99c-0.42-0.44-0.96-0.66-1.64-0.66c-0.65,0-1.18,0.22-1.59,0.67
				C335.08,1066.71,334.82,1067.37,334.74,1068.24"/>
			<path id="XMLID_275_" style="&st4;" d="M345.49,1065.27v0.31c0.49-0.6,0.99-1.04,1.53-1.32c0.52-0.29,1.12-0.43,1.78-0.43
				c0.79,0,1.54,0.21,2.21,0.62c0.67,0.41,1.2,1.02,1.59,1.81c0.39,0.79,0.59,1.73,0.59,2.81c0,0.79-0.11,1.53-0.34,2.2
				c-0.22,0.67-0.54,1.23-0.93,1.68c-0.39,0.45-0.86,0.8-1.39,1.04c-0.54,0.24-1.11,0.36-1.73,0.36c-0.74,0-1.36-0.15-1.87-0.45
				c-0.5-0.29-0.98-0.73-1.44-1.3v3.89c0,1.13-0.42,1.71-1.24,1.71c-0.49,0-0.81-0.15-0.97-0.44c-0.15-0.3-0.23-0.72-0.23-1.29
				v-11.19c0-0.49,0.11-0.86,0.32-1.11c0.21-0.24,0.51-0.36,0.88-0.36c0.37,0,0.67,0.13,0.9,0.37
				C345.38,1064.43,345.49,1064.79,345.49,1065.27 M350.57,1069.03c0-0.69-0.11-1.27-0.31-1.76c-0.21-0.49-0.5-0.87-0.87-1.13
				c-0.37-0.26-0.78-0.4-1.23-0.4c-0.71,0-1.32,0.28-1.81,0.84c-0.49,0.57-0.74,1.39-0.74,2.49c0,1.03,0.24,1.83,0.74,2.41
				c0.49,0.57,1.09,0.86,1.81,0.86c0.43,0,0.83-0.13,1.2-0.37c0.37-0.25,0.66-0.63,0.88-1.13
				C350.46,1070.35,350.57,1069.74,350.57,1069.03"/>
			<path id="XMLID_268_" style="&st4;" d="M355.79,1062.6c-0.36,0-0.67-0.12-0.92-0.34c-0.26-0.22-0.39-0.53-0.39-0.94
				c0-0.37,0.13-0.67,0.4-0.91c0.26-0.23,0.57-0.36,0.91-0.36c0.34,0,0.63,0.11,0.89,0.32c0.26,0.22,0.39,0.54,0.39,0.95
				c0,0.4-0.13,0.71-0.38,0.94C356.44,1062.48,356.14,1062.6,355.79,1062.6 M357.07,1065.28v7.5c0,0.52-0.12,0.91-0.37,1.17
				c-0.25,0.27-0.56,0.4-0.94,0.4c-0.38,0-0.69-0.13-0.93-0.41c-0.23-0.28-0.36-0.66-0.36-1.17v-7.43c0-0.51,0.12-0.89,0.36-1.15
				c0.24-0.26,0.55-0.39,0.93-0.39c0.38,0,0.69,0.13,0.94,0.39C356.95,1064.46,357.07,1064.82,357.07,1065.28"/>
			<path id="XMLID_267_" style="&st4;" d="M365.43,1073.17l-2.28-3.77l-1.41,1.33v2.07c0,0.5-0.13,0.88-0.4,1.15
				c-0.26,0.27-0.57,0.41-0.91,0.41c-0.4,0-0.71-0.13-0.94-0.4c-0.23-0.26-0.34-0.66-0.34-1.17v-11.06c0-0.57,0.12-1.01,0.33-1.31
				c0.22-0.3,0.54-0.45,0.95-0.45c0.4,0,0.71,0.14,0.95,0.41c0.23,0.27,0.35,0.67,0.35,1.2v6.29l2.92-3.06
				c0.36-0.38,0.63-0.64,0.83-0.78c0.19-0.14,0.42-0.21,0.69-0.21c0.33,0,0.59,0.1,0.82,0.31c0.21,0.21,0.32,0.46,0.32,0.77
				c0,0.38-0.35,0.89-1.05,1.52l-1.38,1.26l2.66,4.18c0.19,0.31,0.34,0.54,0.42,0.71c0.08,0.16,0.13,0.32,0.13,0.46
				c0,0.41-0.12,0.73-0.34,0.97c-0.22,0.24-0.52,0.35-0.88,0.35c-0.32,0-0.56-0.08-0.73-0.26
				C365.96,1073.92,365.72,1073.61,365.43,1073.17"/>
			<path id="XMLID_264_" style="&st4;" d="M371.07,1074.35c-0.39,0-0.73-0.13-1.01-0.38c-0.29-0.25-0.43-0.61-0.43-1.06
				c0-0.38,0.14-0.72,0.41-0.99c0.28-0.28,0.61-0.42,1.01-0.42c0.4,0,0.74,0.14,1.02,0.41c0.28,0.28,0.42,0.61,0.42,1
				c0,0.45-0.14,0.81-0.42,1.06C371.78,1074.23,371.45,1074.35,371.07,1074.35"/>
			<path id="XMLID_263_" style="&st4;" d="M383.97,1071.14c0,0.32-0.1,0.67-0.29,1.03c-0.19,0.37-0.49,0.72-0.89,1.05
				c-0.39,0.33-0.89,0.6-1.49,0.8c-0.6,0.2-1.28,0.31-2.03,0.31c-1.61,0-2.86-0.47-3.76-1.4c-0.89-0.94-1.35-2.19-1.35-3.76
				c0-1.07,0.21-2.01,0.62-2.82c0.41-0.81,1-1.45,1.78-1.89c0.78-0.45,1.72-0.67,2.79-0.67c0.67,0,1.29,0.1,1.85,0.29
				c0.56,0.2,1.03,0.45,1.43,0.76c0.39,0.31,0.69,0.64,0.89,0.99c0.21,0.35,0.31,0.68,0.31,0.99c0,0.31-0.11,0.57-0.34,0.79
				c-0.23,0.21-0.52,0.32-0.84,0.32c-0.22,0-0.4-0.06-0.54-0.17c-0.14-0.11-0.3-0.29-0.48-0.54c-0.32-0.48-0.65-0.84-1-1.08
				c-0.34-0.24-0.78-0.36-1.31-0.36c-0.76,0-1.38,0.3-1.85,0.9c-0.47,0.6-0.7,1.42-0.7,2.46c0,0.49,0.06,0.94,0.18,1.35
				c0.12,0.41,0.29,0.76,0.52,1.04c0.23,0.29,0.5,0.51,0.83,0.65c0.32,0.15,0.68,0.23,1.06,0.23c0.52,0,0.97-0.12,1.34-0.36
				c0.38-0.24,0.7-0.61,0.99-1.1c0.16-0.29,0.33-0.52,0.51-0.68c0.18-0.16,0.41-0.25,0.68-0.25c0.32,0,0.58,0.12,0.79,0.36
				C383.86,1070.61,383.97,1070.87,383.97,1071.14"/>
			<path id="XMLID_260_" style="&st4;" d="M395.16,1069.08c0,0.77-0.12,1.48-0.36,2.14c-0.25,0.65-0.59,1.21-1.05,1.68
				c-0.46,0.47-1,0.83-1.63,1.08c-0.64,0.25-1.35,0.38-2.14,0.38c-0.79,0-1.49-0.13-2.12-0.38c-0.62-0.25-1.17-0.61-1.63-1.08
				c-0.46-0.48-0.81-1.03-1.05-1.68c-0.23-0.64-0.35-1.36-0.35-2.13c0-0.79,0.12-1.51,0.36-2.16c0.24-0.65,0.59-1.21,1.04-1.67
				c0.45-0.46,0.99-0.82,1.63-1.07c0.64-0.25,1.35-0.37,2.12-0.37c0.79,0,1.5,0.13,2.14,0.38c0.64,0.25,1.18,0.62,1.64,1.08
				c0.46,0.47,0.8,1.03,1.04,1.67C395.04,1067.59,395.16,1068.3,395.16,1069.08 M392.55,1069.08c0-1.06-0.23-1.88-0.7-2.47
				c-0.46-0.6-1.09-0.89-1.88-0.89c-0.51,0-0.96,0.13-1.34,0.39c-0.39,0.26-0.68,0.65-0.89,1.16c-0.21,0.51-0.31,1.11-0.31,1.8
				c0,0.68,0.1,1.27,0.31,1.77c0.21,0.51,0.5,0.9,0.89,1.17c0.38,0.27,0.83,0.4,1.35,0.4c0.79,0,1.41-0.3,1.88-0.89
				C392.32,1070.94,392.55,1070.12,392.55,1069.08"/>
			<path id="XMLID_259_" style="&st4;" d="M405.05,1069.27v3.45c0,0.55-0.12,0.95-0.37,1.23c-0.25,0.27-0.57,0.41-0.98,0.41
				c-0.39,0-0.71-0.13-0.95-0.41c-0.25-0.28-0.37-0.68-0.37-1.23v-4.13c0-0.65-0.02-1.16-0.06-1.53c-0.04-0.35-0.17-0.65-0.36-0.88
				c-0.2-0.23-0.51-0.35-0.93-0.35c-0.85,0-1.41,0.29-1.68,0.88c-0.27,0.58-0.41,1.41-0.41,2.51v3.5c0,0.54-0.12,0.95-0.36,1.22
				c-0.25,0.27-0.57,0.41-0.96,0.41c-0.4,0-0.72-0.14-0.97-0.41c-0.25-0.28-0.38-0.69-0.38-1.22v-7.42c0-0.49,0.11-0.86,0.34-1.11
				c0.23-0.26,0.53-0.38,0.89-0.38c0.36,0,0.65,0.12,0.89,0.36c0.24,0.24,0.35,0.57,0.35,0.98v0.24c0.45-0.54,0.94-0.93,1.45-1.18
				c0.52-0.26,1.08-0.39,1.71-0.39c0.65,0,1.21,0.13,1.68,0.39c0.47,0.26,0.85,0.65,1.16,1.18c0.44-0.53,0.91-0.92,1.41-1.18
				c0.5-0.26,1.05-0.39,1.66-0.39c0.71,0,1.32,0.14,1.83,0.42c0.51,0.28,0.89,0.68,1.15,1.2c0.22,0.47,0.33,1.21,0.33,2.22v5.06
				c0,0.55-0.12,0.95-0.37,1.23c-0.25,0.27-0.57,0.41-0.98,0.41c-0.39,0-0.71-0.14-0.96-0.41c-0.25-0.28-0.38-0.69-0.38-1.22v-4.36
				c0-0.56-0.02-1-0.07-1.34c-0.05-0.34-0.18-0.62-0.38-0.85c-0.21-0.23-0.53-0.34-0.95-0.34c-0.34,0-0.67,0.11-0.97,0.31
				c-0.31,0.2-0.55,0.48-0.72,0.81C405.15,1067.39,405.05,1068.16,405.05,1069.27"/>
		</g>
		<g id="XMLID_239_">
			<path id="XMLID_252_" style="&st4;" d="M284.35,1068.45c0,0,0-0.01,0-0.02C284.34,1068.44,284.34,1068.45,284.35,1068.45z"/>
			<path id="XMLID_251_" style="&st4;" d="M284.48,1069.28C284.48,1069.28,284.48,1069.28,284.48,1069.28
				c-0.05-0.24-0.09-0.47-0.12-0.7C284.39,1068.81,284.43,1069.05,284.48,1069.28z"/>
			<path id="XMLID_250_" style="&st4;" d="M285.33,1071.69c-0.01-0.01-0.01-0.02-0.02-0.03
				C285.32,1071.67,285.33,1071.68,285.33,1071.69z"/>
			<path id="XMLID_249_" style="&st4;" d="M285.25,1071.53c-0.02-0.05-0.04-0.09-0.07-0.13
				C285.21,1071.44,285.23,1071.48,285.25,1071.53z"/>
			<path id="XMLID_248_" style="&st4;" d="M284.72,1070.21c0.13,0.4,0.28,0.79,0.46,1.16
				C284.99,1070.99,284.84,1070.6,284.72,1070.21C284.72,1070.21,284.72,1070.21,284.72,1070.21z"/>
			<path id="XMLID_247_" style="&st4;" d="M294.38,1058.52c0.5,0,0.87,0.04,1.29,0.11l0.12-0.76c0,0-1.17-0.36-2.71-0.23l-0.12-0.41
				c0.48-0.1,0.84-0.53,0.84-1.04c0-0.58-0.47-1.05-1.06-1.05c-0.58,0-1.06,0.47-1.06,1.05c0,0.51,0.36,0.93,0.84,1.04l0.13,0.46
				c-1.63,0.22-2.93,0.86-2.93,0.86l0.23,0.71c0.99-0.33,1.85-0.53,2.62-0.61C293.34,1058.55,293.92,1058.52,294.38,1058.52z"/>
			<path id="XMLID_246_" style="&st4;" d="M285.31,1062.37L285.31,1062.37c0.04-0.06,0.08-0.1,0.12-0.15l-0.31-0.22l-0.49-0.36
				c-0.03,0.04-0.79,0.74-1.4,2.05c-0.03-0.04-0.06-0.08-0.09-0.12c-0.18-0.2-0.44-0.3-0.76-0.29c0,0-0.01,0-0.01,0
				c-0.2,0-0.34-0.07-0.43-0.15c0.09-0.11,0.14-0.26,0.14-0.41c0-0.37-0.3-0.67-0.67-0.67c-0.37,0-0.67,0.3-0.67,0.67
				c0,0.37,0.3,0.67,0.67,0.67c0.06,0,0.11-0.01,0.17-0.02c0.16,0.18,0.43,0.34,0.81,0.33c0.2,0,0.34,0.05,0.44,0.16
				c0.11,0.12,0.15,0.3,0.16,0.43c0,0,0,0,0,0c-0.44,1.19-0.31,2.67-0.31,2.67l1.06,0.04c0.02-0.54,0.1-1.48,0.37-2.23
				C284.63,1063.32,285.29,1062.41,285.31,1062.37z"/>
			<path id="XMLID_245_" style="&st4;" d="M303.58,1059.4c-0.37,0-0.67,0.3-0.67,0.67c0,0.06,0.01,0.11,0.02,0.16
				c-0.18,0.17-0.34,0.43-0.34,0.81c0,0.2-0.05,0.34-0.15,0.44c-0.08,0.07-0.19,0.12-0.29,0.14c-0.79-1.1-1.76-1.78-1.76-1.78
				l-0.76,0.81c0.57,0.52,1.16,1.18,1.73,1.99c0.39,0.56,0.8,1.29,1.14,2.02l1.02-0.49c0,0-0.47-1.16-1.13-2.19
				c0.11-0.04,0.23-0.1,0.33-0.19c0.2-0.18,0.3-0.44,0.29-0.76c0-0.21,0.07-0.35,0.15-0.44c0.12,0.09,0.26,0.14,0.41,0.14
				c0.37,0,0.67-0.3,0.67-0.67C304.25,1059.7,303.95,1059.4,303.58,1059.4z"/>
			<path id="XMLID_244_" style="&st4;" d="M300.93,1068.6c-1.41,0.69-3.73,1.59-6.78,2.02c-1.2,0.17-2.36,0.23-3.43,0.23
				c-1.39,0-2.62-0.1-3.56-0.22c-1.08-0.13-1.92-0.3-2.43-0.42c0.12,0.39,0.27,0.78,0.45,1.16c0,0.01,0.01,0.02,0.01,0.03
				c0.02,0.04,0.04,0.09,0.07,0.13c0.02,0.04,0.04,0.09,0.07,0.13c0.01,0.01,0.01,0.02,0.02,0.03c0.3,0.57,0.67,1.09,1.08,1.55
				c1.44,1.57,2.91,1.82,2.92,1.83l0.02,0l0.02,0.01c0.01,0.01,1.31,0.43,3.29,0.43c1.94,0,3.85-0.39,5.67-1.17
				c1.35-0.69,2.62-1.74,3.25-2.67c0.49-0.72,0.84-1.49,1.05-2.29c0.11-0.43,0.2-1.11,0.15-1.83
				C302.4,1067.81,301.77,1068.19,300.93,1068.6z"/>
			<path id="XMLID_240_" style="&st4;" d="M285.77,1062.71c-0.04,0.06-0.65,0.93-1.14,2.25c-0.36,0.99-0.35,2.44-0.35,2.46v0
				c0,0.34,0.02,0.68,0.06,1.01c0,0.01,0,0.01,0,0.02c0,0.04,0.01,0.08,0.02,0.13c0.03,0.23,0.07,0.47,0.12,0.7
				c0.7,0.18,4.88,1.15,9.55,0.5c2.93-0.41,5.15-1.27,6.5-1.93c1.12-0.54,1.84-1.04,2.12-1.24c-0.28-1.03-1.04-2.64-1.74-3.65
				c-2.01-2.87-4.17-3.6-5.28-3.78c-0.42-0.07-0.76-0.11-1.24-0.11c-0.45,0-1,0.04-1.74,0.12c-0.74,0.08-1.57,0.27-2.53,0.6
				c-1.35,0.45-2.57,1.16-3.53,2.05l-0.03,0.03C286.41,1062,286.11,1062.28,285.77,1062.71z M298.04,1062.04
				c0.96,0,1.74,0.78,1.74,1.74c0,0.96-0.78,1.74-1.74,1.74s-1.74-0.78-1.74-1.74C296.29,1062.82,297.08,1062.04,298.04,1062.04z
				 M289.8,1061.97c1.56,0,2.82,1.26,2.82,2.82c0,1.55-1.26,2.81-2.82,2.81c-1.55,0-2.82-1.26-2.82-2.81
				C286.98,1063.23,288.24,1061.97,289.8,1061.97z"/>
		</g>
	</g>
</g>
<g id="OBJECTS">
	<g>
		<path style="&st5;" d="M614.36,509.64l23.6,193.12l-29.49,3.14l-14.64-126.27C599.85,523.51,614.36,509.64,614.36,509.64z"/>
		<path style="&st6;" d="M574.12,481.74l40.24,27.9c0,0-14.51,13.86-20.53,70c-3.31,30.81-4.09,74.39,1.52,135.43
			c0,0-40.17,7.98-61.61,7.98c-21.47,0-61.65-7.98-61.65-7.98c5.61-61,4.87-104.56,1.56-135.4c0-0.03,0-0.03,0-0.03
			c-6.02-56.17-20.53-70-20.53-70l40.21-27.9c0,0,15.66,18.67,40.41,18.67C558.5,500.41,574.12,481.74,574.12,481.74z"/>
		<path style="&st5;" d="M574.12,481.74c0,0-15.62,18.67-40.38,18.67c-24.75,0-40.41-18.67-40.41-18.67s21.27,6.46,40.41,6.46
			C552.88,488.2,574.12,481.74,574.12,481.74z"/>
		<path style="&st5;" d="M473.65,579.64c0,0,0,0,0,0.03l-14.64,126.23l-29.49-3.14l23.6-193.12
			C453.13,509.64,467.63,523.47,473.65,579.64z"/>
	</g>
	<g>
		<polygon style="&st7;" points="-1077.59,280.51 -1090.36,306.6 -1111.32,306.6 -1112.77,280.51 		"/>
		<path style="&st8;" d="M-1098.88,107.28l-13.99,59.99c-3.35,14.33-4.63,29.03-3.82,43.73l3.92,69.52l1.45,26.09l0.47,8.14
			c0,0-22.03,7.4-53.97,8.58v-0.03V159.93c0-1.86-0.2-3.72-0.64-5.54c-0.51-2.26-1.32-4.49-2.43-6.56l-3.65-6.76l25.11-23.99
			c10.07,6.52,18.65,7.94,18.65,7.94l-6.45-34.81L-1098.88,107.28z M-1123.11,171.49V150.2v-4.16h-27.31v4.16v21.29l13.65,5.27
			L-1123.11,171.49z"/>
		<polygon style="&st7;" points="-1123.11,150.2 -1123.11,171.49 -1136.76,176.76 -1150.42,171.49 -1150.42,150.2 		"/>
		<rect x="-1150.42" y="146.04" style="&st9;" width="27.31" height="4.16"/>
		<path style="&st7;" d="M-1134.23,90.21l6.45,34.81c0,0-8.58-1.42-18.65-7.94c-3.45-2.2-7.03-5.04-10.54-8.62V87.68v-4.6
			c0-2.53-1.39-4.9-3.68-5.95c-2.6-1.18-6.66-2.37-12.44-2.37c-5.75,0-9.8,1.18-12.4,2.37c-2.33,1.05-3.72,3.41-3.72,5.95v4.6v20.78
			c-4.43,4.56-9.06,7.87-13.28,10.31c-8.85,5.1-15.92,6.25-15.92,6.25l6.45-34.81l15.92-21.53c1.49-1.99,3.82-3.18,6.29-3.18h16.66
			h16.69c2.47,0,4.8,1.18,6.29,3.18L-1134.23,90.21z"/>
		<path style="&st10;" d="M-1146.43,117.08l-25.11,23.99l14.57-32.61C-1153.46,112.04-1149.88,114.88-1146.43,117.08z
			 M-1153.73,119.51c0-1.12-0.88-1.99-1.99-1.99c-1.08,0-1.96,0.88-1.96,1.99c0,1.08,0.88,1.96,1.96,1.96
			C-1154.61,121.47-1153.73,120.59-1153.73,119.51z"/>
		<path style="&st7;" d="M-1155.72,117.52c1.12,0,1.99,0.88,1.99,1.99c0,1.08-0.88,1.96-1.99,1.96c-1.08,0-1.96-0.88-1.96-1.96
			C-1157.68,118.4-1156.8,117.52-1155.72,117.52z"/>
		<polygon style="&st9;" points="-1156.97,87.68 -1156.97,108.46 -1171.54,141.07 -1189.21,108.46 -1189.21,87.68 -1173.09,87.68 		
			"/>
		<path style="&st9;" d="M-1156.97,83.08v4.6h-16.12h-16.12v-4.6c0-2.53,1.39-4.9,3.72-5.95c2.6-1.18,6.66-2.37,12.4-2.37
			c5.78,0,9.83,1.18,12.44,2.37C-1158.36,78.18-1156.97,80.54-1156.97,83.08z"/>
		<path style="&st9;" d="M-1164.81,323.29v0.03c-2.67,0.07-5.44,0.14-8.28,0.14c-2.81,0-5.58-0.07-8.25-0.14v-0.03V139.11
			l15.88,15.28c0.44,1.82,0.64,3.68,0.64,5.54V323.29z M-1169.17,162.19c0-2.16-1.76-3.92-3.92-3.92c-2.16,0-3.92,1.76-3.92,3.92
			c0,2.16,1.76,3.92,3.92,3.92C-1170.93,166.11-1169.17,164.36-1169.17,162.19z M-1169.17,208.42c0-2.16-1.76-3.92-3.92-3.92
			c-2.16,0-3.92,1.76-3.92,3.92c0,2.16,1.76,3.92,3.92,3.92C-1170.93,212.34-1169.17,210.59-1169.17,208.42z M-1169.17,254.66
			c0-2.16-1.76-3.92-3.92-3.92c-2.16,0-3.92,1.76-3.92,3.92c0,2.16,1.76,3.92,3.92,3.92
			C-1170.93,258.58-1169.17,256.82-1169.17,254.66z M-1169.17,300.89c0-2.2-1.76-3.92-3.92-3.92c-2.16,0-3.92,1.72-3.92,3.92
			c0,2.16,1.76,3.92,3.92,3.92C-1170.93,304.81-1169.17,303.05-1169.17,300.89z"/>
		<path style="&st10;" d="M-1165.46,154.39l-15.88-15.28l-21.16-20.34c4.22-2.43,8.85-5.75,13.28-10.31l17.67,32.61l3.65,6.76
			C-1166.77,149.89-1165.96,152.12-1165.46,154.39z M-1188.47,119.51c0-1.12-0.88-1.99-1.99-1.99c-1.08,0-1.96,0.88-1.96,1.99
			c0,1.08,0.88,1.96,1.96,1.96C-1189.35,121.47-1188.47,120.59-1188.47,119.51z"/>
		<circle style="&st7;" cx="-1173.09" cy="162.19" r="3.92"/>
		<circle style="&st7;" cx="-1173.09" cy="208.42" r="3.92"/>
		<circle style="&st7;" cx="-1173.09" cy="254.66" r="3.92"/>
		<path style="&st7;" d="M-1173.09,296.97c2.16,0,3.92,1.72,3.92,3.92c0,2.16-1.76,3.92-3.92,3.92c-2.16,0-3.92-1.76-3.92-3.92
			C-1177.01,298.69-1175.26,296.97-1173.09,296.97z"/>
		<path style="&st8;" d="M-1181.34,323.29v0.03c-31.9-1.15-53.97-8.58-53.97-8.58l0.44-8.14l1.49-26.09l3.89-69.52
			c0.84-14.7-0.44-29.4-3.79-43.73l-14.02-59.99l35.35-17.07l-6.45,34.81c0,0,7.06-1.15,15.92-6.25l21.16,20.34V323.29z
			 M-1195.74,171.49V150.2v-4.16h-27.34v4.16v21.29l13.69,5.27L-1195.74,171.49z"/>
		<path style="&st7;" d="M-1190.46,117.52c1.12,0,1.99,0.88,1.99,1.99c0,1.08-0.88,1.96-1.99,1.96c-1.08,0-1.96-0.88-1.96-1.96
			C-1192.42,118.4-1191.54,117.52-1190.46,117.52z"/>
		<polygon style="&st7;" points="-1195.74,150.2 -1195.74,171.49 -1209.39,176.76 -1223.08,171.49 -1223.08,150.2 		"/>
		<rect x="-1223.08" y="146.04" style="&st9;" width="27.34" height="4.16"/>
		<polygon style="&st7;" points="-1233.38,280.51 -1234.87,306.6 -1255.79,306.6 -1268.6,280.51 		"/>
		<polygon style="&st9;" points="-1268.6,280.51 -1258.76,280.51 -1259.98,272.57 		"/>
		<path style="&st10;" d="M-1233.28,167.26l-14.03-59.99c0,0-26.22,70.16-12.67,165.29l1.22,7.94h25.37l3.89-69.52
			C-1228.65,196.29-1229.94,181.59-1233.28,167.26z"/>
		<polygon style="&st9;" points="-1077.59,280.51 -1087.43,280.51 -1086.21,272.57 		"/>
		<path style="&st10;" d="M-1112.9,167.26l14.03-59.99c0,0,26.22,70.16,12.67,165.29l-1.22,7.94h-25.37l-3.89-69.52
			C-1117.53,196.29-1116.25,181.59-1112.9,167.26z"/>
	</g>
	<g>
		<path style="&st11;" d="M404.75,1002.02c0.23,1-0.4,2.01-1.41,2.24l-24.97,5.46c-0.94,0.2-1.87-0.37-2.14-1.31l-3.61-12.82
			l28.92-6.16v0.03L404.75,1002.02z"/>
		<path style="&st12;" d="M404.55,985.85c0.37,1.51-0.6,3.05-2.14,3.38l-0.87,0.2l-28.92,6.16l-2.44,0.5
			c-1.47,0.33-2.91-0.57-3.31-2.04l-8.1-31.77h-0.03l-4.18-126.59l9.31-20.45L404.55,985.85z"/>
		<path style="&st12;" d="M363.85,815.24l-9.31,20.45l-33.34-22.13c7.33-8.3,9.04-17.71,9.04-17.71l21.69,6.69
			C357.89,804.36,362.41,809.18,363.85,815.24z"/>
		<path style="&st13;" d="M358.86,966.24c0.23,6.09-1.47,12.12-4.82,17.2l-6.76,10.31h-55.87h-55.87l-6.76-10.31
			c-3.35-5.09-5.05-11.11-4.85-17.2l0.13-3.95l4.22-126.59l33.34-22.16c5.76,6.53,15.06,12.35,29.79,12.35
			c14.73,0,24-5.82,29.79-12.32l33.34,22.13l4.18,126.59L358.86,966.24z M347.28,937.42v-3.65h-31.97v3.65H347.28z M267.51,937.42
			v-3.65h-31.97v3.65H267.51z"/>
		<path style="&st11;" d="M347.28,993.75v7c0,3.88-3.15,7-7,7h-48.87h-48.87c-3.88,0-7-3.11-7-7v-7h55.87H347.28z"/>
		<rect x="315.31" y="933.77" style="&st14;" width="31.97" height="3.65"/>
		<path style="&st11;" d="M321.2,813.57c-5.79,6.49-15.06,12.32-29.79,12.32c-14.73,0-24.03-5.82-29.79-12.35
			c-7.33-8.3-9.04-17.67-9.04-17.67l8.5-2.61c0,0,2.51,24.47,30.33,24.47c27.82,0,30.33-24.47,30.33-24.47l8.5,2.61
			C330.24,795.86,328.53,805.27,321.2,813.57z"/>
		<path style="&st14;" d="M321.74,793.25c0,0-2.51,24.47-30.33,24.47c-27.82,0-30.33-24.47-30.33-24.47s14.36,8.94,30.33,8.94
			C307.35,802.19,321.74,793.25,321.74,793.25z"/>
		<rect x="235.55" y="933.77" style="&st14;" width="31.97" height="3.65"/>
		<path style="&st12;" d="M261.62,813.54l-33.34,22.16l-9.31-20.45c1.44-6.06,5.96-10.88,11.88-12.69l21.72-6.69
			C252.59,795.86,254.29,805.24,261.62,813.54z"/>
		<path style="&st12;" d="M218.98,815.24l9.31,20.45l-4.22,126.59l-8.13,31.77c-0.37,1.47-1.81,2.38-3.28,2.04l-2.48-0.54
			l-28.89-6.13l-0.87-0.2c-1.54-0.33-2.51-1.87-2.14-3.38L218.98,815.24z"/>
		<path style="&st11;" d="M210.18,995.56v0.03l-3.58,12.82c-0.27,0.94-1.21,1.51-2.18,1.31l-24.94-5.46
			c-1.04-0.23-1.64-1.24-1.41-2.24l3.21-12.55v-0.03L210.18,995.56z"/>
	</g>
	<g>
		<path style="&st15;" d="M-483.21,265.46l1.5,6.39c-7.89,6.18-18.04,8.44-29.84,7.89l-1.83-6.6h0.03
			C-503.32,273.25-493.27,270.69-483.21,265.46z"/>
		<path style="&st16;" d="M-524.76,89.57l41.55,175.88c-10.06,5.23-20.12,7.8-30.14,7.67h-0.03l-26.66-96.55
			C-539.31,113.39-524.76,89.57-524.76,89.57z"/>
		<path style="&st17;" d="M-549.7,77.47l24.95,12.11c0,0-14.55,23.82-15.29,87.01c-0.34,28.89,2.23,66.01,10.39,112.84
			c0,0-20.21,10.85-58,12.66V142.43c-1.93-2.97-3.79-5.9-5.56-8.84l21.34-12.14c7.18,3.15,14.43,4.71,19.23,5.44
			c3.15,0.49,6.05-1.74,6.39-4.92C-545.33,112.96-544.41,94.44-549.7,77.47z"/>
		<path style="&st16;" d="M-646.68,77.47c5.81-18.74,19.2-35.59,48.49-35.59c29.29,0,42.68,16.85,48.49,35.59
			c5.29,16.97,4.37,35.49,3.45,44.51c-0.34,3.18-3.24,5.41-6.39,4.92c-4.8-0.73-12.05-2.29-19.23-5.44
			c-6.45-2.81-12.9-6.97-17.49-13.02c4.71-10.03,8.44-19.93,10.79-29.75c0.4-1.62,0.76-3.27,1.07-4.89
			c1.31-6.73-1.74-13.6-7.77-16.91c-3.27-1.77-7.52-3.15-12.93-3.15c-5.41,0-9.69,1.38-12.96,3.15c-5.99,3.3-9.05,10.18-7.77,16.91
			c0.31,1.62,0.67,3.27,1.07,4.89c2.35,9.81,6.08,19.72,10.85,29.72c-4.59,6.05-11.04,10.21-17.52,13.05
			c-7.18,3.15-14.43,4.71-19.23,5.44c-3.15,0.49-6.05-1.74-6.39-4.92C-651.05,112.93-651.97,94.4-646.68,77.47z"/>
		<path style="&st15;" d="M-571.87,121.46l-21.34,12.14c-1.74-2.84-3.42-5.66-5.01-8.47l0.12-0.09c3.18-5.56,6.11-11.1,8.74-16.6
			C-584.77,114.49-578.32,118.65-571.87,121.46z M-585.26,120.45c0-1.44-1.16-2.6-2.6-2.6c-1.44,0-2.6,1.16-2.6,2.6
			c0,1.41,1.16,2.57,2.6,2.57C-586.42,123.02-585.26,121.86-585.26,120.45z"/>
		<path style="&st18;" d="M-585.26,56.89c6.02,3.3,9.08,10.18,7.77,16.91c-0.31,1.62-0.67,3.27-1.07,4.89
			c-13.12-7.22-26.17-7.22-39.29,0c-0.4-1.62-0.76-3.27-1.07-4.89c-1.28-6.73,1.77-13.6,7.77-16.91c3.27-1.77,7.55-3.15,12.96-3.15
			C-592.78,53.74-588.53,55.12-585.26,56.89z"/>
		<path style="&st18;" d="M-589.36,108.44c-2.63,5.5-5.56,11.04-8.74,16.6l-0.12,0.09c-3.21-5.59-6.15-11.16-8.77-16.72
			c-4.77-10-8.5-19.9-10.85-29.72c13.12-7.22,26.17-7.22,39.29,0C-580.92,88.5-584.65,98.41-589.36,108.44z"/>
		<path style="&st19;" d="M-587.86,117.85c1.44,0,2.6,1.16,2.6,2.6c0,1.41-1.16,2.57-2.6,2.57c-1.44,0-2.6-1.16-2.6-2.57
			C-590.46,119.02-589.29,117.85-587.86,117.85z"/>
		<path style="&st15;" d="M-587.64,142.43v159.65c-3.36,0.15-6.88,0.24-10.55,0.24V136.44L-587.64,142.43z M-590.61,148.49
			c0-1.44-1.16-2.6-2.6-2.6s-2.6,1.16-2.6,2.6c0,1.44,1.16,2.6,2.6,2.6S-590.61,149.92-590.61,148.49z M-590.61,176.03
			c0-1.44-1.16-2.6-2.6-2.6s-2.6,1.16-2.6,2.6c0,1.44,1.16,2.6,2.6,2.6S-590.61,177.47-590.61,176.03z M-590.61,203.58
			c0-1.44-1.16-2.6-2.6-2.6s-2.6,1.16-2.6,2.6c0,1.44,1.16,2.6,2.6,2.6S-590.61,205.02-590.61,203.58z M-590.61,231.13
			c0-1.44-1.16-2.6-2.6-2.6s-2.6,1.16-2.6,2.6c0,1.44,1.16,2.6,2.6,2.6S-590.61,232.56-590.61,231.13z M-590.61,258.67
			c0-1.44-1.16-2.6-2.6-2.6s-2.6,1.16-2.6,2.6c0,1.44,1.16,2.6,2.6,2.6S-590.61,260.11-590.61,258.67z M-590.61,286.22
			c0-1.44-1.16-2.6-2.6-2.6s-2.6,1.16-2.6,2.6c0,1.44,1.16,2.6,2.6,2.6S-590.61,287.65-590.61,286.22z"/>
		<path style="&st15;" d="M-587.64,142.43l-10.55-5.99v-0.03l-26.32-14.95c6.48-2.84,12.93-7,17.52-13.05
			c2.63,5.56,5.56,11.13,8.77,16.72c1.59,2.81,3.27,5.63,5.01,8.47C-591.43,136.53-589.57,139.47-587.64,142.43z M-605.96,120.45
			c0-1.44-1.16-2.6-2.6-2.6c-1.41,0-2.57,1.16-2.57,2.6c0,1.41,1.16,2.57,2.57,2.57C-607.12,123.02-605.96,121.86-605.96,120.45z"/>
		<circle style="&st19;" cx="-593.21" cy="148.49" r="2.6"/>
		<circle style="&st19;" cx="-593.21" cy="176.03" r="2.6"/>
		<circle style="&st19;" cx="-593.21" cy="203.58" r="2.6"/>
		<circle style="&st19;" cx="-593.21" cy="231.13" r="2.6"/>
		<circle style="&st19;" cx="-593.21" cy="258.67" r="2.6"/>
		<circle style="&st19;" cx="-593.21" cy="286.22" r="2.6"/>
		<path style="&st17;" d="M-598.19,136.44v165.89c-44.57,0-68.54-12.9-68.54-12.9c8.16-46.84,10.73-83.95,10.39-112.84
			c-0.73-63.19-15.32-87.01-15.32-87.01l24.98-12.11c-5.29,16.94-4.37,35.46-3.45,44.51c0.34,3.18,3.24,5.41,6.39,4.92
			c4.8-0.73,12.05-2.29,19.23-5.44l26.32,14.95V136.44z"/>
		<path style="&st19;" d="M-608.55,117.85c1.44,0,2.6,1.16,2.6,2.6c0,1.41-1.16,2.57-2.6,2.57c-1.41,0-2.57-1.16-2.57-2.57
			C-611.12,119.02-609.96,117.85-608.55,117.85z"/>
		<path style="&st16;" d="M-656.34,176.58l-26.69,96.55c-10.06,0.12-20.09-2.45-30.14-7.67l41.52-175.88
			C-671.66,89.57-657.07,113.39-656.34,176.58z"/>
		<path style="&st15;" d="M-683.03,273.13l-1.83,6.6c-11.77,0.55-21.95-1.71-29.81-7.89l1.5-6.39
			C-703.12,270.69-693.09,273.25-683.03,273.13z"/>
	</g>
	<g>
		<polygon style="&st17;" points="-703.36,639.55 -657.57,723.53 -665.54,733.14 -668.03,728.23 -730.27,605.75 -727.82,605.75 
			-727.82,604.25 -722.61,604.25 -709.87,627.59 		"/>
		<polygon style="&st15;" points="-668.03,728.23 -679.66,737.25 -730.47,605.75 -730.27,605.75 		"/>
		<polygon style="&st17;" points="-679.66,737.25 -676.25,746.07 -720.79,758.54 -745.34,604.25 -734.06,604.25 -734.06,605.75 
			-730.47,605.75 		"/>
		<path style="&st15;" d="M-690.03,636.42l-13.34,3.13l-6.51-11.97l-9.5-46.98l2.12-8.45c1.39-5.55,2.08-11.26,2.06-16.97
			c0,0-0.16-32-0.18-39.58c0.73,0.96,1.32,2.06,1.76,3.22C-700.83,554.41-693.5,593.99-690.03,636.42z"/>
		<polygon style="&st15;" points="-745.34,604.25 -720.79,758.54 -721.56,753.74 -740.29,758.29 		"/>
		<rect x="-727.82" y="593.49" style="&st20;" width="5.21" height="10.76"/>
		<polygon style="&st15;" points="-734.06,592.03 -734.06,593.49 -734.06,604.25 -734.06,605.75 -730.47,605.75 -730.27,605.75 
			-727.82,605.75 -727.82,604.25 -727.82,593.49 -727.82,592.03 		"/>
		<path style="&st20;" d="M-734.06,593.49v10.76h-11.28h-4.93v-4.2h1.53c0.62,0,1.14-0.53,1.14-1.14c0-0.64-0.53-1.14-1.14-1.14
			h-1.53v-4.27H-734.06z"/>
		<path style="&st17;" d="M-740.29,758.29l0.21,6.49h-17.49V605.75h6.37c0.53,0,0.94-0.43,0.94-0.94v-0.57h4.93L-740.29,758.29z"/>
		<path style="&st15;" d="M-748.74,597.76h-1.53h-2.1h-4.07c-0.62,0-1.14,0.5-1.14,1.14c0,0.62,0.53,1.14,1.14,1.14h4.07h2.1h1.53
			c0.62,0,1.14-0.53,1.14-1.14C-747.6,598.26-748.12,597.76-748.74,597.76z"/>
		<path style="&st17;" d="M-757.58,605.75v159.02h-17.47l0.21-6.49l5.02-154.04h4.96v0.57c0,0.5,0.41,0.94,0.94,0.94H-757.58z"/>
		<path style="&st20;" d="M-756.44,597.76h4.07v-2.79c0-0.53-0.43-0.98-0.96-0.98h-4.25h-4.22c-0.55,0-0.98,0.46-0.98,0.98v7.83
			c0,0.55,0.43,0.98,0.98,0.98h4.22h4.25c0.53,0,0.96-0.43,0.96-0.98v-2.76h-4.07c-0.62,0-1.14-0.53-1.14-1.14
			C-757.58,598.26-757.05,597.76-756.44,597.76z"/>
		<path style="&st15;" d="M-751.21,592.03h-6.37h-6.35c-0.53,0-0.94,0.43-0.94,0.96v0.5v10.76v0.57c0,0.5,0.41,0.94,0.94,0.94h6.35
			h6.37c0.53,0,0.94-0.43,0.94-0.94v-0.57v-4.2h-2.1v2.76c0,0.55-0.43,0.98-0.96,0.98h-4.25h-4.22c-0.55,0-0.98-0.43-0.98-0.98
			v-7.83c0-0.53,0.43-0.98,0.98-0.98h4.22h4.25c0.53,0,0.96,0.46,0.96,0.98v2.79h2.1v-4.27v-0.5
			C-750.27,592.46-750.68,592.03-751.21,592.03z"/>
		<path style="&st17;" d="M-715.38,515.61c-1.21-1.6-2.83-2.9-4.68-3.79l-10.25-4.8c0,0-8.82,40.72-27.27,40.72
			c-18.45,0-27.25-40.72-27.25-40.72l-10.28,4.8c-1.83,0.87-3.45,2.17-4.66,3.77c-0.05,7.49-0.18,39.6-0.18,39.6
			c-0.05,5.71,0.66,11.42,2.06,16.97l2.12,8.45v0.02l3.22,12.86h5.23v-1.46h6.23v1.46h16.21v-0.5c0-0.53,0.41-0.96,0.94-0.96h6.35
			h6.37c0.53,0,0.94,0.43,0.94,0.96v0.5h16.21v-1.46h6.23v1.46h5.21l3.24-12.88l2.12-8.45c1.39-5.55,2.08-11.26,2.06-16.97
			C-715.19,555.19-715.35,523.19-715.38,515.61z"/>
		<path style="&st20;" d="M-733.1,505.72c0,0-8.52,39.3-24.48,39.3c-15.96,0-24.48-39.3-24.48-39.3l-2.76,1.3
			c0,0,8.79,40.72,27.25,40.72c18.45,0,27.27-40.72,27.27-40.72L-733.1,505.72z"/>
		<path style="&st18;" d="M-757.58,512.35c-13.41,0-24.48-6.62-24.48-6.62s8.52,39.3,24.48,39.3c15.96,0,24.48-39.3,24.48-39.3
			S-744.15,512.35-757.58,512.35z"/>
		<polygon style="&st20;" points="-764.86,593.49 -764.86,604.25 -769.82,604.25 -781.08,604.25 -781.08,593.49 		"/>
		<polygon style="&st15;" points="-769.82,604.25 -774.84,758.29 -793.59,753.74 		"/>
		<polygon style="&st17;" points="-769.82,604.25 -793.59,753.74 -794.35,758.54 -838.9,746.07 -835.5,737.25 -784.69,605.75 
			-781.08,605.75 -781.08,604.25 		"/>
		<polygon style="&st15;" points="-787.31,592.03 -787.31,593.49 -787.31,604.25 -787.31,605.75 -784.87,605.75 -784.69,605.75 
			-781.08,605.75 -781.08,604.25 -781.08,593.49 -781.08,592.03 		"/>
		<polygon style="&st15;" points="-784.69,605.75 -835.5,737.25 -847.1,728.23 -784.87,605.75 		"/>
		<polygon style="&st17;" points="-784.87,605.75 -847.1,728.23 -849.59,733.14 -857.59,723.53 -811.8,639.55 -805.26,627.59 
			-805.26,627.56 -792.54,604.25 -787.31,604.25 -787.31,605.75 		"/>
		<rect x="-792.54" y="593.49" style="&st20;" width="5.23" height="10.76"/>
		<path style="&st15;" d="M-795.76,580.61v0.02l-9.5,46.93v0.02l-6.53,11.97l-13.31-3.13c3.47-42.43,10.8-82.01,23.57-117.59
			c0.43-1.16,1.03-2.26,1.78-3.24c-0.05,7.49-0.18,39.6-0.18,39.6c-0.05,5.71,0.66,11.42,2.06,16.97L-795.76,580.61z"/>
	</g>
	<g>
		<polygon style="&st21;" points="183.37,163.25 186.47,177.86 161.5,184.29 157.75,168.66 170.24,166.02 170.55,167.46 
			176.71,166.17 176.4,164.73 		"/>
		<path style="&st21;" d="M157.75,42.36l24.06,113.55l-6.96,1.46l-0.29-1.4l-6.14,1.31l0.29,1.4l-12.73,2.66l-14.5-60.34
			l10.58-62.56l3.02,0.98C156.42,39.83,157.44,40.96,157.75,42.36z"/>
		<polygon style="&st22;" points="176.4,164.73 174.85,157.37 174.56,155.97 168.42,157.28 168.71,158.68 170.24,166.02 
			170.55,167.46 176.71,166.17 		"/>
		<g>
			<polygon style="&st23;" points="183.55,155.55 181.82,155.91 174.85,157.37 176.4,164.73 183.37,163.25 185.1,162.89 			"/>
			<polygon style="&st23;" points="155.98,161.34 154.4,161.67 155.96,169.03 157.75,168.66 170.24,166.02 168.71,158.68 			"/>
		</g>
		<path style="&st23;" d="M172.19,260.05c0,0-26.86,10.18-72.83,10.18c-46,0-72.85-10.18-72.85-10.18
			c3.39-37.86,11.18-68.53,18.38-90.31c8.03-24.17,15.37-37.41,15.37-37.41h5.97v1.42h5.92v-1.42h17.59v0.31
			c0,0.6,0.49,1.11,1.09,1.11h17.05c0.6,0,1.11-0.51,1.11-1.11v-0.31h17.59v1.42h5.9v-1.42h5.97c0,0,7.34,13.24,15.37,37.41
			C161.01,191.52,168.78,222.19,172.19,260.05z M139.15,146.59l-0.91-2.95l-20.98,6.52l0.91,2.93L139.15,146.59z M118.34,180.26
			c0-1.73-1.4-3.13-3.13-3.13s-3.13,1.4-3.13,3.13c0,1.73,1.4,3.13,3.13,3.13S118.34,181.99,118.34,180.26z M118.34,201.19
			c0-1.73-1.4-3.13-3.13-3.13s-3.13,1.4-3.13,3.13s1.4,3.13,3.13,3.13S118.34,202.92,118.34,201.19z M86.61,180.26
			c0-1.73-1.4-3.13-3.13-3.13c-1.73,0-3.13,1.4-3.13,3.13c0,1.73,1.4,3.13,3.13,3.13C85.21,183.38,86.61,181.99,86.61,180.26z
			 M86.61,201.19c0-1.73-1.4-3.13-3.13-3.13c-1.73,0-3.13,1.4-3.13,3.13s1.4,3.13,3.13,3.13C85.21,204.32,86.61,202.92,86.61,201.19
			z M80.53,153.09l0.91-2.93l-20.98-6.52l-0.91,2.95L80.53,153.09z"/>
		<path style="&st23;" d="M152.05,38.43l-10.58,62.56l-3.04,17.99h-5.97v-1.4h-5.9v1.4h-9.65v-10.25v-4.24
			c0-6.39-1.77-12.64-5.12-18.1c-0.18-0.29-0.35-0.58-0.53-0.86c13.75-8.87,21.58-17.54,25.04-21.93c1.24-1.6,0.98-3.88-0.6-5.15
			l-2.06-1.66l10.56-11.78c1.49-1.66,1.37-4.21-0.24-5.77l-5.52-5.23L152.05,38.43z"/>
		<path style="&st21;" d="M143.96,39.25c1.62,1.55,1.73,4.1,0.24,5.77L133.65,56.8l-19.6-15.79c1.44-2.64,2.26-5.21,2.64-7.67
			c1.02-6.39-0.89-11.82-2.35-14.81c-0.75-1.57-2.33-2.53-4.06-2.53v-4.75h1.53c1.69,0,3.3,0.67,4.52,1.82l22.11,20.96L143.96,39.25
			z"/>
		<polygon style="&st21;" points="138.24,143.64 139.15,146.59 118.17,153.09 117.26,150.16 		"/>
		<rect x="132.47" y="118.98" style="&st12;" width="5.97" height="13.35"/>
		<path style="&st22;" d="M135.71,58.46c1.57,1.26,1.84,3.55,0.6,5.15c-3.46,4.39-11.29,13.06-25.04,21.93
			c-3.28-5.34-7.63-12.44-11.91-19.54c5.9-9.8,11.78-19.63,14.68-24.99l19.6,15.79L135.71,58.46z"/>
		<polygon style="&st21;" points="126.57,117.58 126.57,118.98 126.57,132.33 126.57,133.75 132.47,133.75 132.47,132.33 
			132.47,118.98 132.47,117.58 		"/>
		<path style="&st12;" d="M126.57,118.98v13.35h-17.59v-5.43h1.66c0.69,0,1.22-0.55,1.22-1.24c0-0.67-0.53-1.22-1.22-1.22h-1.66
			v-5.46h7.94H126.57z"/>
		<path style="&st23;" d="M116.93,108.73v10.25h-7.94v-0.29c0-0.62-0.51-1.11-1.11-1.11H90.82c-0.6,0-1.09,0.49-1.09,1.11v0.29
			H72.15v-1.4h-5.92v1.4h-5.97l-3.04-17.99L46.65,38.43l13.62-4.41l-5.52,5.23c-1.62,1.55-1.73,4.1-0.24,5.77L65.05,56.8l-2.06,1.66
			c-1.57,1.26-1.82,3.57-0.58,5.17c4.99,6.34,19.07,21.51,46.75,33.42c2.62,1.11,4.75,3.06,6.1,5.43c-0.02,0-0.02,0-0.04,0
			c-1.73,0-3.13,1.4-3.13,3.13c0,1.73,1.4,3.13,3.13,3.13c0.62,0,1.2-0.2,1.69-0.51C116.93,108.4,116.93,108.56,116.93,108.73z
			 M86.61,90.39c0-1.73-1.4-3.13-3.13-3.13c-1.73,0-3.13,1.4-3.13,3.13c0,1.73,1.4,3.13,3.13,3.13
			C85.21,93.52,86.61,92.12,86.61,90.39z M86.61,105.61c0-1.73-1.4-3.13-3.13-3.13c-1.73,0-3.13,1.4-3.13,3.13
			c0,1.73,1.4,3.13,3.13,3.13C85.21,108.73,86.61,107.34,86.61,105.61z"/>
		<path style="&st22;" d="M115.26,102.48c-1.35-2.37-3.48-4.32-6.1-5.43C81.49,85.14,67.4,69.97,62.41,63.63
			c-1.24-1.6-1-3.9,0.58-5.17l2.06-1.66l19.6-15.79c2.91,5.37,8.76,15.19,14.7,24.99c4.28,7.1,8.63,14.19,11.91,19.54
			c0.18,0.29,0.35,0.58,0.53,0.86c3.35,5.46,5.12,11.71,5.12,18.1v4.24c0-0.18,0-0.33-0.02-0.51
			C116.84,106.16,116.24,104.21,115.26,102.48z"/>
		<circle style="&st19;" cx="115.22" cy="180.26" r="3.13"/>
		<circle style="&st19;" cx="115.22" cy="201.19" r="3.13"/>
		<path style="&st19;" d="M116.9,108.22c-0.49,0.31-1.06,0.51-1.69,0.51c-1.73,0-3.13-1.4-3.13-3.13c0-1.73,1.4-3.13,3.13-3.13
			c0.02,0,0.02,0,0.04,0C116.24,104.21,116.84,106.16,116.9,108.22z"/>
		<path style="&st24;" d="M114.33,18.52c-0.75-1.57-2.33-2.53-4.06-2.53H99.36H88.43c-1.73,0-3.3,0.95-4.06,2.53
			c-1.46,2.99-3.37,8.43-2.35,14.81c0.38,2.46,1.2,5.03,2.64,7.67c2.91,5.37,8.76,15.19,14.7,24.99c5.9-9.8,11.78-19.63,14.68-24.99
			c1.44-2.64,2.26-5.21,2.64-7.67C117.7,26.95,115.79,21.51,114.33,18.52z"/>
		<path style="&st21;" d="M110.27,11.24v4.75H99.36H88.43c-1.73,0-3.3,0.95-4.06,2.53c-1.46,2.99-3.37,8.43-2.35,14.81
			c0.38,2.46,1.2,5.03,2.64,7.67L65.05,56.8L54.5,45.02c-1.49-1.66-1.37-4.21,0.24-5.77l5.52-5.23l22.11-20.96
			c1.22-1.15,2.84-1.82,4.52-1.82h12.46H110.27z"/>
		<path style="&st19;" d="M107.88,117.58H90.82c-0.6,0-1.09,0.49-1.09,1.11v0.29v13.35v0.31c0,0.6,0.49,1.11,1.09,1.11h17.05
			c0.6,0,1.11-0.51,1.11-1.11v-0.31v-5.43h-2.37v3.84c0,0.44-0.35,0.82-0.8,0.82H92.91c-0.47,0-0.82-0.38-0.82-0.82V120.6
			c0-0.44,0.35-0.82,0.82-0.82h12.91c0.44,0,0.8,0.38,0.8,0.82v3.84h2.37v-5.46v-0.29C108.99,118.07,108.48,117.58,107.88,117.58z"
			/>
		<path style="&st12;" d="M106.61,126.9v3.84c0,0.44-0.35,0.82-0.8,0.82H92.91c-0.47,0-0.82-0.38-0.82-0.82V120.6
			c0-0.44,0.35-0.82,0.82-0.82h12.91c0.44,0,0.8,0.38,0.8,0.82v3.84h-6.03c-0.69,0-1.22,0.55-1.22,1.22c0,0.69,0.53,1.24,1.22,1.24
			H106.61z"/>
		<path style="&st19;" d="M110.65,124.44h-1.66h-2.37h-6.03c-0.69,0-1.22,0.55-1.22,1.22c0,0.69,0.53,1.24,1.22,1.24h6.03h2.37h1.66
			c0.69,0,1.22-0.55,1.22-1.24C111.87,124.99,111.34,124.44,110.65,124.44z"/>
		<rect x="72.15" y="118.98" style="&st12;" width="17.59" height="13.35"/>
		<circle style="&st19;" cx="83.48" cy="90.39" r="3.13"/>
		<circle style="&st19;" cx="83.48" cy="105.61" r="3.13"/>
		<circle style="&st19;" cx="83.48" cy="180.26" r="3.13"/>
		<circle style="&st19;" cx="83.48" cy="201.19" r="3.13"/>
		<polygon style="&st21;" points="81.44,150.16 80.53,153.09 59.55,146.59 60.46,143.64 		"/>
		<polygon style="&st21;" points="66.23,117.58 66.23,118.98 66.23,132.33 66.23,133.75 72.15,133.75 72.15,132.33 72.15,118.98 
			72.15,117.58 		"/>
		<rect x="60.26" y="118.98" style="&st12;" width="5.97" height="13.35"/>
		<path style="&st21;" d="M46.65,38.43l10.58,62.56l-14.5,60.34l-12.71-2.66l0.29-1.4l-6.17-1.31l-0.29,1.4l-6.96-1.46L40.97,42.36
			c0.29-1.4,1.31-2.53,2.66-2.95L46.65,38.43z"/>
		<polygon style="&st21;" points="40.95,168.66 37.2,184.29 12.23,177.86 15.33,163.25 22.3,164.73 21.98,166.17 28.15,167.46 
			28.46,166.02 		"/>
		<polygon style="&st22;" points="24.14,155.97 23.85,157.37 22.29,164.73 21.98,166.17 28.15,167.46 28.46,166.02 30.01,158.68 
			30.3,157.28 		"/>
		<g>
			<polygon style="&st23;" points="42.72,161.34 30.01,158.68 28.46,166.02 40.95,168.66 42.74,169.03 44.29,161.67 			"/>
			<polygon style="&st23;" points="15.15,155.55 13.6,162.89 15.33,163.25 22.29,164.73 23.85,157.37 16.88,155.91 			"/>
		</g>
	</g>
	<g>
		<text transform="matrix(1 0 0 1 201.1588 397.9983)" style="&st4; font-family:'CooperHewitt-Light'; font-size:28.7736px;">Winter Clothes</text>
		<g>
			<path style="&st4;" d="M390.69,407.92H193.13v-42.19h197.56V407.92z M194.13,406.92h195.56v-40.19H194.13V406.92z"/>
		</g>
	</g>
</g>
</svg>
